<?xml version="1.0" standalone="no"?>
<!DOCTYPE svg PUBLIC "-//W3C//DTD SVG 20010904//EN"
 "http://www.w3.org/TR/2001/REC-SVG-20010904/DTD/svg10.dtd">
<svg version="1.0" xmlns="http://www.w3.org/2000/svg"
 width="260.000000pt" height="260.000000pt" viewBox="0 0 260.000000 260.000000"
 preserveAspectRatio="xMidYMid meet">
<metadata>
Created by potrace 1.11, written by Peter Selinger 2001-2013
</metadata>
<g transform="translate(0.000000,260.000000) scale(0.100000,-0.100000)"
fill="#000000" stroke="none">
<path d="M0 1300 l0 -1300 1300 0 1300 0 0 1300 0 1300 -1300 0 -1300 0 0
-1300z m1498 218 c29 -29 -1 -88 -44 -88 -22 0 -44 25 -44 49 0 17 38 51 58
51 10 0 23 -5 30 -12z m-843 -39 c22 -6 55 -20 73 -31 l33 -21 -32 -33 c-31
-32 -34 -33 -51 -17 -24 21 -115 28 -148 11 -36 -19 -70 -76 -70 -115 0 -70
41 -112 111 -113 58 0 75 14 86 70 8 43 10 45 47 48 l38 3 -7 -51 c-13 -96
-17 -103 -70 -130 -94 -47 -206 -26 -263 48 -37 49 -44 150 -13 209 26 52 83
100 141 118 56 17 75 18 125 4z m-315 -11 c-1 -7 -18 -96 -38 -198 l-38 -185
-47 -3 c-45 -3 -47 -2 -42 20 6 27 75 370 75 375 0 2 20 3 45 3 30 0 45 -4 45
-12z m690 -100 c44 -30 46 -42 15 -62 -25 -16 -29 -16 -60 -1 -42 19 -80 11
-103 -22 -20 -32 -19 -90 2 -111 20 -20 81 -19 104 1 15 14 20 13 46 -8 l28
-22 -36 -28 c-43 -33 -119 -44 -166 -25 -53 22 -80 64 -80 126 0 59 15 96 52
131 51 48 143 58 198 21z m217 2 l-5 -21 33 21 c40 25 80 27 71 4 -3 -9 -6
-26 -6 -39 0 -18 -7 -24 -36 -30 -45 -8 -80 -44 -89 -93 -3 -20 -11 -58 -17
-84 l-10 -48 -45 0 c-38 0 -44 3 -39 18 3 9 15 69 26 132 32 174 25 160 77
160 41 0 45 -2 40 -20z m239 3 c-2 -10 -12 -58 -21 -108 -9 -49 -21 -111 -27
-137 l-10 -48 -45 0 c-38 0 -44 3 -39 18 3 9 15 69 26 132 32 174 25 160 77
160 37 0 44 -3 39 -17z m174 1 c0 -14 2 -14 22 0 26 19 90 21 121 5 12 -6 30
-21 39 -33 10 -11 18 -16 18 -9 0 21 66 53 109 53 34 0 49 -6 72 -29 35 -35
36 -65 11 -191 l-18 -85 -46 -3 -45 -3 20 102 20 102 -22 19 c-31 25 -48 23
-80 -10 -22 -21 -31 -46 -46 -120 l-17 -92 -44 0 c-50 0 -49 -2 -29 90 22 99
20 129 -10 140 -27 10 -51 5 -77 -18 -15 -12 -24 -44 -54 -189 -4 -20 -11 -23
-50 -23 -38 0 -45 3 -40 18 2 9 12 55 21 102 9 47 21 109 26 138 l10 52 45 0
c33 0 44 -4 44 -16z m707 -4 c40 -24 63 -67 63 -120 l0 -40 -115 0 c-114 0
-115 0 -105 -20 17 -31 55 -42 102 -29 36 9 43 8 61 -9 24 -24 16 -39 -29 -58
-70 -29 -161 -11 -202 41 -26 33 -30 120 -8 163 18 34 54 68 86 81 42 17 112
13 147 -9z"/>
<path d="M2253 1310 c-12 -5 -27 -18 -33 -29 -10 -20 -8 -21 60 -21 75 0 88
11 52 43 -20 19 -45 21 -79 7z"/>
</g>
</svg>
