<?xml version="1.0" encoding="utf-8"?>
<!-- Generator: Adobe Illustrator 17.1.0, SVG Export Plug-In . SVG Version: 6.00 Build 0)  -->
<!DOCTYPE svg PUBLIC "-//W3C//DTD SVG 1.1//EN" "http://www.w3.org/Graphics/SVG/1.1/DTD/svg11.dtd">
<svg version="1.1" id="Camada_1" xmlns="http://www.w3.org/2000/svg" xmlns:xlink="http://www.w3.org/1999/xlink" x="0px" y="0px"
	 width="170.7px" height="255.6px" viewBox="-0.5 1.2 170.7 255.6" enable-background="new -0.5 1.2 170.7 255.6"
	 xml:space="preserve">
<g>
	<g>
		<path fill="#BD2C4C" d="M10.4,85.1c-0.1,0.1-0.1,0.2-0.1,0.3C10.3,85.3,10.3,85.2,10.4,85.1z"/>
		<path fill="#BD2C4C" d="M170.2,111.7c-0.1-1-1.7-1.4-2.7-1.7c-0.6,0.1-1-0.3-1-0.7c0-0.1,0-0.2,0-0.3c1-3.1,0.4-5.2-1.7-6.5
			c0.1-0.6-0.2-0.6-0.2-1c0-0.6-0.2-0.9-0.6-1c0.1-0.6-0.3-0.6-0.3-1c0.1-0.4-0.1-0.6-0.3-0.7c0-0.6-0.2-0.9-0.7-1
			c-0.1-0.9-0.5-1.6-1-2c-0.3-0.4-0.3-1.3-0.7-1.7c-0.3-2-1.3-3.2-2.4-4.4c-0.4-0.9-0.6-1.9-1.4-2.4c-0.2-0.8-0.6-1.4-1-2
			c0.1-0.4-0.1-0.6-0.3-0.7c0.2-1.4-1.2-1.3-1.4-2.4c0-0.6-0.2-1.1-0.7-1.4c0.1-0.3-0.1-0.3-0.3-0.3c-0.4-0.7-0.4-1.9-1-2.4
			c0-0.9-0.6-1.2-1-1.7c-0.5-0.2-0.1-1.3-0.7-1.4c-0.5-1-0.7-2.2-1.7-2.7c0.2-0.9-0.7-0.7-0.7-1.4c0-0.9-0.6-1.2-1-1.7
			c-0.2-0.9-0.5-1.6-1-2c-0.4-0.8-2.1,0-2.4,0.3c-0.3,0.3-0.9,0.2-1,0.7c-1.2-0.1-2.2,0.1-2.7,0.7c-0.3-0.1-0.3,0.6-0.3,0.8
			c-0.3,0.3-0.9,0.2-1,1.2c-0.1,0-0.2,0-0.3,0c-0.8,0-2.6,0-2.7,1c-0.1,0-0.2,0-0.3,0c-2.5,0-4.3,0.9-5.8,2.1
			c-1.2-0.2-1.6,0.2-2.4,0.5c-1.1,0.4-2.5,0.3-3.4,0.9c-0.5-0.7-0.4-2.2-1.4-2.4c0.1-0.3-0.1-0.3-0.3-0.4c0.1-0.4-0.1-0.6-0.3-0.7
			c0.1-0.8,0.1-1.7-0.7-1.7c-0.4-2.3-2.7-4.2-2-6.5c0.8-0.3,0.9-1.4,1-2.4c0.1-0.3,0.3-0.3,0.3-0.7c0.3,0.1,0.3-0.1,0.3-0.3
			c0.5-0.8,1-1.5,1-2.7c-0.1-1.3,0.9-1.6,1-2.7c0.5-0.3,0.7-0.9,0.7-1.7c0.3,0.1,0.3-0.1,0.3-0.3c0.9,0,0.7-1.1,0.7-2
			c0.7-0.3,0.6-1.5,1-2c0.3,0.1,0.3-0.1,0.3-0.3c0.6-2.2,2.2-3.5,2.4-6.1c0.3-1,0.8-1.7,1-2.7c0.5-0.4,0.5-1.3,1-1.7
			c1.8,0.1,2.4-1,3.7-1.4c0.3,0.1,0.3-0.1,0.3-0.3c1-0.5,2.1-0.4,3.1-1.4c0.8,0,1.6,0,2.4,0c1,2,5.6,7.9,5.6,2.4c0-0.1,0-0.2,0-0.3
			c-1-2.2,1.6-2.4,0.7-3.4c0.1-0.3,0.3-0.3-0.7-0.3c0-0.1,0-0.2,0-0.3c1-1.2,0-1.6-0.3-2.4c-0.5,0-0.8-0.1-0.8,0.3
			c-0.4,0.3-0.6,1-0.9,1.4c-0.7,0.4-1.8,0.7-1.9,1.7c-0.2,0-0.5,0-0.7,0c-0.6-1-0.8-2-1.4-2.7c0.2-0.9-0.7-0.3-1-1.3
			c-0.1,0-0.2,0-0.3,0c-0.6,0-1.2-1.1-1.7-1.8c0-0.5,0.1-1-0.3-1.1c0.1-0.9,0.1-1.7-1-1.4c-2.3,0.2-1.1-3-3.7-2.4
			c-0.6-0.6-2.5,0.2-2.7-0.9c-1-1.3-2.6-1.6-4.1-2.6c-0.1,0-0.2,0-0.3,0c-0.3-1-1.2-1-1.7-1.5c-0.2-0.7-0.9-1-1.7-1.1
			c-0.3-0.2-0.6-0.4-1-0.4c-0.6-0.7-1.1-1.4-2.4-1.4c0.1-0.3-0.1-0.3-0.3-0.4c-0.9-0.7-1.9-1.3-3.1-1.7c-0.9,0-0.7-1.1-1.7-1
			c-0.3-0.5-0.9-0.7-1.4-1c-1.3-0.7-2.4-1.5-3.7-2c-0.5-0.5-1.1-1-1.7-1.4c-0.3-0.7-1-1-2-1c0-0.3-0.4-0.3-0.7-0.3
			c-0.9-0.6-2.1-0.8-2.7-1.7c-1-0.3-0.9,0.5-1.7,0.3c0.5-1.7-2.3-0.4-0.7-1.7c-0.6-0.1-0.8,0.4-1.4,0.3c0.6-0.8-1.4-1.6-1.7-0.8
			c0-0.6-0.1-1.2-0.3-1.2c-0.1,0-0.2,0-0.3,0c-0.2,2-1.2-1-2.4-0.5c-0.6,0.8-0.8,2-2,2.3c-0.3,0.1-0.4,0.2-0.3,0.6
			c-1.1,0.8-1.7,2.2-3.1,2.7c-1.2,0.7-1.8,1.8-2.7,2.7c-0.4,0.1-0.5,0.4-0.7,0.7c-0.5,0.4-1.4,0.4-1.7,1c-0.6,0.3-1.1,0.8-1.4,1.4
			c-0.1,1.4-1.7,1.2-2.7,1.7c-0.2,0-0.4,0.1-0.3,0.3c-0.9,0.4-1.6,1.1-2,1.9c0,0.5-0.9,0.2-0.7,1.2c-0.1,0-0.2,0-0.3,0
			c-0.7,1-0.9,1.4-1.4,2.2c-1.3,1.1-2.6,2-3.1,4c-0.3,0.1-0.4,0.7-0.3,1.1c-0.9,0.7-1.7,1.8-2.4,2.8c-0.2,0-0.5,0-0.7,0
			c-1.1-1-3.2,0.2-2.2,0.9c0,0.1,0,0.2,0,0.3c1-0.2,1.1,0.7,1.4,1c0.3,1.3-0.6,1.6-0.8,2.4c-0.1,0.5-0.4,0.4-0.5,1.4
			c-0.3,0-0.7,0-1,0c0-1-2.5-0.8-2,0.3c0,0.3-0.3,0.7-0.3,0.7c-0.1,0-0.2,0-0.3,0c-0.1,0-0.2,0-0.3,0c-1.4-1-5.6-1.2-6.5,0
			c-0.6-0.1-0.8,0.2-1.4,0.2c-2.8,0-4.8,0.5-7.1,0.9c-1,0.5-1.4,1.5-2.4,2c-3.1-0.4-4.4,0.8-7.1,0.7c-0.1-0.4-0.4-0.5-0.7-0.7
			c-0.2-0.6-0.2-1.4-0.7-1.7c-0.2-1.2-2.4-2.2-3.4-1.4c-1,0.6-2.7,0.6-2.7,2c0,0.3,0,0.7,0,1c-1,0-0.6,0.1-0.5,0.3
			c-0.5,0.5-1.5,0.9-1.5,1.7c0,0.1,0,0.2,0,0.3c-1,0-0.3,1.3-1.2,1.4c-0.2-0.7-1.9,0.1-2,0.7c-0.3,0.1-0.6,0-0.6,0.3
			c-1.7,0-2.3,1.2-4.4,0.8c-0.1-0.6-0.6-0.6-1.3-0.6c-0.1,0-0.2,0-0.3,0c0.1,0-2.1-0.7-2-0.1c-0.3-0.1-0.3,0.1-0.3,0.3
			c-1.1,0.8-2.6,1.3-3.7,2c-2,0.3-0.6,3.9-1,5.8c-1.6,0.4-2.9,1-3.4,2.4c1.5,1.6,3.3,2.8,5.4,3.7c0.3,0.6,1.6,0.2,1.7,1
			c2.3,1.5,4.8,2.9,6.1,5.3c0.5,0,0.7,0.6,1,0.6c0.1,0,0.2,0,0.3,0c0,1,0.4,0.3,0.3,0.8c-0.6,4.5,1.6,6.5,1,9.4
			c-0.6,3.2-4.3,4-6.1,5.4c-1.9,1.4-3.8,3.7-4.6,5.8c0,0,0.1,0.1,0.2,0.1c-0.1,0.9-1.3,1.5-1.7,1.5c-0.1,0-0.2,0-0.3,0
			c-2.8,0-3.2,2-5.1,3c-0.5,0-0.9,0-1.4,0c-0.1,0-0.9,0.5-1.3,0.9c-0.9-0.1-0.3,0.8-1.3,0.9c0,0.2,0,0.5,0,0.7c0,0.5,0,0.9,0,1.4
			c0,0.1,0,0.2,0,0.3c0,0.7,0,1.4,0,2c1,0.8,1.6,3.2,2.3,4.8c0.6,0.2-0.2,1.6,0.5,1.7c0,0.2,0.2,0.4,0.2,0.3c0,0.1,0,0.2,0,0.3
			c0,0.6,0.9,0.6,0.9,1.6c0.6,0,1.1,0,1.7,0c0.1,0,0.2,0,0.3,0c0.3,0,1.1,0,1.7,1c0.1,0,0.2,0,0.3,0c0.7,0,2-1,2.4-2
			c0.3,0,0.7,0,1,0c0.4,0,0.3,0.5,0.7,0.5c0.8,1.2,2.4,1.6,4.4,1.6c1.2,0.7,2.9,0.7,4.1,1.3c1.7,1.9,2.9,3.9,4.9,5.4
			c0.2,1.9-1.5,4.2-0.5,5.8c0,0.2,0,0.5,0,0.7c-1,0.7-1,1.9-1.9,2.7c-0.2,0.9-1.2,0.8-1.1,2c-0.8,0.5-1.4,1.2-1.9,2
			c-0.7,0.5-0.9,1.5-1.6,2c-2.3,2.6-8.2,6.5-6.5,11.1c0-0.2,0.1-0.4,0.1-0.7c0,0.2-0.1,0.4-0.1,0.7l0,0v0c-1,0.4,0,1.7,0.4,1.7
			c0,0,0,0,0,0l0,0c0,0,0-0.4,0-0.4c0,0,0-0.2,0-0.2c0.2,0.3,0.4,0.6,0.7,0.9c0,0.4,0.1,0.8,0.7,0.6c0.3,1.4,1,2.3,2.4,2.7
			c0.4,0.1,1,0,1,0.4c0.1,1.4,2.8,1,3.4,1c0.1,0,0.2,0,0.3,0c0.4,2,1.4,1.5,2,2.4c1,0.7,2.4,1,4.1,1c0.3,0.1,0.3,0.6,0.7,0.6
			c0.5,0.5,1.5,1,2.4,1c0.2,0,0.5,0,0.7,0c0.3,1,0.8,0.9,2,0.7c0.6-0.1,0.8,0.2,1.4,0.2c0,0.2,0.1,0.3,0.3,0.3
			c1.6,2.9,5.6,3.4,5.4,8.1c0,0.6,0.3,0.9,0.7,1c0.5,1.2,1.9,1.5,2.7,2.4c0,0.2,0.1,0.4,0.3,0.3c1.2,1.1,2.3,2.2,3.7,3.1
			c1.4,2.7,6.5,6,9.2,2.4c0.3,0,0.3-0.4,0.3-0.7c1-0.2,1.5-1,3.1-0.7c0.4,0,0.5,0.4,1,0.3c0.6,0.2,1.6,1.7,2.4,0.7
			c0.3,0,0.4-0.3,0.7-0.3c1.3,0.1,2.4-0.1,2.7-1c1.7,0.2,2.7,1.2,3.1,2.7c0,1.7,0.2,3.6-0.3,4.8c-0.1,0.8-0.1,1.7,0.7,1.7
			c2.1,0.2,2.8,1.5,4.8,2.4c0,0.3,0,0.7,0,1c-1,0.6-1,1.2-1,2.4c-0.3,0.1-0.4,0.3-0.3,0.7c-0.5,0.3-1.1,0.5-1,1.4
			c-1.1,1.6-1.6,3.8-2.7,5.4c-0.6,1.3-1.4,2.7-1.3,4.8c-1.7,2.6,0.4,6.9-0.6,10.6c0,0.1,0,0.2,0,0.3c-1,0.6-0.3,2.6-0.5,3.7
			c-0.6,12.1,0.5,22.5-0.5,34c0,0.1,0,0.2,0,0.3c0,2.1-0.3,5-0.6,7.4c0.8,0.7,2.9,0.6,3.2-0.4c0.1,0,0.2,0,0.3,0
			c0.4,0,0.6-0.4,0.7-0.6c4.8,1.3,10-1.9,14.3-1.2c1.9,0.3,2.5,1.7,3.8,2.4c0,0.1,0,0.4,0,0.4c0.1,0,0.2,0,0.4,0c0.3,0,0.6,0,1,0.1
			c0.6,0,0.9,0.1,1,0.5c-0.2,0.6,0,0.9,0.4,1.2l0,0c0,0,0.1,0,0.1,0c0,0,0,0,0,0c1,0.7,3.3,0.7,4.6,1.6c0,0-0.1-0.1-0.1-0.1
			c0,0,0.1,0.1,0.1,0.1v0c0,0,0,0,0,0c0.2,0.2,0.4,0.7,0.6,0.9c0.1,0.1,0.1,0.7,0.1,0.7c0.2,0,0.5,0,0.7,0c0.6,0,1.1,0,1.7,0
			c0.1,0,0.2,0,0.3,0c0.3,0,0.6-1.2,1-1.6c1.5-0.2,3.8,0.6,4.8-0.2c0.3,0.1,0.3-0.2,0.3-0.2c0.1,0,0.2,0,0.3,0
			c2.2-1,2.7-3.2,5.1-3.6c0.9,0.1,1.1-0.6,1-1.5c0.4-0.1,0.3-0.7,0.3-1.1c1.4-0.8,0.8-4.7-0.7-4.8c-0.9,0.2-0.7-0.7-1-1
			c-0.1-1-0.7-1.6-1.7-1.7c-0.2-0.5-0.5-0.8-1-1c-0.1-0.6,0.3-0.6,0.3-1c1.7-0.4,0.9-3.3-0.3-3.7c-0.1-0.4-0.7-0.2-0.7-0.7
			c-0.7-1.1,1.3-1.1,0.3-1.4c-0.3-1.1,0.3-0.5,1.3-1c0-0.3,0-0.7,0-1c0-0.9,2.2-1.8,1.4-3.4c3.7-0.2,3.3-4.3,5-6.4
			c0.1,0,0.1,0,0.2,0c0,0,0,0,0,0c0,0,0.1,0,0.1-0.1c0,0-0.4,0-0.4,0c0,0-0.4-0.1-0.4-0.1c0,0,0,0,0,0c0-0.1,0.4,0.1,0.4,0.1
			c0.4-0.3,1.2-0.4,1.8-0.4c0.1,0,0.2,0,0.3,0c0.9,1,1.6-2,2.4-2.6c1.4,0.7,3.3,0.1,3.4-1.5c0.1-0.4-0.1-0.7-0.3-0.7
			c-0.2-0.3-0.4-0.6,0-0.7c1-0.1,2.3,0.3,2.4-0.7c0.3-0.5,1.7,0.1,1.4-1c0.5-0.2,1.8,0.4,1.7-0.3c0.2-0.5,1.3-0.1,1.4-0.7
			c0.4-0.3,1.3-0.3,1.7-0.7c0.3-0.1,0.7,0,0.7-0.3c1.3,0,1.8-0.7,2-1.7c-0.2-1.3-3.4-1.3-2.4-2.7c0.3,1.3,2.7,0.4,4.1,0.7
			c0.5,0,0-0.8,0.2-1.2c0.1-0.1-0.1-0.1-0.1-0.2c0-0.1,0-0.2,0-0.3c1-0.2,0.9-0.7,1-1.4c0.5-0.8,2.9,0.2,2.9-1
			c0.8,0.1,1.5-0.1,1.8-0.6c0.3-0.1,0.8,0.8,0.8-0.2c0.1,0,0.2,0,0.3,0c1,0,2,0,3.1,0c0,0,0.1,0.7,0.3,0.7c-0.2,0.6,1.9,0.3,1.7,0.3
			c0.1,0,0.2,0,0.3,0c1.5,0,2.8-0.8,3.4-1.8c0.4-0.2,0.8-0.6,1-0.9c0.3-0.1,0.6-0.3,0.9-0.5c0,0,0.1-0.1,0.1-0.1
			c0,0,0.1-0.1,0.1-0.1l0,0c0,0,0,0,0,0c0,0,0,0,0,0c1.9-0.9,3.9-2.7,4.3-4.5c0,0-0.1,0-0.1,0c0.1-0.1,0-0.3,0-0.4c0,0,0,0,0,0
			c0-0.6,0-1.2-1-1.7c0,0,0,0,0-0.1c0,0,0.3,0,0.3,0c-0.2-0.4-0.4-0.7-0.8-1c-0.9,0-1.9,0.1-2.3-0.3c0-0.3-0.4-0.3-0.6-0.3
			c-0.9-0.5-2.2-0.5-2.7-1.4c0.1-3.2,0-6.2-0.3-9c0-0.1,0-0.2,0.1-0.2c1.9-1.7,2.4-4.6,4.4-6.4c0-0.2,0-0.5,0-0.7
			c0-0.1,0.4-0.3,0.3-0.7c0.6,0.2,0.6-1.6,0-1.4c0.1-1.1-1.7-0.4-1-2c0.2,0,0.4,0.4,0.3,0.1c1.1-0.1-0.7-1.6-0.7-0.6c-0.2,0-1,0-1,0
			c0-1,0-1,0-2c0,0,0.8,0,1,0c0.5,0,0.8-0.7,1-1.2c0.8-0.3,0.1-2,0.3-2.8c-0.3-0.6-1.1-0.8-2-0.7c-0.3-2.1,0.1-4.8-1-6.1
			c-0.4-1.7-2.1-2-3.1-3.1c-0.5-0.2-0.8-0.4-1-0.9c-0.3-0.3-0.4-0.2-0.3-1.2c0.1,0,0.2,0,0.3,0c0.7,0,0.8-1.3,0.8-2
			c0-0.1,0-0.2,0-0.3c1-0.3,1.5-0.5,1.5-1.4c0.4-0.1,0.9-0.4,0.9-1c1.7-3.3,1.3-8.8,2.2-12.9c0.7-0.7,1.5-1.3,1.8-2.4
			c0.5-0.2,0.7-0.7,0.7-1.4c0.3,0.1,0.1-0.1,0.2-0.3c1-0.7,0.9-2,1.9-3.1c0-0.1,0-0.2,0-0.3c1,0.2,2.1-0.6,2.6-1.4
			c1.2-0.4,2.5-2.6,2.5-3.1c0-0.6,1-0.2,1.1-0.7c0.3-1.1,2.2-0.8,3.1-1.4c0.2,0,0.4-0.1,0.4-0.3c0.6-0.5,1.5-0.4,1.4-1.7
			c0-0.3,0.3-0.4,0.3-0.4c0.2,0,0.5,0,0.7,0c0.7,0,0.6-1.9-0.2-2c0-0.4,0.2-1.1,0.2-1c0-0.2,0-0.5,0-0.7c0-0.1,0-0.2,0-0.3
			c0-0.7,0-0.9,0-1.9C169.5,111.7,170.3,111.7,170.2,111.7z M135.3,207C135.3,207,135.3,207,135.3,207
			C135.3,207,135.3,207,135.3,207z"/>
	</g>
</g>
</svg>
