<svg class="svg-filtro" width="178.3" height="112.3" viewBox="0 0 178.3 112.3"><ellipse fill="#474B4D" cx="89.1" cy="105.1" rx="61.1" ry="7.1"/><path fill="#C2C2C2" d="M178.3 5.2S138.7 0 89.5 0 0 5.2 0 5.2c59.3 6.6 119.1 6.6 178.3 0z"/><path fill="#E1E2E3" d="M0 5.2c5.3 26.6 10.5 53.1 15.8 79.7 48.8 5.4 98 5.4 146.7 0 5.3-26.6 10.5-53.1 15.8-79.7-59.2 6.6-119 6.6-178.3 0z"/><path d="M87.1 25.7c3.1 3.5 4.6 8.6 4.6 15.2s-1.5 11.7-4.6 15.3c-3.1 3.6-7.5 5.3-13.2 5.3-5.8 0-10.3-1.8-13.4-5.3-3.1-3.6-4.6-8.6-4.6-15.3s1.5-11.7 4.6-15.2c3.1-3.5 7.5-5.3 13.4-5.3 5.7 0 10.1 1.7 13.2 5.3zm-18.7 5.5c-1.1 2-1.7 5.2-1.7 9.7 0 4.5.6 7.8 1.7 9.8 1.1 2 2.9 3 5.5 3 2.5 0 4.3-1 5.4-3 1.1-2 1.7-5.2 1.7-9.7 0-4.5-.6-7.7-1.7-9.7-1.1-2-2.9-3-5.4-3-2.5-.1-4.4.9-5.5 2.9zm24.8-10.5h18.3v40.4H101V29.4h-7.8v-8.7zM59.5 63.5l1.9.8-2.5 2-1.6-.2 2.2-2.6zM57.4 68h1.9v10.7h-1.9V68zm14.4 1.1c.7.7 1.1 1.7 1.1 3v6.6H71v-6.1c0-.9-.3-1.6-.8-2.1s-1.2-.8-2.1-.8c-1 0-1.7.3-2.3.9-.6.6-.9 1.4-1 2.3v5.7H63V68h1.9v2.3C65.6 68.8 67 68 69 68c1.1 0 2.1.3 2.8 1.1zm14.4-5.4v15h-1.9v-2.1c-.4.7-.9 1.3-1.6 1.6s-1.5.6-2.4.6c-1 0-1.9-.2-2.7-.7-.8-.5-1.4-1.1-1.8-1.9-.4-.8-.6-1.8-.6-2.8 0-1 .2-2 .6-2.8.4-.8 1-1.4 1.8-1.9s1.7-.7 2.7-.7c.9 0 1.7.2 2.4.6.7.4 1.2.9 1.6 1.6v-6.4c0-.1 1.9-.1 1.9-.1zm-3.6 13c.5-.3 1-.8 1.3-1.3.3-.6.5-1.2.5-2 0-.7-.2-1.4-.5-2-.3-.6-.7-1-1.3-1.4s-1.2-.5-1.9-.5-1.3.2-1.9.5-1 .8-1.3 1.4c-.3.6-.5 1.2-.5 2 0 .7.2 1.4.5 2 .3.6.7 1 1.3 1.3s1.2.5 1.9.5 1.3-.2 1.9-.5zm9.1-12.6c.2.2.3.5.3.9s-.1.6-.3.9c-.2.2-.5.3-.8.3s-.6-.1-.8-.3-.3-.5-.3-.9.1-.6.3-.9.5-.3.8-.3.6.1.8.3zM89.9 68h1.9v10.7h-1.9V68zm10 1.6c-.7 0-1.3.2-1.9.5-.5.3-1 .7-1.3 1.3-.3.6-.5 1.2-.5 2 0 .7.2 1.4.5 2 .3.6.7 1 1.3 1.3.5.3 1.1.5 1.8.5s1.3-.1 1.9-.3 1-.6 1.4-1l1.1 1.1c-.5.6-1.1 1.1-1.8 1.4s-1.6.5-2.5.5c-1 0-2-.2-2.8-.7-.8-.5-1.4-1.1-1.9-1.9-.4-.8-.7-1.7-.7-2.8s.2-2 .7-2.8c.5-.8 1.1-1.5 1.9-1.9.8-.5 1.7-.7 2.8-.7.9 0 1.7.1 2.4.4.7.3 1.3.7 1.8 1.2l-1 1.3c-1-.9-2-1.4-3.2-1.4zm14.4-.2c.8 1 1.3 2.3 1.3 4.1v.6h-8.4c.1 1 .5 1.7 1.2 2.3.7.6 1.5.8 2.4.8.6 0 1.2-.1 1.8-.3.5-.2 1-.6 1.4-1l1 1.1c-.5.6-1.2 1-1.9 1.3-.7.3-1.6.5-2.5.5-1 0-2-.2-2.8-.7s-1.4-1.1-1.9-1.9c-.5-.8-.7-1.8-.7-2.8s.2-2 .7-2.8c.4-.8 1.1-1.4 1.9-1.9.8-.5 1.7-.7 2.8-.7 1.7 0 2.9.5 3.7 1.4zm-.4 3.2c-.1-1-.4-1.7-1-2.3-.6-.6-1.4-.8-2.3-.8-.9 0-1.7.3-2.3.8-.6.6-1 1.3-1.1 2.3h6.7z" fill="#474B4D"/></svg>