<svg class="svg-filtro" width="249.541" height="95.652" viewBox="0 0 249.541 95.652"><path fill="#7F827F" d="M249.541 4.643S194.398 0 125.624 0 0 4.643 0 4.643a1137.194 1137.194 0 0 0 249.541 0z"/><path fill="#C2C2C2" d="M0 4.643l22.538 85.384a931.692 931.692 0 0 0 204.463 0c7.514-28.461 15.026-56.923 22.539-85.384A1137.185 1137.185 0 0 1 0 4.643z"/><path d="M29.615 32.102h20.654v45.53H38.383V41.845h-8.768v-9.743zm57.253 18.251c2.663 1.169 4.719 2.793 6.17 4.871 1.451 2.079 2.176 4.461 2.176 7.145 0 3.162-.758 5.934-2.273 8.314-1.516 2.382-3.681 4.222-6.495 5.521-2.815 1.299-6.084 1.948-9.808 1.948-3.031 0-6.16-.52-9.385-1.559-3.226-1.039-6.095-2.403-8.605-4.092l4.417-8.573c4.199 3.377 8.291 5.065 12.275 5.065 2.251 0 4.004-.508 5.261-1.526 1.255-1.017 1.883-2.413 1.883-4.188s-.617-3.128-1.851-4.06c-1.234-.931-3.085-1.396-5.553-1.396-5.759 0-9.916.087-12.47.26v-25.98h30.591v9.548h-19.68V48.6h4.092c3.507-.001 6.592.584 9.255 1.753zm39.163-14.791c1.407.815 2.497 1.969 3.267 3.459.771 1.489 1.156 3.205 1.156 5.144 0 1.916-.379 3.601-1.138 5.056-.759 1.454-1.83 2.584-3.212 3.388-1.383.804-2.992 1.206-4.828 1.206-1.371 0-2.588-.254-3.653-.763a7.291 7.291 0 0 1-2.698-2.217v9.648h-5.654V34.515h5.654v2.803c.709-.97 1.597-1.708 2.662-2.217s2.258-.763 3.58-.763c1.835 0 3.457.407 4.864 1.224zm-2.661 12.239c.905-.981 1.358-2.253 1.358-3.813 0-1.537-.453-2.797-1.358-3.778-.906-.981-2.081-1.473-3.524-1.473-1.444 0-2.625.491-3.543 1.473-.917.981-1.376 2.241-1.376 3.778 0 1.584.459 2.861 1.376 3.831.918.97 2.099 1.454 3.543 1.454 1.443-.001 2.618-.491 3.524-1.472zm26.561-10.803c1.652 1.773 2.479 4.245 2.479 7.414 0 .568-.013 1.006-.037 1.313h-14.171c.317 1.206.93 2.146 1.835 2.819.905.675 1.995 1.012 3.268 1.012a7.125 7.125 0 0 0 4.994-2.023l2.974 2.909c-1.004 1.088-2.221 1.922-3.652 2.501-1.433.58-3.029.869-4.791.869-2.081 0-3.898-.402-5.452-1.206-1.555-.804-2.754-1.939-3.599-3.405-.844-1.467-1.267-3.158-1.267-5.073 0-1.939.429-3.648 1.285-5.126.856-1.479 2.057-2.626 3.599-3.441 1.542-.816 3.304-1.224 5.286-1.224 3.18.001 5.597.888 7.249 2.661zm-2.846 5.499c-.049-1.254-.465-2.259-1.248-3.016s-1.823-1.135-3.12-1.135c-1.225 0-2.246.372-3.065 1.117-.82.745-1.34 1.756-1.561 3.033h8.994zm26.783-6.208c1.309 1.324 1.964 3.099 1.964 5.321V53.6h-5.653V43.206c0-1.206-.35-2.157-1.047-2.855-.697-.697-1.646-1.047-2.845-1.047-1.396.024-2.497.491-3.305 1.401-.808.911-1.212 2.075-1.212 3.494V53.6h-5.653V34.515h5.653v3.335c1.371-2.317 3.647-3.5 6.829-3.548 2.203 0 3.959.663 5.269 1.987zm18.3 17.312v-2.235c-.66.805-1.518 1.419-2.569 1.845-1.053.426-2.265.639-3.635.639-2.081 0-3.732-.55-4.956-1.649-1.225-1.1-1.836-2.536-1.836-4.311 0-1.797.654-3.198 1.964-4.203s3.163-1.52 5.563-1.543h5.434v-.355c0-1.017-.349-1.803-1.047-2.358-.697-.556-1.72-.834-3.065-.834-1.836 0-3.794.556-5.874 1.667l-1.762-3.76c1.565-.757 3.034-1.313 4.405-1.668 1.37-.354 2.876-.532 4.516-.532 2.644 0 4.693.604 6.149 1.81s2.196 2.886 2.221 5.037l.037 12.452h-5.545zm-1.578-4.47c.856-.544 1.37-1.229 1.542-2.058V45.37h-4.442c-1.102 0-1.916.172-2.441.515-.526.343-.789.893-.789 1.649 0 .733.275 1.318.825 1.756.551.438 1.304.656 2.258.656 1.174 0 2.19-.271 3.047-.815zm21.257-10.377c-1.053-.319-1.995-.479-2.827-.479-.686 0-1.236.118-1.652.354-.416.237-.624.592-.624 1.064 0 .521.281.922.845 1.206.563.284 1.48.604 2.753.958 1.396.402 2.546.798 3.451 1.188.905.39 1.688.97 2.35 1.738s.991 1.779.991 3.033c0 1.893-.752 3.364-2.258 4.416-1.505 1.053-3.433 1.579-5.782 1.579-1.615 0-3.17-.23-4.662-.691-1.493-.462-2.79-1.118-3.892-1.97l1.835-3.688c1.004.757 2.123 1.342 3.359 1.756s2.405.62 3.506.62c.759 0 1.364-.124 1.817-.372s.68-.621.68-1.117c0-.544-.288-.97-.863-1.277s-1.499-.639-2.771-.993c-1.347-.378-2.466-.757-3.359-1.136a5.94 5.94 0 0 1-2.294-1.721c-.637-.768-.955-1.768-.955-2.997 0-1.892.734-3.358 2.203-4.399 1.469-1.04 3.328-1.561 5.58-1.561 1.346 0 2.692.184 4.038.55 1.346.367 2.57.893 3.672 1.579l-1.946 3.725a16.895 16.895 0 0 0-3.195-1.365zm-97.646 31.594a3.742 3.742 0 0 0-1.087-.173c-.403 0-.727.074-.972.223-.245.149-.367.377-.367.685 0 .307.137.54.41.698s.688.319 1.246.482a9.63 9.63 0 0 1 1.296.461c.335.153.621.379.856.677.235.297.353.69.353 1.18 0 .721-.271 1.268-.813 1.642-.542.375-1.216.562-2.023.562a5.06 5.06 0 0 1-1.648-.273 3.741 3.741 0 0 1-1.346-.777l.504-.979c.317.288.708.519 1.173.691.466.173.919.259 1.361.259s.796-.081 1.065-.244c.269-.163.403-.413.403-.749 0-.346-.142-.604-.425-.777-.283-.173-.713-.346-1.289-.519a8.763 8.763 0 0 1-1.246-.438c-.322-.149-.595-.367-.821-.655s-.338-.662-.338-1.123c0-.711.259-1.243.778-1.599.518-.354 1.166-.532 1.943-.532.461 0 .915.064 1.361.194.446.129.833.305 1.159.525l-.49 1.022a4.398 4.398 0 0 0-1.043-.463zm9.237-.224c.605.696.907 1.663.907 2.901 0 .192-.005.336-.015.432h-6.018c.105.682.391 1.225.856 1.627.466.403 1.039.605 1.721.605.451 0 .871-.082 1.26-.245s.727-.394 1.015-.691l.734.764c-.375.403-.826.715-1.354.936s-1.114.331-1.756.331c-.749 0-1.414-.16-1.994-.482a3.383 3.383 0 0 1-1.354-1.36c-.322-.585-.482-1.253-.482-2.001 0-.749.161-1.413.482-1.994a3.505 3.505 0 0 1 1.346-1.368c.576-.331 1.233-.497 1.973-.497 1.181-.002 2.074.347 2.679 1.042zm-.303 2.297c-.039-.691-.269-1.235-.691-1.634-.423-.398-.979-.598-1.67-.598-.672 0-1.231.201-1.677.604s-.713.945-.799 1.627h4.837zm9.776-3.297v6.839c0 .729-.16 1.367-.482 1.915a3.195 3.195 0 0 1-1.36 1.26c-.585.293-1.267.438-2.044.438-1.123 0-2.169-.354-3.139-1.065l.59-.979c.374.307.762.535 1.166.684s.845.224 1.325.224c.786 0 1.415-.221 1.886-.662.471-.442.705-1.032.705-1.771V74.94a2.824 2.824 0 0 1-1.094 1.072c-.461.255-.988.382-1.584.382-.682 0-1.284-.155-1.807-.468a3.18 3.18 0 0 1-1.216-1.303c-.288-.557-.432-1.195-.432-1.915 0-.71.144-1.339.432-1.887a3.16 3.16 0 0 1 1.216-1.281c.522-.307 1.125-.461 1.807-.461.604 0 1.135.125 1.591.375.456.249.818.604 1.087 1.065v-1.396h1.353zm-2.52 5.859c.365-.221.65-.525.856-.914a2.76 2.76 0 0 0 .31-1.317c0-.499-.103-.943-.31-1.332a2.307 2.307 0 0 0-.856-.914 2.366 2.366 0 0 0-1.252-.331 2.343 2.343 0 0 0-2.131 1.245 2.749 2.749 0 0 0-.317 1.332c.009.749.24 1.363.691 1.843.451.48 1.036.72 1.757.72.47-.001.888-.11 1.252-.332zm11.706-5.859v7.616h-1.354v-1.612c-.499 1.085-1.44 1.636-2.822 1.655-.883 0-1.574-.261-2.073-.784s-.749-1.246-.749-2.167v-4.708h1.354v4.348c0 .644.175 1.145.525 1.505s.833.54 1.447.54c.71-.01 1.274-.262 1.691-.756.418-.494.627-1.126.627-1.894v-3.743h1.354zm8.941.741c.509.523.763 1.245.763 2.167v4.708h-1.339v-4.349c0-.643-.18-1.145-.54-1.504-.359-.36-.856-.54-1.49-.54-.682.01-1.235.228-1.663.655-.427.427-.669.981-.727 1.663v4.074h-1.339v-7.616h1.339v1.612c.509-1.085 1.473-1.637 2.894-1.656.892.001 1.593.263 2.102.786zm10.251-3.808V76.74h-1.339v-1.512a3.042 3.042 0 0 1-1.159 1.174c-.484.273-1.049.41-1.691.41-.72 0-1.356-.166-1.908-.497s-.981-.792-1.288-1.382c-.308-.591-.461-1.265-.461-2.023 0-.748.153-1.413.461-1.994.307-.58.736-1.034 1.288-1.36s1.184-.489 1.894-.489c.652 0 1.224.134 1.714.403.489.269.873.657 1.151 1.166v-4.579h1.338zm-2.584 9.257c.389-.23.693-.552.914-.964.221-.413.331-.879.331-1.397 0-.527-.11-.998-.331-1.41-.221-.413-.525-.734-.914-.965s-.833-.346-1.332-.346-.943.117-1.332.353-.693.56-.914.972a2.913 2.913 0 0 0-.331 1.396c0 .519.11.984.331 1.397.221.412.525.733.914.964s.833.346 1.332.346.943-.115 1.332-.346zm10.467-5.744c.59.326 1.051.779 1.382 1.36s.497 1.245.497 1.994-.166 1.416-.497 2.001a3.503 3.503 0 0 1-1.382 1.368c-.591.326-1.265.489-2.023.489-.768 0-1.446-.163-2.037-.489a3.523 3.523 0 0 1-1.382-1.36c-.331-.581-.497-1.25-.497-2.009 0-.749.166-1.413.497-1.994s.792-1.034 1.382-1.36c.591-.326 1.27-.49 2.037-.49.759 0 1.433.164 2.023.49zm-3.355 1.023c-.389.229-.69.549-.906.957a2.912 2.912 0 0 0-.324 1.39c0 .527.107.998.324 1.411.216.412.518.731.906.957.39.226.833.338 1.332.338.49 0 .929-.112 1.317-.338s.691-.545.907-.957c.216-.413.324-.884.324-1.411 0-.519-.108-.981-.324-1.39s-.519-.728-.907-.957a2.536 2.536 0 0 0-1.317-.346 2.56 2.56 0 0 0-1.332.346zm16.068-1.023c.59.326 1.051.779 1.382 1.36s.497 1.245.497 1.994-.166 1.416-.497 2.001a3.503 3.503 0 0 1-1.382 1.368c-.591.326-1.265.489-2.023.489-.768 0-1.446-.163-2.037-.489a3.523 3.523 0 0 1-1.382-1.36c-.331-.581-.497-1.25-.497-2.009 0-.749.166-1.413.497-1.994s.792-1.034 1.382-1.36c.591-.326 1.27-.49 2.037-.49.759 0 1.432.164 2.023.49zm-3.355 1.023c-.389.229-.69.549-.906.957a2.912 2.912 0 0 0-.324 1.39c0 .527.107.998.324 1.411.216.412.518.731.906.957.39.226.833.338 1.332.338.49 0 .929-.112 1.317-.338s.691-.545.907-.957c.216-.413.324-.884.324-1.411 0-.519-.108-.981-.324-1.39s-.519-.728-.907-.957a2.536 2.536 0 0 0-1.317-.346c-.499 0-.943.115-1.332.346zm19.657-4.162c-.628-.341-1.238-.511-1.831-.511-.649 0-1.235.16-1.76.48s-.938.764-1.242 1.33-.455 1.203-.455 1.91c0 .706.151 1.343.455 1.909a3.492 3.492 0 0 0 1.242 1.341c.524.326 1.11.489 1.76.489.552 0 1.142-.146 1.77-.439s1.189-.693 1.687-1.2l2.483 2.56c-.786.827-1.735 1.487-2.846 1.98s-2.211.74-3.301.74c-1.449 0-2.757-.316-3.923-.95-1.166-.633-2.08-1.51-2.742-2.63s-.993-2.373-.993-3.76c0-1.36.338-2.591 1.014-3.69s1.607-1.963 2.795-2.59c1.187-.627 2.518-.94 3.994-.94 1.09 0 2.18.228 3.271.681 1.09.453 2 1.06 2.731 1.819l-2.483 2.86a5.145 5.145 0 0 0-1.626-1.389zm16.352-2.41c1.027.866 1.542 2.093 1.542 3.68 0 1.667-.515 2.96-1.542 3.88-1.028.92-2.48 1.38-4.357 1.38l-2.276.021v3.76H203.6v-14.02h6.582c1.876-.001 3.328.431 4.357 1.299zm-3.064 5.239c.352-.333.527-.813.527-1.439 0-.613-.176-1.083-.527-1.41-.352-.326-.853-.49-1.501-.49h-2.069v3.84h2.069c.649-.001 1.15-.167 1.501-.501z" fill="#474B4D"/></svg>