<svg class="svg-filtro" width="331.146" height="105.174" viewBox="0 0 331.146 105.174"><path fill="#343738" d="M331.146 5.332S257.896 0 166.149 0 0 5.332 0 5.332a1508.9 1508.9 0 0 0 331.146 0z"/><path fill="#474B4D" d="M0 5.332l29.228 92.337a1242.34 1242.34 0 0 0 272.69 0l29.229-92.337A1508.91 1508.91 0 0 1 0 5.332z"/><path d="M53.343 30.669h25.156v55.454H64.022V42.535H53.343V30.669zm46.751 44.181c1.951.607 3.981.91 6.091.91 4.219 0 7.409-1.278 9.572-3.837 2.162-2.558 3.19-6.157 3.085-10.798-2.796 4.009-7.094 6.012-12.895 6.012-3.534 0-6.619-.751-9.256-2.254-2.638-1.503-4.681-3.612-6.13-6.329-1.451-2.716-2.176-5.866-2.176-9.453 0-3.849.843-7.211 2.532-10.086 1.687-2.874 4.06-5.089 7.12-6.645 3.058-1.555 6.618-2.333 10.679-2.333 4.852 0 9.044 1.107 12.578 3.322 3.533 2.215 6.25 5.379 8.148 9.493 1.898 4.113 2.848 8.992 2.848 14.635 0 5.854-1.042 10.996-3.125 15.426-2.084 4.43-5.023 7.845-8.82 10.245-3.797 2.4-8.227 3.599-13.29 3.599-3.059 0-6.17-.423-9.334-1.266-3.165-.843-5.907-1.951-8.228-3.323l5.3-9.967a17.833 17.833 0 0 0 5.301 2.649zm3.402-31.405c-1.372 1.345-2.057 3.257-2.057 5.735 0 2.373.659 4.232 1.978 5.577 1.318 1.345 3.19 2.018 5.617 2.018 2.637 0 4.68-.725 6.131-2.176 1.45-1.45 2.175-3.334 2.175-5.656 0-2.162-.686-3.956-2.057-5.379-1.372-1.424-3.375-2.136-6.012-2.136-2.48 0-4.404.672-5.775 2.017zm73.049-11.954v25.167h-5.189v-2.68c-.656.95-1.471 1.668-2.441 2.154-.973.487-2.081.729-3.324.729-1.719 0-3.228-.39-4.528-1.17-1.3-.78-2.306-1.882-3.019-3.307-.712-1.425-1.068-3.064-1.068-4.918 0-1.832.35-3.448 1.051-4.85.701-1.402 1.696-2.487 2.985-3.256 1.289-.769 2.77-1.153 4.443-1.153 2.577 0 4.545.961 5.901 2.883v-9.599h5.189zm-6.461 19.757c.848-.938 1.271-2.154 1.271-3.646 0-1.493-.424-2.708-1.271-3.646-.848-.938-1.939-1.407-3.273-1.407-1.356 0-2.459.469-3.307 1.407-.848.938-1.283 2.154-1.306 3.646.022 1.492.458 2.708 1.306 3.646.848.938 1.951 1.407 3.307 1.407 1.334 0 2.426-.468 3.273-1.407zm26.217-10.463c1.527 1.696 2.291 4.059 2.291 7.088 0 .543-.012.961-.035 1.255h-13.092c.293 1.153.859 2.052 1.695 2.697.838.644 1.844.966 3.02.966.859 0 1.684-.164 2.477-.492a6.574 6.574 0 0 0 2.137-1.441l2.746 2.781a9.234 9.234 0 0 1-3.375 2.391c-1.322.554-2.797.831-4.426.831-1.922 0-3.602-.384-5.037-1.153a8.08 8.08 0 0 1-3.322-3.256c-.781-1.402-1.172-3.019-1.172-4.85 0-1.854.396-3.488 1.188-4.901a8.313 8.313 0 0 1 3.324-3.29c1.424-.78 3.053-1.17 4.885-1.17 2.938 0 5.171.847 6.696 2.544zm-2.627 5.257c-.047-1.198-.43-2.159-1.154-2.883-.723-.724-1.684-1.085-2.883-1.085-1.131 0-2.074.356-2.832 1.068-.758.712-1.238 1.679-1.441 2.9h8.31zm8.512-14.551h5.223v25.167h-5.223V31.491zm15.076-.373c.531.542.797 1.244.797 2.103 0 .86-.266 1.561-.797 2.103-.531.543-1.217.814-2.053.814-.814 0-1.486-.276-2.018-.831-.531-.554-.797-1.249-.797-2.086 0-.859.266-1.56.797-2.103.531-.543 1.203-.814 2.018-.814.836 0 1.522.271 2.053.814zm-4.631 7.292h5.225v18.248h-5.225V38.41zm21.539 17.23a8.587 8.587 0 0 1-2.256.933 9.855 9.855 0 0 1-2.494.322c-1.695 0-3.074-.486-4.137-1.458-1.064-.972-1.594-2.362-1.594-4.172V42.82h-2.545v-3.595h2.545v-5.02h5.189v5.02h4.951v3.629h-4.951v7.529c0 1.402.553 2.103 1.66 2.103.77 0 1.617-.226 2.545-.678l1.087 3.832zm16.364-16.246c1.48.769 2.629 1.854 3.443 3.256.814 1.402 1.221 3.03 1.221 4.884 0 1.832-.406 3.454-1.221 4.867-.814 1.414-1.963 2.51-3.443 3.29-1.48.78-3.182 1.17-5.104 1.17-1.945 0-3.658-.39-5.139-1.17-1.482-.78-2.629-1.876-3.443-3.29-.814-1.413-1.221-3.035-1.221-4.867 0-1.854.406-3.482 1.221-4.884.814-1.402 1.961-2.487 3.443-3.256 1.48-.769 3.193-1.153 5.139-1.153 1.922 0 3.623.384 5.104 1.153zm-8.412 4.579c-.848.927-1.271 2.137-1.271 3.629s.424 2.702 1.271 3.629c.85.927 1.951 1.391 3.309 1.391 1.334 0 2.424-.463 3.271-1.391.85-.927 1.273-2.137 1.273-3.629 0-1.493-.424-2.702-1.273-3.629-.848-.927-1.938-1.391-3.271-1.391-1.358 0-2.46.464-3.309 1.391zm25.082-1.51c-.971-.305-1.842-.458-2.611-.458-.633 0-1.141.114-1.525.339-.385.226-.576.565-.576 1.018 0 .498.26.882.779 1.153.52.271 1.367.577 2.543.916 1.289.385 2.352.763 3.189 1.136a5.933 5.933 0 0 1 2.17 1.662c.611.735.916 1.702.916 2.9 0 1.809-.695 3.217-2.086 4.223-1.391 1.006-3.172 1.509-5.342 1.509-1.492 0-2.928-.221-4.307-.662-1.381-.441-2.578-1.068-3.596-1.882l1.695-3.527a10.672 10.672 0 0 0 3.104 1.679c1.143.396 2.223.594 3.238.594.701 0 1.262-.119 1.68-.356.418-.238.627-.594.627-1.068 0-.52-.266-.927-.797-1.221-.531-.293-1.385-.61-2.561-.95-1.244-.361-2.277-.724-3.104-1.085a5.517 5.517 0 0 1-2.119-1.645c-.588-.734-.883-1.69-.883-2.866 0-1.809.68-3.21 2.035-4.206 1.357-.995 3.076-1.492 5.156-1.492 1.242 0 2.486.175 3.73.526s2.375.854 3.393 1.509l-1.799 3.561a15.137 15.137 0 0 0-2.949-1.307zM162.63 66.694c-.468.429-.702 1.042-.702 1.841v2.016h4.267v2.075h-4.267v12.858h-2.717V72.626h-2.017v-2.075h2.017v-1.666c0-1.13.238-2.089.716-2.878.477-.789 1.105-1.383 1.885-1.783a5.435 5.435 0 0 1 2.513-.599c.857 0 1.754.234 2.688.701l-.644 2.221c-.701-.331-1.363-.497-1.986-.497-.701.001-1.286.216-1.753.644zm8.606-2.338c.321.332.482.75.482 1.257 0 .507-.161.925-.482 1.256-.321.332-.726.497-1.212.497-.488 0-.893-.166-1.213-.497-.322-.331-.482-.75-.482-1.256s.16-.925.482-1.257c.32-.331.725-.497 1.213-.497.486 0 .891.166 1.212.497zm-2.557 5.669h2.718v15.459h-2.718V70.025zm8.154-6.224h2.717v21.684h-2.717V63.801zm16.48 20.66c-1.188.76-2.396 1.14-3.623 1.14-1.229 0-2.221-.365-2.98-1.096s-1.141-1.836-1.141-3.317v-8.563h-2.191V70.55h2.191v-4.149h2.748v4.149h4.732v2.075h-4.732v8.066c0 .857.154 1.471.467 1.841.311.371.779.555 1.402.555.74 0 1.539-.243 2.396-.73l.731 2.104zm8.184-13.632c.934-.575 2.045-.872 3.33-.892v2.63c-1.578-.059-2.854.351-3.828 1.227-.975.877-1.529 2.056-1.666 3.536v8.153h-2.717V70.025h2.717v3.332c.507-1.111 1.228-1.953 2.164-2.528zm15.048 14.655v-2.163c-1.15 1.52-2.951 2.279-5.406 2.279-1.072 0-2.012-.205-2.82-.613-.809-.409-1.432-.974-1.869-1.695-.439-.72-.658-1.529-.658-2.425 0-1.383.512-2.479 1.535-3.288 1.021-.808 2.449-1.222 4.279-1.242h4.91v-.73c0-1.091-.336-1.933-1.008-2.528-.672-.594-1.65-.891-2.938-.891-1.559 0-3.146.555-4.764 1.666l-1.139-1.87c1.109-.721 2.137-1.242 3.082-1.563s2.07-.482 3.377-.482c1.928 0 3.418.473 4.471 1.417 1.051.945 1.588 2.265 1.607 3.96l.029 10.169h-2.688zm-1.621-3.053c.885-.614 1.416-1.427 1.592-2.44v-1.549h-4.529c-1.227 0-2.139.186-2.732.556s-.891.955-.891 1.753c0 .799.301 1.432.906 1.9.604.467 1.412.701 2.424.701 1.267-.001 2.344-.308 3.23-.921zm23.569-18.63v21.684h-2.719v-3.068c-.584 1.033-1.369 1.826-2.352 2.382-.984.555-2.129.833-3.434.833-1.461 0-2.752-.336-3.873-1.008-1.121-.672-1.992-1.607-2.615-2.805s-.936-2.566-.936-4.106c0-1.52.313-2.868.936-4.047a6.872 6.872 0 0 1 2.615-2.762c1.121-.662 2.4-.993 3.844-.993 1.324 0 2.484.273 3.477.818.994.546 1.773 1.335 2.338 2.367v-9.293h2.719zm-5.246 18.79a4.93 4.93 0 0 0 1.855-1.958c.447-.837.672-1.783.672-2.834 0-1.071-.225-2.026-.672-2.864a4.93 4.93 0 0 0-1.855-1.958c-.789-.468-1.691-.702-2.703-.702-1.014 0-1.914.239-2.703.716s-1.408 1.135-1.855 1.972c-.449.838-.672 1.783-.672 2.835s.223 1.997.672 2.834c.447.838 1.066 1.49 1.855 1.958s1.689.701 2.703.701c1.011.001 1.914-.232 2.703-.7zm21.244-11.66a7.161 7.161 0 0 1 2.807 2.762c.672 1.179 1.008 2.528 1.008 4.047s-.336 2.874-1.008 4.062a7.123 7.123 0 0 1-2.807 2.776c-1.197.663-2.566.994-4.105.994-1.559 0-2.938-.331-4.135-.994a7.155 7.155 0 0 1-2.807-2.762c-.672-1.179-1.008-2.538-1.008-4.077 0-1.52.336-2.868 1.008-4.047a7.155 7.155 0 0 1 2.807-2.762c1.197-.662 2.576-.994 4.135-.994 1.538.002 2.907.333 4.105.995zm-6.809 2.075a4.857 4.857 0 0 0-1.842 1.943c-.438.829-.656 1.768-.656 2.82 0 1.072.219 2.026.656 2.864a4.726 4.726 0 0 0 1.842 1.943c.789.458 1.689.687 2.703.687.994 0 1.885-.229 2.674-.687a4.738 4.738 0 0 0 1.842-1.943c.438-.837.656-1.792.656-2.864 0-1.052-.219-1.992-.656-2.82a4.85 4.85 0 0 0-1.842-1.943c-.789-.468-1.68-.702-2.674-.702-1.013.001-1.914.235-2.703.702zm20.748-.497a7.58 7.58 0 0 0-2.207-.351c-.816 0-1.475.151-1.971.453-.498.302-.746.765-.746 1.388 0 .624.277 1.096.832 1.417.557.321 1.398.648 2.529.979 1.07.312 1.947.624 2.629.935.682.312 1.262.77 1.74 1.374.477.604.715 1.403.715 2.396 0 1.461-.551 2.571-1.65 3.331-1.102.76-2.471 1.14-4.105 1.14-1.15 0-2.266-.185-3.348-.556-1.08-.37-1.992-.896-2.732-1.578l1.023-1.987c.643.584 1.438 1.052 2.381 1.403.945.351 1.865.526 2.762.526s1.617-.166 2.164-.497c.545-.331.818-.837.818-1.52 0-.701-.289-1.227-.863-1.578-.574-.351-1.445-.701-2.615-1.052-1.033-.292-1.875-.589-2.527-.891s-1.209-.746-1.666-1.33c-.459-.584-.688-1.344-.688-2.279 0-1.441.527-2.522 1.578-3.244 1.053-.721 2.367-1.081 3.945-1.081.936 0 1.855.131 2.762.395.906.263 1.689.619 2.354 1.066l-.994 2.075a9.344 9.344 0 0 0-2.12-.934z" fill="#FFF"/></svg>