<svg xmlns="http://www.w3.org/2000/svg" width="178.3" height="88.9" viewBox="0 0 178.3 88.9"><path fill="#C4C4C4" d="M178.2 5s-39.5 17.3-88.8 17.3C40.2 22.3 0 5 0 5s40.3-5 89.5-5 88.7 5 88.7 5z"/><path fill="#E3E4E5" d="M162.5 84.9c-48.8 5.4-98 5.4-146.7 0C10.5 58.3 5.2 31.8 0 5.2c59.3 6.5 119.1 6.5 178.3 0-5.3 26.6-10.5 53.1-15.8 79.7"/><path d="M84.2 25.7c3.1 3.5 4.6 8.6 4.6 15.2s-1.5 11.7-4.6 15.3c-3.1 3.6-7.5 5.3-13.2 5.3-5.8 0-10.3-1.8-13.4-5.3-3.1-3.6-4.6-8.6-4.6-15.3s1.5-11.7 4.6-15.2c3.1-3.5 7.5-5.3 13.4-5.3 5.7 0 10.1 1.7 13.2 5.3zm-18.7 5.5c-1.1 2-1.7 5.2-1.7 9.7 0 4.5.6 7.8 1.7 9.8 1.1 2 2.9 3 5.5 3 2.5 0 4.3-1 5.4-3 1.1-2 1.7-5.2 1.7-9.7 0-4.5-.6-7.7-1.7-9.7-1.1-2-2.9-3-5.4-3-2.5-.1-4.4.9-5.5 2.9zm52.4 5.7c2.4 1 4.2 2.5 5.5 4.3 1.3 1.8 1.9 4 1.9 6.3 0 2.8-.7 5.3-2 7.4-1.3 2.1-3.3 3.7-5.8 4.9-2.5 1.2-5.4 1.7-8.7 1.7-2.7 0-5.5-.5-8.3-1.4s-5.4-2.1-7.6-3.6l3.9-7.6c3.7 3 7.4 4.5 10.9 4.5 2 0 3.6-.5 4.7-1.4 1.1-.9 1.7-2.1 1.7-3.7s-.5-2.8-1.6-3.6c-1.1-.8-2.7-1.2-4.9-1.2-5.1 0-8.8.1-11.1.2v-23h27.2v8.5H106v6.2h3.6c3.2 0 5.9.5 8.3 1.5zM62.3 65.7c-.3.3-.5.7-.5 1.3v1.4h2.9v1.4h-2.9v8.9h-1.9v-8.9h-1.4v-1.4h1.4v-1.1c0-.8.2-1.4.5-2s.8-1 1.3-1.2c.5-.3 1.1-.4 1.7-.4.6 0 1.2.2 1.9.5l-.4 1.5c-.5-.2-.9-.3-1.4-.3-.5-.1-.9 0-1.2.3zm10 13v-1.5c-.8 1-2 1.6-3.7 1.6-.7 0-1.4-.1-1.9-.4-.6-.3-1-.7-1.3-1.2s-.5-1.1-.5-1.7c0-1 .4-1.7 1.1-2.3.7-.6 1.7-.8 3-.9h3.4v-.5c0-.8-.2-1.3-.7-1.7-.5-.4-1.1-.6-2-.6-1.1 0-2.2.4-3.3 1.1l-.8-1.3c.8-.5 1.5-.9 2.1-1.1.7-.2 1.4-.3 2.3-.3 1.3 0 2.4.3 3.1 1 .7.7 1.1 1.6 1.1 2.7v7h-1.9zm-1.1-2.1c.6-.4 1-1 1.1-1.7v-1.1h-3.1c-.8 0-1.5.1-1.9.4-.4.3-.6.7-.6 1.2 0 .6.2 1 .6 1.3.4.3 1 .5 1.7.5.8 0 1.6-.2 2.2-.6zm12 1.4c-.8.5-1.7.8-2.5.8s-1.5-.3-2.1-.8c-.5-.5-.8-1.3-.8-2.3v-5.9h-1.5v-1.4h1.5v-2.9h1.9v2.9H83v1.4h-3.3v5.6c0 .6.1 1 .3 1.3.2.3.5.4 1 .4s1.1-.2 1.7-.5l.5 1.4zm9.4-9.4c.8.5 1.5 1.1 1.9 1.9.5.8.7 1.7.7 2.8s-.2 2-.7 2.8c-.5.8-1.1 1.5-1.9 1.9-.8.5-1.8.7-2.8.7-1.1 0-2-.2-2.9-.7-.8-.5-1.5-1.1-1.9-1.9s-.7-1.8-.7-2.8c0-1 .2-2 .7-2.8s1.1-1.4 1.9-1.9c.8-.5 1.8-.7 2.9-.7 1 .1 2 .3 2.8.7zm-4.7 1.5c-.5.3-1 .8-1.3 1.3s-.5 1.2-.5 1.9.2 1.4.5 2c.3.6.7 1 1.3 1.3.5.3 1.2.5 1.9.5s1.3-.2 1.8-.5 1-.8 1.3-1.3c.3-.6.5-1.2.5-2 0-.7-.2-1.4-.5-1.9-.3-.6-.7-1-1.3-1.3-.5-.3-1.2-.5-1.8-.5-.7 0-1.3.2-1.9.5zm13.3-1.5c.6-.4 1.4-.6 2.3-.6v1.8c-1.1 0-2 .2-2.6.8-.7.6-1.1 1.4-1.1 2.4v5.6h-1.9V68h1.9v2.3c.3-.8.8-1.3 1.4-1.7zm12.4.8c.8 1 1.3 2.3 1.3 4.1v.6h-8.4c.1 1 .5 1.7 1.2 2.3.7.6 1.5.8 2.4.8.6 0 1.2-.1 1.8-.3s1-.6 1.4-1l1 1.1c-.5.6-1.2 1-1.9 1.3-.7.3-1.6.5-2.5.5-1 0-2-.2-2.8-.7s-1.4-1.1-1.9-1.9-.7-1.8-.7-2.8.2-2 .7-2.8c.5-.8 1.1-1.5 1.9-1.9.8-.5 1.7-.7 2.8-.7 1.6 0 2.8.4 3.7 1.4zm-.4 3.2c-.1-1-.4-1.7-1-2.3-.6-.6-1.4-.8-2.3-.8-.9 0-1.7.3-2.3.8-.6.6-1 1.3-1.1 2.3h6.7zm8.6-2.9c-.5-.2-1-.2-1.5-.2-.6 0-1 .1-1.4.3-.3.2-.5.5-.5 1 0 .4.2.8.6 1s1 .4 1.7.7c.7.2 1.3.4 1.8.6.5.2.9.5 1.2.9.3.4.5 1 .5 1.7 0 1-.4 1.8-1.1 2.3-.8.5-1.7.8-2.8.8-.8 0-1.6-.1-2.3-.4-.7-.3-1.4-.6-1.9-1.1l.7-1.4c.4.4 1 .7 1.6 1s1.3.4 1.9.4 1.1-.1 1.5-.3.6-.6.6-1c0-.5-.2-.8-.6-1.1-.4-.2-1-.5-1.8-.7-.7-.2-1.3-.4-1.7-.6-.5-.2-.8-.5-1.1-.9-.3-.4-.5-.9-.5-1.6 0-1 .4-1.7 1.1-2.2s1.6-.7 2.7-.7c.6 0 1.3.1 1.9.3.6.2 1.2.4 1.6.7l-.7 1.4c-.5-.5-1-.7-1.5-.9z" fill="#444A4C"/></svg>