<svg xmlns="http://www.w3.org/2000/svg" width="122.7" height="99.7" viewBox="0 0 122.7 99.7"><path fill="#F9F9F9" d="M122.5 4.6s-27.2 15.7-61 15.7S0 4.6 0 4.6 27.7 0 61.5 0s61 4.6 61 4.6z"/><path fill="#FFF" d="M111.8 79.9C78.3 85 44.5 85 10.9 79.9L.1 4c40.8 6.2 81.9 6.2 122.6 0-3.6 25.3-7.2 50.6-10.9 75.9"/><path d="M62.7 22.2c2.6 2.9 3.9 7.2 3.9 12.6 0 5.5-1.3 9.7-3.9 12.7s-6.2 4.4-11 4.4-8.5-1.5-11.1-4.4c-2.6-3-3.9-7.2-3.9-12.7s1.3-9.7 3.9-12.6c2.6-2.9 6.3-4.4 11.1-4.4s8.5 1.5 11 4.4zm-15.5 4.6c-.9 1.6-1.4 4.3-1.4 8.1s.5 6.5 1.4 8.1 2.4 2.5 4.5 2.5c2 0 3.5-.8 4.5-2.5.9-1.7 1.4-4.4 1.4-8.1s-.5-6.4-1.4-8.1c-.9-1.6-2.4-2.5-4.5-2.5s-3.6.8-4.5 2.5zm20.6-8.7H83v33.6h-8.8V25.3h-6.5v-7.2h.1zM39.3 59.9l1.8.8-2.3 1.8-1.5-.2 2-2.4zM37.4 64h1.7v9.8h-1.7V64zm13.2.9c.7.7 1 1.6 1 2.8v6h-1.7v-5.6c0-.8-.2-1.5-.7-1.9-.5-.5-1.1-.7-1.9-.7-.9 0-1.6.3-2.1.8s-.9 1.3-.9 2.1v5.2h-1.7V64h1.7v2.1C45 64.7 46.2 64 48 64c1.1-.1 2 .3 2.6.9zm13.1-4.8v13.7H62v-1.9c-.4.7-.9 1.2-1.5 1.5s-1.3.5-2.2.5-1.7-.2-2.4-.6-1.3-1-1.7-1.8-.6-1.6-.6-2.6.2-1.8.6-2.6c.4-.7.9-1.3 1.7-1.7.7-.4 1.5-.6 2.4-.6.8 0 1.6.2 2.2.5.6.3 1.1.8 1.5 1.5v-5.9h1.7zm-3.3 11.8c.5-.3.9-.7 1.2-1.2s.4-1.1.4-1.8-.1-1.3-.4-1.8c-.3-.5-.7-.9-1.2-1.2-.5-.3-1.1-.4-1.7-.4s-1.2.2-1.7.5-.9.7-1.2 1.2-.4 1.1-.4 1.8.1 1.3.4 1.8c.3.5.7.9 1.2 1.2.5.3 1.1.4 1.7.4s1.2-.2 1.7-.5zm8.4-11.5c.2.2.3.5.3.8s-.1.6-.3.8c-.2.2-.5.3-.8.3s-.6-.1-.8-.3-.2-.5-.2-.8.1-.6.3-.8.5-.3.8-.3.5.1.7.3zM67.2 64h1.7v9.8h-1.7V64zm9.1 1.5c-.6 0-1.2.1-1.7.4s-.9.7-1.2 1.2c-.3.5-.4 1.1-.4 1.8s.1 1.3.4 1.8.7.9 1.1 1.2c.5.3 1 .4 1.7.4.6 0 1.2-.1 1.7-.3.5-.2.9-.5 1.3-.9l1 1c-.4.6-1 1-1.7 1.3s-1.5.4-2.3.4c-.9 0-1.8-.2-2.5-.6s-1.3-1-1.7-1.7-.6-1.6-.6-2.6.2-1.8.6-2.6 1-1.3 1.7-1.8c.7-.4 1.6-.6 2.5-.6.8 0 1.6.1 2.2.4s1.2.6 1.7 1.1l-.9 1.2c-.9-.8-1.8-1.1-2.9-1.1zm13.2-.2c.8.9 1.2 2.1 1.2 3.7v.6H83c.1.9.5 1.6 1.1 2.1s1.3.8 2.2.8c.6 0 1.1-.1 1.6-.3s.9-.5 1.3-.9l.9 1c-.5.5-1.1.9-1.7 1.2-.7.3-1.4.4-2.3.4-1 0-1.8-.2-2.6-.6s-1.3-1-1.7-1.7c-.4-.8-.6-1.6-.6-2.6s.2-1.8.6-2.6c.4-.7 1-1.3 1.7-1.8.7-.4 1.6-.6 2.5-.6 1.6-.1 2.8.4 3.5 1.3zm-.4 2.9c0-.9-.3-1.6-.9-2.1-.5-.5-1.3-.8-2.1-.8-.9 0-1.6.3-2.2.8s-.9 1.2-1 2.1h6.2z" fill="#444A4C"/><ellipse fill="#444A4C" cx="62.4" cy="94.7" rx="42.3" ry="4.9"/></svg>