<svg xmlns="http://www.w3.org/2000/svg" width="249.7" height="96.1" viewBox="0 0 249.7 96.1"><path fill="#7F8480" d="M250.7 5.2s-55.3 17.3-124 17.3c-68.8 0-125-17.3-125-17.3s56.2-5 125-5c68.7 0 124 5 124 5z"/><path fill="#C4C4C4" d="M228 90.3c-67.9 7.5-136.5 7.5-204.5 0C16.1 61.8 8.6 33.3 1 4.9c83 9.1 166.7 9.1 249.6 0-7.5 28.4-15 56.9-22.6 85.4"/><path d="M30.7 32.3h20.7v45.5h-12V42.1h-8.8v-9.8zM69 68.6c1.6.5 3.3.7 5 .7 3.5 0 6.1-1 7.9-3.1 1.8-2.1 2.6-5.1 2.5-8.9-2.3 3.3-5.8 4.9-10.6 4.9-2.9 0-5.4-.6-7.6-1.9-2.2-1.2-3.8-3-5-5.2-1.2-2.2-1.8-4.8-1.8-7.8 0-3.2.7-5.9 2.1-8.3 1.4-2.4 3.3-4.2 5.8-5.5 2.5-1.3 5.4-1.9 8.8-1.9 4 0 7.4.9 10.3 2.7 2.9 1.8 5.1 4.4 6.7 7.8 1.6 3.4 2.3 7.4 2.3 12 0 4.8-.9 9-2.6 12.7-1.7 3.6-4.1 6.4-7.2 8.4-3.1 2-6.8 3-10.9 3-2.5 0-5.1-.3-7.7-1-2.6-.7-4.9-1.6-6.8-2.7l4.4-8.2c1.4 1.1 2.8 1.8 4.4 2.3zm2.8-25.8c-1.1 1.1-1.7 2.7-1.7 4.7 0 1.9.5 3.5 1.6 4.6 1.1 1.1 2.6 1.7 4.6 1.7 2.2 0 3.8-.6 5-1.8 1.2-1.2 1.8-2.7 1.8-4.6 0-1.8-.6-3.2-1.7-4.4-1.1-1.2-2.8-1.8-4.9-1.8-2 0-3.5.5-4.7 1.6zm55.5-12.2V55h-5v-2.6c-.6.9-1.4 1.6-2.4 2.1-.9.5-2 .7-3.2.7-1.7 0-3.1-.4-4.4-1.1-1.3-.8-2.2-1.8-2.9-3.2-.7-1.4-1-3-1-4.8 0-1.8.3-3.3 1-4.7.7-1.4 1.6-2.4 2.9-3.2 1.2-.7 2.7-1.1 4.3-1.1 2.5 0 4.4.9 5.7 2.8v-9.3h5zM121 49.7c.8-.9 1.2-2.1 1.2-3.5s-.4-2.6-1.2-3.5c-.8-.9-1.9-1.4-3.2-1.4-1.3 0-2.4.5-3.2 1.4-.8.9-1.2 2.1-1.3 3.5 0 1.4.4 2.6 1.3 3.5.8.9 1.9 1.4 3.2 1.4 1.4 0 2.4-.5 3.2-1.4zm25.5-10.1c1.5 1.6 2.2 3.9 2.2 6.9v1.2H136c.3 1.1.8 2 1.6 2.6.8.6 1.8.9 2.9.9.8 0 1.6-.2 2.4-.5.8-.3 1.5-.8 2.1-1.4l2.7 2.7c-.9 1-2 1.8-3.3 2.3s-2.7.8-4.3.8c-1.9 0-3.5-.4-4.9-1.1-1.4-.7-2.5-1.8-3.2-3.2-.8-1.4-1.1-2.9-1.1-4.7 0-1.8.4-3.4 1.2-4.8s1.8-2.4 3.2-3.2c1.4-.8 3-1.1 4.7-1.1 2.8.1 5 .9 6.5 2.6zm-2.6 5.1c0-1.2-.4-2.1-1.1-2.8-.7-.7-1.6-1.1-2.8-1.1-1.1 0-2 .3-2.7 1s-1.2 1.6-1.4 2.8h8zm8.3-14.1h5.1V55h-5.1V30.6zm14.6-.4c.5.5.8 1.2.8 2s-.3 1.5-.8 2-1.2.8-2 .8-1.4-.3-2-.8-.8-1.2-.8-2 .3-1.5.8-2 1.2-.8 2-.8 1.5.3 2 .8zm-4.5 7.1h5.1V55h-5.1V37.3zM183.2 54c-.7.4-1.4.7-2.2.9s-1.6.3-2.4.3c-1.6 0-3-.5-4-1.4s-1.5-2.3-1.5-4v-8.2h-2.5v-3.5h2.5v-4.9h5v4.9h4.8v3.5H178v7.3c0 1.4.5 2 1.6 2 .7 0 1.6-.2 2.5-.7l1.1 3.8zM199 38.2c1.4.7 2.5 1.8 3.3 3.2s1.2 2.9 1.2 4.7c0 1.8-.4 3.3-1.2 4.7-.8 1.4-1.9 2.4-3.3 3.2-1.4.8-3.1 1.1-4.9 1.1-1.9 0-3.5-.4-5-1.1-1.4-.8-2.5-1.8-3.3-3.2-.8-1.4-1.2-2.9-1.2-4.7 0-1.8.4-3.4 1.2-4.7s1.9-2.4 3.3-3.2c1.4-.7 3.1-1.1 5-1.1s3.5.4 4.9 1.1zm-8.1 4.5c-.8.9-1.2 2.1-1.2 3.5s.4 2.6 1.2 3.5c.8.9 1.9 1.3 3.2 1.3 1.3 0 2.4-.4 3.2-1.3.8-.9 1.2-2.1 1.2-3.5s-.4-2.6-1.2-3.5c-.8-.9-1.9-1.3-3.2-1.3-1.3-.1-2.4.4-3.2 1.3zm24.3-1.5c-.9-.3-1.8-.4-2.5-.4-.6 0-1.1.1-1.5.3-.4.2-.6.5-.6 1s.3.9.8 1.1c.5.3 1.3.6 2.5.9 1.3.4 2.3.7 3.1 1.1.8.4 1.5.9 2.1 1.6.6.7.9 1.6.9 2.8 0 1.8-.7 3.1-2 4.1-1.3 1-3.1 1.5-5.2 1.5-1.4 0-2.8-.2-4.2-.6-1.3-.4-2.5-1-3.5-1.8l1.6-3.4c.9.7 1.9 1.2 3 1.6 1.1.4 2.2.6 3.1.6.7 0 1.2-.1 1.6-.3.4-.2.6-.6.6-1 0-.5-.3-.9-.8-1.2-.5-.3-1.3-.6-2.5-.9-1.2-.4-2.2-.7-3-1.1-.8-.4-1.5-.9-2.1-1.6-.6-.7-.9-1.6-.9-2.8 0-1.8.7-3.1 2-4.1 1.3-1 3-1.4 5-1.4 1.2 0 2.4.2 3.6.5 1.2.3 2.3.8 3.3 1.5l-1.7 3.5c-.8-.8-1.8-1.2-2.7-1.5zm-99.3 35.1v-1.5c-.8 1.1-2.1 1.6-3.8 1.6-.8 0-1.4-.1-2-.4-.6-.3-1-.7-1.3-1.2s-.5-1.1-.5-1.7c0-1 .4-1.8 1.1-2.3.7-.6 1.7-.9 3-.9h3.5v-.5c0-.8-.2-1.4-.7-1.8-.5-.4-1.2-.6-2.1-.6-1.1 0-2.2.4-3.4 1.2l-.8-1.3c.8-.5 1.5-.9 2.2-1.1.7-.2 1.5-.3 2.4-.3 1.4 0 2.4.3 3.2 1 .7.7 1.1 1.6 1.1 2.8v7.2h-1.9zm-1.2-2.2c.6-.4 1-1 1.1-1.7v-1.1h-3.2c-.9 0-1.5.1-1.9.4-.4.3-.6.7-.6 1.2 0 .6.2 1 .6 1.3s1 .5 1.7.5c.9.1 1.7-.2 2.3-.6zm15.6-7.7c.7.8 1.1 1.8 1.1 3.1v6.7h-1.9V70c0-.9-.3-1.6-.8-2.2s-1.2-.8-2.1-.8c-1 0-1.8.3-2.4.9s-1 1.4-1 2.4v5.8h-1.9V65.4h1.9v2.3c.7-1.6 2.1-2.3 4.1-2.4 1.2 0 2.2.4 3 1.1zm11.2 9.9v-1.5c-.8 1.1-2.1 1.6-3.8 1.6-.8 0-1.4-.1-2-.4s-1-.7-1.3-1.2-.5-1.1-.5-1.7c0-1 .4-1.8 1.1-2.3.7-.6 1.7-.9 3-.9h3.5v-.5c0-.8-.2-1.4-.7-1.8-.5-.4-1.2-.6-2.1-.6-1.1 0-2.2.4-3.4 1.2l-.8-1.3c.8-.5 1.5-.9 2.2-1.1.7-.2 1.5-.3 2.4-.3 1.4 0 2.4.3 3.2 1 .7.7 1.1 1.6 1.1 2.8v7.2h-1.9zm-1.2-2.2c.6-.4 1-1 1.1-1.7v-1.1h-3.2c-.9 0-1.5.1-1.9.4-.4.3-.6.7-.6 1.2 0 .6.2 1 .6 1.3s1 .5 1.7.5c.9.1 1.7-.2 2.3-.6zm6.6-13.1h1.9v15.3h-1.9V61zm7.6.3c.2.2.3.5.3.9s-.1.7-.3.9c-.2.2-.5.4-.9.4s-.6-.1-.9-.4c-.2-.2-.3-.5-.3-.9s.1-.7.3-.9c.2-.2.5-.4.9-.4s.6.2.9.4zm-1.8 4.1h1.9v10.9h-1.9V65.4zm4.9 0h8.8v1.4l-6.6 7.9h6.8v1.6h-9.1v-1.4L164 67h-6.4v-1.6zm18.1 10.9v-1.5c-.8 1.1-2.1 1.6-3.8 1.6-.8 0-1.4-.1-2-.4s-1-.7-1.3-1.2-.5-1.1-.5-1.7c0-1 .4-1.8 1.1-2.3.7-.6 1.7-.9 3-.9h3.5v-.5c0-.8-.2-1.4-.7-1.8-.5-.4-1.2-.6-2.1-.6-1.1 0-2.2.4-3.4 1.2l-.8-1.3c.8-.5 1.5-.9 2.2-1.1.7-.2 1.5-.3 2.4-.3 1.4 0 2.4.3 3.2 1 .7.7 1.1 1.6 1.1 2.8v7.2h-1.9zm-1.2-2.2c.6-.4 1-1 1.1-1.7v-1.1h-3.2c-.9 0-1.5.1-1.9.4-.4.3-.6.7-.6 1.2 0 .6.2 1 .6 1.3s1 .5 1.7.5c1 .1 1.7-.2 2.3-.6zM191.2 61v15.3h-1.9v-2.2c-.4.7-1 1.3-1.7 1.7-.7.4-1.5.6-2.4.6-1 0-1.9-.2-2.7-.7-.8-.5-1.4-1.1-1.8-2-.4-.8-.7-1.8-.7-2.9 0-1.1.2-2 .7-2.9.4-.8 1.1-1.5 1.8-2s1.7-.7 2.7-.7c.9 0 1.8.2 2.5.6.7.4 1.3.9 1.7 1.7V61h1.8zm-3.7 13.2c.6-.3 1-.8 1.3-1.4s.5-1.3.5-2c0-.8-.2-1.4-.5-2-.3-.6-.8-1.1-1.3-1.4-.6-.3-1.2-.5-1.9-.5s-1.4.2-1.9.5-1 .8-1.3 1.4-.5 1.3-.5 2 .2 1.4.5 2 .8 1.1 1.3 1.4 1.2.5 1.9.5 1.3-.1 1.9-.5zm15-8.2c.8.5 1.5 1.1 2 2 .5.8.7 1.8.7 2.9s-.2 2-.7 2.9c-.5.8-1.1 1.5-2 2-.8.5-1.8.7-2.9.7-1.1 0-2.1-.2-2.9-.7-.8-.5-1.5-1.1-2-2-.5-.8-.7-1.8-.7-2.9 0-1.1.2-2 .7-2.9.5-.8 1.1-1.5 2-2 .8-.5 1.8-.7 2.9-.7 1.1 0 2 .2 2.9.7zm-4.8 1.5c-.6.3-1 .8-1.3 1.4s-.5 1.2-.5 2 .2 1.4.5 2 .7 1 1.3 1.4c.6.3 1.2.5 1.9.5s1.3-.2 1.9-.5c.6-.3 1-.8 1.3-1.4s.5-1.3.5-2-.2-1.4-.5-2-.7-1-1.3-1.4c-.6-.3-1.2-.5-1.9-.5s-1.4.1-1.9.5zm14.6-.4c-.5-.2-1.1-.2-1.6-.2-.6 0-1 .1-1.4.3-.4.2-.5.5-.5 1s.2.8.6 1c.4.2 1 .5 1.8.7.8.2 1.4.4 1.9.7.5.2.9.5 1.2 1 .3.4.5 1 .5 1.7 0 1-.4 1.8-1.2 2.4-.8.5-1.7.8-2.9.8-.8 0-1.6-.1-2.4-.4s-1.4-.6-1.9-1.1l.7-1.4c.5.4 1 .7 1.7 1s1.3.4 2 .4 1.1-.1 1.5-.4c.4-.2.6-.6.6-1.1 0-.5-.2-.9-.6-1.1-.4-.2-1-.5-1.8-.7-.7-.2-1.3-.4-1.8-.6-.5-.2-.9-.5-1.2-.9-.3-.4-.5-.9-.5-1.6 0-1 .4-1.8 1.1-2.3.7-.5 1.7-.8 2.8-.8.7 0 1.3.1 2 .3s1.2.4 1.7.8l-.7 1.5c-.5-.6-1-.8-1.6-1z" fill="#444A4C"/></svg>