<svg xmlns="http://www.w3.org/2000/svg" width="439.4" height="121.4" viewBox="0 0 439.4 121.4"><path fill="#A53A52" d="M440.2 6S343 23.3 222 23.3C101.1 23.2 2.2 6 2.2 6S101.1 1 222 1c121 0 218.2 5 218.2 5z"/><path fill="#CC445C" d="M402.2 112.4c-121.3 13.4-243.6 13.4-364.9 0C25.2 76.9 13 41.4.8 6c145.6 16 292.5 16 438 0-12.2 35.4-24.4 70.9-36.6 106.4"/><path d="M152.2 78v14h-9v15.2h-16.9V92H94.4V79.5l20-42.8h17.5L113.1 78h13.2V63h16.9v15h9zm4.6-41.3H213v12.8l-26.5 57.7H167l25.6-55.7h-19.5l-.1 10h-16.2V36.7zm88.2-.4V64h-5.7v-3c-.7 1-1.6 1.8-2.7 2.4-1.1.5-2.3.8-3.6.8-1.9 0-3.5-.4-5-1.3-1.4-.9-2.5-2.1-3.3-3.6-.8-1.6-1.2-3.4-1.2-5.4 0-2 .4-3.8 1.2-5.3.8-1.5 1.9-2.7 3.3-3.6 1.4-.8 3-1.3 4.9-1.3 2.8 0 5 1.1 6.5 3.2V36.3h5.6zM237.9 58c.9-1 1.4-2.4 1.4-4s-.5-3-1.4-4c-.9-1-2.1-1.5-3.6-1.5s-2.7.5-3.6 1.5-1.4 2.4-1.4 4 .5 3 1.4 4c.9 1 2.1 1.5 3.6 1.5 1.5.1 2.7-.5 3.6-1.5zm28.8-11.5c1.7 1.9 2.5 4.5 2.5 7.8v1.4h-14.4c.3 1.3.9 2.3 1.9 3 .9.7 2 1.1 3.3 1.1.9 0 1.8-.2 2.7-.5.9-.4 1.6-.9 2.3-1.6l3 3.1c-1 1.1-2.3 2-3.7 2.6s-3.1.9-4.9.9c-2.1 0-4-.4-5.5-1.3-1.6-.8-2.8-2-3.6-3.6-.9-1.5-1.3-3.3-1.3-5.3s.4-3.8 1.3-5.4c.9-1.6 2.1-2.8 3.6-3.6 1.6-.9 3.4-1.3 5.4-1.3 3.3-.1 5.7.9 7.4 2.7zm-2.9 5.8c0-1.3-.5-2.4-1.3-3.2-.8-.8-1.8-1.2-3.2-1.2-1.2 0-2.3.4-3.1 1.2s-1.4 1.8-1.6 3.2h9.2zm9.3-16h5.7V64h-5.7V36.3zm16.6-.4c.6.6.9 1.4.9 2.3 0 .9-.3 1.7-.9 2.3-.6.6-1.3.9-2.3.9-.9 0-1.6-.3-2.2-.9-.6-.6-.9-1.4-.9-2.3 0-.9.3-1.7.9-2.3.6-.6 1.3-.9 2.2-.9 1 0 1.7.3 2.3.9zm-5.1 8h5.7v20h-5.7v-20zm23.6 18.9c-.7.4-1.6.8-2.5 1-.9.2-1.8.4-2.7.4-1.9 0-3.4-.5-4.5-1.6-1.2-1.1-1.7-2.6-1.7-4.6v-9.3H294v-3.9h2.8v-5.5h5.7v5.5h5.4v4h-5.4v8.3c0 1.5.6 2.3 1.8 2.3.8 0 1.8-.2 2.8-.7l1.1 4.1zm18-17.8c1.6.8 2.9 2 3.8 3.6.9 1.5 1.3 3.3 1.3 5.4 0 2-.4 3.8-1.3 5.3-.9 1.6-2.2 2.8-3.8 3.6-1.6.9-3.5 1.3-5.6 1.3-2.1 0-4-.4-5.6-1.3-1.6-.9-2.9-2.1-3.8-3.6-.9-1.6-1.3-3.3-1.3-5.3s.4-3.8 1.3-5.4c.9-1.5 2.2-2.7 3.8-3.6 1.6-.8 3.5-1.3 5.6-1.3 2.1 0 4 .5 5.6 1.3zm-9.2 5c-.9 1-1.4 2.3-1.4 4s.5 3 1.4 4c.9 1 2.1 1.5 3.6 1.5s2.7-.5 3.6-1.5c.9-1 1.4-2.3 1.4-4s-.5-3-1.4-4-2.1-1.5-3.6-1.5-2.7.5-3.6 1.5zm27.5-1.6c-1.1-.3-2-.5-2.9-.5-.7 0-1.3.1-1.7.4-.4.2-.6.6-.6 1.1 0 .5.3 1 .9 1.3.6.3 1.5.6 2.8 1 1.4.4 2.6.8 3.5 1.2.9.4 1.7 1 2.4 1.8s1 1.9 1 3.2c0 2-.8 3.5-2.3 4.6-1.5 1.1-3.5 1.7-5.9 1.7-1.6 0-3.2-.2-4.7-.7-1.5-.5-2.8-1.2-3.9-2.1l1.9-3.9c1 .8 2.2 1.4 3.4 1.8 1.3.4 2.4.7 3.6.7.8 0 1.4-.1 1.8-.4.5-.3.7-.7.7-1.2 0-.6-.3-1-.9-1.3-.6-.3-1.5-.7-2.8-1-1.4-.4-2.5-.8-3.4-1.2-.9-.4-1.7-1-2.3-1.8-.6-.8-1-1.9-1-3.1 0-2 .7-3.5 2.2-4.6 1.5-1.1 3.4-1.6 5.7-1.6 1.4 0 2.7.2 4.1.6 1.4.4 2.6.9 3.7 1.7l-2 3.9c-1.2-.8-2.2-1.3-3.3-1.6zM242.6 88.9c1.3 1.4 2 3.3 2 5.7V107h-3.5V95.5c0-1.7-.5-3-1.4-4s-2.3-1.4-3.9-1.4c-1.8 0-3.3.6-4.4 1.7-1.1 1.1-1.8 2.6-1.9 4.4V107H226V86.9h3.5v4.2c1.3-2.9 3.9-4.3 7.6-4.4 2.3.1 4.2.8 5.5 2.2zm22-.8c1.6.9 2.8 2.1 3.6 3.6s1.3 3.3 1.3 5.3-.4 3.7-1.3 5.3c-.9 1.5-2.1 2.7-3.6 3.6-1.6.9-3.3 1.3-5.3 1.3s-3.8-.4-5.4-1.3c-1.6-.9-2.8-2.1-3.6-3.6-.9-1.5-1.3-3.3-1.3-5.3s.4-3.7 1.3-5.3c.9-1.5 2.1-2.7 3.6-3.6 1.6-.9 3.3-1.3 5.4-1.3 2 0 3.8.4 5.3 1.3zm-8.8 2.7c-1 .6-1.8 1.4-2.4 2.5-.6 1.1-.9 2.3-.9 3.7 0 1.4.3 2.6.9 3.7.6 1.1 1.4 1.9 2.4 2.5 1 .6 2.2.9 3.5.9 1.3 0 2.4-.3 3.5-.9 1-.6 1.8-1.4 2.4-2.5.6-1.1.9-2.3.9-3.7 0-1.4-.3-2.6-.9-3.7-.6-1.1-1.4-1.9-2.4-2.5-1-.6-2.2-.9-3.5-.9-1.3 0-2.5.3-3.5.9zm25.6-10.4h8.8V107h-8.8V80.4zm27.7 7c-1.8-.6-3.2-.9-4.3-.9-1.1 0-1.6.4-1.6 1.2 0 .6.3 1.1 1 1.4.7.3 1.8.7 3.3 1.1 1.9.5 3.5 1.1 4.7 1.6 1.3.5 2.3 1.4 3.3 2.5s1.4 2.7 1.4 4.5c0 1.9-.5 3.5-1.5 4.8-1 1.3-2.3 2.3-4 2.9-1.7.6-3.6.9-5.7.9-2.4 0-4.7-.4-7.1-1.2-2.4-.8-4.5-1.8-6.2-3.2l3.3-6.6c1.3 1.2 3 2.2 5 3 2 .8 3.7 1.2 5.1 1.2.7 0 1.2-.1 1.6-.4.4-.2.6-.6.6-1.1 0-.6-.4-1.1-1.1-1.4-.7-.3-1.9-.7-3.4-1.1-1.9-.5-3.4-1-4.7-1.5s-2.3-1.3-3.2-2.4c-.9-1.1-1.4-2.5-1.4-4.4 0-1.8.5-3.3 1.4-4.6.9-1.3 2.3-2.3 4-3.1 1.7-.7 3.7-1.1 6-1.1 2.1 0 4.1.3 6.2.9 2.1.6 3.9 1.4 5.4 2.3l-3.2 6.7c-1.6-.6-3.2-1.4-4.9-2zm30.6-4.5c1.9 1.7 2.8 4 2.8 7 0 3.2-.9 5.7-2.8 7.5s-4.6 2.7-8 2.7H328v6.9h-8.8V80.4h12.5c3.4 0 6.1.8 8 2.5zm-6.3 9.6c.5-.6.8-1.4.8-2.4s-.3-1.8-.8-2.3c-.5-.5-1.3-.8-2.2-.8H328v6.3h3.2c.9.1 1.7-.2 2.2-.8z" fill="#FFF"/></svg>