<svg xmlns="http://www.w3.org/2000/svg" width="332.2" height="105.2" viewBox="0 0 332.2 105.2"><path fill="#2F3435" d="M332.9 6s-73.7 17.3-165.5 17.3S.6 6 .6 6s75-5 166.8-5c91.7 0 165.5 5 165.5 5z"/><path fill="#444A4C" d="M303.2 98.7c-90.6 10-182.1 10-272.7 0C20.7 67.9 11 37.1 1.2 6.3c110 12.1 221.1 12.1 331.1 0l-29.1 92.4"/><path d="M98 75.5v11.6H55.8l-.1-9.6 20.2-20.7c1.6-1.6 2.9-3.3 3.9-4.9 1-1.6 1.5-3 1.5-4.2 0-1.5-.6-2.7-1.7-3.5-1.1-.8-2.7-1.2-4.7-1.2-2.2 0-4.7.6-7.4 1.9-2.7 1.2-5.3 3-7.9 5.2l-5.5-10.7c7.6-5.5 15.3-8.3 23-8.3 3.7 0 7 .6 9.9 1.8 2.9 1.2 5.2 2.9 6.9 5.1s2.5 4.7 2.5 7.6-.9 5.8-2.8 8.8c-1.9 3-4.5 6.3-8 9.7L74.4 75.5H98zm36.8-32.6c-2-.6-4-.9-6.1-.9-4.3 0-7.5 1.3-9.6 3.8-2.1 2.6-3.2 6.1-3 10.7 2.8-4 7.1-5.9 12.9-5.9 3.5 0 6.6.8 9.3 2.3 2.7 1.5 4.7 3.6 6.2 6.3 1.5 2.7 2.2 5.9 2.2 9.5 0 3.9-.8 7.2-2.5 10.1-1.7 2.9-4.1 5.1-7.2 6.6-3.1 1.6-6.7 2.3-10.7 2.3-4.9 0-9-1.1-12.6-3.3-3.5-2.2-6.2-5.4-8.1-9.5-1.9-4.1-2.8-9-2.8-14.6 0-5.9 1-11 3.1-15.4s5-7.8 8.8-10.2c3.8-2.4 8.2-3.6 13.3-3.6 3.1 0 6.2.4 9.4 1.3 3.2.8 5.9 2 8.3 3.3l-5.4 10c-1.7-1.3-3.5-2.2-5.5-2.8zm-15.1 20.3c-1.5 1.5-2.2 3.3-2.2 5.6 0 2.2.7 4 2.1 5.5 1.4 1.4 3.4 2.1 6 2.1 2.5 0 4.4-.7 5.9-2 1.4-1.3 2.1-3.3 2.1-5.7 0-2.4-.7-4.2-2.1-5.6-1.4-1.3-3.3-2-5.7-2-2.6-.1-4.6.6-6.1 2.1zm58.1-30.7v25.2h-5.2V55c-.7 1-1.5 1.7-2.4 2.2-1 .5-2.1.7-3.3.7-1.7 0-3.2-.4-4.5-1.2-1.3-.8-2.3-1.9-3-3.3-.7-1.4-1.1-3.1-1.1-4.9 0-1.8.4-3.4 1.1-4.9.7-1.4 1.7-2.5 3-3.3 1.3-.8 2.8-1.2 4.4-1.2 2.6 0 4.5 1 5.9 2.9v-9.6h5.1zm-6.5 19.7c.8-.9 1.3-2.2 1.3-3.6 0-1.5-.4-2.7-1.3-3.6-.8-.9-1.9-1.4-3.3-1.4s-2.5.5-3.3 1.4c-.8.9-1.3 2.2-1.3 3.6 0 1.5.5 2.7 1.3 3.6.8.9 2 1.4 3.3 1.4 1.4.1 2.5-.4 3.3-1.4zm26.2-10.4c1.5 1.7 2.3 4.1 2.3 7.1v1.3h-13.1c.3 1.2.9 2.1 1.7 2.7.8.6 1.8 1 3 1 .9 0 1.7-.2 2.5-.5s1.5-.8 2.1-1.4l2.7 2.8c-.9 1-2.1 1.8-3.4 2.4-1.3.6-2.8.8-4.4.8-1.9 0-3.6-.4-5-1.2s-2.5-1.9-3.3-3.3c-.8-1.4-1.2-3-1.2-4.9 0-1.9.4-3.5 1.2-4.9.8-1.4 1.9-2.5 3.3-3.3 1.4-.8 3.1-1.2 4.9-1.2 3 0 5.2.9 6.7 2.6zm-2.6 5.2c0-1.2-.4-2.2-1.2-2.9-.7-.7-1.7-1.1-2.9-1.1-1.1 0-2.1.4-2.8 1.1-.8.7-1.2 1.7-1.4 2.9h8.3zm8.5-14.5h5.2v25.2h-5.2V32.5zm15.1-.4c.5.5.8 1.2.8 2.1 0 .9-.3 1.6-.8 2.1s-1.2.8-2.1.8c-.8 0-1.5-.3-2-.8-.5-.6-.8-1.2-.8-2.1 0-.9.3-1.6.8-2.1s1.2-.8 2-.8c.9 0 1.6.3 2.1.8zm-4.6 7.3h5.2v18.2h-5.2V39.4zm21.5 17.2c-.7.4-1.4.7-2.3.9-.8.2-1.7.3-2.5.3-1.7 0-3.1-.5-4.1-1.5-1.1-1-1.6-2.4-1.6-4.2v-8.4h-2.5v-3.6h2.5v-5h5.2v5h5v3.6h-5v7.5c0 1.4.6 2.1 1.7 2.1.8 0 1.6-.2 2.5-.7l1.1 4zm16.4-16.2c1.5.8 2.6 1.9 3.4 3.3.8 1.4 1.2 3 1.2 4.9 0 1.8-.4 3.5-1.2 4.9-.8 1.4-2 2.5-3.4 3.3-1.5.8-3.2 1.2-5.1 1.2-1.9 0-3.7-.4-5.1-1.2-1.5-.8-2.6-1.9-3.4-3.3-.8-1.4-1.2-3-1.2-4.9 0-1.9.4-3.5 1.2-4.9.8-1.4 2-2.5 3.4-3.3 1.5-.8 3.2-1.2 5.1-1.2 1.9 0 3.6.4 5.1 1.2zm-8.4 4.6c-.8.9-1.3 2.1-1.3 3.6s.4 2.7 1.3 3.6c.8.9 2 1.4 3.3 1.4 1.3 0 2.4-.5 3.3-1.4.8-.9 1.3-2.1 1.3-3.6s-.4-2.7-1.3-3.6c-.8-.9-1.9-1.4-3.3-1.4s-2.5.4-3.3 1.4zm25-1.5c-1-.3-1.8-.5-2.6-.5-.6 0-1.1.1-1.5.3-.4.2-.6.6-.6 1 0 .5.3.9.8 1.2.5.3 1.4.6 2.5.9 1.3.4 2.4.8 3.2 1.1.8.4 1.6.9 2.2 1.7s.9 1.7.9 2.9c0 1.8-.7 3.2-2.1 4.2-1.4 1-3.2 1.5-5.3 1.5-1.5 0-2.9-.2-4.3-.7-1.4-.4-2.6-1.1-3.6-1.9l1.7-3.5c.9.7 2 1.3 3.1 1.7 1.1.4 2.2.6 3.2.6.7 0 1.3-.1 1.7-.4.4-.2.6-.6.6-1.1 0-.5-.3-.9-.8-1.2-.5-.3-1.4-.6-2.6-.9-1.2-.4-2.3-.7-3.1-1.1-.8-.4-1.5-.9-2.1-1.6-.6-.7-.9-1.7-.9-2.9 0-1.8.7-3.2 2-4.2 1.4-1 3.1-1.5 5.2-1.5 1.2 0 2.5.2 3.7.5 1.2.4 2.4.9 3.4 1.5l-1.8 3.6c-.9-.5-1.9-.9-2.9-1.2zM163.9 67.7c-.5.4-.7 1-.7 1.8v2h4.3v2.1h-4.3v12.9h-2.7V73.6h-2v-2.1h2v-1.7c0-1.1.2-2.1.7-2.9.5-.8 1.1-1.4 1.9-1.8.8-.4 1.6-.6 2.5-.6.9 0 1.8.2 2.7.7l-.6 2.2c-.7-.3-1.4-.5-2-.5-.8.2-1.4.4-1.8.8zm8.6-2.3c.3.3.5.8.5 1.3s-.2.9-.5 1.3-.7.5-1.2.5-.9-.2-1.2-.5-.5-.8-.5-1.3.2-.9.5-1.3c.3-.3.7-.5 1.2-.5.4 0 .9.1 1.2.5zm-2.6 5.6h2.7v15.5h-2.7V71zm8.2-6.2h2.7v21.7h-2.7V64.8zm16.5 20.7c-1.2.8-2.4 1.1-3.6 1.1s-2.2-.4-3-1.1-1.1-1.8-1.1-3.3v-8.6h-2.2v-2.1h2.2v-4.1h2.7v4.1h4.7v2.1h-4.7v8.1c0 .9.2 1.5.5 1.8.3.4.8.6 1.4.6.7 0 1.5-.2 2.4-.7l.7 2.1zm8.1-13.7c.9-.6 2-.9 3.3-.9v2.6c-1.6-.1-2.9.4-3.8 1.2-1 .9-1.5 2.1-1.7 3.5v8.2h-2.7V71h2.7v3.3c.6-1.1 1.3-1.9 2.2-2.5zm15.1 14.7v-2.2c-1.2 1.5-3 2.3-5.4 2.3-1.1 0-2-.2-2.8-.6s-1.4-1-1.9-1.7c-.4-.7-.7-1.5-.7-2.4 0-1.4.5-2.5 1.5-3.3 1-.8 2.4-1.2 4.3-1.2h4.9v-.7c0-1.1-.3-1.9-1-2.5-.7-.6-1.7-.9-2.9-.9-1.6 0-3.1.6-4.8 1.7l-1.1-1.9c1.1-.7 2.1-1.2 3.1-1.6s2.1-.5 3.4-.5c1.9 0 3.4.5 4.5 1.4 1.1.9 1.6 2.3 1.6 4v10.2h-2.7zm-1.6-3.1c.9-.6 1.4-1.4 1.6-2.4v-1.5h-4.5c-1.2 0-2.1.2-2.7.6-.6.4-.9 1-.9 1.8s.3 1.4.9 1.9c.6.5 1.4.7 2.4.7 1.2-.1 2.3-.5 3.2-1.1zm23.5-18.6v21.7H237v-3.1c-.6 1-1.4 1.8-2.4 2.4-1 .6-2.1.8-3.4.8-1.5 0-2.8-.3-3.9-1s-2-1.6-2.6-2.8c-.6-1.2-.9-2.6-.9-4.1 0-1.5.3-2.9.9-4 .6-1.2 1.5-2.1 2.6-2.8 1.1-.7 2.4-1 3.8-1 1.3 0 2.5.3 3.5.8s1.8 1.3 2.3 2.4v-9.3h2.8zm-5.2 18.8c.8-.5 1.4-1.1 1.9-2 .4-.8.7-1.8.7-2.8 0-1.1-.2-2-.7-2.9-.4-.8-1.1-1.5-1.9-2s-1.7-.7-2.7-.7-1.9.2-2.7.7-1.4 1.1-1.9 2-.7 1.8-.7 2.8c0 1.1.2 2 .7 2.8.4.8 1.1 1.5 1.9 2s1.7.7 2.7.7 1.9-.1 2.7-.6zm21.2-11.7c1.2.7 2.1 1.6 2.8 2.8.7 1.2 1 2.5 1 4s-.3 2.9-1 4.1c-.7 1.2-1.6 2.1-2.8 2.8-1.2.7-2.6 1-4.1 1-1.6 0-2.9-.3-4.1-1-1.2-.7-2.1-1.6-2.8-2.8-.7-1.2-1-2.5-1-4.1 0-1.5.3-2.9 1-4 .7-1.2 1.6-2.1 2.8-2.8 1.2-.7 2.6-1 4.1-1 1.6 0 2.9.4 4.1 1zm-6.8 2.1c-.8.5-1.4 1.1-1.8 1.9s-.7 1.8-.7 2.8c0 1.1.2 2 .7 2.9.4.8 1.1 1.5 1.8 1.9.8.5 1.7.7 2.7.7 1 0 1.9-.2 2.7-.7.8-.5 1.4-1.1 1.8-1.9.4-.8.7-1.8.7-2.9 0-1.1-.2-2-.7-2.8s-1.1-1.5-1.8-1.9-1.7-.7-2.7-.7c-1 0-1.9.2-2.7.7zm20.8-.5c-.8-.2-1.5-.4-2.2-.4-.8 0-1.5.2-2 .5s-.7.8-.7 1.4c0 .6.3 1.1.8 1.4.6.3 1.4.6 2.5 1 1.1.3 1.9.6 2.6.9.7.3 1.3.8 1.7 1.4.5.6.7 1.4.7 2.4 0 1.5-.6 2.6-1.7 3.3-1.1.8-2.5 1.1-4.1 1.1-1.2 0-2.3-.2-3.3-.6s-2-.9-2.7-1.6l1-2c.6.6 1.4 1.1 2.4 1.4.9.4 1.9.5 2.8.5s1.6-.2 2.2-.5c.5-.3.8-.8.8-1.5s-.3-1.2-.9-1.6c-.6-.4-1.4-.7-2.6-1.1-1-.3-1.9-.6-2.5-.9-.7-.3-1.2-.7-1.7-1.3-.5-.6-.7-1.3-.7-2.3 0-1.4.5-2.5 1.6-3.2 1.1-.7 2.4-1.1 3.9-1.1.9 0 1.9.1 2.8.4.9.3 1.7.6 2.4 1.1l-1 2.1c-.7-.2-1.4-.6-2.1-.8z" fill="#FFF"/></svg>