<svg xmlns="http://www.w3.org/2000/svg" width="438.2" height="490.5" viewBox="0 0 438.2 490.5"><path fill="#CC455C" d="M221.4 22.3C100.4 22.3.1 5 .1 5c12.2 35.5 24.4 70.9 36.6 106.4 121.3 13.4 243.6 13.4 364.9 0C413.8 75.9 426 40.5 438.2 5c-3 .5-97.8 17.3-216.8 17.3z"/><path fill="#A63B53" d="M438.2 5c.1 0-95.8-5-216.8-5S.1 5 .1 5s100.3 17.3 221.3 17.3c119 0 213.8-16.8 216.8-17.3z"/><path d="M130.3 64c4.1 1.8 7.3 4.3 9.6 7.5 2.2 3.2 3.4 6.9 3.4 11.1 0 4.9-1.2 9.2-3.5 12.9-2.3 3.7-5.7 6.5-10.1 8.5-4.4 2-9.4 3-15.2 3-4.7 0-9.5-.8-14.5-2.4s-9.4-3.7-13.3-6.3L93.5 85c6.5 5.2 12.8 7.8 19 7.8 3.5 0 6.2-.8 8.1-2.4s2.9-3.7 2.9-6.5c0-2.7-1-4.8-2.9-6.3-1.9-1.4-4.8-2.2-8.6-2.2-8.9 0-15.4.1-19.3.4V35.7h47.4v14.8h-30.5v10.8h6.3c5.5 0 10.3.9 14.4 2.7zm74.9-19.6c5.4 6.2 8.1 15 8.1 26.5s-2.7 20.4-8.1 26.6c-5.4 6.2-13.1 9.3-23.1 9.3-10.1 0-17.9-3.1-23.3-9.3-5.4-6.2-8.1-15.1-8.1-26.6s2.7-20.4 8.1-26.5c5.4-6.2 13.2-9.3 23.3-9.3 10 0 17.7 3.1 23.1 9.3zM172.6 54c-1.9 3.5-2.9 9.1-2.9 16.9 0 7.9 1 13.6 2.9 17 1.9 3.5 5.1 5.2 9.6 5.2 4.3 0 7.4-1.7 9.4-5.2s3-9.1 3-17c0-7.8-1-13.5-3-16.9-2-3.5-5.1-5.2-9.4-5.2-4.5 0-7.7 1.7-9.6 5.2zm51.6-14.6h4.6l3.7 11.3 3.6-11.3h4.4l-5.9 15.5h-4.5l-5.9-15.5zm26.9 15.5v-1.8c-.5.7-1.2 1.2-2 1.5-.8.3-1.8.5-2.9.5-1.6 0-2.9-.4-3.9-1.3s-1.4-2.1-1.4-3.5c0-1.5.5-2.6 1.5-3.4 1-.8 2.5-1.2 4.4-1.3h4.3v-.3c0-.8-.3-1.5-.8-1.9-.5-.5-1.4-.7-2.4-.7-1.4 0-3 .5-4.6 1.4l-1.4-3.1c1.2-.6 2.4-1.1 3.5-1.4 1.1-.3 2.3-.4 3.5-.4 2.1 0 3.7.5 4.8 1.5s1.7 2.3 1.7 4.1v10.1h-4.3zm-1.3-3.7c.7-.4 1.1-1 1.2-1.7v-1.4h-3.5c-.9 0-1.5.1-1.9.4-.4.3-.6.7-.6 1.3s.2 1.1.6 1.4c.4.4 1 .5 1.8.5.9.2 1.7 0 2.4-.5zm16-11.2c.9-.5 1.9-.8 3-.8v4.2h-.7c-1.4 0-2.4.4-3.2 1.1s-1.2 1.7-1.2 3V55h-4.4V39.4h4.4v2.8c.5-1 1.2-1.7 2.1-2.2zm9.4-6.9c.5.5.7 1.1.7 1.8s-.2 1.3-.7 1.8-1 .7-1.7.7-1.3-.2-1.7-.7c-.5-.5-.7-1.1-.7-1.8s.2-1.3.7-1.8 1-.7 1.7-.7c.7.1 1.2.3 1.7.7zm-3.9 6.3h4.4v15.5h-4.4V39.4zM289 54.9v-1.8c-.5.7-1.2 1.2-2 1.5s-1.8.5-2.9.5c-1.6 0-2.9-.4-3.9-1.3s-1.4-2.1-1.4-3.5c0-1.5.5-2.6 1.5-3.4 1-.8 2.5-1.2 4.4-1.3h4.3v-.3c0-.8-.3-1.5-.8-1.9-.5-.5-1.4-.7-2.4-.7-1.4 0-3 .5-4.6 1.4l-1.4-3.1c1.2-.6 2.4-1.1 3.5-1.4 1.1-.3 2.3-.4 3.5-.4 2.1 0 3.7.5 4.8 1.5 1.1 1 1.7 2.3 1.7 4.1v10.1H289zm-1.3-3.7c.7-.4 1.1-1 1.2-1.7v-1.4h-3.5c-.9 0-1.5.1-1.9.4-.4.3-.6.7-.6 1.3s.2 1.1.6 1.4c.4.4 1 .5 1.8.5 1 .2 1.8 0 2.4-.5zm-.3-18.4l3.9 1.5-3.9 3.2-3.2-.3 3.2-4.4zm7.3 6.6h4.6l3.7 11.3 3.6-11.3h4.4l-5.9 15.5h-4.6l-5.8-15.5zm30.1 2c1.3 1.4 1.9 3.5 1.9 6v1.1h-11.1c.3 1 .7 1.7 1.4 2.3.7.5 1.6.8 2.6.8.7 0 1.4-.1 2.1-.4.7-.3 1.3-.7 1.8-1.2l2.3 2.4c-.8.9-1.7 1.6-2.9 2-1.1.5-2.4.7-3.8.7-1.6 0-3.1-.3-4.3-1-1.2-.7-2.2-1.6-2.8-2.8-.7-1.2-1-2.6-1-4.1 0-1.6.3-3 1-4.2s1.6-2.1 2.8-2.8c1.2-.7 2.6-1 4.2-1 2.6 0 4.5.7 5.8 2.2zm-2.3 4.4c0-1-.4-1.8-1-2.5-.6-.6-1.4-.9-2.5-.9-1 0-1.8.3-2.4.9-.6.6-1.1 1.4-1.2 2.5h7.1zm11.1-12.7c.5.5.7 1.1.7 1.8s-.2 1.3-.7 1.8-1 .7-1.7.7-1.3-.2-1.7-.7c-.5-.5-.7-1.1-.7-1.8s.2-1.3.7-1.8 1-.7 1.7-.7c.6.1 1.2.3 1.7.7zm-4 6.3h4.4v15.5h-4.4V39.4zm16 3.4c-.8-.3-1.6-.4-2.2-.4-.5 0-1 .1-1.3.3s-.5.5-.5.9.2.8.7 1c.4.2 1.2.5 2.2.8 1.1.3 2 .6 2.7 1s1.3.8 1.8 1.4.8 1.4.8 2.5c0 1.5-.6 2.7-1.8 3.6-1.2.9-2.7 1.3-4.5 1.3-1.3 0-2.5-.2-3.7-.6s-2.2-.9-3.1-1.6l1.4-3c.8.6 1.7 1.1 2.6 1.4 1 .3 1.9.5 2.8.5.6 0 1.1-.1 1.4-.3.4-.2.5-.5.5-.9s-.2-.8-.7-1-1.2-.5-2.2-.8c-1.1-.3-1.9-.6-2.6-.9s-1.3-.8-1.8-1.4c-.5-.6-.8-1.4-.8-2.4 0-1.5.6-2.7 1.7-3.6s2.6-1.3 4.4-1.3c1.1 0 2.1.1 3.2.4 1.1.3 2 .7 2.9 1.3l-1.5 3c-.7-.6-1.5-.9-2.4-1.2zM238.1 60.3v16.9h-3.5v-1.8c-.4.6-1 1.1-1.6 1.4-.7.3-1.4.5-2.2.5-1.2 0-2.2-.3-3-.8-.9-.5-1.6-1.3-2-2.2-.5-1-.7-2.1-.7-3.3 0-1.2.2-2.3.7-3.3.5-.9 1.1-1.7 2-2.2s1.9-.8 3-.8c1.7 0 3.1.6 4 1.9v-6.5h3.3v.2zm-4.4 13.3c.6-.6.9-1.4.9-2.5s-.3-1.8-.9-2.5c-.6-.6-1.3-.9-2.2-.9s-1.7.3-2.2.9c-.6.6-.9 1.4-.9 2.5 0 1 .3 1.8.9 2.5.6.6 1.3.9 2.2.9s1.7-.3 2.2-.9zm11-13.5c.4.4.5.8.5 1.4 0 .6-.2 1-.5 1.4-.4.4-.8.5-1.4.5-.5 0-1-.2-1.4-.6-.4-.4-.5-.8-.5-1.4 0-.6.2-1 .5-1.4.4-.4.8-.5 1.4-.5.6 0 1.1.2 1.4.6zm-3.1 4.9h3.5v12.3h-3.5V65zm5.1 0h3.6l2.9 8.9 2.9-8.9h3.5L255 77.3h-3.6L246.7 65zm26.1 0v12.3h-3.5v-2.2c-.8 1.5-2.2 2.3-4.1 2.3-1.4 0-2.4-.4-3.2-1.3s-1.2-2-1.2-3.4V65h3.5v6.7c0 .8.2 1.4.6 1.8s1 .7 1.7.7c.8 0 1.5-.3 2-.9s.7-1.3.7-2.2V65h3.5zm3.5-4.7h3.5v16.9h-3.5V60.3zm18.5 4.7v11.1c0 1.2-.3 2.2-.8 3-.5.9-1.3 1.5-2.3 2s-2.1.7-3.4.7c-1 0-2-.1-2.9-.4s-1.7-.7-2.5-1.2l1.3-2.5c1.2.8 2.4 1.2 3.8 1.2 1 0 1.8-.2 2.4-.7s.9-1.2.9-2v-1.4c-.4.6-.9 1-1.6 1.3-.6.3-1.3.5-2.1.5-1 0-2-.2-2.8-.7s-1.4-1.2-1.9-2.1c-.4-.9-.7-1.9-.7-3.1s.2-2.2.7-3 1.1-1.6 1.9-2c.8-.5 1.7-.7 2.8-.7.8 0 1.5.2 2.1.5s1.1.7 1.6 1.3V65h3.5zm-4.3 8c.5-.6.8-1.3.8-2.3 0-.9-.3-1.7-.8-2.3-.5-.6-1.2-.9-2.1-.9s-1.5.3-2.1.9-.8 1.4-.8 2.3.3 1.7.8 2.3c.5.6 1.2.9 2.1.9.9 0 1.6-.3 2.1-.9zm14.6 4.2v-1.4c-.4.5-.9.9-1.6 1.2-.7.3-1.4.4-2.3.4-1.3 0-2.3-.4-3.1-1.1s-1.1-1.6-1.1-2.8c0-1.2.4-2.1 1.2-2.7.8-.6 2-1 3.5-1h3.4v-.2c0-.7-.2-1.2-.6-1.5-.4-.4-1.1-.5-1.9-.5-1.1 0-2.4.4-3.6 1.1l-1.1-2.4c1-.5 1.9-.8 2.7-1.1.9-.2 1.8-.3 2.8-.3 1.6 0 2.9.4 3.8 1.2.9.8 1.4 1.9 1.4 3.2v8l-3.5-.1zm-.9-2.8c.5-.3.9-.8 1-1.3V72h-2.8c-.7 0-1.2.1-1.5.3s-.5.6-.5 1.1.2.8.5 1.1c.3.3.8.4 1.4.4.7 0 1.3-.2 1.9-.5zm19.5-14.1v16.9h-3.5v-1.8c-.4.6-1 1.1-1.6 1.4-.7.3-1.4.5-2.2.5-1.2 0-2.2-.3-3-.8-.9-.5-1.5-1.3-2-2.2-.5-1-.7-2.1-.7-3.3 0-1.2.2-2.3.7-3.3.5-.9 1.1-1.7 2-2.2s1.9-.8 3-.8c1.7 0 3.1.6 4 1.9v-6.5h3.3v.2zm-4.3 13.3c.6-.6.9-1.4.9-2.5s-.3-1.8-.9-2.5c-.6-.6-1.3-.9-2.2-.9-.9 0-1.7.3-2.2.9-.6.6-.9 1.4-.9 2.5 0 1 .3 1.8.9 2.5.6.6 1.3.9 2.2.9s1.6-.3 2.2-.9zm15 3.6v-1.4c-.4.5-.9.9-1.6 1.2-.7.3-1.4.4-2.3.4-1.3 0-2.3-.4-3.1-1.1s-1.1-1.6-1.1-2.8c0-1.2.4-2.1 1.2-2.7.8-.6 2-1 3.5-1h3.4v-.2c0-.7-.2-1.2-.6-1.5-.4-.4-1.1-.5-1.9-.5-1.1 0-2.4.4-3.6 1.1l-1.1-2.4c1-.5 1.9-.8 2.7-1.1.9-.2 1.8-.3 2.8-.3 1.6 0 2.9.4 3.8 1.2.9.8 1.4 1.9 1.4 3.2v8l-3.5-.1zm-1-2.8c.5-.3.9-.8 1-1.3V72h-2.8c-.7 0-1.2.1-1.5.3s-.5.6-.5 1.1.2.8.5 1.1c.3.3.8.4 1.4.4.7 0 1.3-.2 1.9-.5zm13.2-6.7c-.7-.2-1.2-.3-1.8-.3-.4 0-.8.1-1 .2-.3.2-.4.4-.4.7 0 .3.2.6.5.8.3.2.9.4 1.7.6.9.3 1.6.5 2.1.8.6.3 1 .6 1.5 1.1s.6 1.1.6 1.9c0 1.2-.5 2.2-1.4 2.8s-2.1 1-3.6 1c-1 0-2-.1-2.9-.4s-1.7-.7-2.4-1.3l1.1-2.4c.6.5 1.3.9 2.1 1.1.8.3 1.5.4 2.2.4.5 0 .8-.1 1.1-.2s.4-.4.4-.7c0-.3-.2-.6-.5-.8-.4-.2-.9-.4-1.7-.6-.8-.2-1.5-.5-2.1-.7s-1-.6-1.4-1.1-.6-1.1-.6-1.9c0-1.2.5-2.2 1.4-2.8.9-.7 2.1-1 3.5-1 .8 0 1.7.1 2.5.4.8.2 1.6.6 2.3 1l-1.2 2.4c-.7-.5-1.4-.8-2-1zM239.9 90.9c1.1.7 2 1.7 2.7 2.9.6 1.3.9 2.7.9 4.4 0 1.6-.3 3-.9 4.3-.6 1.3-1.5 2.2-2.6 2.9-1.1.7-2.4 1-3.9 1-1.1 0-2.1-.2-3-.6s-1.6-1.1-2.2-1.9v8.2h-4.6v-22h4.6v2.4c.6-.8 1.3-1.4 2.2-1.9.9-.4 1.8-.6 2.9-.6 1.5-.1 2.8.3 3.9.9zm-2.1 10.4c.7-.8 1.1-1.9 1.1-3.2 0-1.3-.4-2.4-1.1-3.2-.7-.8-1.7-1.2-2.9-1.2s-2.1.4-2.9 1.2c-.8.8-1.1 1.9-1.1 3.2 0 1.3.4 2.4 1.1 3.2.8.8 1.7 1.2 2.9 1.2s2.1-.4 2.9-1.2zm21.7-9.1c1.3 1.5 2 3.6 2 6.3v1.1h-11.6c.3 1 .8 1.8 1.5 2.4.7.6 1.6.9 2.7.9.8 0 1.5-.1 2.2-.4.7-.3 1.3-.7 1.9-1.3l2.4 2.5c-.8.9-1.8 1.6-3 2.1s-2.5.7-3.9.7c-1.7 0-3.2-.3-4.5-1-1.3-.7-2.3-1.6-2.9-2.9-.7-1.2-1-2.7-1-4.3 0-1.6.3-3.1 1-4.3.7-1.2 1.7-2.2 2.9-2.9 1.2-.7 2.7-1 4.3-1 2.6-.2 4.6.6 6 2.1zm-2.4 4.6c0-1.1-.4-1.9-1-2.5s-1.5-1-2.6-1c-1 0-1.8.3-2.5.9-.7.6-1.1 1.5-1.3 2.6h7.4zm7.6-12.9h4.6v22.3h-4.6V83.9zm21 7c1.3.7 2.3 1.6 3 2.9.7 1.2 1.1 2.7 1.1 4.3 0 1.6-.4 3.1-1.1 4.3-.7 1.3-1.7 2.2-3 2.9-1.3.7-2.8 1-4.5 1s-3.2-.3-4.5-1-2.3-1.7-3-2.9c-.7-1.2-1.1-2.7-1.1-4.3 0-1.6.4-3.1 1.1-4.3.7-1.2 1.7-2.2 3-2.9 1.3-.7 2.8-1 4.5-1 1.7 0 3.2.4 4.5 1zm-7.4 4.1c-.8.8-1.1 1.9-1.1 3.2 0 1.3.4 2.4 1.1 3.2.8.8 1.7 1.2 2.9 1.2s2.1-.4 2.9-1.2c.8-.8 1.1-1.9 1.1-3.2 0-1.3-.4-2.4-1.1-3.2-.8-.8-1.7-1.2-2.9-1.2s-2.2.4-2.9 1.2zm22.4-10.6h7.2v21.8h-7.2V84.4zm22.7 5.7c-1.5-.5-2.6-.8-3.5-.8s-1.3.3-1.3 1c0 .5.3.9.9 1.2.6.3 1.5.6 2.7.9 1.6.4 2.8.9 3.9 1.3 1 .4 1.9 1.1 2.7 2.1.8.9 1.2 2.2 1.2 3.7 0 1.6-.4 2.9-1.2 4-.8 1.1-1.9 1.9-3.3 2.4s-2.9.8-4.6.8c-1.9 0-3.9-.3-5.8-.9-2-.6-3.7-1.5-5.1-2.6l2.7-5.4c1.1 1 2.5 1.8 4.1 2.4 1.7.7 3 1 4.2 1 .5 0 1-.1 1.3-.3.3-.2.5-.5.5-.9 0-.5-.3-.9-.9-1.2-.6-.3-1.5-.6-2.8-.9-1.5-.4-2.8-.8-3.8-1.2-1-.4-1.9-1.1-2.7-2-.7-.9-1.1-2.1-1.1-3.6s.4-2.7 1.2-3.8 1.9-1.9 3.3-2.5 3-.9 4.9-.9c1.7 0 3.4.2 5.1.7s3.2 1.1 4.4 1.9l-2.6 5.5c-1.6-.7-3-1.3-4.4-1.9zm25.1-3.7c1.6 1.4 2.3 3.3 2.3 5.8 0 2.6-.8 4.7-2.3 6.1-1.6 1.5-3.8 2.2-6.6 2.2h-3v5.7h-7.2V84.4h10.2c2.8 0 5 .7 6.6 2zm-5.2 8c.4-.5.6-1.1.6-1.9s-.2-1.4-.6-1.9c-.4-.4-1-.7-1.8-.7h-2.6v5.2h2.6c.8 0 1.4-.3 1.8-.7z" fill="#FFF"/><path fill="#343738" d="M389.8 139.8s-73.3-5.3-165-5.3-166.1 5.3-166.1 5.3c110 12.2 221.1 12.2 331.1 0z"/><path fill="#484C4E" d="M58.7 139.8c9.7 30.8 19.5 61.6 29.2 92.3 90.6 10 182.1 10 272.7 0 9.7-30.8 19.5-61.6 29.2-92.3-110 12.2-221.1 12.2-331.1 0z"/><path d="M112 165.2h25.2v55.5h-14.5V177H112v-11.8zm46.8 44.2c2 .6 4 .9 6.1.9 4.2 0 7.4-1.3 9.6-3.8 2.2-2.6 3.2-6.2 3.1-10.8-2.8 4-7.1 6-12.9 6-3.5 0-6.6-.8-9.3-2.3-2.6-1.5-4.7-3.6-6.1-6.3-1.5-2.7-2.2-5.9-2.2-9.5 0-3.8.8-7.2 2.5-10.1 1.7-2.9 4.1-5.1 7.1-6.6 3.1-1.6 6.6-2.3 10.7-2.3 4.9 0 9 1.1 12.6 3.3 3.5 2.2 6.3 5.4 8.1 9.5 1.9 4.1 2.8 9 2.8 14.6 0 5.9-1 11-3.1 15.4s-5 7.8-8.8 10.2-8.2 3.6-13.3 3.6c-3.1 0-6.2-.4-9.3-1.3-3.2-.8-5.9-2-8.2-3.3l5.3-10c1.6 1.3 3.3 2.2 5.3 2.8zm3.4-31.4c-1.4 1.3-2.1 3.3-2.1 5.7 0 2.4.7 4.2 2 5.6 1.3 1.3 3.2 2 5.6 2 2.6 0 4.7-.7 6.1-2.2 1.5-1.5 2.2-3.3 2.2-5.7 0-2.2-.7-4-2.1-5.4-1.4-1.4-3.4-2.1-6-2.1-2.4 0-4.4.7-5.7 2.1zm73-12v25.2H230v-2.7c-.7.9-1.5 1.7-2.4 2.2-1 .5-2.1.7-3.3.7-1.7 0-3.2-.4-4.5-1.2-1.3-.8-2.3-1.9-3-3.3-.7-1.4-1.1-3.1-1.1-4.9 0-1.8.4-3.4 1.1-4.8.7-1.4 1.7-2.5 3-3.3 1.3-.8 2.8-1.2 4.4-1.2 2.6 0 4.5 1 5.9 2.9V166h5.1zm-6.4 19.8c.8-.9 1.3-2.2 1.3-3.6 0-1.5-.4-2.7-1.3-3.6-.8-.9-1.9-1.4-3.3-1.4s-2.5.5-3.3 1.4c-.8.9-1.3 2.2-1.3 3.6 0 1.5.5 2.7 1.3 3.6.8.9 2 1.4 3.3 1.4 1.3 0 2.4-.5 3.3-1.4zm26.2-10.5c1.5 1.7 2.3 4.1 2.3 7.1v1.3h-13.1c.3 1.2.9 2.1 1.7 2.7.8.6 1.8 1 3 1 .9 0 1.7-.2 2.5-.5s1.5-.8 2.1-1.4l2.7 2.8c-.9 1-2.1 1.8-3.4 2.4-1.3.6-2.8.8-4.4.8-1.9 0-3.6-.4-5-1.2-1.4-.8-2.5-1.9-3.3-3.3-.8-1.4-1.2-3-1.2-4.9 0-1.9.4-3.5 1.2-4.9.8-1.4 1.9-2.5 3.3-3.3s3.1-1.2 4.9-1.2c2.9.1 5.2.9 6.7 2.6zm-2.6 5.3c0-1.2-.4-2.2-1.2-2.9-.7-.7-1.7-1.1-2.9-1.1-1.1 0-2.1.4-2.8 1.1s-1.2 1.7-1.4 2.9h8.3zm8.5-14.6h5.2v25.2h-5.2V166zm15-.4c.5.5.8 1.2.8 2.1 0 .9-.3 1.6-.8 2.1s-1.2.8-2.1.8c-.8 0-1.5-.3-2-.8-.5-.6-.8-1.2-.8-2.1 0-.9.3-1.6.8-2.1s1.2-.8 2-.8c.9 0 1.6.3 2.1.8zm-4.6 7.3h5.2v18.2h-5.2v-18.2zm21.5 17.3c-.7.4-1.4.7-2.3.9-.8.2-1.7.3-2.5.3-1.7 0-3.1-.5-4.1-1.5-1.1-1-1.6-2.4-1.6-4.2v-8.4h-2.5v-3.6h2.5v-5h5.2v5h5v3.6h-5v7.5c0 1.4.6 2.1 1.7 2.1.8 0 1.6-.2 2.5-.7l1.1 4zm16.4-16.3c1.5.8 2.6 1.9 3.4 3.3s1.2 3 1.2 4.9c0 1.8-.4 3.5-1.2 4.9-.8 1.4-2 2.5-3.4 3.3-1.5.8-3.2 1.2-5.1 1.2-1.9 0-3.7-.4-5.1-1.2-1.5-.8-2.6-1.9-3.4-3.3-.8-1.4-1.2-3-1.2-4.9 0-1.9.4-3.5 1.2-4.9.8-1.4 2-2.5 3.4-3.3 1.5-.8 3.2-1.2 5.1-1.2 1.9.1 3.6.4 5.1 1.2zm-8.4 4.6c-.8.9-1.3 2.1-1.3 3.6s.4 2.7 1.3 3.6c.9.9 2 1.4 3.3 1.4 1.3 0 2.4-.5 3.3-1.4.9-.9 1.3-2.1 1.3-3.6s-.4-2.7-1.3-3.6c-.8-.9-1.9-1.4-3.3-1.4s-2.5.5-3.3 1.4zm25.1-1.5c-1-.3-1.8-.5-2.6-.5-.6 0-1.1.1-1.5.3-.4.2-.6.6-.6 1 0 .5.3.9.8 1.2.5.3 1.4.6 2.5.9 1.3.4 2.4.8 3.2 1.1.8.4 1.6.9 2.2 1.7.6.7.9 1.7.9 2.9 0 1.8-.7 3.2-2.1 4.2-1.4 1-3.2 1.5-5.3 1.5-1.5 0-2.9-.2-4.3-.7-1.4-.4-2.6-1.1-3.6-1.9l1.7-3.5c.9.7 2 1.3 3.1 1.7 1.1.4 2.2.6 3.2.6.7 0 1.3-.1 1.7-.4.4-.2.6-.6.6-1.1 0-.5-.3-.9-.8-1.2-.5-.3-1.4-.6-2.6-.9-1.2-.4-2.3-.7-3.1-1.1-.8-.4-1.5-.9-2.1-1.6-.6-.7-.9-1.7-.9-2.9 0-1.8.7-3.2 2-4.2 1.4-1 3.1-1.5 5.2-1.5 1.2 0 2.5.2 3.7.5s2.4.9 3.4 1.5l-1.8 3.6c-1-.5-1.9-.9-2.9-1.2zm-104.6 24.2c-.5.4-.7 1-.7 1.8v2h4.3v2.1h-4.3V220h-2.7v-12.9h-2V205h2v-1.7c0-1.1.2-2.1.7-2.9.5-.8 1.1-1.4 1.9-1.8.8-.4 1.6-.6 2.5-.6.9 0 1.8.2 2.7.7l-.6 2.2c-.7-.3-1.4-.5-2-.5-.7.2-1.3.4-1.8.8zm8.6-2.3c.3.3.5.8.5 1.3s-.2.9-.5 1.3c-.3.3-.7.5-1.2.5s-.9-.2-1.2-.5c-.3-.3-.5-.8-.5-1.3s.2-.9.5-1.3c.3-.3.7-.5 1.2-.5s.9.1 1.2.5zm-2.5 5.6h2.7V220h-2.7v-15.5zm8.1-6.2h2.7V220h-2.7v-21.7zM252 219c-1.2.8-2.4 1.1-3.6 1.1-1.2 0-2.2-.4-3-1.1s-1.1-1.8-1.1-3.3v-8.6h-2.2V205h2.2v-4.1h2.7v4.1h4.7v2.1H247v8.1c0 .9.2 1.5.5 1.8.3.4.8.6 1.4.6.7 0 1.5-.2 2.4-.7l.7 2.1zm8.2-13.7c.9-.6 2-.9 3.3-.9v2.6c-1.6-.1-2.9.4-3.8 1.2-1 .9-1.5 2.1-1.7 3.5v8.2h-2.7v-15.5h2.7v3.3c.5-.9 1.2-1.8 2.2-2.4zm15 14.7v-2.2c-1.1 1.5-3 2.3-5.4 2.3-1.1 0-2-.2-2.8-.6-.8-.4-1.4-1-1.9-1.7-.4-.7-.7-1.5-.7-2.4 0-1.4.5-2.5 1.5-3.3 1-.8 2.4-1.2 4.3-1.2h4.9v-.7c0-1.1-.3-1.9-1-2.5-.7-.6-1.6-.9-2.9-.9-1.6 0-3.1.6-4.8 1.7l-1.1-1.9c1.1-.7 2.1-1.2 3.1-1.6.9-.3 2.1-.5 3.4-.5 1.9 0 3.4.5 4.5 1.4 1.1.9 1.6 2.3 1.6 4v10.2l-2.7-.1zm-1.6-3.1c.9-.6 1.4-1.4 1.6-2.4V213h-4.5c-1.2 0-2.1.2-2.7.6-.6.4-.9 1-.9 1.8s.3 1.4.9 1.9c.6.5 1.4.7 2.4.7 1.2-.1 2.3-.4 3.2-1.1zm23.6-18.6V220h-2.7v-3.1c-.6 1-1.4 1.8-2.4 2.4-1 .6-2.1.8-3.4.8-1.5 0-2.8-.3-3.9-1s-2-1.6-2.6-2.8c-.6-1.2-.9-2.6-.9-4.1 0-1.5.3-2.9.9-4 .6-1.2 1.5-2.1 2.6-2.8 1.1-.7 2.4-1 3.8-1 1.3 0 2.5.3 3.5.8s1.8 1.3 2.3 2.4v-9.3h2.8zm-5.3 18.8c.8-.5 1.4-1.1 1.9-2 .4-.8.7-1.8.7-2.8 0-1.1-.2-2-.7-2.9-.4-.8-1.1-1.5-1.9-2-.8-.5-1.7-.7-2.7-.7-1 0-1.9.2-2.7.7s-1.4 1.1-1.9 2c-.4.8-.7 1.8-.7 2.8s.2 2 .7 2.8c.4.8 1.1 1.5 1.9 2s1.7.7 2.7.7c1 .1 1.9-.1 2.7-.6zm21.3-11.7c1.2.7 2.1 1.6 2.8 2.8.7 1.2 1 2.5 1 4s-.3 2.9-1 4.1c-.7 1.2-1.6 2.1-2.8 2.8-1.2.7-2.6 1-4.1 1-1.6 0-2.9-.3-4.1-1-1.2-.7-2.1-1.6-2.8-2.8-.7-1.2-1-2.5-1-4.1 0-1.5.3-2.9 1-4 .7-1.2 1.6-2.1 2.8-2.8 1.2-.7 2.6-1 4.1-1 1.5.1 2.9.4 4.1 1zm-6.8 2.1c-.8.5-1.4 1.1-1.8 1.9-.4.8-.7 1.8-.7 2.8 0 1.1.2 2 .7 2.9.4.8 1.1 1.5 1.8 1.9.8.5 1.7.7 2.7.7 1 0 1.9-.2 2.7-.7s1.4-1.1 1.8-1.9c.4-.8.7-1.8.7-2.9 0-1.1-.2-2-.7-2.8-.4-.8-1.1-1.5-1.8-1.9-.8-.5-1.7-.7-2.7-.7-1.1 0-2 .3-2.7.7zm20.7-.5c-.8-.2-1.5-.4-2.2-.4-.8 0-1.5.2-2 .5s-.7.8-.7 1.4c0 .6.3 1.1.8 1.4.6.3 1.4.6 2.5 1 1.1.3 1.9.6 2.6.9.7.3 1.3.8 1.7 1.4.5.6.7 1.4.7 2.4 0 1.5-.6 2.6-1.6 3.3-1.1.8-2.5 1.1-4.1 1.1-1.1 0-2.3-.2-3.3-.6-1.1-.4-2-.9-2.7-1.6l1-2c.6.6 1.4 1.1 2.4 1.4.9.4 1.9.5 2.8.5s1.6-.2 2.2-.5c.5-.3.8-.8.8-1.5s-.3-1.2-.9-1.6c-.6-.4-1.4-.7-2.6-1.1-1-.3-1.9-.6-2.5-.9s-1.2-.7-1.7-1.3c-.5-.6-.7-1.3-.7-2.3 0-1.4.5-2.5 1.6-3.2 1.1-.7 2.4-1.1 3.9-1.1.9 0 1.9.1 2.8.4.9.3 1.7.6 2.4 1.1l-1 2.1c-.7-.2-1.4-.5-2.2-.8z" fill="#FFF"/><path fill="#808380" d="M351.1 265.6S296 261 227.2 261s-125.6 4.6-125.6 4.6c82.9 9.1 166.6 9.1 249.5 0z"/><path fill="#C2C2C2" d="M101.6 265.6c7.5 28.5 15 56.9 22.5 85.4 67.9 7.5 136.5 7.5 204.5 0 7.5-28.5 15-56.9 22.5-85.4-82.9 9.1-166.6 9.1-249.5 0z"/><path d="M131.2 293h20.7v45.5H140v-35.8h-8.8V293zm57.2 18.3c2.7 1.2 4.7 2.8 6.2 4.9 1.5 2.1 2.2 4.5 2.2 7.1 0 3.2-.8 5.9-2.3 8.3-1.5 2.4-3.7 4.2-6.5 5.5-2.8 1.3-6.1 1.9-9.8 1.9-3 0-6.2-.5-9.4-1.6-3.2-1-6.1-2.4-8.6-4.1l4.4-8.6c4.2 3.4 8.3 5.1 12.3 5.1 2.3 0 4-.5 5.3-1.5 1.3-1 1.9-2.4 1.9-4.2s-.6-3.1-1.9-4.1c-1.2-.9-3.1-1.4-5.6-1.4-5.8 0-9.9.1-12.5.3v-26h30.6v9.5H175v6.9h4.1c3.6.2 6.7.8 9.3 2zm39.2-14.8c1.4.8 2.5 2 3.3 3.5.8 1.5 1.2 3.2 1.2 5.1 0 1.9-.4 3.6-1.1 5.1-.8 1.5-1.8 2.6-3.2 3.4-1.4.8-3 1.2-4.8 1.2-1.4 0-2.6-.3-3.7-.8s-2-1.2-2.7-2.2v9.6h-5.7v-26h5.7v2.8c.7-1 1.6-1.7 2.7-2.2s2.3-.8 3.6-.8c1.7 0 3.3.5 4.7 1.3zm-2.7 12.2c.9-1 1.4-2.3 1.4-3.8s-.5-2.8-1.4-3.8c-.9-1-2.1-1.5-3.5-1.5s-2.6.5-3.5 1.5c-.9 1-1.4 2.2-1.4 3.8 0 1.6.5 2.9 1.4 3.8.9 1 2.1 1.5 3.5 1.5 1.5 0 2.6-.5 3.5-1.5zm26.6-10.8c1.7 1.8 2.5 4.2 2.5 7.4v1.3h-14.2c.3 1.2.9 2.1 1.8 2.8.9.7 2 1 3.3 1 .9 0 1.8-.2 2.7-.5.9-.3 1.6-.8 2.3-1.5l3 2.9c-1 1.1-2.2 1.9-3.7 2.5-1.4.6-3 .9-4.8.9-2.1 0-3.9-.4-5.5-1.2-1.6-.8-2.8-1.9-3.6-3.4-.8-1.5-1.3-3.2-1.3-5.1 0-1.9.4-3.6 1.3-5.1.9-1.5 2.1-2.6 3.6-3.4 1.5-.8 3.3-1.2 5.3-1.2 3.2-.1 5.7.8 7.3 2.6zm-2.8 5.5c0-1.3-.5-2.3-1.2-3s-1.8-1.1-3.1-1.1c-1.2 0-2.2.4-3.1 1.1-.8.7-1.3 1.8-1.6 3h9zm26.7-6.2c1.3 1.3 2 3.1 2 5.3v12h-5.7v-10.4c0-1.2-.3-2.2-1-2.9-.7-.7-1.6-1-2.8-1-1.4 0-2.5.5-3.3 1.4-.8.9-1.2 2.1-1.2 3.5v9.4h-5.7v-19.1h5.7v3.3c1.4-2.3 3.6-3.5 6.8-3.5 2.2 0 3.9.7 5.2 2zm18.3 17.3v-2.2c-.7.8-1.5 1.4-2.6 1.8-1.1.4-2.3.6-3.6.6-2.1 0-3.7-.5-5-1.6-1.2-1.1-1.8-2.5-1.8-4.3 0-1.8.7-3.2 2-4.2s3.2-1.5 5.6-1.5h5.4v-.4c0-1-.3-1.8-1-2.4-.7-.6-1.7-.8-3.1-.8-1.8 0-3.8.6-5.9 1.7l-1.8-3.8c1.6-.8 3-1.3 4.4-1.7 1.4-.4 2.9-.5 4.5-.5 2.6 0 4.7.6 6.1 1.8s2.2 2.9 2.2 5v12.5h-5.4zm-1.5-4.5c.9-.5 1.4-1.2 1.5-2.1v-1.7h-4.4c-1.1 0-1.9.2-2.4.5s-.8.9-.8 1.6c0 .7.3 1.3.8 1.8.6.4 1.3.7 2.3.7 1.1.1 2.1-.2 3-.8zm21.2-10.3c-1.1-.3-2-.5-2.8-.5-.7 0-1.2.1-1.7.4-.4.2-.6.6-.6 1.1 0 .5.3.9.8 1.2.6.3 1.5.6 2.8 1 1.4.4 2.5.8 3.5 1.2.9.4 1.7 1 2.4 1.7s1 1.8 1 3c0 1.9-.8 3.4-2.3 4.4-1.5 1.1-3.4 1.6-5.8 1.6-1.6 0-3.2-.2-4.7-.7-1.5-.5-2.8-1.1-3.9-2l1.8-3.7c1 .8 2.1 1.3 3.4 1.8s2.4.6 3.5.6c.8 0 1.4-.1 1.8-.4.5-.2.7-.6.7-1.1 0-.5-.3-1-.9-1.3s-1.5-.6-2.8-1c-1.3-.4-2.5-.8-3.4-1.1-.9-.4-1.7-1-2.3-1.7-.6-.8-1-1.8-1-3 0-1.9.7-3.4 2.2-4.4 1.5-1 3.3-1.6 5.6-1.6 1.3 0 2.7.2 4 .5 1.3.4 2.6.9 3.7 1.6l-1.9 3.7c-1-.6-2-1-3.1-1.3zm-97.6 31.6c-.4-.1-.7-.2-1.1-.2-.4 0-.7.1-1 .2-.2.1-.4.4-.4.7 0 .3.1.5.4.7.3.2.7.3 1.2.5s1 .3 1.3.5c.3.2.6.4.9.7.2.3.4.7.4 1.2 0 .7-.3 1.3-.8 1.6-.5.4-1.2.6-2 .6-.6 0-1.1-.1-1.6-.3-.5-.2-1-.4-1.3-.8l.5-1c.3.3.7.5 1.2.7.5.2.9.3 1.4.3.4 0 .8-.1 1.1-.2.3-.2.4-.4.4-.7 0-.3-.1-.6-.4-.8-.3-.2-.7-.3-1.3-.5-.5-.1-.9-.3-1.2-.4-.3-.1-.6-.4-.8-.7-.2-.3-.3-.7-.3-1.1 0-.7.3-1.2.8-1.6.5-.4 1.2-.5 1.9-.5.5 0 .9.1 1.4.2.4.1.8.3 1.2.5l-.5 1c-.7-.4-1-.5-1.4-.6zm9.2-.3c.6.7.9 1.7.9 2.9v.4h-6c.1.7.4 1.2.9 1.6.5.4 1 .6 1.7.6.5 0 .9-.1 1.3-.2.4-.2.7-.4 1-.7l.7.8c-.4.4-.8.7-1.4.9-.5.2-1.1.3-1.8.3s-1.4-.2-2-.5c-.6-.3-1-.8-1.4-1.4-.3-.6-.5-1.3-.5-2s.2-1.4.5-2c.3-.6.8-1 1.3-1.4.6-.3 1.2-.5 2-.5 1.3.2 2.2.5 2.8 1.2zm-.3 2.3c0-.7-.3-1.2-.7-1.6-.4-.4-1-.6-1.7-.6s-1.2.2-1.7.6c-.4.4-.7.9-.8 1.6h4.9zm9.8-3.3v6.8c0 .7-.2 1.4-.5 1.9s-.8 1-1.4 1.3c-.6.3-1.3.4-2 .4-1.1 0-2.2-.4-3.1-1.1l.6-1c.4.3.8.5 1.2.7.4.1.8.2 1.3.2.8 0 1.4-.2 1.9-.7.5-.4.7-1 .7-1.8v-1.1c-.3.5-.6.8-1.1 1.1-.5.3-1 .4-1.6.4-.7 0-1.3-.2-1.8-.5s-.9-.7-1.2-1.3c-.3-.6-.4-1.2-.4-1.9s.1-1.3.4-1.9c.3-.5.7-1 1.2-1.3.5-.3 1.1-.5 1.8-.5.6 0 1.1.1 1.6.4.5.2.8.6 1.1 1.1V330h1.3zm-2.5 5.9c.4-.2.6-.5.9-.9.2-.4.3-.8.3-1.3s-.1-.9-.3-1.3c-.2-.4-.5-.7-.9-.9-.4-.2-.8-.3-1.3-.3s-.9.1-1.3.3c-.4.2-.7.5-.9.9s-.3.8-.3 1.3c0 .7.2 1.4.7 1.8.5.5 1 .7 1.8.7.5 0 .9-.1 1.3-.3zm11.7-5.9v7.6h-1.4V336c-.5 1.1-1.4 1.6-2.8 1.7-.9 0-1.6-.3-2.1-.8s-.7-1.2-.7-2.2V330h1.4v4.3c0 .6.2 1.1.5 1.5.3.4.8.5 1.4.5.7 0 1.3-.3 1.7-.8.4-.5.6-1.1.6-1.9V330h1.4zm8.9.8c.5.5.8 1.2.8 2.2v4.7H252v-4.3c0-.6-.2-1.1-.5-1.5-.4-.4-.9-.5-1.5-.5-.7 0-1.2.2-1.7.7-.4.4-.7 1-.7 1.7v4.1h-1.3V330h1.3v1.6c.5-1.1 1.5-1.6 2.9-1.7.9.1 1.6.4 2.1.9zm10.3-3.8v10.7h-1.3v-1.5c-.3.5-.7.9-1.2 1.2-.5.3-1 .4-1.7.4s-1.4-.2-1.9-.5c-.6-.3-1-.8-1.3-1.4-.3-.6-.5-1.3-.5-2s.2-1.4.5-2c.3-.6.7-1 1.3-1.4.6-.3 1.2-.5 1.9-.5s1.2.1 1.7.4c.5.3.9.7 1.2 1.2V327h1.3zm-2.6 9.2c.4-.2.7-.6.9-1 .2-.4.3-.9.3-1.4 0-.5-.1-1-.3-1.4-.2-.4-.5-.7-.9-1-.4-.2-.8-.3-1.3-.3s-.9.1-1.3.4c-.4.2-.7.6-.9 1-.2.4-.3.9-.3 1.4 0 .5.1 1 .3 1.4.2.4.5.7.9 1 .4.2.8.3 1.3.3s.9-.1 1.3-.4zm10.5-5.7c.6.3 1.1.8 1.4 1.4.3.6.5 1.2.5 2 0 .7-.2 1.4-.5 2-.3.6-.8 1-1.4 1.4-.6.3-1.3.5-2 .5-.8 0-1.4-.2-2-.5-.6-.3-1.1-.8-1.4-1.4-.3-.6-.5-1.3-.5-2s.2-1.4.5-2c.3-.6.8-1 1.4-1.4.6-.3 1.3-.5 2-.5s1.4.2 2 .5zm-3.4 1c-.4.2-.7.5-.9 1-.2.4-.3.9-.3 1.4 0 .5.1 1 .3 1.4.2.4.5.7.9 1 .4.2.8.3 1.3.3s.9-.1 1.3-.3c.4-.2.7-.5.9-1 .2-.4.3-.9.3-1.4 0-.5-.1-1-.3-1.4s-.5-.7-.9-1c-.4-.2-.8-.3-1.3-.3s-.9.1-1.3.3zm16.1-1c.6.3 1.1.8 1.4 1.4.3.6.5 1.2.5 2 0 .7-.2 1.4-.5 2-.3.6-.8 1-1.4 1.4-.6.3-1.3.5-2 .5-.8 0-1.4-.2-2-.5-.6-.3-1.1-.8-1.4-1.4-.3-.6-.5-1.3-.5-2s.2-1.4.5-2c.3-.6.8-1 1.4-1.4.6-.3 1.3-.5 2-.5s1.4.2 2 .5zm-3.4 1c-.4.2-.7.5-.9 1-.2.4-.3.9-.3 1.4 0 .5.1 1 .3 1.4.2.4.5.7.9 1 .4.2.8.3 1.3.3s.9-.1 1.3-.3c.4-.2.7-.5.9-1 .2-.4.3-.9.3-1.4 0-.5-.1-1-.3-1.4s-.5-.7-.9-1c-.4-.2-.8-.3-1.3-.3s-.9.1-1.3.3zm19.7-4.2c-.6-.3-1.2-.5-1.8-.5-.6 0-1.2.2-1.8.5s-.9.8-1.2 1.3-.5 1.2-.5 1.9.2 1.3.5 1.9c.3.6.7 1 1.2 1.3.5.3 1.1.5 1.8.5.6 0 1.1-.1 1.8-.4.6-.3 1.2-.7 1.7-1.2l2.5 2.6c-.8.8-1.7 1.5-2.8 2-1.1.5-2.2.7-3.3.7-1.4 0-2.8-.3-3.9-1-1.2-.6-2.1-1.5-2.7-2.6s-1-2.4-1-3.8.3-2.6 1-3.7 1.6-2 2.8-2.6c1.2-.6 2.5-.9 4-.9 1.1 0 2.2.2 3.3.7 1.1.5 2 1.1 2.7 1.8l-2.5 2.9c-.7-.6-1.2-1-1.8-1.4zm16.3-2.4c1 .9 1.5 2.1 1.5 3.7 0 1.7-.5 3-1.5 3.9-1 .9-2.5 1.4-4.4 1.4h-2.3v3.8h-4.3v-14h6.6c1.9-.1 3.4.4 4.4 1.2zm-3 5.3c.4-.3.5-.8.5-1.4 0-.6-.2-1.1-.5-1.4-.4-.3-.9-.5-1.5-.5h-2.1v3.8h2.1c.6 0 1.1-.2 1.5-.5z" fill="#484C4E"/><ellipse fill="#484C4E" cx="231.6" cy="483.4" rx="61.1" ry="7.1"/><path fill="#C2C2C2" d="M320.8 383.5s-39.6-5.2-88.8-5.2-89.5 5.2-89.5 5.2c59.3 6.6 119.1 6.6 178.3 0z"/><path fill="#E1E2E2" d="M142.5 383.5c5.3 26.6 10.5 53.1 15.8 79.7 48.8 5.4 98 5.4 146.7 0 5.3-26.6 10.5-53.1 15.8-79.7-59.2 6.6-119 6.6-178.3 0z"/><path d="M229.6 404c3.1 3.5 4.6 8.6 4.6 15.2s-1.5 11.7-4.6 15.3c-3.1 3.6-7.5 5.3-13.2 5.3-5.8 0-10.3-1.8-13.4-5.3-3.1-3.6-4.6-8.6-4.6-15.3 0-6.7 1.5-11.7 4.6-15.2s7.5-5.3 13.4-5.3c5.7 0 10.1 1.7 13.2 5.3zm-18.7 5.5c-1.1 2-1.7 5.2-1.7 9.7s.6 7.8 1.7 9.8c1.1 2 2.9 3 5.5 3 2.5 0 4.3-1 5.4-3s1.7-5.2 1.7-9.7-.6-7.7-1.7-9.7-2.9-3-5.4-3c-2.5-.1-4.4.9-5.5 2.9zm24.8-10.5H254v40.4h-10.5v-31.7h-7.8V399zM202 441.8l1.9.8-2.5 2-1.6-.2 2.2-2.6zm-2.1 4.5h1.9V457h-1.9v-10.7zm14.4 1.1c.7.7 1.1 1.7 1.1 3v6.6h-1.9v-6.1c0-.9-.3-1.6-.8-2.1s-1.2-.8-2.1-.8c-1 0-1.7.3-2.3.9-.6.6-.9 1.4-1 2.3v5.7h-1.8v-10.6h1.9v2.3c.7-1.5 2.1-2.3 4.1-2.3 1.1 0 2.1.3 2.8 1.1zm14.4-5.4v15h-1.9v-2.1c-.4.7-.9 1.3-1.6 1.6s-1.5.6-2.4.6c-1 0-1.9-.2-2.7-.7-.8-.5-1.4-1.1-1.8-1.9-.4-.8-.6-1.8-.6-2.8s.2-2 .6-2.8c.4-.8 1-1.4 1.8-1.9s1.7-.7 2.7-.7c.9 0 1.7.2 2.4.6s1.2.9 1.6 1.6v-6.4c0-.1 1.9-.1 1.9-.1zm-3.6 13c.5-.3 1-.8 1.3-1.3.3-.6.5-1.2.5-2 0-.7-.2-1.4-.5-2-.3-.6-.7-1-1.3-1.4s-1.2-.5-1.9-.5-1.3.2-1.9.5c-.6.3-1 .8-1.3 1.4-.3.6-.5 1.2-.5 2 0 .7.2 1.4.5 2 .3.6.7 1 1.3 1.3s1.2.5 1.9.5 1.3-.2 1.9-.5zm9.1-12.6c.2.2.3.5.3.9s-.1.6-.3.9c-.2.2-.5.3-.8.3s-.6-.1-.8-.3c-.2-.2-.3-.5-.3-.9s.1-.6.3-.9c.2-.3.5-.3.8-.3s.6.1.8.3zm-1.8 3.9h1.9V457h-1.9v-10.7zm10 1.6c-.7 0-1.3.2-1.9.5-.5.3-1 .7-1.3 1.3s-.5 1.2-.5 2c0 .7.2 1.4.5 2s.7 1 1.3 1.3c.5.3 1.1.5 1.8.5s1.3-.1 1.9-.3c.6-.2 1-.6 1.4-1l1.1 1.1c-.5.6-1.1 1.1-1.8 1.4-.7.3-1.6.5-2.5.5-1 0-2-.2-2.8-.7-.8-.5-1.4-1.1-1.9-1.9-.4-.8-.7-1.7-.7-2.8 0-1.1.2-2 .7-2.8s1.1-1.5 1.9-1.9c.8-.5 1.7-.7 2.8-.7.9 0 1.7.1 2.4.4.7.3 1.3.7 1.8 1.2l-1 1.3c-1-.9-2-1.4-3.2-1.4zm14.4-.2c.8 1 1.3 2.3 1.3 4.1v.6h-8.4c.1 1 .5 1.7 1.2 2.3.7.6 1.5.8 2.4.8.6 0 1.2-.1 1.8-.3.5-.2 1-.6 1.4-1l1 1.1c-.5.6-1.2 1-1.9 1.3-.7.3-1.6.5-2.5.5-1 0-2-.2-2.8-.7s-1.4-1.1-1.9-1.9c-.5-.8-.7-1.8-.7-2.8s.2-2 .7-2.8c.4-.8 1.1-1.4 1.9-1.9s1.7-.7 2.8-.7c1.7 0 2.9.5 3.7 1.4zm-.4 3.2c-.1-1-.4-1.7-1-2.3-.6-.6-1.4-.8-2.3-.8-.9 0-1.7.3-2.3.8-.6.6-1 1.3-1.1 2.3h6.7z" fill="#484C4E"/></svg>