<?xml version="1.0" encoding="utf-8"?>
<!-- Generator: Adobe Illustrator 17.1.0, SVG Export Plug-In . SVG Version: 6.00 Build 0)  -->
<!DOCTYPE svg PUBLIC "-//W3C//DTD SVG 1.1//EN" "http://www.w3.org/Graphics/SVG/1.1/DTD/svg11.dtd">
<svg version="1.1" id="Layer_1" xmlns="http://www.w3.org/2000/svg" xmlns:xlink="http://www.w3.org/1999/xlink" x="0px" y="0px" width="249.7px" height="96.1px" viewBox="0 0 249.7 96.1" enable-background="new 0 0 249.7 96.1" xml:space="preserve">
    <path fill="#7F8480" d="M250.7,5.2c0,0-55.3,17.3-124,17.3c-68.8,0-125-17.3-125-17.3s56.2-5,125-5C195.4,0.2,250.7,5.2,250.7,5.2z"
        />
    <path fill="#C4C4C4" d="M228,90.3c-67.9,7.5-136.5,7.5-204.5,0C16.1,61.8,8.6,33.3,1,4.9C84,14,167.7,14,250.6,4.9
        C243.1,33.3,235.6,61.8,228,90.3"/>
    <g>
        <g>
            <path fill="#444A4C" d="M30.7,32.3h20.7v45.5H39.4V42.1h-8.8V32.3z"/>
            <path fill="#444A4C" d="M69,68.6c1.6,0.5,3.3,0.7,5,0.7c3.5,0,6.1-1,7.9-3.1c1.8-2.1,2.6-5.1,2.5-8.9c-2.3,3.3-5.8,4.9-10.6,4.9
                c-2.9,0-5.4-0.6-7.6-1.9c-2.2-1.2-3.8-3-5-5.2c-1.2-2.2-1.8-4.8-1.8-7.8c0-3.2,0.7-5.9,2.1-8.3c1.4-2.4,3.3-4.2,5.8-5.5
                c2.5-1.3,5.4-1.9,8.8-1.9c4,0,7.4,0.9,10.3,2.7c2.9,1.8,5.1,4.4,6.7,7.8c1.6,3.4,2.3,7.4,2.3,12c0,4.8-0.9,9-2.6,12.7
                c-1.7,3.6-4.1,6.4-7.2,8.4c-3.1,2-6.8,3-10.9,3c-2.5,0-5.1-0.3-7.7-1c-2.6-0.7-4.9-1.6-6.8-2.7l4.4-8.2C66,67.4,67.4,68.1,69,68.6
                z M71.8,42.8c-1.1,1.1-1.7,2.7-1.7,4.7c0,1.9,0.5,3.5,1.6,4.6c1.1,1.1,2.6,1.7,4.6,1.7c2.2,0,3.8-0.6,5-1.8
                c1.2-1.2,1.8-2.7,1.8-4.6c0-1.8-0.6-3.2-1.7-4.4c-1.1-1.2-2.8-1.8-4.9-1.8C74.5,41.2,73,41.7,71.8,42.8z"/>
        </g>
        <g>
            <path fill="#444A4C" d="M127.3,30.6V55h-5v-2.6c-0.6,0.9-1.4,1.6-2.4,2.1c-0.9,0.5-2,0.7-3.2,0.7c-1.7,0-3.1-0.4-4.4-1.1
                c-1.3-0.8-2.2-1.8-2.9-3.2c-0.7-1.4-1-3-1-4.8c0-1.8,0.3-3.3,1-4.7c0.7-1.4,1.6-2.4,2.9-3.2c1.2-0.7,2.7-1.1,4.3-1.1
                c2.5,0,4.4,0.9,5.7,2.8v-9.3H127.3z M121,49.7c0.8-0.9,1.2-2.1,1.2-3.5c0-1.4-0.4-2.6-1.2-3.5c-0.8-0.9-1.9-1.4-3.2-1.4
                c-1.3,0-2.4,0.5-3.2,1.4c-0.8,0.9-1.2,2.1-1.3,3.5c0,1.4,0.4,2.6,1.3,3.5c0.8,0.9,1.9,1.4,3.2,1.4C119.2,51.1,120.2,50.6,121,49.7
                z"/>
            <path fill="#444A4C" d="M146.5,39.6c1.5,1.6,2.2,3.9,2.2,6.9c0,0.5,0,0.9,0,1.2H136c0.3,1.1,0.8,2,1.6,2.6
                c0.8,0.6,1.8,0.9,2.9,0.9c0.8,0,1.6-0.2,2.4-0.5c0.8-0.3,1.5-0.8,2.1-1.4l2.7,2.7c-0.9,1-2,1.8-3.3,2.3s-2.7,0.8-4.3,0.8
                c-1.9,0-3.5-0.4-4.9-1.1c-1.4-0.7-2.5-1.8-3.2-3.2c-0.8-1.4-1.1-2.9-1.1-4.7c0-1.8,0.4-3.4,1.2-4.8s1.8-2.4,3.2-3.2
                c1.4-0.8,3-1.1,4.7-1.1C142.8,37.1,145,37.9,146.5,39.6z M143.9,44.7c0-1.2-0.4-2.1-1.1-2.8c-0.7-0.7-1.6-1.1-2.8-1.1
                c-1.1,0-2,0.3-2.7,1s-1.2,1.6-1.4,2.8H143.9z"/>
            <path fill="#444A4C" d="M152.2,30.6h5.1V55h-5.1V30.6z"/>
            <path fill="#444A4C" d="M166.8,30.2c0.5,0.5,0.8,1.2,0.8,2s-0.3,1.5-0.8,2c-0.5,0.5-1.2,0.8-2,0.8c-0.8,0-1.4-0.3-2-0.8
                s-0.8-1.2-0.8-2c0-0.8,0.3-1.5,0.8-2s1.2-0.8,2-0.8C165.6,29.4,166.3,29.7,166.8,30.2z M162.3,37.3h5.1V55h-5.1V37.3z"/>
            <path fill="#444A4C" d="M183.2,54c-0.7,0.4-1.4,0.7-2.2,0.9s-1.6,0.3-2.4,0.3c-1.6,0-3-0.5-4-1.4s-1.5-2.3-1.5-4v-8.2h-2.5v-3.5
                h2.5v-4.9h5v4.9h4.8v3.5H178v7.3c0,1.4,0.5,2,1.6,2c0.7,0,1.6-0.2,2.5-0.7L183.2,54z"/>
            <path fill="#444A4C" d="M199,38.2c1.4,0.7,2.5,1.8,3.3,3.2s1.2,2.9,1.2,4.7c0,1.8-0.4,3.3-1.2,4.7c-0.8,1.4-1.9,2.4-3.3,3.2
                c-1.4,0.8-3.1,1.1-4.9,1.1c-1.9,0-3.5-0.4-5-1.1c-1.4-0.8-2.5-1.8-3.3-3.2c-0.8-1.4-1.2-2.9-1.2-4.7c0-1.8,0.4-3.4,1.2-4.7
                s1.9-2.4,3.3-3.2c1.4-0.7,3.1-1.1,5-1.1C196,37.1,197.6,37.5,199,38.2z M190.9,42.7c-0.8,0.9-1.2,2.1-1.2,3.5
                c0,1.4,0.4,2.6,1.2,3.5c0.8,0.9,1.9,1.3,3.2,1.3c1.3,0,2.4-0.4,3.2-1.3c0.8-0.9,1.2-2.1,1.2-3.5c0-1.4-0.4-2.6-1.2-3.5
                c-0.8-0.9-1.9-1.3-3.2-1.3C192.8,41.3,191.7,41.8,190.9,42.7z"/>
            <path fill="#444A4C" d="M215.2,41.2c-0.9-0.3-1.8-0.4-2.5-0.4c-0.6,0-1.1,0.1-1.5,0.3c-0.4,0.2-0.6,0.5-0.6,1
                c0,0.5,0.3,0.9,0.8,1.1c0.5,0.3,1.3,0.6,2.5,0.9c1.3,0.4,2.3,0.7,3.1,1.1c0.8,0.4,1.5,0.9,2.1,1.6c0.6,0.7,0.9,1.6,0.9,2.8
                c0,1.8-0.7,3.1-2,4.1c-1.3,1-3.1,1.5-5.2,1.5c-1.4,0-2.8-0.2-4.2-0.6c-1.3-0.4-2.5-1-3.5-1.8l1.6-3.4c0.9,0.7,1.9,1.2,3,1.6
                c1.1,0.4,2.2,0.6,3.1,0.6c0.7,0,1.2-0.1,1.6-0.3c0.4-0.2,0.6-0.6,0.6-1c0-0.5-0.3-0.9-0.8-1.2c-0.5-0.3-1.3-0.6-2.5-0.9
                c-1.2-0.4-2.2-0.7-3-1.1c-0.8-0.4-1.5-0.9-2.1-1.6c-0.6-0.7-0.9-1.6-0.9-2.8c0-1.8,0.7-3.1,2-4.1c1.3-1,3-1.4,5-1.4
                c1.2,0,2.4,0.2,3.6,0.5c1.2,0.3,2.3,0.8,3.3,1.5l-1.7,3.5C217.1,41.9,216.1,41.5,215.2,41.2z"/>
        </g>
        <g>
            <path fill="#444A4C" d="M115.9,76.3v-1.5c-0.8,1.1-2.1,1.6-3.8,1.6c-0.8,0-1.4-0.1-2-0.4c-0.6-0.3-1-0.7-1.3-1.2s-0.5-1.1-0.5-1.7
                c0-1,0.4-1.8,1.1-2.3c0.7-0.6,1.7-0.9,3-0.9h3.5v-0.5c0-0.8-0.2-1.4-0.7-1.8c-0.5-0.4-1.2-0.6-2.1-0.6c-1.1,0-2.2,0.4-3.4,1.2
                l-0.8-1.3c0.8-0.5,1.5-0.9,2.2-1.1c0.7-0.2,1.5-0.3,2.4-0.3c1.4,0,2.4,0.3,3.2,1c0.7,0.7,1.1,1.6,1.1,2.8l0,7.2H115.9z
                M114.7,74.1c0.6-0.4,1-1,1.1-1.7v-1.1h-3.2c-0.9,0-1.5,0.1-1.9,0.4c-0.4,0.3-0.6,0.7-0.6,1.2c0,0.6,0.2,1,0.6,1.3s1,0.5,1.7,0.5
                C113.3,74.8,114.1,74.5,114.7,74.1z"/>
            <path fill="#444A4C" d="M130.3,66.4c0.7,0.8,1.1,1.8,1.1,3.1v6.7h-1.9V70c0-0.9-0.3-1.6-0.8-2.2s-1.2-0.8-2.1-0.8
                c-1,0-1.8,0.3-2.4,0.9s-1,1.4-1,2.4v5.8h-1.9V65.4h1.9v2.3c0.7-1.6,2.1-2.3,4.1-2.4C128.5,65.3,129.5,65.7,130.3,66.4z"/>
            <path fill="#444A4C" d="M141.5,76.3v-1.5c-0.8,1.1-2.1,1.6-3.8,1.6c-0.8,0-1.4-0.1-2-0.4s-1-0.7-1.3-1.2s-0.5-1.1-0.5-1.7
                c0-1,0.4-1.8,1.1-2.3c0.7-0.6,1.7-0.9,3-0.9h3.5v-0.5c0-0.8-0.2-1.4-0.7-1.8c-0.5-0.4-1.2-0.6-2.1-0.6c-1.1,0-2.2,0.4-3.4,1.2
                l-0.8-1.3c0.8-0.5,1.5-0.9,2.2-1.1c0.7-0.2,1.5-0.3,2.4-0.3c1.4,0,2.4,0.3,3.2,1c0.7,0.7,1.1,1.6,1.1,2.8l0,7.2H141.5z
                M140.3,74.1c0.6-0.4,1-1,1.1-1.7v-1.1h-3.2c-0.9,0-1.5,0.1-1.9,0.4c-0.4,0.3-0.6,0.7-0.6,1.2c0,0.6,0.2,1,0.6,1.3s1,0.5,1.7,0.5
                C138.9,74.8,139.7,74.5,140.3,74.1z"/>
            <path fill="#444A4C" d="M146.9,61h1.9v15.3h-1.9V61z"/>
            <path fill="#444A4C" d="M154.5,61.3c0.2,0.2,0.3,0.5,0.3,0.9c0,0.4-0.1,0.7-0.3,0.9c-0.2,0.2-0.5,0.4-0.9,0.4s-0.6-0.1-0.9-0.4
                c-0.2-0.2-0.3-0.5-0.3-0.9c0-0.4,0.1-0.7,0.3-0.9c0.2-0.2,0.5-0.4,0.9-0.4S154.2,61.1,154.5,61.3z M152.7,65.4h1.9v10.9h-1.9V65.4
                z"/>
            <path fill="#444A4C" d="M157.6,65.4l8.8,0v1.4l-6.6,7.9l6.8,0v1.6l-9.1,0v-1.4L164,67l-6.4,0V65.4z"/>
            <path fill="#444A4C" d="M175.7,76.3v-1.5c-0.8,1.1-2.1,1.6-3.8,1.6c-0.8,0-1.4-0.1-2-0.4s-1-0.7-1.3-1.2s-0.5-1.1-0.5-1.7
                c0-1,0.4-1.8,1.1-2.3c0.7-0.6,1.7-0.9,3-0.9h3.5v-0.5c0-0.8-0.2-1.4-0.7-1.8c-0.5-0.4-1.2-0.6-2.1-0.6c-1.1,0-2.2,0.4-3.4,1.2
                l-0.8-1.3c0.8-0.5,1.5-0.9,2.2-1.1c0.7-0.2,1.5-0.3,2.4-0.3c1.4,0,2.4,0.3,3.2,1c0.7,0.7,1.1,1.6,1.1,2.8l0,7.2H175.7z
                M174.5,74.1c0.6-0.4,1-1,1.1-1.7v-1.1h-3.2c-0.9,0-1.5,0.1-1.9,0.4c-0.4,0.3-0.6,0.7-0.6,1.2c0,0.6,0.2,1,0.6,1.3s1,0.5,1.7,0.5
                C173.2,74.8,173.9,74.5,174.5,74.1z"/>
            <path fill="#444A4C" d="M191.2,61v15.3h-1.9v-2.2c-0.4,0.7-1,1.3-1.7,1.7c-0.7,0.4-1.5,0.6-2.4,0.6c-1,0-1.9-0.2-2.7-0.7
                c-0.8-0.5-1.4-1.1-1.8-2c-0.4-0.8-0.7-1.8-0.7-2.9c0-1.1,0.2-2,0.7-2.9c0.4-0.8,1.1-1.5,1.8-2s1.7-0.7,2.7-0.7
                c0.9,0,1.8,0.2,2.5,0.6c0.7,0.4,1.3,0.9,1.7,1.7V61H191.2z M187.5,74.2c0.6-0.3,1-0.8,1.3-1.4s0.5-1.3,0.5-2c0-0.8-0.2-1.4-0.5-2
                c-0.3-0.6-0.8-1.1-1.3-1.4c-0.6-0.3-1.2-0.5-1.9-0.5c-0.7,0-1.4,0.2-1.9,0.5s-1,0.8-1.3,1.4s-0.5,1.3-0.5,2s0.2,1.4,0.5,2
                s0.8,1.1,1.3,1.4s1.2,0.5,1.9,0.5C186.3,74.7,186.9,74.6,187.5,74.2z"/>
            <path fill="#444A4C" d="M202.5,66c0.8,0.5,1.5,1.1,2,2c0.5,0.8,0.7,1.8,0.7,2.9s-0.2,2-0.7,2.9c-0.5,0.8-1.1,1.5-2,2
                c-0.8,0.5-1.8,0.7-2.9,0.7c-1.1,0-2.1-0.2-2.9-0.7c-0.8-0.5-1.5-1.1-2-2c-0.5-0.8-0.7-1.8-0.7-2.9c0-1.1,0.2-2,0.7-2.9
                c0.5-0.8,1.1-1.5,2-2c0.8-0.5,1.8-0.7,2.9-0.7C200.7,65.3,201.6,65.5,202.5,66z M197.7,67.5c-0.6,0.3-1,0.8-1.3,1.4
                s-0.5,1.2-0.5,2c0,0.8,0.2,1.4,0.5,2s0.7,1,1.3,1.4c0.6,0.3,1.2,0.5,1.9,0.5c0.7,0,1.3-0.2,1.9-0.5c0.6-0.3,1-0.8,1.3-1.4
                s0.5-1.3,0.5-2c0-0.7-0.2-1.4-0.5-2s-0.7-1-1.3-1.4c-0.6-0.3-1.2-0.5-1.9-0.5C198.9,67,198.2,67.1,197.7,67.5z"/>
            <path fill="#444A4C" d="M212.3,67.1c-0.5-0.2-1.1-0.2-1.6-0.2c-0.6,0-1,0.1-1.4,0.3c-0.4,0.2-0.5,0.5-0.5,1s0.2,0.8,0.6,1
                c0.4,0.2,1,0.5,1.8,0.7c0.8,0.2,1.4,0.4,1.9,0.7c0.5,0.2,0.9,0.5,1.2,1c0.3,0.4,0.5,1,0.5,1.7c0,1-0.4,1.8-1.2,2.4
                c-0.8,0.5-1.7,0.8-2.9,0.8c-0.8,0-1.6-0.1-2.4-0.4s-1.4-0.6-1.9-1.1l0.7-1.4c0.5,0.4,1,0.7,1.7,1s1.3,0.4,2,0.4s1.1-0.1,1.5-0.4
                c0.4-0.2,0.6-0.6,0.6-1.1c0-0.5-0.2-0.9-0.6-1.1c-0.4-0.2-1-0.5-1.8-0.7c-0.7-0.2-1.3-0.4-1.8-0.6c-0.5-0.2-0.9-0.5-1.2-0.9
                c-0.3-0.4-0.5-0.9-0.5-1.6c0-1,0.4-1.8,1.1-2.3c0.7-0.5,1.7-0.8,2.8-0.8c0.7,0,1.3,0.1,2,0.3s1.2,0.4,1.7,0.8l-0.7,1.5
                C213.4,67.5,212.9,67.3,212.3,67.1z"/>
        </g>
    </g>
</svg>
