<?xml version="1.0" encoding="utf-8"?>
<!-- Generator: Adobe Illustrator 17.1.0, SVG Export Plug-In . SVG Version: 6.00 Build 0)  -->
<!DOCTYPE svg PUBLIC "-//W3C//DTD SVG 1.1//EN" "http://www.w3.org/Graphics/SVG/1.1/DTD/svg11.dtd">
<svg version="1.1" id="Layer_1" xmlns="http://www.w3.org/2000/svg" xmlns:xlink="http://www.w3.org/1999/xlink" x="0px" y="0px"
	 width="332.2px" height="105.2px" viewBox="0 0 332.2 105.2" enable-background="new 0 0 332.2 105.2" xml:space="preserve">
<path fill="#2F3435" d="M332.9,6c0,0-73.7,17.3-165.5,17.3C75.6,23.3,0.6,6,0.6,6s75-5,166.8-5C259.1,1,332.9,6,332.9,6z"/>
<path fill="#444A4C" d="M303.2,98.7c-90.6,10-182.1,10-272.7,0C20.7,67.9,11,37.1,1.2,6.3c110,12.1,221.1,12.1,331.1,0
	C322.6,37.1,312.9,67.9,303.2,98.7"/>
<g>
	<g>
		<g>
			<path fill="#FFFFFF" d="M98,75.5v11.6H55.8l-0.1-9.6l20.2-20.7c1.6-1.6,2.9-3.3,3.9-4.9c1-1.6,1.5-3,1.5-4.2
				c0-1.5-0.6-2.7-1.7-3.5c-1.1-0.8-2.7-1.2-4.7-1.2c-2.2,0-4.7,0.6-7.4,1.9c-2.7,1.2-5.3,3-7.9,5.2l-5.5-10.7
				c7.6-5.5,15.3-8.3,23-8.3c3.7,0,7,0.6,9.9,1.8c2.9,1.2,5.2,2.9,6.9,5.1s2.5,4.7,2.5,7.6s-0.9,5.8-2.8,8.8c-1.9,3-4.5,6.3-8,9.7
				L74.4,75.5H98z"/>
			<path fill="#FFFFFF" d="M134.8,42.9c-2-0.6-4-0.9-6.1-0.9c-4.3,0-7.5,1.3-9.6,3.8c-2.1,2.6-3.2,6.1-3,10.7
				c2.8-4,7.1-5.9,12.9-5.9c3.5,0,6.6,0.8,9.3,2.3c2.7,1.5,4.7,3.6,6.2,6.3c1.5,2.7,2.2,5.9,2.2,9.5c0,3.9-0.8,7.2-2.5,10.1
				c-1.7,2.9-4.1,5.1-7.2,6.6c-3.1,1.6-6.7,2.3-10.7,2.3c-4.9,0-9-1.1-12.6-3.3c-3.5-2.2-6.2-5.4-8.1-9.5c-1.9-4.1-2.8-9-2.8-14.6
				c0-5.9,1-11,3.1-15.4c2.1-4.4,5-7.8,8.8-10.2c3.8-2.4,8.2-3.6,13.3-3.6c3.1,0,6.2,0.4,9.4,1.3c3.2,0.8,5.9,2,8.3,3.3l-5.4,10
				C138.6,44.4,136.8,43.5,134.8,42.9z M119.7,63.2c-1.5,1.5-2.2,3.3-2.2,5.6c0,2.2,0.7,4,2.1,5.5c1.4,1.4,3.4,2.1,6,2.1
				c2.5,0,4.4-0.7,5.9-2c1.4-1.3,2.1-3.3,2.1-5.7c0-2.4-0.7-4.2-2.1-5.6c-1.4-1.3-3.3-2-5.7-2C123.2,61,121.2,61.7,119.7,63.2z"/>
		</g>
	</g>
	<g>
		<g>
			<path fill="#FFFFFF" d="M177.8,32.5v25.2h-5.2V55c-0.7,1-1.5,1.7-2.4,2.2c-1,0.5-2.1,0.7-3.3,0.7c-1.7,0-3.2-0.4-4.5-1.2
				c-1.3-0.8-2.3-1.9-3-3.3c-0.7-1.4-1.1-3.1-1.1-4.9c0-1.8,0.4-3.4,1.1-4.9c0.7-1.4,1.7-2.5,3-3.3c1.3-0.8,2.8-1.2,4.4-1.2
				c2.6,0,4.5,1,5.9,2.9v-9.6H177.8z M171.3,52.2c0.8-0.9,1.3-2.2,1.3-3.6c0-1.5-0.4-2.7-1.3-3.6c-0.8-0.9-1.9-1.4-3.3-1.4
				c-1.4,0-2.5,0.5-3.3,1.4c-0.8,0.9-1.3,2.2-1.3,3.6c0,1.5,0.5,2.7,1.3,3.6c0.8,0.9,2,1.4,3.3,1.4
				C169.4,53.7,170.5,53.2,171.3,52.2z"/>
			<path fill="#FFFFFF" d="M197.5,41.8c1.5,1.7,2.3,4.1,2.3,7.1c0,0.5,0,1,0,1.3h-13.1c0.3,1.2,0.9,2.1,1.7,2.7c0.8,0.6,1.8,1,3,1
				c0.9,0,1.7-0.2,2.5-0.5c0.8-0.3,1.5-0.8,2.1-1.4l2.7,2.8c-0.9,1-2.1,1.8-3.4,2.4c-1.3,0.6-2.8,0.8-4.4,0.8c-1.9,0-3.6-0.4-5-1.2
				s-2.5-1.9-3.3-3.3c-0.8-1.4-1.2-3-1.2-4.9c0-1.9,0.4-3.5,1.2-4.9c0.8-1.4,1.9-2.5,3.3-3.3c1.4-0.8,3.1-1.2,4.9-1.2
				C193.8,39.2,196,40.1,197.5,41.8z M194.9,47c0-1.2-0.4-2.2-1.2-2.9c-0.7-0.7-1.7-1.1-2.9-1.1c-1.1,0-2.1,0.4-2.8,1.1
				c-0.8,0.7-1.2,1.7-1.4,2.9H194.9z"/>
			<path fill="#FFFFFF" d="M203.4,32.5h5.2v25.2h-5.2V32.5z"/>
			<path fill="#FFFFFF" d="M218.5,32.1c0.5,0.5,0.8,1.2,0.8,2.1c0,0.9-0.3,1.6-0.8,2.1c-0.5,0.5-1.2,0.8-2.1,0.8
				c-0.8,0-1.5-0.3-2-0.8c-0.5-0.6-0.8-1.2-0.8-2.1c0-0.9,0.3-1.6,0.8-2.1c0.5-0.5,1.2-0.8,2-0.8C217.3,31.3,218,31.6,218.5,32.1z
				 M213.9,39.4h5.2v18.2h-5.2V39.4z"/>
			<path fill="#FFFFFF" d="M235.4,56.6c-0.7,0.4-1.4,0.7-2.3,0.9c-0.8,0.2-1.7,0.3-2.5,0.3c-1.7,0-3.1-0.5-4.1-1.5
				c-1.1-1-1.6-2.4-1.6-4.2v-8.4h-2.5v-3.6h2.5v-5h5.2v5h5v3.6h-5v7.5c0,1.4,0.6,2.1,1.7,2.1c0.8,0,1.6-0.2,2.5-0.7L235.4,56.6z"/>
			<path fill="#FFFFFF" d="M251.8,40.4c1.5,0.8,2.6,1.9,3.4,3.3c0.8,1.4,1.2,3,1.2,4.9c0,1.8-0.4,3.5-1.2,4.9
				c-0.8,1.4-2,2.5-3.4,3.3c-1.5,0.8-3.2,1.2-5.1,1.2c-1.9,0-3.7-0.4-5.1-1.2c-1.5-0.8-2.6-1.9-3.4-3.3c-0.8-1.4-1.2-3-1.2-4.9
				c0-1.9,0.4-3.5,1.2-4.9c0.8-1.4,2-2.5,3.4-3.3c1.5-0.8,3.2-1.2,5.1-1.2C248.6,39.2,250.3,39.6,251.8,40.4z M243.4,45
				c-0.8,0.9-1.3,2.1-1.3,3.6c0,1.5,0.4,2.7,1.3,3.6c0.8,0.9,2,1.4,3.3,1.4c1.3,0,2.4-0.5,3.3-1.4c0.8-0.9,1.3-2.1,1.3-3.6
				c0-1.5-0.4-2.7-1.3-3.6c-0.8-0.9-1.9-1.4-3.3-1.4C245.3,43.6,244.2,44,243.4,45z"/>
			<path fill="#FFFFFF" d="M268.4,43.5c-1-0.3-1.8-0.5-2.6-0.5c-0.6,0-1.1,0.1-1.5,0.3c-0.4,0.2-0.6,0.6-0.6,1
				c0,0.5,0.3,0.9,0.8,1.2c0.5,0.3,1.4,0.6,2.5,0.9c1.3,0.4,2.4,0.8,3.2,1.1c0.8,0.4,1.6,0.9,2.2,1.7s0.9,1.7,0.9,2.9
				c0,1.8-0.7,3.2-2.1,4.2c-1.4,1-3.2,1.5-5.3,1.5c-1.5,0-2.9-0.2-4.3-0.7c-1.4-0.4-2.6-1.1-3.6-1.9l1.7-3.5c0.9,0.7,2,1.3,3.1,1.7
				c1.1,0.4,2.2,0.6,3.2,0.6c0.7,0,1.3-0.1,1.7-0.4c0.4-0.2,0.6-0.6,0.6-1.1c0-0.5-0.3-0.9-0.8-1.2c-0.5-0.3-1.4-0.6-2.6-0.9
				c-1.2-0.4-2.3-0.7-3.1-1.1c-0.8-0.4-1.5-0.9-2.1-1.6c-0.6-0.7-0.9-1.7-0.9-2.9c0-1.8,0.7-3.2,2-4.2c1.4-1,3.1-1.5,5.2-1.5
				c1.2,0,2.5,0.2,3.7,0.5c1.2,0.4,2.4,0.9,3.4,1.5l-1.8,3.6C270.4,44.2,269.4,43.8,268.4,43.5z"/>
		</g>
	</g>
	<g>
		<g>
			<path fill="#FFFFFF" d="M163.9,67.7c-0.5,0.4-0.7,1-0.7,1.8v2h4.3v2.1h-4.3v12.9h-2.7V73.6h-2v-2.1h2v-1.7c0-1.1,0.2-2.1,0.7-2.9
				c0.5-0.8,1.1-1.4,1.9-1.8c0.8-0.4,1.6-0.6,2.5-0.6c0.9,0,1.8,0.2,2.7,0.7l-0.6,2.2c-0.7-0.3-1.4-0.5-2-0.5
				C164.9,67.1,164.3,67.3,163.9,67.7z M172.5,65.4c0.3,0.3,0.5,0.8,0.5,1.3c0,0.5-0.2,0.9-0.5,1.3s-0.7,0.5-1.2,0.5
				c-0.5,0-0.9-0.2-1.2-0.5s-0.5-0.8-0.5-1.3c0-0.5,0.2-0.9,0.5-1.3c0.3-0.3,0.7-0.5,1.2-0.5C171.7,64.9,172.2,65,172.5,65.4z
				 M169.9,71h2.7v15.5h-2.7V71z"/>
			<path fill="#FFFFFF" d="M178.1,64.8h2.7v21.7h-2.7V64.8z"/>
			<path fill="#FFFFFF" d="M194.6,85.5c-1.2,0.8-2.4,1.1-3.6,1.1s-2.2-0.4-3-1.1s-1.1-1.8-1.1-3.3v-8.6h-2.2v-2.1h2.2v-4.1h2.7v4.1
				h4.7v2.1h-4.7v8.1c0,0.9,0.2,1.5,0.5,1.8c0.3,0.4,0.8,0.6,1.4,0.6c0.7,0,1.5-0.2,2.4-0.7L194.6,85.5z"/>
			<path fill="#FFFFFF" d="M202.7,71.8c0.9-0.6,2-0.9,3.3-0.9v2.6c-1.6-0.1-2.9,0.4-3.8,1.2c-1,0.9-1.5,2.1-1.7,3.5v8.2h-2.7V71h2.7
				v3.3C201.1,73.2,201.8,72.4,202.7,71.8z"/>
			<path fill="#FFFFFF" d="M217.8,86.5v-2.2c-1.2,1.5-3,2.3-5.4,2.3c-1.1,0-2-0.2-2.8-0.6s-1.4-1-1.9-1.7c-0.4-0.7-0.7-1.5-0.7-2.4
				c0-1.4,0.5-2.5,1.5-3.3c1-0.8,2.4-1.2,4.3-1.2h4.9v-0.7c0-1.1-0.3-1.9-1-2.5c-0.7-0.6-1.7-0.9-2.9-0.9c-1.6,0-3.1,0.6-4.8,1.7
				l-1.1-1.9c1.1-0.7,2.1-1.2,3.1-1.6s2.1-0.5,3.4-0.5c1.9,0,3.4,0.5,4.5,1.4c1.1,0.9,1.6,2.3,1.6,4l0,10.2H217.8z M216.2,83.4
				c0.9-0.6,1.4-1.4,1.6-2.4v-1.5h-4.5c-1.2,0-2.1,0.2-2.7,0.6c-0.6,0.4-0.9,1-0.9,1.8s0.3,1.4,0.9,1.9c0.6,0.5,1.4,0.7,2.4,0.7
				C214.2,84.4,215.3,84,216.2,83.4z"/>
			<path fill="#FFFFFF" d="M239.7,64.8v21.7H237v-3.1c-0.6,1-1.4,1.8-2.4,2.4c-1,0.6-2.1,0.8-3.4,0.8c-1.5,0-2.8-0.3-3.9-1
				c-1.1-0.7-2-1.6-2.6-2.8c-0.6-1.2-0.9-2.6-0.9-4.1c0-1.5,0.3-2.9,0.9-4c0.6-1.2,1.5-2.1,2.6-2.8c1.1-0.7,2.4-1,3.8-1
				c1.3,0,2.5,0.3,3.5,0.8c1,0.5,1.8,1.3,2.3,2.4v-9.3H239.7z M234.5,83.6c0.8-0.5,1.4-1.1,1.9-2c0.4-0.8,0.7-1.8,0.7-2.8
				c0-1.1-0.2-2-0.7-2.9c-0.4-0.8-1.1-1.5-1.9-2s-1.7-0.7-2.7-0.7s-1.9,0.2-2.7,0.7s-1.4,1.1-1.9,2s-0.7,1.8-0.7,2.8
				c0,1.1,0.2,2,0.7,2.8c0.4,0.8,1.1,1.5,1.9,2s1.7,0.7,2.7,0.7S233.7,84.1,234.5,83.6z"/>
			<path fill="#FFFFFF" d="M255.7,71.9c1.2,0.7,2.1,1.6,2.8,2.8c0.7,1.2,1,2.5,1,4s-0.3,2.9-1,4.1c-0.7,1.2-1.6,2.1-2.8,2.8
				c-1.2,0.7-2.6,1-4.1,1c-1.6,0-2.9-0.3-4.1-1c-1.2-0.7-2.1-1.6-2.8-2.8c-0.7-1.2-1-2.5-1-4.1c0-1.5,0.3-2.9,1-4
				c0.7-1.2,1.6-2.1,2.8-2.8c1.2-0.7,2.6-1,4.1-1C253.2,70.9,254.5,71.3,255.7,71.9z M248.9,74c-0.8,0.5-1.4,1.1-1.8,1.9
				s-0.7,1.8-0.7,2.8c0,1.1,0.2,2,0.7,2.9c0.4,0.8,1.1,1.5,1.8,1.9c0.8,0.5,1.7,0.7,2.7,0.7c1,0,1.9-0.2,2.7-0.7
				c0.8-0.5,1.4-1.1,1.8-1.9c0.4-0.8,0.7-1.8,0.7-2.9c0-1.1-0.2-2-0.7-2.8s-1.1-1.5-1.8-1.9s-1.7-0.7-2.7-0.7
				C250.6,73.3,249.7,73.5,248.9,74z"/>
			<path fill="#FFFFFF" d="M269.7,73.5c-0.8-0.2-1.5-0.4-2.2-0.4c-0.8,0-1.5,0.2-2,0.5c-0.5,0.3-0.7,0.8-0.7,1.4
				c0,0.6,0.3,1.1,0.8,1.4c0.6,0.3,1.4,0.6,2.5,1c1.1,0.3,1.9,0.6,2.6,0.9c0.7,0.3,1.3,0.8,1.7,1.4c0.5,0.6,0.7,1.4,0.7,2.4
				c0,1.5-0.6,2.6-1.7,3.3c-1.1,0.8-2.5,1.1-4.1,1.1c-1.2,0-2.3-0.2-3.3-0.6s-2-0.9-2.7-1.6l1-2c0.6,0.6,1.4,1.1,2.4,1.4
				c0.9,0.4,1.9,0.5,2.8,0.5s1.6-0.2,2.2-0.5c0.5-0.3,0.8-0.8,0.8-1.5c0-0.7-0.3-1.2-0.9-1.6c-0.6-0.4-1.4-0.7-2.6-1.1
				c-1-0.3-1.9-0.6-2.5-0.9c-0.7-0.3-1.2-0.7-1.7-1.3c-0.5-0.6-0.7-1.3-0.7-2.3c0-1.4,0.5-2.5,1.6-3.2c1.1-0.7,2.4-1.1,3.9-1.1
				c0.9,0,1.9,0.1,2.8,0.4c0.9,0.3,1.7,0.6,2.4,1.1l-1,2.1C271.1,74.1,270.4,73.7,269.7,73.5z"/>
		</g>
	</g>
</g>
</svg>
