<?xml version="1.0" encoding="utf-8"?>
<!-- Generator: Adobe Illustrator 17.1.0, SVG Export Plug-In . SVG Version: 6.00 Build 0)  -->
<!DOCTYPE svg PUBLIC "-//W3C//DTD SVG 1.1//EN" "http://www.w3.org/Graphics/SVG/1.1/DTD/svg11.dtd">
<svg version="1.1" id="Layer_1" xmlns="http://www.w3.org/2000/svg" xmlns:xlink="http://www.w3.org/1999/xlink" x="0px" y="0px"
	 width="439.4px" height="121.4px" viewBox="0 0 439.4 121.4" enable-background="new 0 0 439.4 121.4" xml:space="preserve">
<path fill="#A53A52" d="M440.2,6c0,0-97.2,17.3-218.2,17.3C101.1,23.2,2.2,6,2.2,6S101.1,1,222,1C343,1,440.2,6,440.2,6z"/>
<path fill="#CC445C" d="M402.2,112.4c-121.3,13.4-243.6,13.4-364.9,0C25.2,76.9,13,41.4,0.8,6C146.4,22,293.3,22,438.8,6
	C426.6,41.4,414.4,76.9,402.2,112.4"/>
<g>
	<g>
		<path fill="#FFFFFF" d="M152.2,78v14h-9v15.2h-16.9V92H94.4V79.5l20-42.8h17.5L113.1,78h13.2V63h16.9v15H152.2z"/>
		<path fill="#FFFFFF" d="M156.8,36.7H213v12.8l-26.5,57.7H167l25.6-55.7h-19.5l-0.1,10h-16.2V36.7z"/>
	</g>
	<g>
		<path fill="#FFFFFF" d="M245,36.3V64h-5.7V61c-0.7,1-1.6,1.8-2.7,2.4c-1.1,0.5-2.3,0.8-3.6,0.8c-1.9,0-3.5-0.4-5-1.3
			c-1.4-0.9-2.5-2.1-3.3-3.6c-0.8-1.6-1.2-3.4-1.2-5.4c0-2,0.4-3.8,1.2-5.3c0.8-1.5,1.9-2.7,3.3-3.6c1.4-0.8,3-1.3,4.9-1.3
			c2.8,0,5,1.1,6.5,3.2V36.3H245z M237.9,58c0.9-1,1.4-2.4,1.4-4s-0.5-3-1.4-4c-0.9-1-2.1-1.5-3.6-1.5c-1.5,0-2.7,0.5-3.6,1.5
			s-1.4,2.4-1.4,4c0,1.6,0.5,3,1.4,4c0.9,1,2.1,1.5,3.6,1.5C235.8,59.6,237,59,237.9,58z"/>
		<path fill="#FFFFFF" d="M266.7,46.5c1.7,1.9,2.5,4.5,2.5,7.8c0,0.6,0,1.1,0,1.4h-14.4c0.3,1.3,0.9,2.3,1.9,3
			c0.9,0.7,2,1.1,3.3,1.1c0.9,0,1.8-0.2,2.7-0.5c0.9-0.4,1.6-0.9,2.3-1.6l3,3.1c-1,1.1-2.3,2-3.7,2.6s-3.1,0.9-4.9,0.9
			c-2.1,0-4-0.4-5.5-1.3c-1.6-0.8-2.8-2-3.6-3.6c-0.9-1.5-1.3-3.3-1.3-5.3c0-2,0.4-3.8,1.3-5.4c0.9-1.6,2.1-2.8,3.6-3.6
			c1.6-0.9,3.4-1.3,5.4-1.3C262.6,43.7,265,44.7,266.7,46.5z M263.8,52.3c0-1.3-0.5-2.4-1.3-3.2c-0.8-0.8-1.8-1.2-3.2-1.2
			c-1.2,0-2.3,0.4-3.1,1.2s-1.4,1.8-1.6,3.2H263.8z"/>
		<path fill="#FFFFFF" d="M273.1,36.3h5.7V64h-5.7V36.3z"/>
		<path fill="#FFFFFF" d="M289.7,35.9c0.6,0.6,0.9,1.4,0.9,2.3c0,0.9-0.3,1.7-0.9,2.3c-0.6,0.6-1.3,0.9-2.3,0.9
			c-0.9,0-1.6-0.3-2.2-0.9c-0.6-0.6-0.9-1.4-0.9-2.3c0-0.9,0.3-1.7,0.9-2.3c0.6-0.6,1.3-0.9,2.2-0.9C288.4,35,289.1,35.3,289.7,35.9
			z M284.6,43.9h5.7v20h-5.7V43.9z"/>
		<path fill="#FFFFFF" d="M308.2,62.8c-0.7,0.4-1.6,0.8-2.5,1c-0.9,0.2-1.8,0.4-2.7,0.4c-1.9,0-3.4-0.5-4.5-1.6
			c-1.2-1.1-1.7-2.6-1.7-4.6v-9.3h-2.8v-3.9h2.8v-5.5h5.7v5.5h5.4v4h-5.4v8.3c0,1.5,0.6,2.3,1.8,2.3c0.8,0,1.8-0.2,2.8-0.7
			L308.2,62.8z"/>
		<path fill="#FFFFFF" d="M326.2,45c1.6,0.8,2.9,2,3.8,3.6c0.9,1.5,1.3,3.3,1.3,5.4c0,2-0.4,3.8-1.3,5.3c-0.9,1.6-2.2,2.8-3.8,3.6
			c-1.6,0.9-3.5,1.3-5.6,1.3c-2.1,0-4-0.4-5.6-1.3c-1.6-0.9-2.9-2.1-3.8-3.6c-0.9-1.6-1.3-3.3-1.3-5.3c0-2,0.4-3.8,1.3-5.4
			c0.9-1.5,2.2-2.7,3.8-3.6c1.6-0.8,3.5-1.3,5.6-1.3C322.7,43.7,324.6,44.2,326.2,45z M317,50c-0.9,1-1.4,2.3-1.4,4s0.5,3,1.4,4
			c0.9,1,2.1,1.5,3.6,1.5c1.5,0,2.7-0.5,3.6-1.5c0.9-1,1.4-2.3,1.4-4s-0.5-3-1.4-4s-2.1-1.5-3.6-1.5C319.1,48.5,317.9,49,317,50z"/>
		<path fill="#FFFFFF" d="M344.5,48.4c-1.1-0.3-2-0.5-2.9-0.5c-0.7,0-1.3,0.1-1.7,0.4c-0.4,0.2-0.6,0.6-0.6,1.1c0,0.5,0.3,1,0.9,1.3
			c0.6,0.3,1.5,0.6,2.8,1c1.4,0.4,2.6,0.8,3.5,1.2c0.9,0.4,1.7,1,2.4,1.8c0.7,0.8,1,1.9,1,3.2c0,2-0.8,3.5-2.3,4.6
			c-1.5,1.1-3.5,1.7-5.9,1.7c-1.6,0-3.2-0.2-4.7-0.7c-1.5-0.5-2.8-1.2-3.9-2.1l1.9-3.9c1,0.8,2.2,1.4,3.4,1.8
			c1.3,0.4,2.4,0.7,3.6,0.7c0.8,0,1.4-0.1,1.8-0.4c0.5-0.3,0.7-0.7,0.7-1.2c0-0.6-0.3-1-0.9-1.3c-0.6-0.3-1.5-0.7-2.8-1
			c-1.4-0.4-2.5-0.8-3.4-1.2c-0.9-0.4-1.7-1-2.3-1.8c-0.6-0.8-1-1.9-1-3.1c0-2,0.7-3.5,2.2-4.6c1.5-1.1,3.4-1.6,5.7-1.6
			c1.4,0,2.7,0.2,4.1,0.6c1.4,0.4,2.6,0.9,3.7,1.7l-2,3.9C346.6,49.2,345.6,48.7,344.5,48.4z"/>
	</g>
	<g>
		<path fill="#FFFFFF" d="M242.6,88.9c1.3,1.4,2,3.3,2,5.7V107h-3.5V95.5c0-1.7-0.5-3-1.4-4s-2.3-1.4-3.9-1.4
			c-1.8,0-3.3,0.6-4.4,1.7c-1.1,1.1-1.8,2.6-1.9,4.4V107h-3.5V86.9h3.5v4.2c1.3-2.9,3.9-4.3,7.6-4.4
			C239.4,86.8,241.3,87.5,242.6,88.9z"/>
		<path fill="#FFFFFF" d="M264.6,88.1c1.6,0.9,2.8,2.1,3.6,3.6s1.3,3.3,1.3,5.3c0,2-0.4,3.7-1.3,5.3c-0.9,1.5-2.1,2.7-3.6,3.6
			c-1.6,0.9-3.3,1.3-5.3,1.3c-2,0-3.8-0.4-5.4-1.3c-1.6-0.9-2.8-2.1-3.6-3.6c-0.9-1.5-1.3-3.3-1.3-5.3c0-2,0.4-3.7,1.3-5.3
			c0.9-1.5,2.1-2.7,3.6-3.6c1.6-0.9,3.3-1.3,5.4-1.3C261.3,86.8,263.1,87.2,264.6,88.1z M255.8,90.8c-1,0.6-1.8,1.4-2.4,2.5
			c-0.6,1.1-0.9,2.3-0.9,3.7c0,1.4,0.3,2.6,0.9,3.7c0.6,1.1,1.4,1.9,2.4,2.5c1,0.6,2.2,0.9,3.5,0.9c1.3,0,2.4-0.3,3.5-0.9
			c1-0.6,1.8-1.4,2.4-2.5c0.6-1.1,0.9-2.3,0.9-3.7c0-1.4-0.3-2.6-0.9-3.7c-0.6-1.1-1.4-1.9-2.4-2.5c-1-0.6-2.2-0.9-3.5-0.9
			C258,89.9,256.8,90.2,255.8,90.8z"/>
		<path fill="#FFFFFF" d="M281.4,80.4h8.8V107h-8.8V80.4z"/>
		<path fill="#FFFFFF" d="M309.1,87.4c-1.8-0.6-3.2-0.9-4.3-0.9c-1.1,0-1.6,0.4-1.6,1.2c0,0.6,0.3,1.1,1,1.4
			c0.7,0.3,1.8,0.7,3.3,1.1c1.9,0.5,3.5,1.1,4.7,1.6c1.3,0.5,2.3,1.4,3.3,2.5s1.4,2.7,1.4,4.5c0,1.9-0.5,3.5-1.5,4.8
			c-1,1.3-2.3,2.3-4,2.9c-1.7,0.6-3.6,0.9-5.7,0.9c-2.4,0-4.7-0.4-7.1-1.2c-2.4-0.8-4.5-1.8-6.2-3.2l3.3-6.6c1.3,1.2,3,2.2,5,3
			c2,0.8,3.7,1.2,5.1,1.2c0.7,0,1.2-0.1,1.6-0.4c0.4-0.2,0.6-0.6,0.6-1.1c0-0.6-0.4-1.1-1.1-1.4c-0.7-0.3-1.9-0.7-3.4-1.1
			c-1.9-0.5-3.4-1-4.7-1.5s-2.3-1.3-3.2-2.4c-0.9-1.1-1.4-2.5-1.4-4.4c0-1.8,0.5-3.3,1.4-4.6c0.9-1.3,2.3-2.3,4-3.1
			c1.7-0.7,3.7-1.1,6-1.1c2.1,0,4.1,0.3,6.2,0.9c2.1,0.6,3.9,1.4,5.4,2.3l-3.2,6.7C312.4,88.8,310.8,88,309.1,87.4z"/>
		<path fill="#FFFFFF" d="M339.7,82.9c1.9,1.7,2.8,4,2.8,7c0,3.2-0.9,5.7-2.8,7.5s-4.6,2.7-8,2.7H328v6.9h-8.8V80.4h12.5
			C335.1,80.4,337.8,81.2,339.7,82.9z M333.4,92.5c0.5-0.6,0.8-1.4,0.8-2.4c0-1-0.3-1.8-0.8-2.3c-0.5-0.5-1.3-0.8-2.2-0.8H328v6.3
			h3.2C332.1,93.4,332.9,93.1,333.4,92.5z"/>
	</g>
</g>
</svg>
