<?xml version="1.0" standalone="no"?>
<!DOCTYPE svg PUBLIC "-//W3C//DTD SVG 1.1//EN" "http://www.w3.org/Graphics/SVG/1.1/DTD/svg11.dtd" >
<svg xmlns="http://www.w3.org/2000/svg" xmlns:xlink="http://www.w3.org/1999/xlink" version="1.1">
<metadata></metadata>
<defs>
<font id="montserratextrabold_italic" horiz-adv-x="1609" >
<font-face units-per-em="2048" ascent="1638" descent="-410" />
<missing-glyph horiz-adv-x="432" />
<glyph unicode="&#xfb01;" horiz-adv-x="1497" d="M90 0l160 793h-154l54 264h151l25 119q35 174 166 268t321 94q137 0 264 -47l-100 -297q-20 8 -49 15.5t-45 7.5q-60 0 -106 -36t-56 -89l-6 -35h227l-51 -264h-229l-160 -793h-412zM845 0l224 1114h413l-223 -1114h-414zM1120 1393q0 106 76 179t184 73q80 0 128 -48.5 t48 -126.5q0 -106 -75.5 -178.5t-184.5 -72.5q-80 0 -128 48t-48 126z" />
<glyph unicode="&#xfb02;" horiz-adv-x="1515" d="M90 0l160 793h-154l54 264h151l25 119q35 170 163.5 266t323.5 96q119 0 221 -33l-61 -313q-31 14 -48.5 19.5t-41.5 5.5q-59 0 -106.5 -36t-55.5 -89l-6 -35h227l-51 -264h-229l-160 -793h-412zM854 0l303 1520h414l-303 -1520h-414z" />
<glyph horiz-adv-x="0" />
<glyph unicode="&#xd;" horiz-adv-x="432" />
<glyph horiz-adv-x="0" />
<glyph horiz-adv-x="0" />
<glyph unicode=" "  horiz-adv-x="432" />
<glyph unicode="&#x09;" horiz-adv-x="432" />
<glyph unicode="&#xa0;" horiz-adv-x="432" />
<glyph unicode="!" horiz-adv-x="571" d="M29 158q0 94 60.5 152.5t150.5 58.5q79 0 127.5 -47.5t48.5 -124.5q0 -92 -60.5 -152.5t-150.5 -60.5q-80 0 -128 48t-48 126zM158 512l35 547l75 373h394l-76 -373l-180 -547h-248z" />
<glyph unicode="&#x22;" horiz-adv-x="978" d="M180 842l117 594h311l-119 -594h-309zM604 842l117 594h311l-119 -594h-309z" />
<glyph unicode="#" horiz-adv-x="1427" d="M-33 299l60 283h270l55 256h-270l59 280h271l67 318h295l-67 -318h245l68 318h297l-68 -318h271l-58 -280h-272l-55 -256h270l-59 -283h-271l-63 -299h-295l63 299h-248l-63 -299h-295l64 299h-271zM592 582h248l53 256h-246z" />
<glyph unicode="$" horiz-adv-x="1314" d="M-45 215l192 322q100 -92 250 -156t262 -64q74 0 116 26t42 77q0 53 -57.5 82.5t-181.5 64.5q-135 37 -224.5 75t-154 115t-64.5 201q0 205 149.5 336t399.5 154l61 307h308l-66 -323q221 -41 373 -146l-191 -328q-111 66 -242.5 114t-219.5 48q-59 0 -93 -21.5 t-34 -64.5q0 -53 56 -81.5t179 -63.5q137 -41 226 -80t154 -119t65 -209q0 -223 -156 -349t-402 -144l-63 -316h-305l65 336q-127 27 -242.5 80t-201.5 127z" />
<glyph unicode="%" horiz-adv-x="2418" d="M152 956q0 150 57 261.5t161.5 173t239.5 61.5q172 0 270.5 -106.5t98.5 -288.5q0 -150 -57.5 -262.5t-162 -174t-239.5 -61.5q-170 0 -269 107.5t-99 289.5zM414 971q0 -88 33.5 -140.5t95.5 -52.5q80 0 127 73t47 189q0 90 -34 142.5t-93 52.5q-80 0 -128 -71.5 t-48 -192.5zM590 0l1009 1436h291l-1008 -1436h-292zM1503 381q0 150 57.5 261.5t161.5 173t240 61.5q172 0 270 -106.5t98 -289.5q0 -150 -57 -262.5t-161.5 -173.5t-239.5 -61q-170 0 -269.5 107.5t-99.5 289.5zM1765 395q0 -88 34 -140t95 -52q80 0 127 72.5t47 189.5 q0 90 -33.5 142t-93.5 52q-80 0 -128 -71.5t-48 -192.5z" />
<glyph unicode="&#x26;" horiz-adv-x="1441" d="M82 367q0 143 88 245.5t240 186.5q-39 68 -54.5 127t-15.5 121q0 188 124 297.5t337 109.5q182 0 292.5 -87t110.5 -228q0 -154 -101.5 -249t-283.5 -179q61 -80 148 -179q72 100 120 226l238 -207q-66 -131 -156 -244q57 -66 172 -186l-225 -187l-160 179 q-195 -131 -407 -131q-135 0 -241.5 49t-166 137t-59.5 199zM420 393q0 -55 41 -90t108 -35q97 1 195 64q-123 139 -207 250q-66 -41 -101.5 -86t-35.5 -103zM655 1042q0 -45 23 -106q100 53 153.5 101t53.5 110q0 76 -80 76q-66 0 -108 -52.5t-42 -128.5z" />
<glyph unicode="'" horiz-adv-x="555" d="M180 842l117 594h311l-119 -594h-309z" />
<glyph unicode="(" horiz-adv-x="739" d="M98 336q0 166 33 330q49 240 160.5 463t273.5 391h377q-158 -207 -272.5 -440.5t-163.5 -479.5q-31 -160 -31 -317q0 -301 103 -539h-351q-129 268 -129 592z" />
<glyph unicode=")" horiz-adv-x="749" d="M-129 -256q158 207 272.5 440.5t163.5 479.5q31 160 31 317q0 301 -102 539h350q129 -268 129 -592q0 -166 -33 -330q-49 -240 -160.5 -463t-273.5 -391h-377z" />
<glyph unicode="*" horiz-adv-x="841" d="M172 1024l164 92l-164 88l102 180l160 -100l-4 189h205l-4 -189l160 96l100 -176l-166 -88l166 -92l-100 -178l-162 98l6 -186h-205l6 188l-162 -96z" />
<glyph unicode="+" horiz-adv-x="1054" d="M61 543l52 258h333l68 336h258l-67 -336h335l-51 -258h-334l-67 -336h-260l67 336h-334z" />
<glyph unicode="," horiz-adv-x="503" d="M-104 -258l141 287q-63 45 -64 125q0 92 60.5 153.5t150.5 61.5q78 0 127 -45t49 -129q0 -80 -65 -168l-205 -285h-194z" />
<glyph unicode="-" horiz-adv-x="774" d="M96 502l51 258h560l-52 -258h-559z" />
<glyph unicode="." horiz-adv-x="532" d="M-2 158q0 94 59.5 152.5t149.5 58.5q80 0 128 -47.5t48 -124.5q0 -92 -59.5 -152.5t-151.5 -60.5q-78 0 -126 48t-48 126z" />
<glyph unicode="/" horiz-adv-x="829" d="M-135 -219l819 1874h346l-819 -1874h-346z" />
<glyph unicode="0" horiz-adv-x="1542" d="M133 537q0 274 96.5 480t279.5 318.5t439 112.5t391.5 -141.5t135.5 -405.5q0 -274 -97.5 -481t-280 -320.5t-433.5 -113.5q-260 0 -395.5 143t-135.5 408zM565 530q0 -123 38 -178t120 -55q143 0 231 141.5t88 466.5q0 121 -37.5 177.5t-117.5 56.5q-146 0 -234 -141.5 t-88 -467.5z" />
<glyph unicode="1" horiz-adv-x="948" d="M174 1096l66 340h688l-279 -1436h-426l213 1096h-262z" />
<glyph unicode="2" horiz-adv-x="1347" d="M20 0l52 272l614 529q72 61 118 119.5t48 101.5q4 41 -25.5 64.5t-87.5 23.5q-84 0 -197.5 -48t-230.5 -134l-100 307q358 219 659 219q201 0 323 -89t122 -237q0 -127 -98.5 -255t-282.5 -283l-307 -258h569l-66 -332h-1110z" />
<glyph unicode="3" horiz-adv-x="1341" d="M-6 164l209 291q160 -156 364 -156q117 0 180.5 48t63.5 134q0 59 -47 92t-135 33h-256l43 223l362 295h-522l59 314h1028l-47 -244l-428 -328l70 -14q135 -25 215 -112t80 -218q0 -152 -89 -275.5t-247 -194t-356 -70.5q-160 0 -307.5 50t-239.5 132z" />
<glyph unicode="4" horiz-adv-x="1351" d="M33 293l55 280l543 863h403l-516 -832h205l57 291h389l-57 -291h174l-61 -311h-172l-58 -293h-389l58 293h-631z" />
<glyph unicode="5" horiz-adv-x="1368" d="M2 166l213 295q166 -162 346 -162q104 0 163.5 49t59.5 133q0 119 -170 119q-225 0 -401 -4l164 840h985l-64 -332h-596l-34 -186h94q227 0 358 -100.5t131 -268.5q0 -162 -90 -291t-249.5 -202.5t-362.5 -73.5q-147 0 -296 50t-251 134z" />
<glyph unicode="6" horiz-adv-x="1382" d="M125 530q0 264 108.5 474t299 330t425.5 120q125 0 246 -32.5t199 -90.5l-213 -284q-100 94 -268 94q-150 0 -243 -86t-122 -242q61 66 147.5 101.5t192.5 35.5q176 0 276.5 -102.5t100.5 -274.5t-84 -307t-232.5 -209.5t-330.5 -74.5q-240 0 -371 146t-131 402zM530 453 q-4 -66 32 -106t112 -40q100 0 156.5 57.5t56.5 155.5q0 63 -36 98t-103 35q-98 0 -155.5 -55t-62.5 -145z" />
<glyph unicode="7" horiz-adv-x="1327" d="M162 903l102 533h1166l-56 -287l-739 -1149h-451l711 1104h-320l-38 -201h-375z" />
<glyph unicode="8" horiz-adv-x="1374" d="M59 338q0 135 92.5 252t239.5 178q-59 43 -92 111.5t-33 144.5q0 125 76 222t211 152.5t305 55.5q211 0 331 -90t120 -244q0 -104 -61.5 -198.5t-160.5 -153.5q78 -43 123 -125t45 -176q0 -143 -86 -253t-240.5 -171t-353.5 -61q-240 0 -378 97t-138 259zM471 412 q0 -61 42 -93t122 -32q109 0 168 49t59 137q0 59 -43 93t-123 34q-108 0 -166.5 -50t-58.5 -138zM616 1010q0 -106 138 -107q92 0 141 42t49 120q0 111 -137 111q-92 0 -141.5 -44.5t-49.5 -121.5z" />
<glyph unicode="9" horiz-adv-x="1380" d="M43 104l211 285q98 -92 268 -92q150 0 244 84t123 242q-137 -137 -342 -138q-172 0 -271.5 102.5t-99.5 274.5q0 174 83 308.5t229.5 209t330.5 74.5q240 0 371 -146.5t131 -402.5q0 -264 -108.5 -474t-299 -329.5t-428.5 -119.5q-123 0 -242.5 32.5t-199.5 89.5z M561 915q0 -131 139 -131q98 0 154.5 55.5t60.5 145.5q4 63 -31.5 103t-113.5 40q-98 0 -153.5 -57t-55.5 -156z" />
<glyph unicode=":" horiz-adv-x="532" d="M-2 158q0 94 59.5 152.5t149.5 58.5q80 0 128 -47.5t48 -124.5q0 -92 -59.5 -152.5t-151.5 -60.5q-78 0 -126 48t-48 126zM119 766q0 94 59.5 152.5t149.5 58.5q80 0 128 -47.5t48 -124.5q0 -92 -59.5 -152.5t-151.5 -60.5q-78 0 -126 48t-48 126z" />
<glyph unicode=";" horiz-adv-x="507" d="M-104 -258l141 287q-63 45 -64 125q0 92 60.5 153.5t150.5 61.5q78 0 127 -45t49 -129q0 -80 -65 -168l-205 -285h-194zM98 766q0 94 59.5 152.5t149.5 58.5q80 0 128 -47.5t48 -124.5q0 -92 -59.5 -152.5t-151.5 -60.5q-78 0 -126 48t-48 126z" />
<glyph unicode="&#x3c;" horiz-adv-x="1060" d="M57 498l62 329l1003 379l-57 -307l-713 -248l609 -264l-52 -268z" />
<glyph unicode="=" horiz-adv-x="1056" d="M16 319l52 259h929l-53 -259h-928zM106 766l52 258h927l-51 -258h-928z" />
<glyph unicode="&#x3e;" horiz-adv-x="1060" d="M-14 137l57 307l713 248l-609 264l52 269l852 -379l-62 -330z" />
<glyph unicode="?" horiz-adv-x="991" d="M84 950q29 236 173 367t374 131q199 0 309.5 -86t110.5 -242q0 -86 -30 -152.5t-72 -114.5t-111 -110q-80 -74 -121 -124t-49 -117h-308q14 119 61.5 191.5t125.5 146.5q57 55 84.5 96t27.5 96q0 90 -102 90q-68 0 -105.5 -42t-50.5 -130h-317zM289 158q0 94 59.5 152.5 t149.5 58.5q80 0 128 -47.5t48 -124.5q0 -92 -59.5 -152.5t-151.5 -60.5q-78 0 -126 48t-48 126z" />
<glyph unicode="@" horiz-adv-x="1826" d="M33 442q0 266 142 494.5t376.5 362t499.5 133.5q217 0 386 -97.5t263 -269.5t94 -389q0 -180 -63.5 -319.5t-171 -216.5t-236.5 -77q-96 0 -153.5 38t-65.5 116l-2 21q-66 -80 -145.5 -117t-163.5 -37q-100 0 -186.5 51t-137.5 144.5t-51 214.5q0 139 62.5 263t173 199.5 t243.5 75.5q70 0 122 -24.5t81.5 -53t34.5 -41.5l14 95h264l-96 -676q-2 -10 -2 -29q0 -66 57 -65q47 0 96.5 54t82 150.5t32.5 214.5q0 166 -64.5 297t-191.5 207t-305 76q-199 0 -378 -105.5t-287.5 -282.5t-108.5 -382q0 -164 70.5 -294t198.5 -203.5t292 -73.5 q94 0 201.5 31.5t197.5 95.5l76 -170q-96 -70 -238.5 -112t-265.5 -42q-217 0 -387 96t-265 265t-95 382zM713 522q0 -86 37.5 -143t103.5 -57q94 0 155.5 83.5t61.5 196.5q0 82 -40 134t-113 52q-87 0 -146 -78.5t-59 -187.5z" />
<glyph unicode="A" d="M-127 0l848 1436h438l354 -1436h-456l-45 229h-580l-125 -229h-434zM602 541h348l-92 473z" />
<glyph unicode="B" horiz-adv-x="1476" d="M8 0l287 1436h706q225 0 355.5 -84t130.5 -228q0 -123 -87 -223t-226 -137q106 -25 165.5 -104.5t59.5 -192.5q0 -139 -83 -244.5t-232.5 -164t-340.5 -58.5h-735zM498 319h256q92 0 149.5 42t57.5 112q0 49 -41 78t-115 29h-256zM608 872h256q72 0 118 41t46 107 q0 47 -29.5 71.5t-85.5 24.5h-258z" />
<glyph unicode="C" horiz-adv-x="1466" d="M76 653q0 227 113.5 412.5t309 291t429.5 105.5q162 0 315.5 -69.5t253.5 -186.5l-278 -293q-59 90 -146.5 142.5t-175.5 52.5q-102 0 -190.5 -55.5t-140.5 -151.5t-52 -213q0 -98 39 -176t109.5 -123t158.5 -45q84 0 181.5 46t177.5 122l219 -262q-129 -127 -302 -203 t-335 -76q-201 0 -356.5 88t-242.5 243t-87 351z" />
<glyph unicode="D" horiz-adv-x="1564" d="M10 0l285 1436h598q213 0 368.5 -81t234.5 -227q70 -130 70 -297q0 -21 -1 -43q-12 -231 -132 -410t-322 -278.5t-452 -99.5h-649zM504 334h233q104 0 190.5 53t139.5 149.5t59 221.5q1 15 1 30q0 132 -73 218q-81 94 -223 94h-176z" />
<glyph unicode="E" horiz-adv-x="1398" d="M8 0l287 1436h1175l-65 -328h-750l-45 -225h680l-65 -328h-680l-47 -227h770l-66 -328h-1194z" />
<glyph unicode="F" horiz-adv-x="1267" d="M8 0l287 1436h1114l-66 -328h-688l-57 -287h641l-65 -327h-642l-98 -494h-426z" />
<glyph unicode="G" horiz-adv-x="1531" d="M76 651q0 227 116.5 412.5t318.5 292t445 106.5q164 0 322 -59.5t262 -161.5l-270 -291q-68 72 -163 115t-189 43q-109 0 -202 -56.5t-147.5 -154.5t-54.5 -215q0 -100 42 -182t118 -128t170 -46q90 0 217 55l72 362h366l-117 -583q-129 -84 -291.5 -136.5t-312.5 -52.5 q-205 0 -364.5 88t-248.5 243t-89 349z" />
<glyph unicode="H" horiz-adv-x="1761" d="M88 0l287 1436h426l-115 -574h510l115 574h426l-287 -1436h-426l106 535h-509l-107 -535h-426z" />
<glyph unicode="I" horiz-adv-x="667" d="M8 0l287 1436h426l-287 -1436h-426z" />
<glyph unicode="J" horiz-adv-x="1136" d="M-80 221l250 281q61 -80 134 -121t134 -41q59 0 101.5 37t56.5 108l121 611h-490l70 340h917l-192 -961q-45 -233 -212 -363t-407 -130q-317 0 -483 239z" />
<glyph unicode="K" horiz-adv-x="1552" d="M8 0l287 1436h426l-115 -574l588 574h510l-645 -602l375 -834h-496l-223 512l-219 -205l-62 -307h-426z" />
<glyph unicode="L" horiz-adv-x="1175" d="M8 0l287 1436h426l-215 -1080h604l-72 -356h-1030z" />
<glyph unicode="M" horiz-adv-x="1929" d="M16 0l279 1436h455l231 -801l541 801h454l-278 -1436h-373l166 854l-469 -713h-274l-191 715l-166 -856h-375z" />
<glyph unicode="N" horiz-adv-x="1603" d="M8 0l287 1436h364l449 -803l160 803h391l-287 -1436h-364l-447 797l-160 -797h-393z" />
<glyph unicode="O" horiz-adv-x="1656" d="M76 653q0 227 114.5 412.5t312 291t435.5 105.5q207 0 368.5 -87t252 -240.5t90.5 -348.5q0 -227 -115 -413.5t-312.5 -294t-435.5 -107.5q-207 0 -368.5 88t-251.5 243t-90 351zM514 682q0 -100 42 -181t113.5 -128t157.5 -47q102 0 190.5 57t140.5 156.5t52 218.5 q0 98 -38.5 178t-108.5 126t-156 46q-100 0 -191 -56.5t-146.5 -154.5t-55.5 -215z" />
<glyph unicode="P" horiz-adv-x="1425" d="M8 0l287 1436h653q238 0 366 -106.5t128 -301.5q0 -193 -85 -338t-245 -225t-375 -80h-225l-78 -385h-426zM578 715h204q113 0 179.5 65.5t66.5 175.5q0 74 -43 113t-125 39h-205z" />
<glyph unicode="Q" horiz-adv-x="1662" d="M76 653q0 227 114.5 412.5t312 291t435.5 105.5q207 0 368.5 -87t252 -240.5t90.5 -348.5q0 -252 -138.5 -451.5t-367.5 -293.5q18 -37 52 -58.5t73 -21.5q57 0 119.5 25.5t148.5 76.5l102 -256q-94 -72 -219 -115.5t-233 -43.5q-152 0 -260.5 87t-149.5 236 q-205 2 -364.5 90.5t-247.5 243t-88 348.5zM514 682q0 -100 42 -181t113.5 -128t157.5 -47q102 0 190.5 57t140.5 156.5t52 218.5q0 98 -38.5 178t-108.5 126t-156 46q-100 0 -191 -56.5t-146.5 -154.5t-55.5 -215z" />
<glyph unicode="R" horiz-adv-x="1484" d="M8 0l287 1436h672q250 0 383 -106.5t133 -303.5q0 -192 -89 -338.5t-255 -224.5l194 -463h-481l-115 385h-225l-78 -385h-426zM578 715h245q113 0 179.5 65.5t66.5 175.5q0 74 -43 113t-125 39h-246z" />
<glyph unicode="S" horiz-adv-x="1314" d="M-45 207l195 325q98 -94 247.5 -159.5t261.5 -65.5q74 0 116 29t42 82q0 55 -57.5 84.5t-181.5 64.5q-135 39 -223.5 78t-153 117t-64.5 205q0 152 81 264t226.5 173.5t335.5 61.5q160 0 315.5 -45t268.5 -121l-193 -329q-106 66 -239 114t-221 48q-59 0 -93 -23t-34 -66 q0 -55 57 -85.5t180 -67.5q137 -43 224.5 -82t152 -120t64.5 -212q0 -164 -86 -277.5t-230.5 -170t-320.5 -56.5q-184 0 -364.5 62.5t-305.5 171.5z" />
<glyph unicode="T" horiz-adv-x="1288" d="M121 1096l67 340h1262l-68 -340h-419l-220 -1096h-426l220 1096h-416z" />
<glyph unicode="U" horiz-adv-x="1548" d="M94 471q0 70 15 135l165 830h426l-165 -830q-6 -33 -7 -63q0 -96 56.5 -150.5t150.5 -54.5q109 0 191 72.5t106 195.5l168 830h426l-166 -830q-37 -190 -143.5 -330.5t-268 -217t-364.5 -76.5q-178 0 -312 59t-206 170t-72 260z" />
<glyph unicode="V" horiz-adv-x="1531" d="M168 1436h457l163 -996l490 996h436l-792 -1436h-441z" />
<glyph unicode="W" horiz-adv-x="2258" d="M168 1436h457l80 -996l405 994l416 2l80 -996l405 996h436l-708 -1436h-441l-75 920l-385 -920h-441z" />
<glyph unicode="X" horiz-adv-x="1566" d="M-96 0l628 731l-358 705h496l176 -375l301 375h502l-584 -686l389 -750h-512l-203 410l-336 -410h-499z" />
<glyph unicode="Y" horiz-adv-x="1437" d="M160 1436h424l217 -588l401 588h426l-680 -985l-74 -451h-425l73 446z" />
<glyph unicode="Z" horiz-adv-x="1415" d="M-39 0l45 268l854 836h-690l53 332h1256l-43 -271l-850 -833h725l-56 -332h-1294z" />
<glyph unicode="[" horiz-adv-x="757" d="M-41 -254l356 1774h611l-62 -306h-243l-230 -1163h242l-64 -305h-610z" />
<glyph unicode="\" horiz-adv-x="1470" d="M145 1655h347l819 -1874h-346z" />
<glyph unicode="]" horiz-adv-x="788" d="M-90 -254l61 305h244l229 1163h-241l63 306h611l-357 -1774h-610z" />
<glyph unicode="^" horiz-adv-x="1214" d="M10 289l537 784h330l221 -784h-281l-139 561l-371 -561h-297z" />
<glyph unicode="_" horiz-adv-x="1212" d="M-195 -418l45 223h1213l-45 -223h-1213z" />
<glyph unicode="`" horiz-adv-x="651" d="M239 1468l326 119l221 -348l-272 -20z" />
<glyph unicode="a" horiz-adv-x="1409" d="M37 471q0 182 76.5 332.5t211 237.5t293.5 87q115 0 199 -46t131 -134l33 166h412l-222 -1114h-413l24 121q-141 -135 -323 -135q-123 0 -219.5 61.5t-149.5 171t-53 252.5zM455 498q0 -94 46 -148.5t124 -54.5q65 0 121.5 40t89 107.5t32.5 147.5q0 90 -47 145.5 t-127 55.5q-66 0 -120 -40t-86.5 -106.5t-32.5 -146.5z" />
<glyph unicode="b" horiz-adv-x="1421" d="M27 0l301 1520h413l-104 -529q70 66 151.5 101.5t172.5 35.5q122 0 218.5 -61t149.5 -172t53 -254q0 -182 -76.5 -332.5t-209.5 -237.5t-293 -87q-115 0 -199 46t-131 136l-33 -166h-413zM553 524q0 -92 47 -146t127 -54q63 0 118.5 38.5t88.5 106.5t33 145 q0 94 -46.5 148.5t-125.5 54.5q-66 0 -121.5 -40t-88 -107.5t-32.5 -145.5z" />
<glyph unicode="c" horiz-adv-x="1183" d="M41 494q0 186 82 330.5t228.5 224t334.5 79.5q174 0 300 -75.5t183 -214.5l-331 -156q-23 53 -66 82t-102 29q-90 0 -149.5 -76t-59.5 -195q0 -96 43 -152.5t119 -56.5q125 0 188 123l305 -162q-76 -137 -220 -212.5t-329 -75.5q-159 0 -278 62.5t-183.5 177t-64.5 268.5 z" />
<glyph unicode="d" horiz-adv-x="1419" d="M37 471q0 182 76.5 332.5t211 237.5t293.5 87q115 0 199 -46t131 -134l113 572h414l-304 -1520h-413l24 121q-141 -135 -323 -135q-123 0 -219.5 61.5t-149.5 171t-53 252.5zM455 498q0 -94 46 -148.5t124 -54.5q65 0 121.5 40t89 107.5t32.5 147.5q0 90 -47 145.5 t-127 55.5q-66 0 -120 -40t-86.5 -106.5t-32.5 -146.5z" />
<glyph unicode="e" horiz-adv-x="1267" d="M39 489q0 182 82 328t225 227.5t324 81.5q170 0 297 -63.5t194.5 -178t67.5 -266.5q0 -78 -19 -161h-764q10 -82 63.5 -125t141.5 -43q129 0 242 88l209 -215q-195 -176 -465 -176q-180 0 -315.5 61.5t-209 176t-73.5 265.5zM475 659h356q7 26 7 46q0 61 -39 99t-103 38 q-70 0 -129 -50.5t-92 -132.5z" />
<glyph unicode="f" horiz-adv-x="831" d="M90 0l160 793h-154l54 264h151l25 119q35 174 166 268t321 94q137 0 264 -47l-100 -297q-20 8 -49 15.5t-45 7.5q-60 0 -106 -36t-56 -89l-6 -35h227l-51 -264h-229l-160 -793h-412z" />
<glyph unicode="g" horiz-adv-x="1343" d="M-57 -260l170 260q66 -47 154.5 -70.5t174.5 -23.5q115 0 190 54t93 146l12 64q-133 -106 -299 -107q-115 0 -205 56.5t-140 156t-50 228.5q0 174 72.5 316.5t198.5 225t276 82.5q104 0 182 -40.5t123 -120.5l31 147h411l-209 -1048q-43 -227 -223 -354.5t-444 -127.5 q-154 0 -287 43t-231 113zM461 530q0 -74 39 -115.5t106 -41.5q88 0 150.5 71.5t62.5 171.5q0 80 -41 127.5t-108 47.5q-86 0 -147.5 -77t-61.5 -184z" />
<glyph unicode="h" horiz-adv-x="1406" d="M29 0l299 1520h415l-108 -549q134 157 333 157h3q168 0 270 -102t102 -264q0 -45 -10 -103l-133 -659h-414l119 598q6 29 6 49q0 63 -35.5 100t-97.5 37q-80 0 -143.5 -64.5t-81.5 -164.5l-111 -555h-413z" />
<glyph unicode="i" horiz-adv-x="665" d="M14 0l224 1114h413l-223 -1114h-414zM289 1393q0 106 76 179t184 73q80 0 128 -48.5t48 -126.5q0 -106 -75.5 -178.5t-184.5 -72.5q-80 0 -128 48t-48 126z" />
<glyph unicode="j" horiz-adv-x="665" d="M-303 -365l115 279q24 -6 61 -6q55 0 96 38t54 95l213 1073h413l-231 -1169q-35 -172 -158 -265.5t-307 -93.5q-133 0 -256 49zM270 1393q0 106 76 179t184 73q80 0 128 -48.5t48 -126.5q0 -106 -75.5 -178.5t-184.5 -72.5q-80 0 -128 48t-48 126z" />
<glyph unicode="k" horiz-adv-x="1370" d="M25 0l303 1520h413l-147 -738l371 332h514l-525 -455l279 -659h-479l-125 379l-140 -123l-51 -256h-413z" />
<glyph unicode="l" horiz-adv-x="686" d="M25 0l303 1520h413l-303 -1520h-413z" />
<glyph unicode="m" horiz-adv-x="2154" d="M16 0l222 1114h413l-26 -143q132 157 333 157h3q131 0 224 -64.5t130 -174.5q167 239 401 239h2q168 0 270.5 -102t102.5 -264q0 -45 -10 -103l-133 -659h-414l119 598q6 29 6 49q0 63 -36 100t-97 37q-80 0 -143.5 -64.5t-82.5 -164.5l-110 -555h-414l119 598q6 29 6 49 q0 63 -36 100t-97 37q-78 0 -142.5 -64.5t-84.5 -164.5l-111 -555h-414z" />
<glyph unicode="n" horiz-adv-x="1396" d="M16 0l222 1114h413l-26 -143q132 157 333 157h3q167 0 268.5 -101t101.5 -263q0 -57 -10 -105l-131 -659h-414l119 598q6 29 6 49q0 63 -36 100t-97 37q-78 0 -142.5 -64.5t-84.5 -164.5l-111 -555h-414z" />
<glyph unicode="o" horiz-adv-x="1329" d="M43 502q0 184 86 326.5t240.5 221t353.5 78.5q172 0 300 -63.5t196.5 -179t68.5 -271.5q0 -186 -86 -328.5t-240.5 -221t-353.5 -78.5q-172 0 -300 63.5t-196.5 180t-68.5 272.5zM463 520q0 -98 48 -156.5t130 -58.5q100 0 163.5 77t63.5 202q0 98 -48 157.5t-130 59.5 q-100 0 -163.5 -78t-63.5 -203z" />
<glyph unicode="p" horiz-adv-x="1419" d="M-55 -397l303 1511h414l-25 -121q145 135 324 135q122 0 218.5 -61t149.5 -172t53 -252q0 -182 -76.5 -332.5t-210.5 -237.5t-294 -87q-115 0 -199 46t-131 134l-113 -563h-413zM551 524q0 -92 47 -146t127 -54q66 0 120 39.5t87 106.5t33 146q0 94 -46.5 148.5 t-123.5 54.5q-66 0 -122.5 -40t-89 -107.5t-32.5 -147.5z" />
<glyph unicode="q" horiz-adv-x="1417" d="M37 471q0 182 76.5 332.5t211 237.5t293.5 87q115 0 199 -46t131 -134l33 166h412l-301 -1511h-414l104 518q-141 -135 -323 -135q-123 0 -219.5 61.5t-149.5 171t-53 252.5zM455 498q0 -94 46 -148.5t124 -54.5q65 0 121.5 40t89 107.5t32.5 147.5q0 90 -47 145.5 t-127 55.5q-66 0 -120 -40t-86.5 -106.5t-32.5 -146.5z" />
<glyph unicode="r" horiz-adv-x="923" d="M14 0l224 1114h413l-30 -158q149 174 370 174l-49 -370q-41 4 -61 4q-133 0 -230.5 -69.5t-118.5 -178.5l-104 -516h-414z" />
<glyph unicode="s" horiz-adv-x="1105" d="M-43 199l168 239q96 -80 199.5 -127t189.5 -47q47 0 72.5 17.5t25.5 48.5q0 25 -34.5 44t-110.5 48q-104 41 -171 75.5t-118 99.5t-51 159q0 109 57.5 193.5t161 131.5t238.5 47q141 0 285.5 -50t265.5 -140l-181 -236q-100 68 -195 108t-159 40q-37 0 -61.5 -17.5 t-24.5 -44.5t36 -48t116 -52q104 -41 171.5 -78t119 -100.5t51.5 -157.5q0 -109 -58.5 -192.5t-164 -129.5t-242.5 -46q-166 0 -320.5 56t-265.5 159z" />
<glyph unicode="t" horiz-adv-x="931" d="M74 793l53 264h154l61 309h412l-62 -309h275l-54 -264h-274l-80 -398q-4 -29 -4 -37q0 -29 15.5 -41t43.5 -12q29 0 61 10.5t81 28.5l41 -297q-63 -33 -147.5 -49t-166.5 -16q-162 0 -255 80.5t-93 218.5q0 45 8 84l84 428h-153z" />
<glyph unicode="u" horiz-adv-x="1396" d="M66 350q0 59 10 105l131 659h414l-119 -598q-6 -27 -6 -49q0 -63 35.5 -100t97.5 -37q80 0 143.5 64.5t83.5 164.5l111 555h413l-221 -1114h-414l27 143q-132 -157 -333 -157h-3q-168 0 -269 101t-101 263z" />
<glyph unicode="v" horiz-adv-x="1216" d="M96 1114h420l53 -739l357 739h420l-635 -1114h-424z" />
<glyph unicode="w" horiz-adv-x="1964" d="M96 1114h412l57 -711l336 711h389l56 -711l340 711h409l-629 -1114h-407l-53 639l-320 -639h-407z" />
<glyph unicode="x" horiz-adv-x="1296" d="M-115 0l494 569l-238 545h467l90 -289l234 289h461l-461 -543l254 -571h-467l-105 315l-262 -315h-467z" />
<glyph unicode="y" horiz-adv-x="1234" d="M-201 -285l207 256q31 -31 59.5 -41t65.5 -10q86 0 156 74l32 37l-241 1083h418l102 -686l348 686h418l-711 -1223q-94 -162 -218 -234.5t-285 -72.5q-109 0 -191 33t-160 98z" />
<glyph unicode="z" horiz-adv-x="1155" d="M-47 0l45 244l612 559h-475l60 311l1001 -2l-45 -244l-610 -559h516l-64 -309h-1040z" />
<glyph unicode="{" horiz-adv-x="759" d="M20 475l64 313h86q39 0 58.5 17.5t27.5 62.5l70 353q23 115 71.5 180t137 94t231.5 29h160l-62 -305q-100 0 -141 -27t-55 -98l-39 -199q-23 -119 -78 -179.5t-160 -82.5q76 -23 110 -60.5t34 -105.5q0 -41 -13 -96l-39 -199q-4 -33 -4 -41q0 -47 34 -65.5t118 -18.5 l-62 -305h-159q-178 0 -255 45t-77 154q0 43 12 102l70 354l4 33q0 25 -13.5 35t-44.5 10h-86z" />
<glyph unicode="|" horiz-adv-x="645" d="M14 -217l371 1853h307l-370 -1853h-308z" />
<glyph unicode="}" horiz-adv-x="847" d="M-47 -258l61 305q100 0 141.5 26.5t55.5 98.5l39 199q22 118 77.5 178.5t159.5 83.5q-76 23 -109.5 60.5t-33.5 105.5q0 41 12 96l39 199q4 33 4 41q0 47 -33.5 65.5t-117.5 18.5l61 305h160q178 0 255 -45t77 -154q0 -43 -13 -102l-69 -355l-4 -32q0 -25 13 -35t44 -10 h86l-63 -314h-86q-39 0 -58.5 -17.5t-27.5 -62.5l-70 -352q-23 -115 -72 -180.5t-137 -94t-231 -28.5h-160z" />
<glyph unicode="~" horiz-adv-x="1056" d="M90 483q39 197 115 290t201 93q55 0 93 -16t83 -45q47 -33 71 -33q31 0 53.5 22.5t32.5 65.5h273q-41 -197 -120 -291t-204 -94q-57 0 -97 17.5t-79 46.5q-47 33 -72 32q-57 0 -75 -88h-275z" />
<glyph unicode="&#xa1;" horiz-adv-x="571" d="M-80 -319l76 372l180 547h248l-35 -547l-76 -372h-393zM166 915q0 92 60.5 152.5t150.5 60.5q80 0 128 -48t48 -126q0 -94 -60.5 -152.5t-150.5 -58.5q-80 0 -128 47.5t-48 124.5z" />
<glyph unicode="&#xa2;" horiz-adv-x="1183" d="M41 494q0 170 68.5 305t192.5 219t286 104l65 326h305l-69 -350q98 -35 169.5 -100.5t110.5 -159.5l-331 -156q-23 53 -66 82t-102 29q-90 0 -149.5 -76t-59.5 -195q0 -96 43 -152.5t119 -56.5q125 0 188 123l305 -162q-66 -117 -180.5 -189.5t-263.5 -92.5l-64 -320 h-307l68 342q-154 51 -241 177t-87 303z" />
<glyph unicode="&#xa3;" horiz-adv-x="1150" d="M-63 0l63 319h150l61 310h-148l27 139h150l39 190q45 236 205.5 366t404.5 130q129 0 237.5 -45t178.5 -127l-218 -313q-109 129 -223 129q-131 -1 -162 -148l-36 -182h333l-26 -139h-334l-61 -310h505l-65 -319h-1081z" />
<glyph unicode="&#xa4;" horiz-adv-x="1603" d="M145 207l209 207q-61 117 -61 245q0 123 55 234l-203 201l232 231l201 -201q109 59 241 60q127 0 246 -60l199 201l231 -231l-203 -201q55 -111 56 -234q-1 -128 -62 -245l209 -207l-231 -232l-211 213q-111 -53 -234 -53t-229 53l-213 -213zM616 659q0 -84 59.5 -142 t143.5 -58q86 0 146.5 58t60.5 142t-60.5 144.5t-146.5 60.5q-84 0 -143.5 -60.5t-59.5 -144.5z" />
<glyph unicode="&#xa5;" horiz-adv-x="1400" d="M119 309l28 140h377v4l-35 94h-325l29 139h245l-274 750h424l217 -584l397 584h426l-518 -750h256l-27 -139h-325l-64 -90v-8h371l-27 -140h-366l-51 -309h-426l51 309h-383z" />
<glyph unicode="&#xa6;" horiz-adv-x="645" d="M14 -217l140 698h307l-139 -698h-308zM246 940l139 696h307l-139 -696h-307z" />
<glyph unicode="&#xa7;" horiz-adv-x="1179" d="M-76 39l164 240q106 -84 212 -130.5t192 -46.5q41 0 63.5 13.5t22.5 38.5q0 29 -40 53t-124 59q-109 47 -176.5 86t-118.5 102.5t-51 149.5q0 109 65.5 187.5t192.5 119.5q-82 82 -82 174q0 90 60.5 164t162.5 117t227 43q141 0 281.5 -47t265.5 -137l-172 -238 q-104 72 -201.5 112t-165.5 40q-37 0 -58 -13.5t-21 -38.5q0 -31 42 -56t130 -64q104 -45 174.5 -85t122 -103.5t51.5 -149.5q0 -104 -66.5 -185.5t-187.5 -121.5q78 -78 78 -175q0 -88 -61.5 -161.5t-168 -116.5t-235.5 -43q-160 0 -312.5 56.5t-265.5 156.5zM449 637 q0 -37 61 -65.5t139 -28.5q49 0 76 15t27 42q0 39 -61.5 68.5t-143.5 29.5q-47 0 -72.5 -16t-25.5 -45z" />
<glyph unicode="&#xa8;" horiz-adv-x="1007" d="M301 1384q0 84 60.5 142.5t146.5 58.5q64 0 102 -39t38 -102q0 -82 -60.5 -140.5t-144.5 -58.5q-63 0 -102.5 39t-39.5 100zM705 1384q0 84 60.5 142.5t146.5 58.5q63 0 100 -39t37 -102q0 -82 -59.5 -140.5t-143.5 -58.5q-63 0 -102 39t-39 100z" />
<glyph unicode="&#xa9;" horiz-adv-x="1490" d="M84 713q0 186 92 347t251 256t351 95q191 0 349.5 -93t250.5 -253t92 -348q0 -186 -92 -347t-251.5 -256.5t-352.5 -95.5q-190 0 -349 94.5t-250 254t-91 346.5zM270 713q0 -137 66.5 -254t182.5 -185.5t255 -68.5q141 0 258 69.5t184.5 187.5t67.5 255t-67.5 253.5 t-183 185.5t-255.5 69q-141 0 -256.5 -70t-183.5 -187.5t-68 -254.5zM438 715q0 94 46 171t127 120t182 43q73 0 147 -32t123 -85l-111 -133q-33 41 -74.5 64.5t-80.5 23.5q-70 0 -115 -48t-45 -120q0 -74 45 -122t115 -48q37 0 80 20.5t75 53.5l111 -119q-53 -59 -128 -93 t-151 -34q-98 0 -177 44t-124 120.5t-45 173.5z" />
<glyph unicode="&#xaa;" horiz-adv-x="815" d="M145 1102q0 25 7 49q16 94 93 140t218 48h166q16 78 -119 78q-82 0 -205 -43l-26 180q184 63 321 64q154 0 234.5 -50t80.5 -147q0 -33 -4 -49l-88 -434h-274l14 74q-74 -86 -184 -86q-106 0 -170 48t-64 128zM418 1157q-6 -29 9 -44t48 -15q68 0 117 53l12 63h-106 q-35 0 -55.5 -15t-24.5 -42z" />
<glyph unicode="&#xab;" horiz-adv-x="1079" d="M-18 553l327 387h334l-317 -401l161 -375h-331zM478 553l327 387h334l-317 -401l161 -375h-331z" />
<glyph unicode="&#xac;" horiz-adv-x="1208" d="M80 641l53 258h1018l-51 -258l-74 -369h-295l74 369h-725z" />
<glyph unicode="&#xad;" horiz-adv-x="774" d="M96 502l51 258h560l-52 -258h-559z" />
<glyph unicode="&#xae;" horiz-adv-x="1490" d="M84 713q0 186 92 347t251 256t351 95q191 0 349.5 -93t250.5 -253t92 -348q0 -186 -92 -347t-251.5 -256.5t-352.5 -95.5q-190 0 -349 94.5t-250 254t-91 346.5zM270 713q0 -137 66.5 -254t182.5 -185.5t255 -68.5q141 0 258 69.5t184.5 187.5t67.5 255t-67.5 253.5 t-183 185.5t-255.5 69q-141 0 -256.5 -70t-183.5 -187.5t-68 -254.5zM512 422v635h287q129 0 198.5 -58.5t69.5 -164.5q0 -146 -106 -205l129 -207h-211l-86 172h-95v-172h-186zM698 735h101q45 0 68.5 23.5t23.5 66.5t-23.5 66.5t-68.5 23.5h-101v-180z" />
<glyph unicode="&#xaf;" horiz-adv-x="962" d="M310 1305l47 235h643l-45 -235h-645z" />
<glyph unicode="&#xb0;" horiz-adv-x="806" d="M354 1436q0 102 73 173.5t173 71.5q102 0 174 -71.5t72 -173.5q0 -100 -72 -172t-174 -72t-174 71.5t-72 172.5zM510 1436q0 -37 26.5 -63.5t63.5 -26.5t63.5 26.5t26.5 63.5t-26.5 63.5t-63.5 26.5t-63.5 -26.5t-26.5 -63.5z" />
<glyph unicode="&#xb1;" horiz-adv-x="1200" d="M94 -16l51 258h928l-51 -258h-928zM94 709l51 247h334l68 320h258l-66 -320h334l-51 -247h-336l-65 -320h-261l68 320h-334z" />
<glyph unicode="&#xb2;" horiz-adv-x="835" d="M127 737l26 172l379 309q94 78 94 125q0 27 -18.5 41.5t-50.5 14.5q-104 0 -265 -109l-82 190q215 133 400 134q121 0 199.5 -66t78.5 -168q0 -72 -47 -143.5t-162 -155.5l-176 -131h353l-41 -213h-688z" />
<glyph unicode="&#xb3;" horiz-adv-x="808" d="M92 831l125 178q47 -43 98 -66.5t119 -23.5q66 0 105.5 31t39.5 84q0 31 -23.5 45t-74.5 14h-160l25 138l225 165h-315l36 199h617l-25 -149l-254 -193l21 -2q88 -14 138 -69.5t50 -133.5q0 -96 -53 -170.5t-147.5 -116.5t-210.5 -42q-98 4 -188.5 33.5t-147.5 78.5z" />
<glyph unicode="&#xb4;" horiz-adv-x="724" d="M209 1239l260 348l326 -119l-316 -249z" />
<glyph unicode="&#xb5;" horiz-adv-x="1437" d="M-53 -397l162 811l6 39l133 661h414l-119 -600q-6 -25 -6 -49q0 -61 35.5 -98t97.5 -37q80 0 143.5 64.5t81.5 162.5l111 557h413l-219 -1114h-414l27 143q-135 -160 -336 -159q-27 0 -41 2l-76 -383h-413z" />
<glyph unicode="&#xb6;" horiz-adv-x="1368" d="M76 961q0 49 10 104q25 123 98.5 225.5t201.5 166t306 63.5h748l-348 -1737h-306l301 1507h-172l-303 -1507h-305l170 846h-49q-190 0 -271 96t-81 236z" />
<glyph unicode="&#xb7;" horiz-adv-x="497" d="M102 562q0 106 76 179t184 73q80 0 128 -48.5t48 -126.5q0 -106 -75.5 -178.5t-184.5 -72.5q-80 0 -128 48t-48 126z" />
<glyph unicode="&#xb8;" horiz-adv-x="718" d="M-86 -446l95 182q47 -20 100 -21q41 0 68.5 15.5t27.5 36.5q0 23 -30.5 35t-75.5 12h-45l104 206l223 -20l-63 -109q74 -18 108.5 -58t34.5 -91q0 -115 -92 -173t-225 -58q-121 0 -230 43z" />
<glyph unicode="&#xb9;" horiz-adv-x="600" d="M188 1376l43 219h448l-172 -858h-288l127 639h-158z" />
<glyph unicode="&#xba;" horiz-adv-x="860" d="M178 1241q0 170 119 272.5t311 102.5q168 0 265.5 -84t97.5 -227q0 -111 -54.5 -196t-152.5 -132t-225 -47q-166 0 -263.5 85t-97.5 226zM461 1251q0 -51 26.5 -82.5t71.5 -31.5q55 0 90 42t35 107q0 53 -26.5 85t-71.5 32q-54 0 -89.5 -42t-35.5 -110z" />
<glyph unicode="&#xbb;" horiz-adv-x="1081" d="M-49 164l317 401l-162 375h332l174 -389l-327 -387h-334zM447 164l317 401l-162 375h332l174 -389l-327 -387h-334z" />
<glyph unicode="&#xbc;" horiz-adv-x="1984" d="M156 1214l43 220h448l-172 -859h-289l127 639h-157zM238 0l1009 1436h291l-1008 -1436h-292zM1081 168l31 180l364 510h259l-345 -491h160l33 165h246l-33 -165h119l-37 -199h-121l-35 -168h-246l35 168h-430z" />
<glyph unicode="&#xbd;" horiz-adv-x="1951" d="M156 1214l43 220h448l-172 -859h-289l127 639h-157zM238 0l1009 1436h291l-1008 -1436h-292zM1094 0l26 172l379 309q94 78 94 125q0 27 -18.5 41.5t-50.5 14.5q-104 0 -265 -109l-82 190q215 133 400 134q121 0 199.5 -66t78.5 -168q0 -72 -47 -143.5t-162 -155.5 l-176 -131h353l-41 -213h-688z" />
<glyph unicode="&#xbe;" horiz-adv-x="2193" d="M59 670l125 178q47 -43 98.5 -66.5t118.5 -23.5q66 0 106 30.5t40 83.5q0 31 -23.5 45.5t-74.5 14.5h-160l24 137l226 166h-316l37 199h617l-25 -150l-254 -192l20 -2q88 -14 138.5 -69.5t50.5 -133.5q0 -96 -53.5 -171t-147.5 -117t-211 -42q-98 4 -188 34t-148 79z M447 0l1009 1436h291l-1008 -1436h-292zM1290 168l31 180l364 510h259l-345 -491h160l33 165h246l-33 -165h119l-37 -199h-121l-35 -168h-246l35 168h-430z" />
<glyph unicode="&#xbf;" horiz-adv-x="991" d="M-59 -8q0 86 29.5 152.5t71.5 114.5t112 110q80 74 120.5 124t49.5 117h307q-14 -119 -61.5 -191.5t-125.5 -146.5q-57 -55 -84.5 -96t-27.5 -96q0 -90 102 -90q68 0 106 42t50 130h317q-28 -236 -172.5 -367t-374.5 -131q-199 0 -309 86t-110 242zM317 915 q0 92 59.5 152.5t151.5 60.5q78 0 126 -48t48 -126q0 -94 -59 -152.5t-149 -58.5q-80 0 -128.5 47.5t-48.5 124.5z" />
<glyph unicode="&#xc0;" d="M-127 0l848 1436h438l354 -1436h-456l-45 229h-580l-125 -229h-434zM602 541h348l-92 473zM629 1782l325 119l222 -349l-273 -20z" />
<glyph unicode="&#xc1;" d="M-127 0l848 1436h438l354 -1436h-456l-45 229h-580l-125 -229h-434zM602 541h348l-92 473zM733 1552l260 349l326 -119l-315 -250z" />
<glyph unicode="&#xc2;" d="M-127 0l848 1436h438l354 -1436h-456l-45 229h-580l-125 -229h-434zM537 1546l287 322h354l164 -322h-275l-100 142l-156 -142h-274zM602 541h348l-92 473z" />
<glyph unicode="&#xc3;" d="M-127 0l848 1436h438l354 -1436h-456l-45 229h-580l-125 -229h-434zM571 1546q33 172 100.5 257t176.5 85q49 0 88 -14t88 -41q23 -12 43 -21.5t34 -9.5q31 0 48.5 19.5t27.5 60.5h221q-34 -174 -99.5 -258t-174.5 -84q-51 0 -92 15.5t-86 41.5q-53 31 -78 31 q-57 0 -76 -82h-221zM602 541h348l-92 473z" />
<glyph unicode="&#xc4;" d="M-127 0l848 1436h438l354 -1436h-456l-45 229h-580l-125 -229h-434zM596 1681q0 84 60.5 142.5t146.5 58.5q63 0 101 -39t38 -102q0 -82 -60.5 -140.5t-144.5 -58.5q-63 0 -102 39t-39 100zM602 541h348l-92 473zM999 1681q0 84 60.5 142.5t146.5 58.5q64 0 100.5 -39 t36.5 -102q0 -82 -59 -140.5t-143 -58.5q-63 0 -102.5 39t-39.5 100z" />
<glyph unicode="&#xc5;" d="M-127 0l848 1436h438l354 -1436h-456l-45 229h-580l-125 -229h-434zM602 541h348l-92 473zM727 1725q0 74 39 138.5t104.5 102t136.5 37.5q97 0 159 -63.5t62 -155.5q0 -74 -38.5 -137t-103 -101t-138.5 -38q-96 0 -158.5 62.5t-62.5 154.5zM893 1741q0 -31 20.5 -51 t52.5 -20q39 0 68 28.5t29 67.5q0 31 -20.5 52.5t-53.5 21.5q-39 0 -67.5 -29t-28.5 -70z" />
<glyph unicode="&#xc6;" horiz-adv-x="2312" d="M-127 0l1092 1436h1419l-66 -328h-747l-45 -225h678l-66 -328h-678l-45 -227h768l-65 -328h-1194l55 272h-467l-193 -272h-446zM731 580h309l105 530h-37z" />
<glyph unicode="&#xc7;" horiz-adv-x="1466" d="M76 653q0 227 113.5 412.5t309 291t429.5 105.5q162 0 315.5 -69.5t253.5 -186.5l-278 -293q-59 90 -146.5 142.5t-175.5 52.5q-102 0 -190.5 -55.5t-140.5 -151.5t-52 -213q0 -98 39 -176t109.5 -123t158.5 -45q84 0 181.5 46t177.5 122l219 -262 q-115 -113 -265.5 -185.5t-299.5 -89.5l-50 -84q74 -18 109 -58t35 -91q0 -115 -92.5 -173t-225.5 -58q-121 0 -229 43l94 182q47 -20 100 -21q41 0 69 15.5t28 36.5q0 23 -31 35t-76 12h-45l86 172q-160 31 -279.5 124t-185 233t-65.5 310z" />
<glyph unicode="&#xc8;" horiz-adv-x="1398" d="M8 0l287 1436h1175l-65 -328h-750l-45 -225h680l-65 -328h-680l-47 -227h770l-66 -328h-1194zM602 1782l325 119l222 -349l-273 -20z" />
<glyph unicode="&#xc9;" horiz-adv-x="1398" d="M8 0l287 1436h1175l-65 -328h-750l-45 -225h680l-65 -328h-680l-47 -227h770l-66 -328h-1194zM706 1552l260 349l326 -119l-315 -250z" />
<glyph unicode="&#xca;" horiz-adv-x="1398" d="M8 0l287 1436h1175l-65 -328h-750l-45 -225h680l-65 -328h-680l-47 -227h770l-66 -328h-1194zM510 1546l287 322h354l164 -322h-275l-100 142l-156 -142h-274z" />
<glyph unicode="&#xcb;" horiz-adv-x="1398" d="M8 0l287 1436h1175l-65 -328h-750l-45 -225h680l-65 -328h-680l-47 -227h770l-66 -328h-1194zM570 1681q0 84 60.5 142.5t146.5 58.5q63 0 101 -39t38 -102q0 -82 -60.5 -140.5t-144.5 -58.5q-63 0 -102 39t-39 100zM973 1681q0 84 60.5 142.5t146.5 58.5q64 0 100.5 -39 t36.5 -102q0 -82 -59 -140.5t-143 -58.5q-63 0 -102.5 39t-39.5 100z" />
<glyph unicode="&#xcc;" horiz-adv-x="667" d="M8 0l287 1436h426l-287 -1436h-426zM211 1782l325 119l222 -349l-273 -20z" />
<glyph unicode="&#xcd;" horiz-adv-x="667" d="M8 0l287 1436h426l-287 -1436h-426zM315 1552l260 349l326 -119l-315 -250z" />
<glyph unicode="&#xce;" horiz-adv-x="667" d="M8 0l287 1436h426l-287 -1436h-426zM119 1546l287 322h354l164 -322h-275l-100 142l-156 -142h-274z" />
<glyph unicode="&#xcf;" horiz-adv-x="667" d="M8 0l287 1436h426l-287 -1436h-426zM178 1681q0 84 60.5 142.5t146.5 58.5q63 0 101 -39t38 -102q0 -82 -60.5 -140.5t-144.5 -58.5q-63 0 -102 39t-39 100zM581 1681q0 84 60.5 142.5t146.5 58.5q64 0 100.5 -39t36.5 -102q0 -82 -59 -140.5t-143 -58.5q-63 0 -102.5 39 t-39.5 100z" />
<glyph unicode="&#xd0;" horiz-adv-x="1564" d="M-6 625l37 186h141l123 625h598q213 0 368.5 -81t234.5 -227.5t69 -339.5q-12 -231 -132 -410t-322 -278.5t-452 -99.5h-649l123 625h-139zM504 334h233q104 0 190.5 53t139.5 149.5t59 221.5q9 153 -72 247.5t-223 94.5h-176l-57 -289h264l-37 -186h-264z" />
<glyph unicode="&#xd1;" horiz-adv-x="1603" d="M8 0l287 1436h364l449 -803l160 803h391l-287 -1436h-364l-447 797l-160 -797h-393zM631 1546q33 172 100.5 257t176.5 85q49 0 88 -14t88 -41q23 -12 43 -21.5t34 -9.5q31 0 48.5 19.5t27.5 60.5h221q-34 -174 -99.5 -258t-174.5 -84q-51 0 -92 15.5t-86 41.5 q-53 31 -78 31q-57 0 -76 -82h-221z" />
<glyph unicode="&#xd2;" horiz-adv-x="1656" d="M76 653q0 227 114.5 412.5t312 291t435.5 105.5q207 0 368.5 -87t252 -240.5t90.5 -348.5q0 -227 -115 -413.5t-312.5 -294t-435.5 -107.5q-207 0 -368.5 88t-251.5 243t-90 351zM514 682q0 -100 42 -181t113.5 -128t157.5 -47q102 0 190.5 57t140.5 156.5t52 218.5 q0 98 -38.5 178t-108.5 126t-156 46q-100 0 -191 -56.5t-146.5 -154.5t-55.5 -215zM643 1782l325 119l222 -349l-273 -20z" />
<glyph unicode="&#xd3;" horiz-adv-x="1656" d="M76 653q0 227 114.5 412.5t312 291t435.5 105.5q207 0 368.5 -87t252 -240.5t90.5 -348.5q0 -227 -115 -413.5t-312.5 -294t-435.5 -107.5q-207 0 -368.5 88t-251.5 243t-90 351zM514 682q0 -100 42 -181t113.5 -128t157.5 -47q102 0 190.5 57t140.5 156.5t52 218.5 q0 98 -38.5 178t-108.5 126t-156 46q-100 0 -191 -56.5t-146.5 -154.5t-55.5 -215zM747 1552l260 349l326 -119l-315 -250z" />
<glyph unicode="&#xd4;" horiz-adv-x="1656" d="M76 653q0 227 114.5 412.5t312 291t435.5 105.5q207 0 368.5 -87t252 -240.5t90.5 -348.5q0 -227 -115 -413.5t-312.5 -294t-435.5 -107.5q-207 0 -368.5 88t-251.5 243t-90 351zM514 682q0 -100 42 -181t113.5 -128t157.5 -47q102 0 190.5 57t140.5 156.5t52 218.5 q0 98 -38.5 178t-108.5 126t-156 46q-100 0 -191 -56.5t-146.5 -154.5t-55.5 -215zM551 1546l287 322h354l164 -322h-275l-100 142l-156 -142h-274z" />
<glyph unicode="&#xd5;" horiz-adv-x="1656" d="M76 653q0 227 114.5 412.5t312 291t435.5 105.5q207 0 368.5 -87t252 -240.5t90.5 -348.5q0 -227 -115 -413.5t-312.5 -294t-435.5 -107.5q-207 0 -368.5 88t-251.5 243t-90 351zM514 682q0 -100 42 -181t113.5 -128t157.5 -47q102 0 190.5 57t140.5 156.5t52 218.5 q0 98 -38.5 178t-108.5 126t-156 46q-100 0 -191 -56.5t-146.5 -154.5t-55.5 -215zM586 1546q33 172 100.5 257t176.5 85q49 0 88 -14t88 -41q23 -12 43 -21.5t34 -9.5q31 0 48.5 19.5t27.5 60.5h221q-34 -174 -99.5 -258t-174.5 -84q-51 0 -92 15.5t-86 41.5q-53 31 -78 31 q-57 0 -76 -82h-221z" />
<glyph unicode="&#xd6;" horiz-adv-x="1656" d="M76 653q0 227 114.5 412.5t312 291t435.5 105.5q207 0 368.5 -87t252 -240.5t90.5 -348.5q0 -227 -115 -413.5t-312.5 -294t-435.5 -107.5q-207 0 -368.5 88t-251.5 243t-90 351zM514 682q0 -100 42 -181t113.5 -128t157.5 -47q102 0 190.5 57t140.5 156.5t52 218.5 q0 98 -38.5 178t-108.5 126t-156 46q-100 0 -191 -56.5t-146.5 -154.5t-55.5 -215zM611 1681q0 84 60.5 142.5t146.5 58.5q63 0 101 -39t38 -102q0 -82 -60.5 -140.5t-144.5 -58.5q-63 0 -102 39t-39 100zM1014 1681q0 84 60.5 142.5t146.5 58.5q64 0 100.5 -39t36.5 -102 q0 -82 -59 -140.5t-143 -58.5q-63 0 -102.5 39t-39.5 100z" />
<glyph unicode="&#xd7;" horiz-adv-x="1148" d="M178 436l236 236l-236 235l184 185l236 -236l238 236l182 -185l-236 -235l236 -236l-182 -184l-238 235l-236 -235z" />
<glyph unicode="&#xd8;" horiz-adv-x="1656" d="M76 653q0 227 114.5 412.5t312 291t435.5 105.5q168 0 317 -61l111 145h248l-191 -250q109 -92 167.5 -223t58.5 -287q0 -227 -115 -413.5t-312.5 -294t-435.5 -107.5q-174 0 -319 64l-111 -148h-247l190 252q-106 92 -164.5 225.5t-58.5 288.5zM514 682q0 -107 49 -195 l455 598q-55 23 -111 23q-100 0 -191 -56.5t-146.5 -154.5t-55.5 -215zM709 352q53 -27 118 -26q103 0 191 57t140 156.5t52 218.5q0 111 -47 194z" />
<glyph unicode="&#xd9;" horiz-adv-x="1548" d="M94 471q0 70 15 135l165 830h426l-165 -830q-6 -33 -7 -63q0 -96 56.5 -150.5t150.5 -54.5q109 0 191 72.5t106 195.5l168 830h426l-166 -830q-37 -190 -143.5 -330.5t-268 -217t-364.5 -76.5q-178 0 -312 59t-206 170t-72 260zM660 1782l325 119l222 -349l-273 -20z" />
<glyph unicode="&#xda;" horiz-adv-x="1548" d="M94 471q0 70 15 135l165 830h426l-165 -830q-6 -33 -7 -63q0 -96 56.5 -150.5t150.5 -54.5q109 0 191 72.5t106 195.5l168 830h426l-166 -830q-37 -190 -143.5 -330.5t-268 -217t-364.5 -76.5q-178 0 -312 59t-206 170t-72 260zM764 1552l260 349l326 -119l-315 -250z " />
<glyph unicode="&#xdb;" horiz-adv-x="1548" d="M94 471q0 70 15 135l165 830h426l-165 -830q-6 -33 -7 -63q0 -96 56.5 -150.5t150.5 -54.5q109 0 191 72.5t106 195.5l168 830h426l-166 -830q-37 -190 -143.5 -330.5t-268 -217t-364.5 -76.5q-178 0 -312 59t-206 170t-72 260zM567 1546l287 322h354l164 -322h-275 l-100 142l-156 -142h-274z" />
<glyph unicode="&#xdc;" horiz-adv-x="1548" d="M94 471q0 70 15 135l165 830h426l-165 -830q-6 -33 -7 -63q0 -96 56.5 -150.5t150.5 -54.5q109 0 191 72.5t106 195.5l168 830h426l-166 -830q-37 -190 -143.5 -330.5t-268 -217t-364.5 -76.5q-178 0 -312 59t-206 170t-72 260zM627 1681q0 84 60.5 142.5t146.5 58.5 q63 0 101 -39t38 -102q0 -82 -60.5 -140.5t-144.5 -58.5q-63 0 -102 39t-39 100zM1030 1681q0 84 60.5 142.5t146.5 58.5q64 0 100.5 -39t36.5 -102q0 -82 -59 -140.5t-143 -58.5q-63 0 -102.5 39t-39.5 100z" />
<glyph unicode="&#xdd;" horiz-adv-x="1437" d="M160 1436h424l217 -588l401 588h426l-680 -985l-74 -451h-425l73 446zM710 1552l260 349l326 -119l-315 -250z" />
<glyph unicode="&#xde;" horiz-adv-x="1447" d="M8 0l287 1436h426l-37 -183h227q242 0 379 -110.5t137 -302.5q0 -180 -91 -321.5t-256 -220.5t-378 -79h-225l-43 -219h-426zM543 543h209q104 0 166.5 66.5t62.5 170.5q0 70 -40 109t-114 39h-209z" />
<glyph unicode="&#xdf;" horiz-adv-x="1372" d="M-14 0l202 1012q47 244 223.5 385t432.5 141q147 0 261 -46t176 -130t62 -193q0 -111 -67.5 -215t-181.5 -168q94 -35 148 -116.5t54 -188.5q0 -139 -87 -248.5t-241.5 -171t-351.5 -61.5h-98l60 291h63q123 0 187.5 48t64.5 138q0 123 -201 123h-43l58 291q111 0 168 55 t57 162q0 59 -32 91t-91 32q-164 0 -201 -189l-209 -1042h-413z" />
<glyph unicode="&#xe0;" horiz-adv-x="1409" d="M37 471q0 182 76.5 332.5t211 237.5t293.5 87q115 0 199 -46t131 -134l33 166h412l-222 -1114h-413l24 121q-141 -135 -323 -135q-123 0 -219.5 61.5t-149.5 171t-53 252.5zM455 498q0 -94 46 -148.5t124 -54.5q65 0 121.5 40t89 107.5t32.5 147.5q0 90 -47 145.5 t-127 55.5q-66 0 -120 -40t-86.5 -106.5t-32.5 -146.5zM501 1468l326 119l221 -348l-272 -20z" />
<glyph unicode="&#xe1;" horiz-adv-x="1409" d="M37 471q0 182 76.5 332.5t211 237.5t293.5 87q115 0 199 -46t131 -134l33 166h412l-222 -1114h-413l24 121q-141 -135 -323 -135q-123 0 -219.5 61.5t-149.5 171t-53 252.5zM455 498q0 -94 46 -148.5t124 -54.5q65 0 121.5 40t89 107.5t32.5 147.5q0 90 -47 145.5 t-127 55.5q-66 0 -120 -40t-86.5 -106.5t-32.5 -146.5zM608 1239l260 348l326 -119l-316 -249z" />
<glyph unicode="&#xe2;" horiz-adv-x="1409" d="M37 471q0 182 76.5 332.5t211 237.5t293.5 87q115 0 199 -46t131 -134l33 166h412l-222 -1114h-413l24 121q-141 -135 -323 -135q-123 0 -219.5 61.5t-149.5 171t-53 252.5zM413 1247l287 322h354l164 -322h-274l-100 142l-156 -142h-275zM455 498q0 -94 46 -148.5 t124 -54.5q65 0 121.5 40t89 107.5t32.5 147.5q0 90 -47 145.5t-127 55.5q-66 0 -120 -40t-86.5 -106.5t-32.5 -146.5z" />
<glyph unicode="&#xe3;" horiz-adv-x="1409" d="M37 471q0 182 76.5 332.5t211 237.5t293.5 87q115 0 199 -46t131 -134l33 166h412l-222 -1114h-413l24 121q-141 -135 -323 -135q-123 0 -219.5 61.5t-149.5 171t-53 252.5zM445 1227q33 172 100.5 257t175.5 85q49 0 88 -14.5t88 -41.5q23 -12 43.5 -21t34.5 -9 q31 0 48.5 19.5t27.5 60.5h221q-35 -174 -100.5 -258t-173.5 -84q-51 0 -92.5 15t-86.5 42q-53 31 -77 31q-57 0 -76 -82h-221zM455 498q0 -94 46 -148.5t124 -54.5q65 0 121.5 40t89 107.5t32.5 147.5q0 90 -47 145.5t-127 55.5q-66 0 -120 -40t-86.5 -106.5t-32.5 -146.5z " />
<glyph unicode="&#xe4;" horiz-adv-x="1409" d="M37 471q0 182 76.5 332.5t211 237.5t293.5 87q115 0 199 -46t131 -134l33 166h412l-222 -1114h-413l24 121q-141 -135 -323 -135q-123 0 -219.5 61.5t-149.5 171t-53 252.5zM455 498q0 -94 46 -148.5t124 -54.5q65 0 121.5 40t89 107.5t32.5 147.5q0 90 -47 145.5 t-127 55.5q-66 0 -120 -40t-86.5 -106.5t-32.5 -146.5zM473 1384q0 84 60.5 142.5t146.5 58.5q64 0 102 -39t38 -102q0 -82 -60.5 -140.5t-144.5 -58.5q-63 0 -102.5 39t-39.5 100zM877 1384q0 84 60.5 142.5t146.5 58.5q63 0 100 -39t37 -102q0 -82 -59.5 -140.5 t-143.5 -58.5q-63 0 -102 39t-39 100z" />
<glyph unicode="&#xe5;" horiz-adv-x="1409" d="M37 471q0 182 76.5 332.5t211 237.5t293.5 87q115 0 199 -46t131 -134l33 166h412l-222 -1114h-413l24 121q-141 -135 -323 -135q-123 0 -219.5 61.5t-149.5 171t-53 252.5zM455 498q0 -94 46 -148.5t124 -54.5q65 0 121.5 40t89 107.5t32.5 147.5q0 90 -47 145.5 t-127 55.5q-66 0 -120 -40t-86.5 -106.5t-32.5 -146.5zM600 1403q0 74 39 138.5t104.5 102t136.5 37.5q97 0 159 -63.5t62 -155.5q0 -74 -38.5 -137t-103 -101t-138.5 -38q-96 0 -158.5 62.5t-62.5 154.5zM766 1419q0 -31 20.5 -51t52.5 -20q39 0 68 28.5t29 67.5 q0 31 -20.5 52.5t-53.5 21.5q-39 0 -67.5 -29t-28.5 -70z" />
<glyph unicode="&#xe6;" horiz-adv-x="1959" d="M4 305q0 174 117 266.5t340 92.5h280l2 34q2 123 -172 123q-74 0 -169 -21.5t-189 -60.5l-82 281q141 55 281.5 82.5t261.5 27.5q238 0 356 -106q139 104 336 104q256 0 401.5 -144t145.5 -390q0 -55 -10 -127h-756v-25q-2 -70 55.5 -110.5t136.5 -40.5q68 0 135.5 29.5 t124.5 82.5l207 -223q-195 -195 -508 -194q-158 0 -269 57t-171 160q-74 -111 -190.5 -167t-270.5 -56q-182 0 -287.5 89t-105.5 236zM395 336q0 -43 28 -66.5t79 -23.5q61 0 115.5 30.5t95.5 85.5l12 105h-184q-66 4 -106 -32t-40 -99zM1159 664h348q2 12 2 34 q0 72 -38.5 112t-104.5 40q-76 0 -131 -52.5t-76 -133.5z" />
<glyph unicode="&#xe7;" horiz-adv-x="1183" d="M41 494q0 186 82 330.5t228.5 224t334.5 79.5q174 0 300 -75.5t183 -214.5l-331 -156q-23 53 -66 82t-102 29q-90 0 -149.5 -76t-59.5 -195q0 -96 43 -152.5t119 -56.5q125 0 188 123l305 -162q-70 -125 -195.5 -199.5t-287.5 -86.5l-58 -97q74 -18 109 -58t35 -91 q0 -115 -92 -173t-226 -58q-121 0 -229 43l94 182q47 -20 101 -21q41 0 68.5 15.5t27.5 36.5q0 23 -31 35t-76 12h-45l97 190q-172 41 -269.5 171t-97.5 319z" />
<glyph unicode="&#xe8;" horiz-adv-x="1267" d="M39 489q0 182 82 328t225 227.5t324 81.5q170 0 297 -63.5t194.5 -178t67.5 -266.5q0 -78 -19 -161h-764q10 -82 63.5 -125t141.5 -43q129 0 242 88l209 -215q-195 -176 -465 -176q-180 0 -315.5 61.5t-209 176t-73.5 265.5zM387 1468l326 119l221 -348l-272 -20z M475 659h356q7 26 7 46q0 61 -39 99t-103 38q-70 0 -129 -50.5t-92 -132.5z" />
<glyph unicode="&#xe9;" horiz-adv-x="1267" d="M39 489q0 182 82 328t225 227.5t324 81.5q170 0 297 -63.5t194.5 -178t67.5 -266.5q0 -78 -19 -161h-764q10 -82 63.5 -125t141.5 -43q129 0 242 88l209 -215q-195 -176 -465 -176q-180 0 -315.5 61.5t-209 176t-73.5 265.5zM475 659h356q7 26 7 46q0 61 -39 99t-103 38 q-70 0 -129 -50.5t-92 -132.5zM494 1239l260 348l326 -119l-316 -249z" />
<glyph unicode="&#xea;" horiz-adv-x="1267" d="M39 489q0 182 82 328t225 227.5t324 81.5q170 0 297 -63.5t194.5 -178t67.5 -266.5q0 -78 -19 -161h-764q10 -82 63.5 -125t141.5 -43q129 0 242 88l209 -215q-195 -176 -465 -176q-180 0 -315.5 61.5t-209 176t-73.5 265.5zM299 1247l287 322h354l164 -322h-274 l-100 142l-156 -142h-275zM475 659h356q7 26 7 46q0 61 -39 99t-103 38q-70 0 -129 -50.5t-92 -132.5z" />
<glyph unicode="&#xeb;" horiz-adv-x="1267" d="M39 489q0 182 82 328t225 227.5t324 81.5q170 0 297 -63.5t194.5 -178t67.5 -266.5q0 -78 -19 -161h-764q10 -82 63.5 -125t141.5 -43q129 0 242 88l209 -215q-195 -176 -465 -176q-180 0 -315.5 61.5t-209 176t-73.5 265.5zM358 1384q0 84 60.5 142.5t146.5 58.5 q64 0 102 -39t38 -102q0 -82 -60.5 -140.5t-144.5 -58.5q-63 0 -102.5 39t-39.5 100zM475 659h356q7 26 7 46q0 61 -39 99t-103 38q-70 0 -129 -50.5t-92 -132.5zM762 1384q0 84 60.5 142.5t146.5 58.5q63 0 100 -39t37 -102q0 -82 -59.5 -140.5t-143.5 -58.5q-63 0 -102 39 t-39 100z" />
<glyph unicode="&#xec;" horiz-adv-x="665" d="M14 0l224 1114h413l-223 -1114h-414zM155 1468l326 119l221 -348l-272 -20z" />
<glyph unicode="&#xed;" horiz-adv-x="665" d="M14 0l224 1114h413l-223 -1114h-414zM262 1239l260 348l326 -119l-316 -249z" />
<glyph unicode="&#xee;" horiz-adv-x="665" d="M14 0l224 1114h413l-223 -1114h-414zM67 1247l287 322h354l164 -322h-274l-100 142l-156 -142h-275z" />
<glyph unicode="&#xef;" horiz-adv-x="665" d="M14 0l224 1114h413l-223 -1114h-414zM134 1384q0 84 60 142.5t144 58.5q64 0 102 -39t38 -102q0 -82 -60.5 -140.5t-144.5 -58.5q-63 0 -101 39t-38 100zM527 1384q0 84 60.5 142.5t144.5 58.5q63 0 101 -39t38 -102q0 -82 -59.5 -140.5t-143.5 -58.5q-63 0 -102 39 t-39 100z" />
<glyph unicode="&#xf0;" horiz-adv-x="1257" d="M16 424q0 143 61.5 256t173 176.5t257.5 63.5q98 0 190.5 -31t141.5 -76q-31 158 -181 317l-362 -149l-59 141l294 123q-106 82 -229 141l291 152q143 -59 268 -154l336 140l57 -146l-266 -110q115 -125 176.5 -274.5t61.5 -313.5q0 -203 -85 -360.5t-238.5 -245.5 t-354.5 -88q-164 0 -284 54t-184.5 152.5t-64.5 231.5zM412 451q0 -57 40 -92t107 -35q92 0 149.5 56t57.5 132q0 59 -39 95t-113 36q-88 0 -145 -56.5t-57 -135.5z" />
<glyph unicode="&#xf1;" horiz-adv-x="1396" d="M16 0l222 1114h413l-26 -143q133 158 336 157q167 0 268.5 -101t101.5 -263q0 -57 -10 -105l-131 -659h-414l119 598q6 29 6 49q0 63 -36 100t-97 37q-78 0 -142.5 -64.5t-84.5 -164.5l-111 -555h-414zM531 1227q33 172 100.5 257t175.5 85q49 0 88 -14.5t88 -41.5 q23 -12 43.5 -21t34.5 -9q31 0 48.5 19.5t27.5 60.5h221q-35 -174 -100.5 -258t-173.5 -84q-51 0 -92.5 15t-86.5 42q-53 31 -77 31q-57 0 -76 -82h-221z" />
<glyph unicode="&#xf2;" horiz-adv-x="1329" d="M43 502q0 184 86 326.5t240.5 221t353.5 78.5q172 0 300 -63.5t196.5 -179t68.5 -271.5q0 -186 -86 -328.5t-240.5 -221t-353.5 -78.5q-172 0 -300 63.5t-196.5 180t-68.5 272.5zM432 1468l326 119l221 -348l-272 -20zM463 520q0 -98 48 -156.5t130 -58.5q100 0 163.5 77 t63.5 202q0 98 -48 157.5t-130 59.5q-100 0 -163.5 -78t-63.5 -203z" />
<glyph unicode="&#xf3;" horiz-adv-x="1329" d="M43 502q0 184 86 326.5t240.5 221t353.5 78.5q172 0 300 -63.5t196.5 -179t68.5 -271.5q0 -186 -86 -328.5t-240.5 -221t-353.5 -78.5q-172 0 -300 63.5t-196.5 180t-68.5 272.5zM463 520q0 -98 48 -156.5t130 -58.5q100 0 163.5 77t63.5 202q0 98 -48 157.5t-130 59.5 q-100 0 -163.5 -78t-63.5 -203zM539 1239l260 348l326 -119l-316 -249z" />
<glyph unicode="&#xf4;" horiz-adv-x="1329" d="M43 502q0 184 86 326.5t240.5 221t353.5 78.5q172 0 300 -63.5t196.5 -179t68.5 -271.5q0 -186 -86 -328.5t-240.5 -221t-353.5 -78.5q-172 0 -300 63.5t-196.5 180t-68.5 272.5zM344 1247l287 322h354l164 -322h-274l-100 142l-156 -142h-275zM463 520q0 -98 48 -156.5 t130 -58.5q100 0 163.5 77t63.5 202q0 98 -48 157.5t-130 59.5q-100 0 -163.5 -78t-63.5 -203z" />
<glyph unicode="&#xf5;" horiz-adv-x="1329" d="M43 502q0 184 86 326.5t240.5 221t353.5 78.5q172 0 300 -63.5t196.5 -179t68.5 -271.5q0 -186 -86 -328.5t-240.5 -221t-353.5 -78.5q-172 0 -300 63.5t-196.5 180t-68.5 272.5zM375 1227q33 172 100.5 257t175.5 85q49 0 88 -14.5t88 -41.5q23 -12 43.5 -21t34.5 -9 q31 0 48.5 19.5t27.5 60.5h221q-35 -174 -100.5 -258t-173.5 -84q-51 0 -92.5 15t-86.5 42q-53 31 -77 31q-57 0 -76 -82h-221zM463 520q0 -98 48 -156.5t130 -58.5q100 0 163.5 77t63.5 202q0 98 -48 157.5t-130 59.5q-100 0 -163.5 -78t-63.5 -203z" />
<glyph unicode="&#xf6;" horiz-adv-x="1329" d="M43 502q0 184 86 326.5t240.5 221t353.5 78.5q172 0 300 -63.5t196.5 -179t68.5 -271.5q0 -186 -86 -328.5t-240.5 -221t-353.5 -78.5q-172 0 -300 63.5t-196.5 180t-68.5 272.5zM403 1384q0 84 60.5 142.5t146.5 58.5q64 0 102 -39t38 -102q0 -82 -60.5 -140.5 t-144.5 -58.5q-63 0 -102.5 39t-39.5 100zM463 520q0 -98 48 -156.5t130 -58.5q100 0 163.5 77t63.5 202q0 98 -48 157.5t-130 59.5q-100 0 -163.5 -78t-63.5 -203zM807 1384q0 84 60.5 142.5t146.5 58.5q63 0 100 -39t37 -102q0 -82 -59.5 -140.5t-143.5 -58.5 q-63 0 -102 39t-39 100z" />
<glyph unicode="&#xf7;" horiz-adv-x="1054" d="M61 543l52 258h927l-51 -258h-928zM305 272q0 88 62.5 148.5t152.5 60.5q66 0 105 -40t39 -103q0 -88 -61.5 -148.5t-151.5 -60.5q-66 0 -106 40t-40 103zM451 1008q0 88 62 148.5t153 60.5q65 0 104 -40t39 -104q0 -88 -61.5 -148.5t-151.5 -60.5q-66 0 -105.5 40 t-39.5 104z" />
<glyph unicode="&#xf8;" horiz-adv-x="1329" d="M43 502q0 184 86 326.5t240.5 221t353.5 78.5q125 0 233 -34l134 190h178l-181 -258q97 -65 149 -170.5t52 -241.5q0 -186 -86 -328.5t-240.5 -221t-353.5 -78.5q-115 0 -223 32l-131 -188h-178l176 252q-100 68 -154.5 175.5t-54.5 244.5zM436 518q0 -80 27 -133 l303 434q-33 12 -72 12q-113 0 -185.5 -88t-72.5 -225zM569 283q35 -10 68 -11q113 0 185.5 88.5t72.5 227.5q0 76 -25 127z" />
<glyph unicode="&#xf9;" horiz-adv-x="1396" d="M66 350q0 59 10 105l131 659h414l-119 -598q-6 -27 -6 -49q0 -63 35.5 -100t97.5 -37q80 0 143.5 64.5t83.5 164.5l111 555h413l-221 -1114h-414l27 143q-133 -158 -336 -157q-168 0 -269 101t-101 263zM520 1468l326 119l221 -348l-272 -20z" />
<glyph unicode="&#xfa;" horiz-adv-x="1396" d="M66 350q0 59 10 105l131 659h414l-119 -598q-6 -27 -6 -49q0 -63 35.5 -100t97.5 -37q80 0 143.5 64.5t83.5 164.5l111 555h413l-221 -1114h-414l27 143q-133 -158 -336 -157q-168 0 -269 101t-101 263zM627 1239l260 348l326 -119l-316 -249z" />
<glyph unicode="&#xfb;" horiz-adv-x="1396" d="M66 350q0 59 10 105l131 659h414l-119 -598q-6 -27 -6 -49q0 -63 35.5 -100t97.5 -37q80 0 143.5 64.5t83.5 164.5l111 555h413l-221 -1114h-414l27 143q-133 -158 -336 -157q-168 0 -269 101t-101 263zM432 1247l287 322h354l164 -322h-274l-100 142l-156 -142h-275z " />
<glyph unicode="&#xfc;" horiz-adv-x="1396" d="M66 350q0 59 10 105l131 659h414l-119 -598q-6 -27 -6 -49q0 -63 35.5 -100t97.5 -37q80 0 143.5 64.5t83.5 164.5l111 555h413l-221 -1114h-414l27 143q-133 -158 -336 -157q-168 0 -269 101t-101 263zM491 1384q0 84 60.5 142.5t146.5 58.5q64 0 102 -39t38 -102 q0 -82 -60.5 -140.5t-144.5 -58.5q-63 0 -102.5 39t-39.5 100zM895 1384q0 84 60.5 142.5t146.5 58.5q63 0 100 -39t37 -102q0 -82 -59.5 -140.5t-143.5 -58.5q-63 0 -102 39t-39 100z" />
<glyph unicode="&#xfd;" horiz-adv-x="1234" d="M-201 -285l207 256q31 -31 59.5 -41t65.5 -10q86 0 156 74l32 37l-241 1083h418l102 -686l348 686h418l-711 -1223q-94 -162 -218 -234.5t-285 -72.5q-109 0 -191 33t-160 98zM547 1239l260 348l326 -119l-316 -249z" />
<glyph unicode="&#xfe;" horiz-adv-x="1419" d="M-55 -397l383 1917h413l-104 -527q145 135 324 135q122 0 218.5 -61t149.5 -172t53 -252q0 -182 -76.5 -332.5t-210.5 -237.5t-294 -87q-115 0 -199 46t-131 134l-113 -563h-413zM551 524q0 -92 47 -146t127 -54q66 0 120 39.5t87 106.5t33 146q0 94 -46.5 148.5 t-123.5 54.5q-66 0 -122.5 -40t-89 -107.5t-32.5 -147.5z" />
<glyph unicode="&#xff;" horiz-adv-x="1234" d="M-201 -285l207 256q31 -31 59.5 -41t65.5 -10q86 0 156 74l32 37l-241 1083h418l102 -686l348 686h418l-711 -1223q-94 -162 -218 -234.5t-285 -72.5q-109 0 -191 33t-160 98zM411 1384q0 84 60.5 142.5t146.5 58.5q64 0 102 -39t38 -102q0 -82 -60.5 -140.5 t-144.5 -58.5q-63 0 -102.5 39t-39.5 100zM815 1384q0 84 60.5 142.5t146.5 58.5q63 0 100 -39t37 -102q0 -82 -59.5 -140.5t-143.5 -58.5q-63 0 -102 39t-39 100z" />
<glyph unicode="&#x152;" horiz-adv-x="2308" d="M76 672q0 211 114.5 386t311 276.5t434.5 101.5h1444l-66 -328h-749l-43 -225h676l-66 -328h-676l-45 -227h768l-68 -328h-1320q-203 0 -366 85t-256 238.5t-93 348.5zM514 686q0 -150 87 -248t226 -98h158l152 750h-236q-106 0 -194.5 -53.5t-140.5 -145.5t-52 -205z " />
<glyph unicode="&#x153;" horiz-adv-x="2078" d="M43 502q0 184 86 326.5t240.5 221t353.5 78.5q252 0 377 -163q152 164 399 163q252 0 392.5 -141t140.5 -385q0 -78 -11 -137h-764q16 -84 70.5 -129t134.5 -45q131 0 260 106l195 -211q-205 -201 -520 -200q-248 0 -369 159q-160 -160 -418 -159q-172 0 -301 63.5 t-197.5 180t-68.5 272.5zM463 520q0 -98 48 -156.5t130 -58.5q100 0 163.5 77t63.5 202q0 98 -48 157.5t-130 59.5q-100 0 -163.5 -78t-63.5 -203zM1268 659h358q2 11 2 31q0 72 -42 116t-109 44q-76 0 -130.5 -52.5t-78.5 -138.5z" />
<glyph unicode="&#x178;" horiz-adv-x="1437" d="M160 1436h424l217 -588l401 588h426l-680 -985l-74 -451h-425l73 446zM574 1681q0 84 60.5 142.5t146.5 58.5q63 0 101 -39t38 -102q0 -82 -60.5 -140.5t-144.5 -58.5q-63 0 -102 39t-39 100zM977 1681q0 84 60.5 142.5t146.5 58.5q64 0 100.5 -39t36.5 -102 q0 -82 -59 -140.5t-143 -58.5q-63 0 -102.5 39t-39.5 100z" />
<glyph unicode="&#x2c6;" horiz-adv-x="925" d="M219 1247l287 322h354l164 -322h-274l-100 142l-156 -142h-275z" />
<glyph unicode="&#x2dc;" horiz-adv-x="1083" d="M297 1227q33 172 100.5 257t175.5 85q49 0 88 -14.5t88 -41.5q23 -12 43.5 -21t34.5 -9q31 0 48.5 19.5t27.5 60.5h221q-35 -174 -100.5 -258t-173.5 -84q-51 0 -92.5 15t-86.5 42q-53 31 -77 31q-57 0 -76 -82h-221z" />
<glyph unicode="&#x2000;" horiz-adv-x="1001" />
<glyph unicode="&#x2001;" horiz-adv-x="2003" />
<glyph unicode="&#x2002;" horiz-adv-x="1001" />
<glyph unicode="&#x2003;" horiz-adv-x="2003" />
<glyph unicode="&#x2004;" horiz-adv-x="667" />
<glyph unicode="&#x2005;" horiz-adv-x="500" />
<glyph unicode="&#x2006;" horiz-adv-x="333" />
<glyph unicode="&#x2007;" horiz-adv-x="333" />
<glyph unicode="&#x2008;" horiz-adv-x="250" />
<glyph unicode="&#x2009;" horiz-adv-x="400" />
<glyph unicode="&#x200a;" horiz-adv-x="111" />
<glyph unicode="&#x2010;" horiz-adv-x="774" d="M96 502l51 258h560l-52 -258h-559z" />
<glyph unicode="&#x2011;" horiz-adv-x="774" d="M96 502l51 258h560l-52 -258h-559z" />
<glyph unicode="&#x2012;" horiz-adv-x="774" d="M96 502l51 258h560l-52 -258h-559z" />
<glyph unicode="&#x2013;" horiz-adv-x="837" d="M-10 502l51 258h838l-52 -258h-837z" />
<glyph unicode="&#x2014;" horiz-adv-x="1284" d="M-10 502l51 258h1284l-51 -258h-1284z" />
<glyph unicode="&#x2018;" horiz-adv-x="503" d="M156 1067q0 80 65 168l205 285h195l-142 -287q64 -45 64 -125q0 -92 -60.5 -153.5t-150.5 -61.5q-78 0 -127 45t-49 129z" />
<glyph unicode="&#x2019;" horiz-adv-x="505" d="M127 893l141 287q-63 45 -63 125q0 92 60.5 153.5t150.5 61.5q78 0 127 -45t49 -129q0 -80 -66 -168l-204 -285h-195z" />
<glyph unicode="&#x201a;" horiz-adv-x="503" d="M-104 -258l141 287q-63 45 -64 125q0 92 60.5 153.5t150.5 61.5q78 0 127 -45t49 -129q0 -80 -65 -168l-205 -285h-194z" />
<glyph unicode="&#x201c;" horiz-adv-x="921" d="M156 1067q0 80 65 168l205 285h195l-142 -287q64 -45 64 -125q0 -92 -60.5 -153.5t-150.5 -61.5q-78 0 -127 45t-49 129zM574 1067q0 80 65 168l205 285h195l-142 -287q64 -45 64 -125q0 -92 -60.5 -153.5t-150.5 -61.5q-78 0 -127 45t-49 129z" />
<glyph unicode="&#x201d;" horiz-adv-x="921" d="M127 893l141 287q-63 45 -63 125q0 92 60.5 153.5t150.5 61.5q78 0 127 -45t49 -129q0 -80 -66 -168l-204 -285h-195zM545 893l141 287q-63 45 -63 125q0 92 60.5 153.5t150.5 61.5q78 0 127 -45t49 -129q0 -80 -66 -168l-204 -285h-195z" />
<glyph unicode="&#x201e;" horiz-adv-x="921" d="M-104 -258l141 287q-63 45 -64 125q0 92 60.5 153.5t150.5 61.5q78 0 127 -45t49 -129q0 -80 -65 -168l-205 -285h-194zM314 -258l141 287q-63 45 -64 125q0 92 60.5 153.5t150.5 61.5q78 0 127 -45t49 -129q0 -80 -65 -168l-205 -285h-194z" />
<glyph unicode="&#x2022;" horiz-adv-x="739" d="M82 573q0 127 81 208t208 81q129 0 210 -81t81 -208q0 -129 -81 -209.5t-210 -80.5q-127 0 -208 80.5t-81 209.5z" />
<glyph unicode="&#x2026;" horiz-adv-x="1476" d="M-2 156q0 94 59.5 151.5t147.5 57.5q80 0 127 -46.5t47 -123.5q0 -92 -58.5 -151.5t-150.5 -59.5q-76 0 -124 48t-48 124zM471 156q0 94 59.5 151.5t147.5 57.5q80 0 127 -46.5t47 -123.5q0 -92 -58.5 -151.5t-150.5 -59.5q-76 0 -124 48t-48 124zM944 156 q0 94 59.5 151.5t147.5 57.5q80 0 127 -46.5t47 -123.5q0 -92 -58.5 -151.5t-150.5 -59.5q-76 0 -124 48t-48 124z" />
<glyph unicode="&#x202f;" horiz-adv-x="400" />
<glyph unicode="&#x2039;" horiz-adv-x="581" d="M-18 553l327 387h334l-317 -401l161 -375h-331z" />
<glyph unicode="&#x203a;" horiz-adv-x="585" d="M-49 164l317 401l-162 375h332l174 -389l-327 -387h-334z" />
<glyph unicode="&#x205f;" horiz-adv-x="500" />
<glyph unicode="&#x20ac;" horiz-adv-x="1615" d="M37 530l29 140h157q0 33 8 98h-147l29 139h151q55 160 174 283t284 190.5t351 67.5q162 0 316.5 -68.5t252.5 -185.5l-276 -291q-59 86 -147.5 138.5t-174.5 52.5q-102 0 -187 -50.5t-136 -136.5h418l-27 -139h-442q-6 -39 -6 -80v-18h428l-27 -140h-369q37 -82 109 -129 t166 -47q82 0 179 45t177 121l221 -262q-129 -127 -302 -201.5t-335 -74.5q-178 0 -322.5 69.5t-236.5 193.5t-119 285h-196z" />
<glyph unicode="&#x2122;" horiz-adv-x="1921" d="M139 1198l54 238h731l-56 -238h-217l-143 -625h-297l143 625h-215zM799 573l196 863h322l84 -428l282 428h328l-196 -863h-267l101 441l-219 -357h-205l-58 357l-100 -441h-268z" />
<glyph unicode="&#x25fc;" horiz-adv-x="1116" d="M0 0v1116h1116v-1116h-1116z" />
</font>
</defs>
</svg>
