<svg xmlns="http://www.w3.org/2000/svg" width="170.7" height="255.6" viewBox="-0.5 1.2 170.7 255.6"><g fill="#BD2C4C"><path d="M10.4 85.1c-.1.1-.1.2-.1.3 0-.1 0-.2.1-.3z"/><path d="M170.2 111.7c-.1-1-1.7-1.4-2.7-1.7-.6.1-1-.3-1-.7v-.3c1-3.1.4-5.2-1.7-6.5.1-.6-.2-.6-.2-1 0-.6-.2-.9-.6-1 .1-.6-.3-.6-.3-1 .1-.4-.1-.6-.3-.7 0-.6-.2-.9-.7-1-.1-.9-.5-1.6-1-2-.3-.4-.3-1.3-.7-1.7-.3-2-1.3-3.2-2.4-4.4-.4-.9-.6-1.9-1.4-2.4-.2-.8-.6-1.4-1-2 .1-.4-.1-.6-.3-.7.2-1.4-1.2-1.3-1.4-2.4 0-.6-.2-1.1-.7-1.4.1-.3-.1-.3-.3-.3-.4-.7-.4-1.9-1-2.4 0-.9-.6-1.2-1-1.7-.5-.2-.1-1.3-.7-1.4-.5-1-.7-2.2-1.7-2.7.2-.9-.7-.7-.7-1.4 0-.9-.6-1.2-1-1.7-.2-.9-.5-1.6-1-2-.4-.8-2.1 0-2.4.3-.3.3-.9.2-1 .7-1.2-.1-2.2.1-2.7.7-.3-.1-.3.6-.3.8-.3.3-.9.2-1 1.2h-.3c-.8 0-2.6 0-2.7 1h-.3c-2.5 0-4.3.9-5.8 2.1-1.2-.2-1.6.2-2.4.5-1.1.4-2.5.3-3.4.9-.5-.7-.4-2.2-1.4-2.4.1-.3-.1-.3-.3-.4.1-.4-.1-.6-.3-.7.1-.8.1-1.7-.7-1.7-.4-2.3-2.7-4.2-2-6.5.8-.3.9-1.4 1-2.4.1-.3.3-.3.3-.7.3.1.3-.1.3-.3.5-.8 1-1.5 1-2.7-.1-1.3.9-1.6 1-2.7.5-.3.7-.9.7-1.7.3.1.3-.1.3-.3.9 0 .7-1.1.7-2 .7-.3.6-1.5 1-2 .3.1.3-.1.3-.3.6-2.2 2.2-3.5 2.4-6.1.3-1 .8-1.7 1-2.7.5-.4.5-1.3 1-1.7 1.8.1 2.4-1 3.7-1.4.3.1.3-.1.3-.3 1-.5 2.1-.4 3.1-1.4h2.4c1 2 5.6 7.9 5.6 2.4v-.3c-1-2.2 1.6-2.4.7-3.4.1-.3.3-.3-.7-.3v-.3c1-1.2 0-1.6-.3-2.4-.5 0-.8-.1-.8.3-.4.3-.6 1-.9 1.4-.7.4-1.8.7-1.9 1.7h-.7c-.6-1-.8-2-1.4-2.7.2-.9-.7-.3-1-1.3h-.3c-.6 0-1.2-1.1-1.7-1.8 0-.5.1-1-.3-1.1.1-.9.1-1.7-1-1.4-2.3.2-1.1-3-3.7-2.4-.6-.6-2.5.2-2.7-.9-1-1.3-2.6-1.6-4.1-2.6h-.3c-.3-1-1.2-1-1.7-1.5-.2-.7-.9-1-1.7-1.1-.3-.2-.6-.4-1-.4-.6-.7-1.1-1.4-2.4-1.4.1-.3-.1-.3-.3-.4-.9-.7-1.9-1.3-3.1-1.7-.9 0-.7-1.1-1.7-1-.3-.5-.9-.7-1.4-1-1.3-.7-2.4-1.5-3.7-2-.5-.5-1.1-1-1.7-1.4-.3-.7-1-1-2-1 0-.3-.4-.3-.7-.3-.9-.6-2.1-.8-2.7-1.7-1-.3-.9.5-1.7.3.5-1.7-2.3-.4-.7-1.7-.6-.1-.8.4-1.4.3.6-.8-1.4-1.6-1.7-.8 0-.6-.1-1.2-.3-1.2h-.3c-.2 2-1.2-1-2.4-.5-.6.8-.8 2-2 2.3-.3.1-.4.2-.3.6-1.1.8-1.7 2.2-3.1 2.7-1.2.7-1.8 1.8-2.7 2.7-.4.1-.5.4-.7.7-.5.4-1.4.4-1.7 1-.6.3-1.1.8-1.4 1.4-.1 1.4-1.7 1.2-2.7 1.7-.2 0-.4.1-.3.3-.9.4-1.6 1.1-2 1.9 0 .5-.9.2-.7 1.2h-.3c-.7 1-.9 1.4-1.4 2.2-1.3 1.1-2.6 2-3.1 4-.3.1-.4.7-.3 1.1-.9.7-1.7 1.8-2.4 2.8H66c-1.1-1-3.2.2-2.2.9v.3c1-.2 1.1.7 1.4 1 .3 1.3-.6 1.6-.8 2.4-.1.5-.4.4-.5 1.4h-1c0-1-2.5-.8-2 .3 0 .3-.3.7-.3.7H60c-1.4-1-5.6-1.2-6.5 0-.6-.1-.8.2-1.4.2-2.8 0-4.8.5-7.1.9-1 .5-1.4 1.5-2.4 2-3.1-.4-4.4.8-7.1.7-.1-.4-.4-.5-.7-.7-.2-.6-.2-1.4-.7-1.7-.2-1.2-2.4-2.2-3.4-1.4-1 .6-2.7.6-2.7 2v1c-1 0-.6.1-.5.3-.5.5-1.5.9-1.5 1.7v.3c-1 0-.3 1.3-1.2 1.4-.2-.7-1.9.1-2 .7-.3.1-.6 0-.6.3-1.7 0-2.3 1.2-4.4.8-.1-.6-.6-.6-1.3-.6h-.3c.1 0-2.1-.7-2-.1-.3-.1-.3.1-.3.3-1.1.8-2.6 1.3-3.7 2-2 .3-.6 3.9-1 5.8-1.6.4-2.9 1-3.4 2.4 1.5 1.6 3.3 2.8 5.4 3.7.3.6 1.6.2 1.7 1 2.3 1.5 4.8 2.9 6.1 5.3.5 0 .7.6 1 .6h.3c0 1 .4.3.3.8-.6 4.5 1.6 6.5 1 9.4-.6 3.2-4.3 4-6.1 5.4-1.9 1.4-3.8 3.7-4.6 5.8 0 0 .1.1.2.1-.1.9-1.3 1.5-1.7 1.5h-.3c-2.8 0-3.2 2-5.1 3H2.6c-.1 0-.9.5-1.3.9-.9-.1-.3.8-1.3.9v4.4c1 .8 1.6 3.2 2.3 4.8.6.2-.2 1.6.5 1.7 0 .2.2.4.2.3v.3c0 .6.9.6.9 1.6h2c.3 0 1.1 0 1.7 1h.3c.7 0 2-1 2.4-2h1c.4 0 .3.5.7.5.8 1.2 2.4 1.6 4.4 1.6 1.2.7 2.9.7 4.1 1.3 1.7 1.9 2.9 3.9 4.9 5.4.2 1.9-1.5 4.2-.5 5.8v.7c-1 .7-1 1.9-1.9 2.7-.2.9-1.2.8-1.1 2-.8.5-1.4 1.2-1.9 2-.7.5-.9 1.5-1.6 2-2.3 2.6-8.2 6.5-6.5 11.1 0-.2.1-.4.1-.7 0 .2-.1.4-.1.7-1 .4 0 1.7.4 1.7v-.6c.2.3.4.6.7.9 0 .4.1.8.7.6.3 1.4 1 2.3 2.4 2.7.4.1 1 0 1 .4.1 1.4 2.8 1 3.4 1h.3c.4 2 1.4 1.5 2 2.4 1 .7 2.4 1 4.1 1 .3.1.3.6.7.6.5.5 1.5 1 2.4 1h.7c.3 1 .8.9 2 .7.6-.1.8.2 1.4.2 0 .2.1.3.3.3 1.6 2.9 5.6 3.4 5.4 8.1 0 .6.3.9.7 1 .5 1.2 1.9 1.5 2.7 2.4 0 .2.1.4.3.3 1.2 1.1 2.3 2.2 3.7 3.1 1.4 2.7 6.5 6 9.2 2.4.3 0 .3-.4.3-.7 1-.2 1.5-1 3.1-.7.4 0 .5.4 1 .3.6.2 1.6 1.7 2.4.7.3 0 .4-.3.7-.3 1.3.1 2.4-.1 2.7-1 1.7.2 2.7 1.2 3.1 2.7 0 1.7.2 3.6-.3 4.8-.1.8-.1 1.7.7 1.7 2.1.2 2.8 1.5 4.8 2.4v1c-1 .6-1 1.2-1 2.4-.3.1-.4.3-.3.7-.5.3-1.1.5-1 1.4-1.1 1.6-1.6 3.8-2.7 5.4-.6 1.3-1.4 2.7-1.3 4.8-1.7 2.6.4 6.9-.6 10.6v.3c-1 .6-.3 2.6-.5 3.7-.6 12.1.5 22.5-.5 34v.3c0 2.1-.3 5-.6 7.4.8.7 2.9.6 3.2-.4h.3c.4 0 .6-.4.7-.6 4.8 1.3 10-1.9 14.3-1.2 1.9.3 2.5 1.7 3.8 2.4v.4h.4c.3 0 .6 0 1 .1.6 0 .9.1 1 .5-.2.6 0 .9.4 1.2h.1c1 .7 3.3.7 4.6 1.6l-.1-.1.1.1c.2.2.4.7.6.9.1.1.1.7.1.7h2.7c.3 0 .6-1.2 1-1.6 1.5-.2 3.8.6 4.8-.2.3.1.3-.2.3-.2h.3c2.2-1 2.7-3.2 5.1-3.6.9.1 1.1-.6 1-1.5.4-.1.3-.7.3-1.1 1.4-.8.8-4.7-.7-4.8-.9.2-.7-.7-1-1-.1-1-.7-1.6-1.7-1.7-.2-.5-.5-.8-1-1-.1-.6.3-.6.3-1 1.7-.4.9-3.3-.3-3.7-.1-.4-.7-.2-.7-.7-.7-1.1 1.3-1.1.3-1.4-.3-1.1.3-.5 1.3-1v-1c0-.9 2.2-1.8 1.4-3.4 3.7-.2 3.3-4.3 5-6.4h.2s.1 0 .1-.1h-.4l-.4-.1c0-.1.4.1.4.1.4-.3 1.2-.4 1.8-.4h.3c.9 1 1.6-2 2.4-2.6 1.4.7 3.3.1 3.4-1.5.1-.4-.1-.7-.3-.7-.2-.3-.4-.6 0-.7 1-.1 2.3.3 2.4-.7.3-.5 1.7.1 1.4-1 .5-.2 1.8.4 1.7-.3.2-.5 1.3-.1 1.4-.7.4-.3 1.3-.3 1.7-.7.3-.1.7 0 .7-.3 1.3 0 1.8-.7 2-1.7-.2-1.3-3.4-1.3-2.4-2.7.3 1.3 2.7.4 4.1.7.5 0 0-.8.2-1.2.1-.1-.1-.1-.1-.2v-.3c1-.2.9-.7 1-1.4.5-.8 2.9.2 2.9-1 .8.1 1.5-.1 1.8-.6.3-.1.8.8.8-.2h3.4s.1.7.3.7c-.2.6 1.9.3 1.7.3h.3c1.5 0 2.8-.8 3.4-1.8.4-.2.8-.6 1-.9.3-.1.6-.3.9-.5l.1-.1.1-.1c1.9-.9 3.9-2.7 4.3-4.5h-.1c.1-.1 0-.3 0-.4 0-.6 0-1.2-1-1.7v-.1h.3c-.2-.4-.4-.7-.8-1-.9 0-1.9.1-2.3-.3 0-.3-.4-.3-.6-.3-.9-.5-2.2-.5-2.7-1.4.1-3.2 0-6.2-.3-9 0-.1 0-.2.1-.2 1.9-1.7 2.4-4.6 4.4-6.4v-.7c0-.1.4-.3.3-.7.6.2.6-1.6 0-1.4.1-1.1-1.7-.4-1-2 .2 0 .4.4.3.1 1.1-.1-.7-1.6-.7-.6h-1v-2h1c.5 0 .8-.7 1-1.2.8-.3.1-2 .3-2.8-.3-.6-1.1-.8-2-.7-.3-2.1.1-4.8-1-6.1-.4-1.7-2.1-2-3.1-3.1-.5-.2-.8-.4-1-.9-.3-.3-.4-.2-.3-1.2h.3c.7 0 .8-1.3.8-2v-.3c1-.3 1.5-.5 1.5-1.4.4-.1.9-.4.9-1 1.7-3.3 1.3-8.8 2.2-12.9.7-.7 1.5-1.3 1.8-2.4.5-.2.7-.7.7-1.4.3.1.1-.1.2-.3 1-.7.9-2 1.9-3.1v-.3c1 .2 2.1-.6 2.6-1.4 1.2-.4 2.5-2.6 2.5-3.1 0-.6 1-.2 1.1-.7.3-1.1 2.2-.8 3.1-1.4.2 0 .4-.1.4-.3.6-.5 1.5-.4 1.4-1.7 0-.3.3-.4.3-.4h.7c.7 0 .6-1.9-.2-2 0-.4.2-1.1.2-1V112c-.6-.3.2-.3.1-.3zM135.3 207z"/></g></svg>