<svg class="svg-filtro" version="1.1" id="icg-crime-01" width="178.3px" height="112.3px" viewBox="0 0 178.3 112.3">
                                <ellipse id="shadow_1_" fill="#474B4D" cx="89.1" cy="105.1" rx="61.1" ry="7.1" />
                                <g id="corpo">
                                    <path fill="#C2C2C2" d="M178.3,5.2c0,0-39.6-5.2-88.8-5.2S0,5.2,0,5.2C59.3,11.8,119.1,11.8,178.3,5.2z" />
                                    <path fill="#E1E2E3" d="M0,5.2c5.3,26.6,10.5,53.1,15.8,79.7c48.8,5.4,98,5.4,146.7,0c5.3-26.6,10.5-53.1,15.8-79.7
                                        C119.1,11.8,59.3,11.8,0,5.2z" />
                                </g>
                                <g id="valor-num">
                                    <g>
                                        <path fill="#474B4D" d="M87.1,25.7c3.1,3.5,4.6,8.6,4.6,15.2s-1.5,11.7-4.6,15.3c-3.1,3.6-7.5,5.3-13.2,5.3
                                            c-5.8,0-10.3-1.8-13.4-5.3c-3.1-3.6-4.6-8.6-4.6-15.3s1.5-11.7,4.6-15.2c3.1-3.5,7.5-5.3,13.4-5.3C79.6,20.4,84,22.1,87.1,25.7z
                                            M68.4,31.2c-1.1,2-1.7,5.2-1.7,9.7c0,4.5,0.6,7.8,1.7,9.8c1.1,2,2.9,3,5.5,3c2.5,0,4.3-1,5.4-3c1.1-2,1.7-5.2,1.7-9.7
                                            c0-4.5-0.6-7.7-1.7-9.7c-1.1-2-2.9-3-5.4-3C71.4,28.2,69.5,29.2,68.4,31.2z" />
                                        <path fill="#474B4D" d="M93.2,20.7h18.3v40.4H101V29.4h-7.8V20.7z" />
                                    </g>
                                </g>
                                <g id="text">
                                    <path fill="#474B4D" d="M59.5,63.5l1.9,0.8l-2.5,2l-1.6-0.2L59.5,63.5z M57.4,68h1.9v10.7h-1.9V68z" />
                                    <path fill="#474B4D" d="M71.8,69.1c0.7,0.7,1.1,1.7,1.1,3v6.6H71v-6.1c0-0.9-0.3-1.6-0.8-2.1s-1.2-0.8-2.1-0.8
                                        c-1,0-1.7,0.3-2.3,0.9c-0.6,0.6-0.9,1.4-1,2.3v5.7H63V68h1.9v2.3c0.7-1.5,2.1-2.3,4.1-2.3C70.1,68,71.1,68.3,71.8,69.1z"
                                    />
                                    <path fill="#474B4D" d="M86.2,63.7v15h-1.9v-2.1c-0.4,0.7-0.9,1.3-1.6,1.6s-1.5,0.6-2.4,0.6c-1,0-1.9-0.2-2.7-0.7
                                        c-0.8-0.5-1.4-1.1-1.8-1.9c-0.4-0.8-0.6-1.8-0.6-2.8c0-1,0.2-2,0.6-2.8c0.4-0.8,1-1.4,1.8-1.9c0.8-0.5,1.7-0.7,2.7-0.7
                                        c0.9,0,1.7,0.2,2.4,0.6c0.7,0.4,1.2,0.9,1.6,1.6v-6.4C84.3,63.7,86.2,63.7,86.2,63.7z M82.6,76.7c0.5-0.3,1-0.8,1.3-1.3
                                        c0.3-0.6,0.5-1.2,0.5-2c0-0.7-0.2-1.4-0.5-2c-0.3-0.6-0.7-1-1.3-1.4s-1.2-0.5-1.9-0.5c-0.7,0-1.3,0.2-1.9,0.5s-1,0.8-1.3,1.4
                                        c-0.3,0.6-0.5,1.2-0.5,2c0,0.7,0.2,1.4,0.5,2c0.3,0.6,0.7,1,1.3,1.3s1.2,0.5,1.9,0.5C81.4,77.2,82,77,82.6,76.7z"
                                    />
                                    <path fill="#474B4D" d="M91.7,64.1c0.2,0.2,0.3,0.5,0.3,0.9s-0.1,0.6-0.3,0.9c-0.2,0.2-0.5,0.3-0.8,0.3s-0.6-0.1-0.8-0.3
                                        s-0.3-0.5-0.3-0.9s0.1-0.6,0.3-0.9s0.5-0.3,0.8-0.3S91.5,63.9,91.7,64.1z M89.9,68h1.9v10.7h-1.9V68z"
                                    />
                                    <path fill="#474B4D" d="M99.9,69.6c-0.7,0-1.3,0.2-1.9,0.5c-0.5,0.3-1,0.7-1.3,1.3c-0.3,0.6-0.5,1.2-0.5,2c0,0.7,0.2,1.4,0.5,2
                                        c0.3,0.6,0.7,1,1.3,1.3c0.5,0.3,1.1,0.5,1.8,0.5c0.7,0,1.3-0.1,1.9-0.3s1-0.6,1.4-1l1.1,1.1c-0.5,0.6-1.1,1.1-1.8,1.4
                                        s-1.6,0.5-2.5,0.5c-1,0-2-0.2-2.8-0.7c-0.8-0.5-1.4-1.1-1.9-1.9c-0.4-0.8-0.7-1.7-0.7-2.8s0.2-2,0.7-2.8c0.5-0.8,1.1-1.5,1.9-1.9
                                        c0.8-0.5,1.7-0.7,2.8-0.7c0.9,0,1.7,0.1,2.4,0.4c0.7,0.3,1.3,0.7,1.8,1.2l-1,1.3C102.1,70.1,101.1,69.6,99.9,69.6z"
                                    />
                                    <path fill="#474B4D" d="M114.3,69.4c0.8,1,1.3,2.3,1.3,4.1c0,0.3,0,0.5,0,0.6h-8.4c0.1,1,0.5,1.7,1.2,2.3c0.7,0.6,1.5,0.8,2.4,0.8
                                        c0.6,0,1.2-0.1,1.8-0.3c0.5-0.2,1-0.6,1.4-1l1,1.1c-0.5,0.6-1.2,1-1.9,1.3c-0.7,0.3-1.6,0.5-2.5,0.5c-1,0-2-0.2-2.8-0.7
                                        s-1.4-1.1-1.9-1.9c-0.5-0.8-0.7-1.8-0.7-2.8s0.2-2,0.7-2.8c0.4-0.8,1.1-1.4,1.9-1.9c0.8-0.5,1.7-0.7,2.8-0.7
                                        C112.3,68,113.5,68.5,114.3,69.4z M113.9,72.6c-0.1-1-0.4-1.7-1-2.3c-0.6-0.6-1.4-0.8-2.3-0.8c-0.9,0-1.7,0.3-2.3,0.8
                                        c-0.6,0.6-1,1.3-1.1,2.3H113.9z" />
                                </g>
                            </svg>