<svg class="svg-filtro" version="1.1" id="icg-crime-15" width="249.541px" height="95.652px" viewBox="0 0 249.541 95.652">
                                <g id="corpo">
                                    <path fill="#7F827F" d="M249.541,4.643c0,0-55.143-4.643-123.917-4.643C56.85,0,0,4.643,0,4.643 C82.928,13.797,166.612,13.797,249.541,4.643z"
                                    />
                                    <path fill="#C2C2C2" d="M0,4.643c7.512,28.461,15.025,56.923,22.538,85.384c67.948,7.501,136.516,7.501,204.463,0c7.514-28.461,15.026-56.923,22.539-85.384C166.612,13.797,82.928,13.797,0,4.643z"
                                    />
                                </g>
                                <g id="valor-num">
                                    <path fill="#474B4D" d="M29.615,32.102h20.654v45.53H38.383V41.845h-8.768V32.102z" />
                                    <path fill="#474B4D" d="M86.868,50.353c2.663,1.169,4.719,2.793,6.17,4.871c1.451,2.079,2.176,4.461,2.176,7.145c0,3.162-0.758,5.934-2.273,8.314c-1.516,2.382-3.681,4.222-6.495,5.521c-2.815,1.299-6.084,1.948-9.808,1.948c-3.031,0-6.16-0.52-9.385-1.559c-3.226-1.039-6.095-2.403-8.605-4.092l4.417-8.573c4.199,3.377,8.291,5.065,12.275,5.065c2.251,0,4.004-0.508,5.261-1.526c1.255-1.017,1.883-2.413,1.883-4.188s-0.617-3.128-1.851-4.06c-1.234-0.931-3.085-1.396-5.553-1.396c-5.759,0-9.916,0.087-12.47,0.26v-25.98h30.591v9.548h-19.68v6.949h4.092	C81.12,48.599,84.205,49.184,86.868,50.353z"
                                    />
                                </g>
                                <g id="text">
                                    <g>
                                        <path fill="#474B4D" d="M126.031,35.562c1.407,0.815,2.497,1.969,3.267,3.459c0.771,1.489,1.156,3.205,1.156,5.144
                                            c0,1.916-0.379,3.601-1.138,5.056c-0.759,1.454-1.83,2.584-3.212,3.388c-1.383,0.804-2.992,1.206-4.828,1.206
                                            c-1.371,0-2.588-0.254-3.653-0.763c-1.064-0.509-1.964-1.247-2.698-2.217v9.648h-5.654V34.515h5.654v2.803
                                            c0.709-0.97,1.597-1.708,2.662-2.217s2.258-0.763,3.58-0.763C123.002,34.338,124.624,34.745,126.031,35.562z M123.37,47.801
                                            c0.905-0.981,1.358-2.253,1.358-3.813c0-1.537-0.453-2.797-1.358-3.778c-0.906-0.981-2.081-1.473-3.524-1.473
                                            c-1.444,0-2.625,0.491-3.543,1.473c-0.917,0.981-1.376,2.241-1.376,3.778c0,1.584,0.459,2.861,1.376,3.831
                                            c0.918,0.97,2.099,1.454,3.543,1.454C121.289,49.272,122.464,48.782,123.37,47.801z"
                                        />
                                        <path fill="#474B4D" d="M149.931,36.998c1.652,1.773,2.479,4.245,2.479,7.414c0,0.568-0.013,1.006-0.037,1.313h-14.171
                                            c0.317,1.206,0.93,2.146,1.835,2.819c0.905,0.675,1.995,1.012,3.268,1.012c0.93,0,1.823-0.172,2.681-0.515
                                            c0.856-0.343,1.627-0.846,2.313-1.508l2.974,2.909c-1.004,1.088-2.221,1.922-3.652,2.501c-1.433,0.58-3.029,0.869-4.791,0.869
                                            c-2.081,0-3.898-0.402-5.452-1.206c-1.555-0.804-2.754-1.939-3.599-3.405c-0.844-1.467-1.267-3.158-1.267-5.073
                                            c0-1.939,0.429-3.648,1.285-5.126c0.856-1.479,2.057-2.626,3.599-3.441c1.542-0.816,3.304-1.224,5.286-1.224
                                            C145.862,34.338,148.279,35.225,149.931,36.998z M147.085,42.497c-0.049-1.254-0.465-2.259-1.248-3.016s-1.823-1.135-3.12-1.135
                                            c-1.225,0-2.246,0.372-3.065,1.117c-0.82,0.745-1.34,1.756-1.561,3.033H147.085z"
                                        />
                                        <path fill="#474B4D" d="M173.868,36.289c1.309,1.324,1.964,3.099,1.964,5.321v11.99h-5.653V43.206c0-1.206-0.35-2.157-1.047-2.855
                                            c-0.697-0.697-1.646-1.047-2.845-1.047c-1.396,0.024-2.497,0.491-3.305,1.401c-0.808,0.911-1.212,2.075-1.212,3.494v9.401h-5.653
                                            V34.515h5.653v3.335c1.371-2.317,3.647-3.5,6.829-3.548C170.802,34.302,172.558,34.965,173.868,36.289z"
                                        />
                                        <path fill="#474B4D" d="M192.168,53.601v-2.235c-0.66,0.805-1.518,1.419-2.569,1.845c-1.053,0.426-2.265,0.639-3.635,0.639
                                            c-2.081,0-3.732-0.55-4.956-1.649c-1.225-1.1-1.836-2.536-1.836-4.311c0-1.797,0.654-3.198,1.964-4.203s3.163-1.52,5.563-1.543
                                            h5.434v-0.355c0-1.017-0.349-1.803-1.047-2.358c-0.697-0.556-1.72-0.834-3.065-0.834c-1.836,0-3.794,0.556-5.874,1.667
                                            l-1.762-3.76c1.565-0.757,3.034-1.313,4.405-1.668c1.37-0.354,2.876-0.532,4.516-0.532c2.644,0,4.693,0.604,6.149,1.81
                                            s2.196,2.886,2.221,5.037l0.037,12.452H192.168z M190.59,49.131c0.856-0.544,1.37-1.229,1.542-2.058V45.37h-4.442
                                            c-1.102,0-1.916,0.172-2.441,0.515c-0.526,0.343-0.789,0.893-0.789,1.649c0,0.733,0.275,1.318,0.825,1.756
                                            c0.551,0.438,1.304,0.656,2.258,0.656C188.717,49.946,189.733,49.675,190.59,49.131z"
                                        />
                                        <path fill="#474B4D" d="M211.847,38.754c-1.053-0.319-1.995-0.479-2.827-0.479c-0.686,0-1.236,0.118-1.652,0.354
                                            c-0.416,0.237-0.624,0.592-0.624,1.064c0,0.521,0.281,0.922,0.845,1.206c0.563,0.284,1.48,0.604,2.753,0.958
                                            c1.396,0.402,2.546,0.798,3.451,1.188c0.905,0.39,1.688,0.97,2.35,1.738s0.991,1.779,0.991,3.033c0,1.893-0.752,3.364-2.258,4.416
                                            c-1.505,1.053-3.433,1.579-5.782,1.579c-1.615,0-3.17-0.23-4.662-0.691c-1.493-0.462-2.79-1.118-3.892-1.97l1.835-3.688
                                            c1.004,0.757,2.123,1.342,3.359,1.756s2.405,0.62,3.506,0.62c0.759,0,1.364-0.124,1.817-0.372s0.68-0.621,0.68-1.117
                                            c0-0.544-0.288-0.97-0.863-1.277s-1.499-0.639-2.771-0.993c-1.347-0.378-2.466-0.757-3.359-1.136
                                            c-0.894-0.378-1.658-0.951-2.294-1.721c-0.637-0.768-0.955-1.768-0.955-2.997c0-1.892,0.734-3.358,2.203-4.399
                                            c1.469-1.04,3.328-1.561,5.58-1.561c1.346,0,2.692,0.184,4.038,0.55c1.346,0.367,2.57,0.893,3.672,1.579l-1.946,3.725
                                            C213.963,39.529,212.899,39.073,211.847,38.754z" />
                                    </g>
                                    <g>
                                        <path fill="#474B4D" d="M114.201,70.348c-0.379-0.115-0.741-0.173-1.087-0.173c-0.403,0-0.727,0.074-0.972,0.223
                                            c-0.245,0.149-0.367,0.377-0.367,0.685c0,0.307,0.137,0.54,0.41,0.698s0.688,0.319,1.246,0.482
                                            c0.528,0.153,0.959,0.307,1.296,0.461c0.335,0.153,0.621,0.379,0.856,0.677c0.235,0.297,0.353,0.69,0.353,1.18
                                            c0,0.721-0.271,1.268-0.813,1.642c-0.542,0.375-1.216,0.562-2.023,0.562c-0.566,0-1.116-0.091-1.648-0.273
                                            c-0.533-0.182-0.981-0.441-1.346-0.777l0.504-0.979c0.317,0.288,0.708,0.519,1.173,0.691c0.466,0.173,0.919,0.259,1.361,0.259
                                            s0.796-0.081,1.065-0.244c0.269-0.163,0.403-0.413,0.403-0.749c0-0.346-0.142-0.604-0.425-0.777
                                            c-0.283-0.173-0.713-0.346-1.289-0.519c-0.509-0.144-0.924-0.29-1.246-0.438c-0.322-0.149-0.595-0.367-0.821-0.655
                                            s-0.338-0.662-0.338-1.123c0-0.711,0.259-1.243,0.778-1.599c0.518-0.354,1.166-0.532,1.943-0.532c0.461,0,0.915,0.064,1.361,0.194
                                            c0.446,0.129,0.833,0.305,1.159,0.525l-0.49,1.022C114.928,70.616,114.581,70.463,114.201,70.348z"
                                        />
                                        <path fill="#474B4D" d="M123.438,70.124c0.605,0.696,0.907,1.663,0.907,2.901c0,0.192-0.005,0.336-0.015,0.432h-6.018
                                            c0.105,0.682,0.391,1.225,0.856,1.627c0.466,0.403,1.039,0.605,1.721,0.605c0.451,0,0.871-0.082,1.26-0.245
                                            s0.727-0.394,1.015-0.691l0.734,0.764c-0.375,0.403-0.826,0.715-1.354,0.936s-1.114,0.331-1.756,0.331
                                            c-0.749,0-1.414-0.16-1.994-0.482c-0.581-0.321-1.032-0.774-1.354-1.36c-0.322-0.585-0.482-1.253-0.482-2.001
                                            c0-0.749,0.161-1.413,0.482-1.994c0.321-0.581,0.77-1.037,1.346-1.368c0.576-0.331,1.233-0.497,1.973-0.497
                                            C121.94,69.08,122.833,69.429,123.438,70.124z M123.135,72.421c-0.039-0.691-0.269-1.235-0.691-1.634
                                            c-0.423-0.398-0.979-0.598-1.67-0.598c-0.672,0-1.231,0.201-1.677,0.604s-0.713,0.945-0.799,1.627H123.135z"
                                        />
                                        <path fill="#474B4D" d="M132.911,69.124v6.839c0,0.729-0.16,1.367-0.482,1.915c-0.321,0.547-0.774,0.967-1.36,1.26
                                            c-0.585,0.293-1.267,0.438-2.044,0.438c-1.123,0-2.169-0.354-3.139-1.065l0.59-0.979c0.374,0.307,0.762,0.535,1.166,0.684
                                            s0.845,0.224,1.325,0.224c0.786,0,1.415-0.221,1.886-0.662c0.471-0.442,0.705-1.032,0.705-1.771V74.94
                                            c-0.269,0.461-0.633,0.818-1.094,1.072c-0.461,0.255-0.988,0.382-1.584,0.382c-0.682,0-1.284-0.155-1.807-0.468
                                            c-0.523-0.312-0.929-0.746-1.216-1.303c-0.288-0.557-0.432-1.195-0.432-1.915c0-0.71,0.144-1.339,0.432-1.887
                                            c0.288-0.547,0.693-0.974,1.216-1.281c0.522-0.307,1.125-0.461,1.807-0.461c0.604,0,1.135,0.125,1.591,0.375
                                            c0.456,0.249,0.818,0.604,1.087,1.065v-1.396H132.911z M130.391,74.983c0.365-0.221,0.65-0.525,0.856-0.914
                                            c0.207-0.389,0.31-0.828,0.31-1.317c0-0.499-0.103-0.943-0.31-1.332c-0.206-0.389-0.491-0.693-0.856-0.914
                                            c-0.364-0.221-0.782-0.331-1.252-0.331c-0.471,0-0.891,0.11-1.26,0.331c-0.37,0.221-0.66,0.525-0.871,0.914
                                            c-0.211,0.389-0.317,0.833-0.317,1.332c0.009,0.749,0.24,1.363,0.691,1.843c0.451,0.48,1.036,0.72,1.757,0.72
                                            C129.609,75.314,130.027,75.205,130.391,74.983z" />
                                        <path fill="#474B4D" d="M142.097,69.124v7.616h-1.354v-1.612c-0.499,1.085-1.44,1.636-2.822,1.655
                                            c-0.883,0-1.574-0.261-2.073-0.784s-0.749-1.246-0.749-2.167v-4.708h1.354v4.348c0,0.644,0.175,1.145,0.525,1.505
                                            s0.833,0.54,1.447,0.54c0.71-0.01,1.274-0.262,1.691-0.756c0.418-0.494,0.627-1.126,0.627-1.894v-3.743H142.097z"
                                        />
                                        <path fill="#474B4D" d="M151.038,69.865c0.509,0.523,0.763,1.245,0.763,2.167v4.708h-1.339v-4.349c0-0.643-0.18-1.145-0.54-1.504
                                            c-0.359-0.36-0.856-0.54-1.49-0.54c-0.682,0.01-1.235,0.228-1.663,0.655c-0.427,0.427-0.669,0.981-0.727,1.663v4.074h-1.339
                                            v-7.616h1.339v1.612c0.509-1.085,1.473-1.637,2.894-1.656C149.828,69.08,150.529,69.342,151.038,69.865z"
                                        />
                                        <path fill="#474B4D" d="M161.289,66.057V76.74h-1.339v-1.512c-0.288,0.509-0.675,0.899-1.159,1.174
                                            c-0.484,0.273-1.049,0.41-1.691,0.41c-0.72,0-1.356-0.166-1.908-0.497s-0.981-0.792-1.288-1.382
                                            c-0.308-0.591-0.461-1.265-0.461-2.023c0-0.748,0.153-1.413,0.461-1.994c0.307-0.58,0.736-1.034,1.288-1.36
                                            s1.184-0.489,1.894-0.489c0.652,0,1.224,0.134,1.714,0.403c0.489,0.269,0.873,0.657,1.151,1.166v-4.579H161.289z M158.705,75.314
                                            c0.389-0.23,0.693-0.552,0.914-0.964c0.221-0.413,0.331-0.879,0.331-1.397c0-0.527-0.11-0.998-0.331-1.41
                                            c-0.221-0.413-0.525-0.734-0.914-0.965s-0.833-0.346-1.332-0.346s-0.943,0.117-1.332,0.353s-0.693,0.56-0.914,0.972
                                            c-0.221,0.413-0.331,0.879-0.331,1.396c0,0.519,0.11,0.984,0.331,1.397c0.221,0.412,0.525,0.733,0.914,0.964
                                            s0.833,0.346,1.332,0.346S158.316,75.545,158.705,75.314z" />
                                        <path fill="#474B4D" d="M169.172,69.57c0.59,0.326,1.051,0.779,1.382,1.36s0.497,1.245,0.497,1.994s-0.166,1.416-0.497,2.001
                                            c-0.331,0.586-0.792,1.042-1.382,1.368c-0.591,0.326-1.265,0.489-2.023,0.489c-0.768,0-1.446-0.163-2.037-0.489
                                            c-0.59-0.326-1.051-0.78-1.382-1.36c-0.331-0.581-0.497-1.25-0.497-2.009c0-0.749,0.166-1.413,0.497-1.994s0.792-1.034,1.382-1.36
                                            c0.591-0.326,1.27-0.49,2.037-0.49C167.908,69.08,168.582,69.244,169.172,69.57z M165.817,70.593
                                            c-0.389,0.229-0.69,0.549-0.906,0.957c-0.217,0.408-0.324,0.871-0.324,1.39c0,0.527,0.107,0.998,0.324,1.411
                                            c0.216,0.412,0.518,0.731,0.906,0.957c0.39,0.226,0.833,0.338,1.332,0.338c0.49,0,0.929-0.112,1.317-0.338
                                            s0.691-0.545,0.907-0.957c0.216-0.413,0.324-0.884,0.324-1.411c0-0.519-0.108-0.981-0.324-1.39s-0.519-0.728-0.907-0.957
                                            c-0.389-0.23-0.827-0.346-1.317-0.346C166.65,70.247,166.207,70.362,165.817,70.593z"
                                        />
                                        <path fill="#474B4D" d="M181.885,69.57c0.59,0.326,1.051,0.779,1.382,1.36s0.497,1.245,0.497,1.994s-0.166,1.416-0.497,2.001
                                            c-0.331,0.586-0.792,1.042-1.382,1.368c-0.591,0.326-1.265,0.489-2.023,0.489c-0.768,0-1.446-0.163-2.037-0.489
                                            c-0.59-0.326-1.051-0.78-1.382-1.36c-0.331-0.581-0.497-1.25-0.497-2.009c0-0.749,0.166-1.413,0.497-1.994s0.792-1.034,1.382-1.36
                                            c0.591-0.326,1.27-0.49,2.037-0.49C180.621,69.08,181.294,69.244,181.885,69.57z M178.53,70.593
                                            c-0.389,0.229-0.69,0.549-0.906,0.957c-0.217,0.408-0.324,0.871-0.324,1.39c0,0.527,0.107,0.998,0.324,1.411
                                            c0.216,0.412,0.518,0.731,0.906,0.957c0.39,0.226,0.833,0.338,1.332,0.338c0.49,0,0.929-0.112,1.317-0.338
                                            s0.691-0.545,0.907-0.957c0.216-0.413,0.324-0.884,0.324-1.411c0-0.519-0.108-0.981-0.324-1.39s-0.519-0.728-0.907-0.957
                                            c-0.389-0.23-0.827-0.346-1.317-0.346C179.363,70.247,178.919,70.362,178.53,70.593z"
                                        />
                                        <path fill="#474B4D" d="M198.187,66.431c-0.628-0.341-1.238-0.511-1.831-0.511c-0.649,0-1.235,0.16-1.76,0.48
                                            s-0.938,0.764-1.242,1.33s-0.455,1.203-0.455,1.91c0,0.706,0.151,1.343,0.455,1.909c0.304,0.567,0.718,1.014,1.242,1.341
                                            c0.524,0.326,1.11,0.489,1.76,0.489c0.552,0,1.142-0.146,1.77-0.439s1.189-0.693,1.687-1.2l2.483,2.56
                                            c-0.786,0.827-1.735,1.487-2.846,1.98s-2.211,0.74-3.301,0.74c-1.449,0-2.757-0.316-3.923-0.95c-1.166-0.633-2.08-1.51-2.742-2.63
                                            s-0.993-2.373-0.993-3.76c0-1.36,0.338-2.591,1.014-3.69s1.607-1.963,2.795-2.59c1.187-0.627,2.518-0.94,3.994-0.94
                                            c1.09,0,2.18,0.228,3.271,0.681c1.09,0.453,2,1.06,2.731,1.819l-2.483,2.86C199.357,67.233,198.815,66.771,198.187,66.431z"
                                        />
                                        <path fill="#474B4D" d="M214.539,64.021c1.027,0.866,1.542,2.093,1.542,3.68c0,1.667-0.515,2.96-1.542,3.88
                                            c-1.028,0.92-2.48,1.38-4.357,1.38l-2.276,0.021v3.76h-4.306v-14.02h6.582C212.058,62.721,213.51,63.153,214.539,64.021z
                                            M211.475,69.26c0.352-0.333,0.527-0.813,0.527-1.439c0-0.613-0.176-1.083-0.527-1.41c-0.352-0.326-0.853-0.49-1.501-0.49h-2.069
                                            v3.84h2.069C210.623,69.76,211.124,69.594,211.475,69.26z" />
                                    </g>
                                </g>
                            </svg>