<svg class="svg-filtro" version="1.1" id="icg-crime-19" width="331.146px" height="105.174px" viewBox="0 0 331.146 105.174">
                                <g id="corpo">
                                    <path fill="#343738" d="M331.146,5.332c0,0-73.25-5.332-164.997-5.332S0,5.332,0,5.332 C110.047,17.481,221.098,17.481,331.146,5.332z"
                                    />
                                    <path fill="#474B4D" d="M0,5.332C9.742,36.111,19.485,66.89,29.228,97.669c90.622,10.006,182.069,10.006,272.69,0c9.742-30.779,19.485-61.558,29.229-92.337C221.098,17.481,110.047,17.481,0,5.332z"
                                    />
                                </g>
                                <g id="valor-num">
                                    <g>
                                        <path fill="#FFFFFF" d="M53.343,30.669h25.156v55.454H64.022V42.535H53.343V30.669z" />
                                        <path fill="#FFFFFF" d="M100.094,74.85c1.951,0.607,3.981,0.91,6.091,0.91c4.219,0,7.409-1.278,9.572-3.837c2.162-2.558,3.19-6.157,3.085-10.798c-2.796,4.009-7.094,6.012-12.895,6.012c-3.534,0-6.619-0.751-9.256-2.254c-2.638-1.503-4.681-3.612-6.13-6.329c-1.451-2.716-2.176-5.866-2.176-9.453c0-3.849,0.843-7.211,2.532-10.086c1.687-2.874,4.06-5.089,7.12-6.645c3.058-1.555,6.618-2.333,10.679-2.333c4.852,0,9.044,1.107,12.578,3.322
                    c3.533,2.215,6.25,5.379,8.148,9.493c1.898,4.113,2.848,8.992,2.848,14.635c0,5.854-1.042,10.996-3.125,15.426
                    c-2.084,4.43-5.023,7.845-8.82,10.245c-3.797,2.4-8.227,3.599-13.29,3.599c-3.059,0-6.17-0.423-9.334-1.266
                    c-3.165-0.843-5.907-1.951-8.228-3.323l5.3-9.967C96.376,73.361,98.143,74.245,100.094,74.85z M103.496,43.445
                    c-1.372,1.345-2.057,3.257-2.057,5.735c0,2.373,0.659,4.232,1.978,5.577c1.318,1.345,3.19,2.018,5.617,2.018
                    c2.637,0,4.68-0.725,6.131-2.176c1.45-1.45,2.175-3.334,2.175-5.656c0-2.162-0.686-3.956-2.057-5.379
                    c-1.372-1.424-3.375-2.136-6.012-2.136C106.791,41.428,104.867,42.1,103.496,43.445z" />
                                    </g>
                                </g>
                                <g id="txt">
                                    <g>
                                        <g>
                                            <path fill="#FFFFFF" d="M176.545,31.491v25.167h-5.189v-2.68c-0.656,0.95-1.471,1.668-2.441,2.154
                        c-0.973,0.487-2.081,0.729-3.324,0.729c-1.719,0-3.228-0.39-4.528-1.17c-1.3-0.78-2.306-1.882-3.019-3.307
                        c-0.712-1.425-1.068-3.064-1.068-4.918c0-1.832,0.35-3.448,1.051-4.85c0.701-1.402,1.696-2.487,2.985-3.256
                        c1.289-0.769,2.77-1.153,4.443-1.153c2.577,0,4.545,0.961,5.901,2.883v-9.599H176.545z M170.084,51.248
                        c0.848-0.938,1.271-2.154,1.271-3.646c0-1.493-0.424-2.708-1.271-3.646c-0.848-0.938-1.939-1.407-3.273-1.407
                        c-1.356,0-2.459,0.469-3.307,1.407c-0.848,0.938-1.283,2.154-1.306,3.646c0.022,1.492,0.458,2.708,1.306,3.646
                        c0.848,0.938,1.951,1.407,3.307,1.407C168.145,52.655,169.237,52.187,170.084,51.248z" />
                                            <path fill="#FFFFFF" d="M196.301,40.785c1.527,1.696,2.291,4.059,2.291,7.088c0,0.543-0.012,0.961-0.035,1.255h-13.092
                        c0.293,1.153,0.859,2.052,1.695,2.697c0.838,0.644,1.844,0.966,3.02,0.966c0.859,0,1.684-0.164,2.477-0.492
                        c0.791-0.328,1.502-0.808,2.137-1.441l2.746,2.781c-0.928,1.04-2.051,1.837-3.375,2.391c-1.322,0.554-2.797,0.831-4.426,0.831
                        c-1.922,0-3.602-0.384-5.037-1.153c-1.436-0.769-2.543-1.854-3.322-3.256c-0.781-1.402-1.172-3.019-1.172-4.85
                        c0-1.854,0.396-3.488,1.188-4.901c0.791-1.413,1.9-2.51,3.324-3.29c1.424-0.78,3.053-1.17,4.885-1.17
                        C192.543,38.241,194.776,39.088,196.301,40.785z M193.674,46.042c-0.047-1.198-0.43-2.159-1.154-2.883
                        c-0.723-0.724-1.684-1.085-2.883-1.085c-1.131,0-2.074,0.356-2.832,1.068c-0.758,0.712-1.238,1.679-1.441,2.9H193.674z"
                                            />
                                            <path fill="#FFFFFF" d="M202.186,31.491h5.223v25.167h-5.223V31.491z" />
                                            <path fill="#FFFFFF" d="M217.262,31.118c0.531,0.542,0.797,1.244,0.797,2.103c0,0.86-0.266,1.561-0.797,2.103
                        c-0.531,0.543-1.217,0.814-2.053,0.814c-0.814,0-1.486-0.276-2.018-0.831c-0.531-0.554-0.797-1.249-0.797-2.086
                        c0-0.859,0.266-1.56,0.797-2.103c0.531-0.543,1.203-0.814,2.018-0.814C216.045,30.304,216.731,30.575,217.262,31.118z
                        M212.631,38.41h5.225v18.248h-5.225V38.41z" />
                                            <path fill="#FFFFFF" d="M234.17,55.64c-0.68,0.407-1.432,0.718-2.256,0.933c-0.826,0.215-1.656,0.322-2.494,0.322
                        c-1.695,0-3.074-0.486-4.137-1.458c-1.064-0.972-1.594-2.362-1.594-4.172v-8.445h-2.545v-3.595h2.545v-5.02h5.189v5.02h4.951
                        v3.629h-4.951v7.529c0,1.402,0.553,2.103,1.66,2.103c0.77,0,1.617-0.226,2.545-0.678L234.17,55.64z"
                                            />
                                            <path fill="#FFFFFF" d="M250.534,39.394c1.48,0.769,2.629,1.854,3.443,3.256c0.814,1.402,1.221,3.03,1.221,4.884
                        c0,1.832-0.406,3.454-1.221,4.867c-0.814,1.414-1.963,2.51-3.443,3.29c-1.48,0.78-3.182,1.17-5.104,1.17
                        c-1.945,0-3.658-0.39-5.139-1.17c-1.482-0.78-2.629-1.876-3.443-3.29c-0.814-1.413-1.221-3.035-1.221-4.867
                        c0-1.854,0.406-3.482,1.221-4.884c0.814-1.402,1.961-2.487,3.443-3.256c1.48-0.769,3.193-1.153,5.139-1.153
                        C247.352,38.241,249.053,38.625,250.534,39.394z M242.122,43.973c-0.848,0.927-1.271,2.137-1.271,3.629
                        c0,1.492,0.424,2.702,1.271,3.629c0.85,0.927,1.951,1.391,3.309,1.391c1.334,0,2.424-0.463,3.271-1.391
                        c0.85-0.927,1.273-2.137,1.273-3.629c0-1.493-0.424-2.702-1.273-3.629c-0.848-0.927-1.938-1.391-3.271-1.391
                        C244.073,42.582,242.971,43.046,242.122,43.973z" />
                                            <path fill="#FFFFFF" d="M267.204,42.463c-0.971-0.305-1.842-0.458-2.611-0.458c-0.633,0-1.141,0.114-1.525,0.339
                        c-0.385,0.226-0.576,0.565-0.576,1.018c0,0.498,0.26,0.882,0.779,1.153c0.52,0.271,1.367,0.577,2.543,0.916
                        c1.289,0.385,2.352,0.763,3.189,1.136c0.836,0.373,1.561,0.927,2.17,1.662c0.611,0.735,0.916,1.702,0.916,2.9
                        c0,1.809-0.695,3.217-2.086,4.223c-1.391,1.006-3.172,1.509-5.342,1.509c-1.492,0-2.928-0.221-4.307-0.662
                        c-1.381-0.441-2.578-1.068-3.596-1.882l1.695-3.527c0.928,0.724,1.961,1.284,3.104,1.679c1.143,0.396,2.223,0.594,3.238,0.594
                        c0.701,0,1.262-0.119,1.68-0.356c0.418-0.238,0.627-0.594,0.627-1.068c0-0.52-0.266-0.927-0.797-1.221
                        c-0.531-0.293-1.385-0.61-2.561-0.95c-1.244-0.361-2.277-0.724-3.104-1.085c-0.826-0.361-1.531-0.91-2.119-1.645
                        c-0.588-0.734-0.883-1.69-0.883-2.866c0-1.809,0.68-3.21,2.035-4.206c1.357-0.995,3.076-1.492,5.156-1.492
                        c1.242,0,2.486,0.175,3.73,0.526s2.375,0.854,3.393,1.509l-1.799,3.561C269.161,43.204,268.176,42.769,267.204,42.463z"
                                            />
                                        </g>
                                    </g>
                                    <g>
                                        <g>
                                            <path fill="#FFFFFF" d="M162.63,66.694c-0.468,0.429-0.702,1.042-0.702,1.841v2.016h4.267v2.075h-4.267v12.858h-2.717V72.626
                        h-2.017v-2.075h2.017v-1.666c0-1.13,0.238-2.089,0.716-2.878c0.477-0.789,1.105-1.383,1.885-1.783
                        c0.779-0.399,1.617-0.599,2.513-0.599c0.857,0,1.754,0.234,2.688,0.701l-0.644,2.221c-0.701-0.331-1.363-0.497-1.986-0.497
                        C163.682,66.051,163.097,66.266,162.63,66.694z M171.236,64.356c0.321,0.332,0.482,0.75,0.482,1.257
                        c0,0.507-0.161,0.925-0.482,1.256c-0.321,0.332-0.726,0.497-1.212,0.497c-0.488,0-0.893-0.166-1.213-0.497
                        c-0.322-0.331-0.482-0.75-0.482-1.256c0-0.506,0.16-0.925,0.482-1.257c0.32-0.331,0.725-0.497,1.213-0.497
                        C170.51,63.859,170.915,64.025,171.236,64.356z M168.679,70.025h2.718v15.459h-2.718V70.025z" />
                                            <path fill="#FFFFFF" d="M176.833,63.801h2.717v21.684h-2.717V63.801z" />
                                            <path fill="#FFFFFF" d="M193.313,84.461c-1.188,0.76-2.396,1.14-3.623,1.14c-1.229,0-2.221-0.365-2.98-1.096
                        s-1.141-1.836-1.141-3.317v-8.563h-2.191v-2.075h2.191v-4.149h2.748v4.149h4.732v2.075h-4.732v8.066
                        c0,0.857,0.154,1.471,0.467,1.841c0.311,0.371,0.779,0.555,1.402,0.555c0.74,0,1.539-0.243,2.396-0.73L193.313,84.461z"
                                            />
                                            <path fill="#FFFFFF" d="M201.497,70.829c0.934-0.575,2.045-0.872,3.33-0.892v2.63c-1.578-0.059-2.854,0.351-3.828,1.227
                        c-0.975,0.877-1.529,2.056-1.666,3.536v8.153h-2.717V70.025h2.717v3.332C199.84,72.246,200.561,71.404,201.497,70.829z"
                                            />
                                            <path fill="#FFFFFF" d="M216.545,85.484v-2.163c-1.15,1.52-2.951,2.279-5.406,2.279c-1.072,0-2.012-0.205-2.82-0.613
                        c-0.809-0.409-1.432-0.974-1.869-1.695c-0.439-0.72-0.658-1.529-0.658-2.425c0-1.383,0.512-2.479,1.535-3.288
                        c1.021-0.808,2.449-1.222,4.279-1.242h4.91v-0.73c0-1.091-0.336-1.933-1.008-2.528c-0.672-0.594-1.65-0.891-2.938-0.891
                        c-1.559,0-3.146,0.555-4.764,1.666l-1.139-1.87c1.109-0.721,2.137-1.242,3.082-1.563s2.07-0.482,3.377-0.482
                        c1.928,0,3.418,0.473,4.471,1.417c1.051,0.945,1.588,2.265,1.607,3.96l0.029,10.169H216.545z M214.924,82.431
                        c0.885-0.614,1.416-1.427,1.592-2.44v-1.549h-4.529c-1.227,0-2.139,0.186-2.732,0.556s-0.891,0.955-0.891,1.753
                        c0,0.799,0.301,1.432,0.906,1.9c0.604,0.467,1.412,0.701,2.424,0.701C212.961,83.351,214.038,83.044,214.924,82.431z"
                                            />
                                            <path fill="#FFFFFF" d="M238.493,63.801v21.684h-2.719v-3.068c-0.584,1.033-1.369,1.826-2.352,2.382
                        c-0.984,0.555-2.129,0.833-3.434,0.833c-1.461,0-2.752-0.336-3.873-1.008c-1.121-0.672-1.992-1.607-2.615-2.805
                        s-0.936-2.566-0.936-4.106c0-1.52,0.313-2.868,0.936-4.047c0.623-1.178,1.494-2.099,2.615-2.762
                        c1.121-0.662,2.4-0.993,3.844-0.993c1.324,0,2.484,0.273,3.477,0.818c0.994,0.546,1.773,1.335,2.338,2.367v-9.293H238.493z
                        M233.247,82.591c0.789-0.468,1.406-1.12,1.855-1.958c0.447-0.837,0.672-1.783,0.672-2.834c0-1.071-0.225-2.026-0.672-2.864
                        c-0.449-0.837-1.066-1.491-1.855-1.958c-0.789-0.468-1.691-0.702-2.703-0.702c-1.014,0-1.914,0.239-2.703,0.716
                        s-1.408,1.135-1.855,1.972c-0.449,0.838-0.672,1.783-0.672,2.835c0,1.052,0.223,1.997,0.672,2.834
                        c0.447,0.838,1.066,1.49,1.855,1.958s1.689,0.701,2.703,0.701C231.555,83.292,232.458,83.059,233.247,82.591z"
                                            />
                                            <path fill="#FFFFFF" d="M254.491,70.931c1.199,0.663,2.133,1.583,2.807,2.762c0.672,1.179,1.008,2.528,1.008,4.047
                        s-0.336,2.874-1.008,4.062c-0.674,1.188-1.607,2.114-2.807,2.776c-1.197,0.663-2.566,0.994-4.105,0.994
                        c-1.559,0-2.938-0.331-4.135-0.994c-1.199-0.662-2.133-1.583-2.807-2.762c-0.672-1.179-1.008-2.538-1.008-4.077
                        c0-1.52,0.336-2.868,1.008-4.047c0.674-1.179,1.607-2.099,2.807-2.762c1.197-0.662,2.576-0.994,4.135-0.994
                        C251.924,69.938,253.293,70.269,254.491,70.931z M247.682,73.006c-0.789,0.467-1.402,1.115-1.842,1.943
                        c-0.438,0.829-0.656,1.768-0.656,2.82c0,1.072,0.219,2.026,0.656,2.864c0.439,0.838,1.053,1.486,1.842,1.943
                        c0.789,0.458,1.689,0.687,2.703,0.687c0.994,0,1.885-0.229,2.674-0.687c0.789-0.458,1.402-1.105,1.842-1.943
                        c0.438-0.837,0.656-1.792,0.656-2.864c0-1.052-0.219-1.992-0.656-2.82c-0.439-0.828-1.053-1.476-1.842-1.943
                        c-0.789-0.468-1.68-0.702-2.674-0.702C249.372,72.305,248.471,72.539,247.682,73.006z" />
                                            <path fill="#FFFFFF" d="M268.43,72.509c-0.77-0.234-1.504-0.351-2.207-0.351c-0.816,0-1.475,0.151-1.971,0.453
                        c-0.498,0.302-0.746,0.765-0.746,1.388c0,0.624,0.277,1.096,0.832,1.417c0.557,0.321,1.398,0.648,2.529,0.979
                        c1.07,0.312,1.947,0.624,2.629,0.935c0.682,0.312,1.262,0.77,1.74,1.374c0.477,0.604,0.715,1.403,0.715,2.396
                        c0,1.461-0.551,2.571-1.65,3.331c-1.102,0.76-2.471,1.14-4.105,1.14c-1.15,0-2.266-0.185-3.348-0.556
                        c-1.08-0.37-1.992-0.896-2.732-1.578l1.023-1.987c0.643,0.584,1.438,1.052,2.381,1.403c0.945,0.351,1.865,0.526,2.762,0.526
                        s1.617-0.166,2.164-0.497c0.545-0.331,0.818-0.837,0.818-1.52c0-0.701-0.289-1.227-0.863-1.578
                        c-0.574-0.351-1.445-0.701-2.615-1.052c-1.033-0.292-1.875-0.589-2.527-0.891s-1.209-0.746-1.666-1.33
                        c-0.459-0.584-0.688-1.344-0.688-2.279c0-1.441,0.527-2.522,1.578-3.244c1.053-0.721,2.367-1.081,3.945-1.081
                        c0.936,0,1.855,0.131,2.762,0.395c0.906,0.263,1.689,0.619,2.354,1.066l-0.994,2.075C269.907,73.055,269.2,72.743,268.43,72.509z
                        " />
                                        </g>
                                    </g>
                                </g>
                            </svg>