 <svg class="svg-filtro" version="1.1" id="icg-crime-50" width="438.1px" height="121.4px" viewBox="0 0 438.1 121.4" enable-background="new 0 0 438.1 121.4">
                                <g id="corpo">
                                    <path fill="#CC445C" d="M221.3,22.3C100.3,22.3,0,5,0,5c12.2,35.5,24.4,70.9,36.6,106.4c121.3,13.4,243.6,13.4,364.9,0
                                        C413.7,75.9,425.9,40.5,438.1,5C435.1,5.5,340.3,22.3,221.3,22.3z" />
                                    <path fill="#A53A52" d="M438.1,5C438.1,5,438.1,5,438.1,5c0.1,0-95.8-5-216.8-5S0,5,0,5s100.3,17.3,221.3,17.3
                                        C340.3,22.3,435.1,5.5,438.1,5z" />
                                </g>
                                <g id="valor-num">
                                    <path fill="#FFFFFF" d="M130.2,64c4.1,1.8,7.3,4.3,9.6,7.5c2.2,3.2,3.4,6.9,3.4,11.1c0,4.9-1.2,9.2-3.5,12.9
                                        c-2.3,3.7-5.7,6.5-10.1,8.5c-4.4,2-9.4,3-15.2,3c-4.7,0-9.5-0.8-14.5-2.4c-5-1.6-9.4-3.7-13.3-6.3L93.4,85c6.5,5.2,12.8,7.8,19,7.8
                                        c3.5,0,6.2-0.8,8.1-2.4c1.9-1.6,2.9-3.7,2.9-6.5c0-2.7-1-4.8-2.9-6.3c-1.9-1.4-4.8-2.2-8.6-2.2c-8.9,0-15.4,0.1-19.3,0.4V35.7H140
                                        v14.8h-30.5v10.8h6.3C121.3,61.3,126.1,62.2,130.2,64z" />
                                    <path fill="#FFFFFF" d="M205.1,44.4c5.4,6.2,8.1,15,8.1,26.5c0,11.5-2.7,20.4-8.1,26.6c-5.4,6.2-13.1,9.3-23.1,9.3
                                        c-10.1,0-17.9-3.1-23.3-9.3c-5.4-6.2-8.1-15.1-8.1-26.6c0-11.5,2.7-20.4,8.1-26.5c5.4-6.2,13.2-9.3,23.3-9.3
                                        C192,35.1,199.7,38.2,205.1,44.4z M172.5,54c-1.9,3.5-2.9,9.1-2.9,16.9c0,7.9,1,13.6,2.9,17c1.9,3.5,5.1,5.2,9.6,5.2
                                        c4.3,0,7.4-1.7,9.4-5.2c2-3.5,3-9.1,3-17c0-7.8-1-13.5-3-16.9c-2-3.5-5.1-5.2-9.4-5.2C177.6,48.8,174.4,50.5,172.5,54z"
                                    />
                                </g>
                                <g id="txt">
                                    <g>
                                        <path fill="#FFFFFF" d="M224.1,39.4l4.6,0l3.7,11.3l3.6-11.3h4.4l-5.9,15.5H230L224.1,39.4z" />
                                        <path fill="#FFFFFF" d="M251,54.9v-1.8c-0.5,0.7-1.2,1.2-2,1.5c-0.8,0.3-1.8,0.5-2.9,0.5c-1.6,0-2.9-0.4-3.9-1.3
                                            c-1-0.9-1.4-2.1-1.4-3.5c0-1.5,0.5-2.6,1.5-3.4c1-0.8,2.5-1.2,4.4-1.3h4.3v-0.3c0-0.8-0.3-1.5-0.8-1.9c-0.5-0.5-1.4-0.7-2.4-0.7
                                            c-1.4,0-3,0.5-4.6,1.4l-1.4-3.1c1.2-0.6,2.4-1.1,3.5-1.4c1.1-0.3,2.3-0.4,3.5-0.4c2.1,0,3.7,0.5,4.8,1.5c1.1,1,1.7,2.3,1.7,4.1
                                            l0,10.1H251z M249.7,51.2c0.7-0.4,1.1-1,1.2-1.7v-1.4h-3.5c-0.9,0-1.5,0.1-1.9,0.4c-0.4,0.3-0.6,0.7-0.6,1.3
                                            c0,0.6,0.2,1.1,0.6,1.4c0.4,0.4,1,0.5,1.8,0.5C248.2,51.9,249,51.7,249.7,51.2z"
                                        />
                                        <path fill="#FFFFFF" d="M265.7,40c0.9-0.5,1.9-0.8,3-0.8v4.2c-0.2,0-0.4,0-0.7,0c-1.4,0-2.4,0.4-3.2,1.1s-1.2,1.7-1.2,3v7.5h-4.4
                                            V39.4h4.4v2.8C264.1,41.2,264.8,40.5,265.7,40z" />
                                        <path fill="#FFFFFF" d="M275.1,33.1c0.5,0.5,0.7,1.1,0.7,1.8c0,0.7-0.2,1.3-0.7,1.8c-0.5,0.5-1,0.7-1.7,0.7
                                            c-0.7,0-1.3-0.2-1.7-0.7c-0.5-0.5-0.7-1.1-0.7-1.8c0-0.7,0.2-1.3,0.7-1.8c0.5-0.5,1-0.7,1.7-0.7C274.1,32.5,274.6,32.7,275.1,33.1
                                            z M271.2,39.4h4.4v15.5h-4.4V39.4z" />
                                        <path fill="#FFFFFF" d="M288.9,54.9v-1.8c-0.5,0.7-1.2,1.2-2,1.5c-0.8,0.3-1.8,0.5-2.9,0.5c-1.6,0-2.9-0.4-3.9-1.3
                                            c-1-0.9-1.4-2.1-1.4-3.5c0-1.5,0.5-2.6,1.5-3.4c1-0.8,2.5-1.2,4.4-1.3h4.3v-0.3c0-0.8-0.3-1.5-0.8-1.9c-0.5-0.5-1.4-0.7-2.4-0.7
                                            c-1.4,0-3,0.5-4.6,1.4l-1.4-3.1c1.2-0.6,2.4-1.1,3.5-1.4c1.1-0.3,2.3-0.4,3.5-0.4c2.1,0,3.7,0.5,4.8,1.5c1.1,1,1.7,2.3,1.7,4.1
                                            l0,10.1H288.9z M287.6,51.2c0.7-0.4,1.1-1,1.2-1.7v-1.4h-3.5c-0.9,0-1.5,0.1-1.9,0.4c-0.4,0.3-0.6,0.7-0.6,1.3
                                            c0,0.6,0.2,1.1,0.6,1.4c0.4,0.4,1,0.5,1.8,0.5C286.2,51.9,287,51.7,287.6,51.2z M287.3,32.8l3.9,1.5l-3.9,3.2l-3.2-0.3L287.3,32.8
                                            z" />
                                        <path fill="#FFFFFF" d="M294.6,39.4l4.6,0l3.7,11.3l3.6-11.3h4.4L305,54.9h-4.6L294.6,39.4z" />
                                        <path fill="#FFFFFF" d="M324.7,41.4c1.3,1.4,1.9,3.5,1.9,6c0,0.5,0,0.8,0,1.1h-11.1c0.3,1,0.7,1.7,1.4,2.3
                                            c0.7,0.5,1.6,0.8,2.6,0.8c0.7,0,1.4-0.1,2.1-0.4c0.7-0.3,1.3-0.7,1.8-1.2l2.3,2.4c-0.8,0.9-1.7,1.6-2.9,2
                                            c-1.1,0.5-2.4,0.7-3.8,0.7c-1.6,0-3.1-0.3-4.3-1c-1.2-0.7-2.2-1.6-2.8-2.8c-0.7-1.2-1-2.6-1-4.1c0-1.6,0.3-3,1-4.2
                                            c0.7-1.2,1.6-2.1,2.8-2.8c1.2-0.7,2.6-1,4.2-1C321.5,39.2,323.4,39.9,324.7,41.4z M322.4,45.8c0-1-0.4-1.8-1-2.5
                                            c-0.6-0.6-1.4-0.9-2.5-0.9c-1,0-1.8,0.3-2.4,0.9c-0.6,0.6-1.1,1.4-1.2,2.5H322.4z"
                                        />
                                        <path fill="#FFFFFF" d="M333.5,33.1c0.5,0.5,0.7,1.1,0.7,1.8c0,0.7-0.2,1.3-0.7,1.8c-0.5,0.5-1,0.7-1.7,0.7
                                            c-0.7,0-1.3-0.2-1.7-0.7c-0.5-0.5-0.7-1.1-0.7-1.8c0-0.7,0.2-1.3,0.7-1.8c0.5-0.5,1-0.7,1.7-0.7C332.4,32.5,333,32.7,333.5,33.1z
                                            M329.5,39.4h4.4v15.5h-4.4V39.4z" />
                                        <path fill="#FFFFFF" d="M345.5,42.8c-0.8-0.3-1.6-0.4-2.2-0.4c-0.5,0-1,0.1-1.3,0.3s-0.5,0.5-0.5,0.9c0,0.4,0.2,0.8,0.7,1
                                            c0.4,0.2,1.2,0.5,2.2,0.8c1.1,0.3,2,0.6,2.7,1s1.3,0.8,1.8,1.4s0.8,1.4,0.8,2.5c0,1.5-0.6,2.7-1.8,3.6c-1.2,0.9-2.7,1.3-4.5,1.3
                                            c-1.3,0-2.5-0.2-3.7-0.6s-2.2-0.9-3.1-1.6l1.4-3c0.8,0.6,1.7,1.1,2.6,1.4c1,0.3,1.9,0.5,2.8,0.5c0.6,0,1.1-0.1,1.4-0.3
                                            c0.4-0.2,0.5-0.5,0.5-0.9c0-0.4-0.2-0.8-0.7-1c-0.5-0.2-1.2-0.5-2.2-0.8c-1.1-0.3-1.9-0.6-2.6-0.9s-1.3-0.8-1.8-1.4
                                            c-0.5-0.6-0.8-1.4-0.8-2.4c0-1.5,0.6-2.7,1.7-3.6s2.6-1.3,4.4-1.3c1.1,0,2.1,0.1,3.2,0.4c1.1,0.3,2,0.7,2.9,1.3l-1.5,3
                                            C347.2,43.4,346.4,43.1,345.5,42.8z" />
                                    </g>
                                    <g>
                                        <path fill="#FFFFFF" d="M238,60.3v16.9h-3.5v-1.8c-0.4,0.6-1,1.1-1.6,1.4c-0.7,0.3-1.4,0.5-2.2,0.5c-1.2,0-2.2-0.3-3-0.8
                                            c-0.9-0.5-1.6-1.3-2-2.2c-0.5-1-0.7-2.1-0.7-3.3c0-1.2,0.2-2.3,0.7-3.3c0.5-0.9,1.1-1.7,2-2.2c0.9-0.5,1.9-0.8,3-0.8
                                            c1.7,0,3.1,0.6,4,1.9v-6.5H238z M233.6,73.6c0.6-0.6,0.9-1.4,0.9-2.5s-0.3-1.8-0.9-2.5c-0.6-0.6-1.3-0.9-2.2-0.9
                                            c-0.9,0-1.7,0.3-2.2,0.9c-0.6,0.6-0.9,1.4-0.9,2.5c0,1,0.3,1.8,0.9,2.5c0.6,0.6,1.3,0.9,2.2,0.9C232.3,74.5,233.1,74.2,233.6,73.6
                                            z" />
                                        <path fill="#FFFFFF" d="M244.6,60.1c0.4,0.4,0.5,0.8,0.5,1.4c0,0.6-0.2,1-0.5,1.4c-0.4,0.4-0.8,0.5-1.4,0.5c-0.5,0-1-0.2-1.4-0.6
                                            c-0.4-0.4-0.5-0.8-0.5-1.4c0-0.6,0.2-1,0.5-1.4c0.4-0.4,0.8-0.5,1.4-0.5C243.8,59.5,244.3,59.7,244.6,60.1z M241.5,65h3.5v12.3
                                            h-3.5V65z" />
                                        <path fill="#FFFFFF" d="M246.6,65l3.6,0l2.9,8.9L256,65h3.5l-4.6,12.3h-3.6L246.6,65z" />
                                        <path fill="#FFFFFF" d="M272.7,65v12.3h-3.5v-2.2c-0.8,1.5-2.2,2.3-4.1,2.3c-1.4,0-2.4-0.4-3.2-1.3s-1.2-2-1.2-3.4V65h3.5v6.7
                                            c0,0.8,0.2,1.4,0.6,1.8s1,0.7,1.7,0.7c0.8,0,1.5-0.3,2-0.9s0.7-1.3,0.7-2.2V65H272.7z"
                                        />
                                        <path fill="#FFFFFF" d="M276.2,60.3h3.5v16.9h-3.5V60.3z" />
                                        <path fill="#FFFFFF" d="M294.7,65v11.1c0,1.2-0.3,2.2-0.8,3c-0.5,0.9-1.3,1.5-2.3,2c-1,0.5-2.1,0.7-3.4,0.7c-1,0-2-0.1-2.9-0.4
                                            s-1.7-0.7-2.5-1.2l1.3-2.5c1.2,0.8,2.4,1.2,3.8,1.2c1,0,1.8-0.2,2.4-0.7c0.6-0.5,0.9-1.2,0.9-2v-1.4c-0.4,0.6-0.9,1-1.6,1.3
                                            c-0.6,0.3-1.3,0.5-2.1,0.5c-1,0-2-0.2-2.8-0.7c-0.8-0.5-1.4-1.2-1.9-2.1c-0.4-0.9-0.7-1.9-0.7-3.1c0-1.2,0.2-2.2,0.7-3
                                            s1.1-1.6,1.9-2c0.8-0.5,1.7-0.7,2.8-0.7c0.8,0,1.5,0.2,2.1,0.5s1.1,0.7,1.6,1.3V65H294.7z M290.4,73c0.5-0.6,0.8-1.3,0.8-2.3
                                            c0-0.9-0.3-1.7-0.8-2.3c-0.5-0.6-1.2-0.9-2.1-0.9c-0.9,0-1.5,0.3-2.1,0.9s-0.8,1.4-0.8,2.3c0,0.9,0.3,1.7,0.8,2.3
                                            c0.5,0.6,1.2,0.9,2.1,0.9C289.2,73.9,289.9,73.6,290.4,73z" />
                                        <path fill="#FFFFFF" d="M305,77.2v-1.4c-0.4,0.5-0.9,0.9-1.6,1.2c-0.7,0.3-1.4,0.4-2.3,0.4c-1.3,0-2.3-0.4-3.1-1.1
                                            s-1.1-1.6-1.1-2.8c0-1.2,0.4-2.1,1.2-2.7c0.8-0.6,2-1,3.5-1h3.4v-0.2c0-0.7-0.2-1.2-0.6-1.5c-0.4-0.4-1.1-0.5-1.9-0.5
                                            c-1.1,0-2.4,0.4-3.6,1.1l-1.1-2.4c1-0.5,1.9-0.8,2.7-1.1c0.9-0.2,1.8-0.3,2.8-0.3c1.6,0,2.9,0.4,3.8,1.2c0.9,0.8,1.4,1.9,1.4,3.2
                                            l0,8H305z M304.1,74.4c0.5-0.3,0.9-0.8,1-1.3v-1.1h-2.8c-0.7,0-1.2,0.1-1.5,0.3s-0.5,0.6-0.5,1.1c0,0.5,0.2,0.8,0.5,1.1
                                            c0.3,0.3,0.8,0.4,1.4,0.4C302.9,74.9,303.5,74.7,304.1,74.4z" />
                                        <path fill="#FFFFFF" d="M323.6,60.3v16.9h-3.5v-1.8c-0.4,0.6-1,1.1-1.6,1.4c-0.7,0.3-1.4,0.5-2.2,0.5c-1.2,0-2.2-0.3-3-0.8
                                            c-0.9-0.5-1.5-1.3-2-2.2c-0.5-1-0.7-2.1-0.7-3.3c0-1.2,0.2-2.3,0.7-3.3c0.5-0.9,1.1-1.7,2-2.2c0.9-0.5,1.9-0.8,3-0.8
                                            c1.7,0,3.1,0.6,4,1.9v-6.5H323.6z M319.3,73.6c0.6-0.6,0.9-1.4,0.9-2.5s-0.3-1.8-0.9-2.5c-0.6-0.6-1.3-0.9-2.2-0.9
                                            c-0.9,0-1.7,0.3-2.2,0.9c-0.6,0.6-0.9,1.4-0.9,2.5c0,1,0.3,1.8,0.9,2.5c0.6,0.6,1.3,0.9,2.2,0.9C318,74.5,318.7,74.2,319.3,73.6z"
                                        />
                                        <path fill="#FFFFFF" d="M334.3,77.2v-1.4c-0.4,0.5-0.9,0.9-1.6,1.2c-0.7,0.3-1.4,0.4-2.3,0.4c-1.3,0-2.3-0.4-3.1-1.1
                                            s-1.1-1.6-1.1-2.8c0-1.2,0.4-2.1,1.2-2.7c0.8-0.6,2-1,3.5-1h3.4v-0.2c0-0.7-0.2-1.2-0.6-1.5c-0.4-0.4-1.1-0.5-1.9-0.5
                                            c-1.1,0-2.4,0.4-3.6,1.1l-1.1-2.4c1-0.5,1.9-0.8,2.7-1.1c0.9-0.2,1.8-0.3,2.8-0.3c1.6,0,2.9,0.4,3.8,1.2c0.9,0.8,1.4,1.9,1.4,3.2
                                            l0,8H334.3z M333.3,74.4c0.5-0.3,0.9-0.8,1-1.3v-1.1h-2.8c-0.7,0-1.2,0.1-1.5,0.3s-0.5,0.6-0.5,1.1c0,0.5,0.2,0.8,0.5,1.1
                                            c0.3,0.3,0.8,0.4,1.4,0.4C332.1,74.9,332.7,74.7,333.3,74.4z" />
                                        <path fill="#FFFFFF" d="M346.5,67.7c-0.7-0.2-1.2-0.3-1.8-0.3c-0.4,0-0.8,0.1-1,0.2c-0.3,0.2-0.4,0.4-0.4,0.7
                                            c0,0.3,0.2,0.6,0.5,0.8c0.3,0.2,0.9,0.4,1.7,0.6c0.9,0.3,1.6,0.5,2.1,0.8c0.6,0.3,1,0.6,1.5,1.1s0.6,1.1,0.6,1.9
                                            c0,1.2-0.5,2.2-1.4,2.8s-2.1,1-3.6,1c-1,0-2-0.1-2.9-0.4c-0.9-0.3-1.7-0.7-2.4-1.3l1.1-2.4c0.6,0.5,1.3,0.9,2.1,1.1
                                            c0.8,0.3,1.5,0.4,2.2,0.4c0.5,0,0.8-0.1,1.1-0.2s0.4-0.4,0.4-0.7c0-0.3-0.2-0.6-0.5-0.8c-0.4-0.2-0.9-0.4-1.7-0.6
                                            c-0.8-0.2-1.5-0.5-2.1-0.7s-1-0.6-1.4-1.1c-0.4-0.5-0.6-1.1-0.6-1.9c0-1.2,0.5-2.2,1.4-2.8c0.9-0.7,2.1-1,3.5-1
                                            c0.8,0,1.7,0.1,2.5,0.4c0.8,0.2,1.6,0.6,2.3,1l-1.2,2.4C347.8,68.2,347.1,67.9,346.5,67.7z"
                                        />
                                    </g>
                                    <g>
                                        <path fill="#FFFFFF" d="M239.8,90.9c1.1,0.7,2,1.7,2.7,2.9c0.6,1.3,0.9,2.7,0.9,4.4c0,1.6-0.3,3-0.9,4.3s-1.5,2.2-2.6,2.9
                                            c-1.1,0.7-2.4,1-3.9,1c-1.1,0-2.1-0.2-3-0.6s-1.6-1.1-2.2-1.9v8.2h-4.6v-22h4.6v2.4c0.6-0.8,1.3-1.4,2.2-1.9
                                            c0.9-0.4,1.8-0.6,2.9-0.6C237.4,89.9,238.7,90.3,239.8,90.9z M237.7,101.3c0.7-0.8,1.1-1.9,1.1-3.2c0-1.3-0.4-2.4-1.1-3.2
                                            c-0.7-0.8-1.7-1.2-2.9-1.2s-2.1,0.4-2.9,1.2c-0.8,0.8-1.1,1.9-1.1,3.2c0,1.3,0.4,2.4,1.1,3.2c0.8,0.8,1.7,1.2,2.9,1.2
                                            S236.9,102.1,237.7,101.3z" />
                                        <path fill="#FFFFFF" d="M259.4,92.2c1.3,1.5,2,3.6,2,6.3c0,0.5,0,0.9,0,1.1h-11.6c0.3,1,0.8,1.8,1.5,2.4c0.7,0.6,1.6,0.9,2.7,0.9
                                            c0.8,0,1.5-0.1,2.2-0.4c0.7-0.3,1.3-0.7,1.9-1.3l2.4,2.5c-0.8,0.9-1.8,1.6-3,2.1c-1.2,0.5-2.5,0.7-3.9,0.7c-1.7,0-3.2-0.3-4.5-1
                                            c-1.3-0.7-2.3-1.6-2.9-2.9c-0.7-1.2-1-2.7-1-4.3c0-1.6,0.3-3.1,1-4.3c0.7-1.2,1.7-2.2,2.9-2.9s2.7-1,4.3-1
                                            C256,89.9,258,90.7,259.4,92.2z M257,96.8c0-1.1-0.4-1.9-1-2.5c-0.6-0.6-1.5-1-2.6-1c-1,0-1.8,0.3-2.5,0.9s-1.1,1.5-1.3,2.6H257z"
                                        />
                                        <path fill="#FFFFFF" d="M264.6,83.9h4.6v22.3h-4.6V83.9z" />
                                        <path fill="#FFFFFF" d="M285.6,90.9c1.3,0.7,2.3,1.6,3,2.9c0.7,1.2,1.1,2.7,1.1,4.3c0,1.6-0.4,3.1-1.1,4.3c-0.7,1.3-1.7,2.2-3,2.9
                                            c-1.3,0.7-2.8,1-4.5,1c-1.7,0-3.2-0.3-4.5-1s-2.3-1.7-3-2.9c-0.7-1.2-1.1-2.7-1.1-4.3c0-1.6,0.4-3.1,1.1-4.3
                                            c0.7-1.2,1.7-2.2,3-2.9c1.3-0.7,2.8-1,4.5-1C282.8,89.9,284.3,90.3,285.6,90.9z M278.2,95c-0.8,0.8-1.1,1.9-1.1,3.2
                                            c0,1.3,0.4,2.4,1.1,3.2c0.8,0.8,1.7,1.2,2.9,1.2c1.2,0,2.1-0.4,2.9-1.2c0.8-0.8,1.1-1.9,1.1-3.2c0-1.3-0.4-2.4-1.1-3.2
                                            c-0.8-0.8-1.7-1.2-2.9-1.2C279.9,93.8,278.9,94.2,278.2,95z" />
                                        <path fill="#FFFFFF" d="M300.6,84.4h7.2v21.8h-7.2V84.4z" />
                                        <path fill="#FFFFFF" d="M323.3,90.1c-1.5-0.5-2.6-0.8-3.5-0.8c-0.9,0-1.3,0.3-1.3,1c0,0.5,0.3,0.9,0.9,1.2
                                            c0.6,0.3,1.5,0.6,2.7,0.9c1.6,0.4,2.8,0.9,3.9,1.3c1,0.4,1.9,1.1,2.7,2.1c0.8,0.9,1.2,2.2,1.2,3.7c0,1.6-0.4,2.9-1.2,4
                                            c-0.8,1.1-1.9,1.9-3.3,2.4c-1.4,0.5-2.9,0.8-4.6,0.8c-1.9,0-3.9-0.3-5.8-0.9c-2-0.6-3.7-1.5-5.1-2.6l2.7-5.4
                                            c1.1,1,2.5,1.8,4.1,2.4c1.7,0.7,3,1,4.2,1c0.5,0,1-0.1,1.3-0.3c0.3-0.2,0.5-0.5,0.5-0.9c0-0.5-0.3-0.9-0.9-1.2
                                            c-0.6-0.3-1.5-0.6-2.8-0.9c-1.5-0.4-2.8-0.8-3.8-1.2c-1-0.4-1.9-1.1-2.7-2c-0.7-0.9-1.1-2.1-1.1-3.6c0-1.5,0.4-2.7,1.2-3.8
                                            s1.9-1.9,3.3-2.5c1.4-0.6,3-0.9,4.9-0.9c1.7,0,3.4,0.2,5.1,0.7c1.7,0.5,3.2,1.1,4.4,1.9l-2.6,5.5
                                            C326.1,91.3,324.7,90.7,323.3,90.1z" />
                                        <path fill="#FFFFFF" d="M348.4,86.4c1.6,1.4,2.3,3.3,2.3,5.8c0,2.6-0.8,4.7-2.3,6.1c-1.6,1.5-3.8,2.2-6.6,2.2h-3v5.7h-7.2V84.4
                                            h10.2C344.6,84.4,346.8,85.1,348.4,86.4z M343.2,94.4c0.4-0.5,0.6-1.1,0.6-1.9c0-0.8-0.2-1.4-0.6-1.9c-0.4-0.4-1-0.7-1.8-0.7h-2.6
                                            v5.2h2.6C342.2,95.1,342.8,94.8,343.2,94.4z" />
                                    </g>
                                </g>
                            </svg>