<?xml version="1.0" encoding="utf-8"?>
<!-- Generator: Adobe Illustrator 17.1.0, SVG Export Plug-In . SVG Version: 6.00 Build 0)  -->
<!DOCTYPE svg PUBLIC "-//W3C//DTD SVG 1.1//EN" "http://www.w3.org/Graphics/SVG/1.1/DTD/svg11.dtd">
<svg version="1.1" id="Layer_1" xmlns="http://www.w3.org/2000/svg" xmlns:xlink="http://www.w3.org/1999/xlink" x="0px" y="0px"
	 width="122.7px" height="99.7px" viewBox="0 0 122.7 99.7" enable-background="new 0 0 122.7 99.7" xml:space="preserve">
<path fill="#F9F9F9" d="M122.5,4.6c0,0-27.2,15.7-61,15.7C27.7,20.3,0,4.6,0,4.6S27.7,0,61.5,0C95.3,0,122.5,4.6,122.5,4.6z"/>
<path fill="#FFFFFF" d="M111.8,79.9C78.3,85,44.5,85,10.9,79.9C7.3,54.6,3.7,29.3,0.1,4c40.8,6.2,81.9,6.2,122.6,0
	C119.1,29.3,115.5,54.6,111.8,79.9"/>
<g>
	<g>
		<path fill="#444A4C" d="M62.7,22.2c2.6,2.9,3.9,7.2,3.9,12.6c0,5.5-1.3,9.7-3.9,12.7c-2.6,3-6.2,4.4-11,4.4
			c-4.8,0-8.5-1.5-11.1-4.4c-2.6-3-3.9-7.2-3.9-12.7c0-5.5,1.3-9.7,3.9-12.6c2.6-2.9,6.3-4.4,11.1-4.4
			C56.5,17.8,60.2,19.3,62.7,22.2z M47.2,26.8c-0.9,1.6-1.4,4.3-1.4,8.1c0,3.8,0.5,6.5,1.4,8.1c0.9,1.6,2.4,2.5,4.5,2.5
			c2,0,3.5-0.8,4.5-2.5c0.9-1.7,1.4-4.4,1.4-8.1s-0.5-6.4-1.4-8.1c-0.9-1.6-2.4-2.5-4.5-2.5C49.6,24.3,48.1,25.1,47.2,26.8z"/>
		<path fill="#444A4C" d="M67.8,18.1H83v33.6h-8.8V25.3h-6.5V18.1z"/>
	</g>
</g>
<g>
	<path fill="#444A4C" d="M39.3,59.9l1.8,0.8l-2.3,1.8l-1.5-0.2L39.3,59.9z M37.4,64h1.7v9.8h-1.7V64z"/>
	<path fill="#444A4C" d="M50.6,64.9c0.7,0.7,1,1.6,1,2.8v6h-1.7v-5.6c0-0.8-0.2-1.5-0.7-1.9c-0.5-0.5-1.1-0.7-1.9-0.7
		c-0.9,0-1.6,0.3-2.1,0.8c-0.5,0.5-0.9,1.3-0.9,2.1v5.2h-1.7V64h1.7v2.1c0.7-1.4,1.9-2.1,3.7-2.1C49.1,63.9,50,64.3,50.6,64.9z"/>
	<path fill="#444A4C" d="M63.7,60.1v13.7H62v-1.9c-0.4,0.7-0.9,1.2-1.5,1.5s-1.3,0.5-2.2,0.5c-0.9,0-1.7-0.2-2.4-0.6
		c-0.7-0.4-1.3-1-1.7-1.8c-0.4-0.8-0.6-1.6-0.6-2.6c0-1,0.2-1.8,0.6-2.6c0.4-0.7,0.9-1.3,1.7-1.7c0.7-0.4,1.5-0.6,2.4-0.6
		c0.8,0,1.6,0.2,2.2,0.5c0.6,0.3,1.1,0.8,1.5,1.5v-5.9H63.7z M60.4,71.9c0.5-0.3,0.9-0.7,1.2-1.2c0.3-0.5,0.4-1.1,0.4-1.8
		c0-0.7-0.1-1.3-0.4-1.8c-0.3-0.5-0.7-0.9-1.2-1.2c-0.5-0.3-1.1-0.4-1.7-0.4s-1.2,0.2-1.7,0.5c-0.5,0.3-0.9,0.7-1.2,1.2
		c-0.3,0.5-0.4,1.1-0.4,1.8s0.1,1.3,0.4,1.8c0.3,0.5,0.7,0.9,1.2,1.2c0.5,0.3,1.1,0.4,1.7,0.4S59.9,72.2,60.4,71.9z"/>
	<path fill="#444A4C" d="M68.8,60.4c0.2,0.2,0.3,0.5,0.3,0.8c0,0.3-0.1,0.6-0.3,0.8c-0.2,0.2-0.5,0.3-0.8,0.3s-0.6-0.1-0.8-0.3
		S67,61.5,67,61.2c0-0.3,0.1-0.6,0.3-0.8s0.5-0.3,0.8-0.3S68.6,60.2,68.8,60.4z M67.2,64h1.7v9.8h-1.7V64z"/>
	<path fill="#444A4C" d="M76.3,65.5c-0.6,0-1.2,0.1-1.7,0.4c-0.5,0.3-0.9,0.7-1.2,1.2c-0.3,0.5-0.4,1.1-0.4,1.8
		c0,0.7,0.1,1.3,0.4,1.8s0.7,0.9,1.1,1.2c0.5,0.3,1,0.4,1.7,0.4c0.6,0,1.2-0.1,1.7-0.3c0.5-0.2,0.9-0.5,1.3-0.9l1,1
		c-0.4,0.6-1,1-1.7,1.3c-0.7,0.3-1.5,0.4-2.3,0.4c-0.9,0-1.8-0.2-2.5-0.6c-0.7-0.4-1.3-1-1.7-1.7s-0.6-1.6-0.6-2.6
		c0-1,0.2-1.8,0.6-2.6s1-1.3,1.7-1.8c0.7-0.4,1.6-0.6,2.5-0.6c0.8,0,1.6,0.1,2.2,0.4s1.2,0.6,1.7,1.1l-0.9,1.2
		C78.3,65.8,77.4,65.5,76.3,65.5z"/>
	<path fill="#444A4C" d="M89.5,65.3c0.8,0.9,1.2,2.1,1.2,3.7c0,0.2,0,0.4,0,0.6H83c0.1,0.9,0.5,1.6,1.1,2.1s1.3,0.8,2.2,0.8
		c0.6,0,1.1-0.1,1.6-0.3s0.9-0.5,1.3-0.9l0.9,1c-0.5,0.5-1.1,0.9-1.7,1.2c-0.7,0.3-1.4,0.4-2.3,0.4c-1,0-1.8-0.2-2.6-0.6
		s-1.3-1-1.7-1.7c-0.4-0.8-0.6-1.6-0.6-2.6c0-1,0.2-1.8,0.6-2.6c0.4-0.7,1-1.3,1.7-1.8c0.7-0.4,1.6-0.6,2.5-0.6
		C87.6,63.9,88.8,64.4,89.5,65.3z M89.1,68.2c0-0.9-0.3-1.6-0.9-2.1c-0.5-0.5-1.3-0.8-2.1-0.8c-0.9,0-1.6,0.3-2.2,0.8
		c-0.6,0.5-0.9,1.2-1,2.1H89.1z"/>
</g>
<ellipse fill="#444A4C" cx="62.4" cy="94.7" rx="42.3" ry="4.9"/>
</svg>
