<?xml version="1.0" encoding="utf-8"?>
<!-- Generator: Adobe Illustrator 17.1.0, SVG Export Plug-In . SVG Version: 6.00 Build 0)  -->
<!DOCTYPE svg PUBLIC "-//W3C//DTD SVG 1.1//EN" "http://www.w3.org/Graphics/SVG/1.1/DTD/svg11.dtd">
<svg version="1.1" id="Layer_1" xmlns="http://www.w3.org/2000/svg" xmlns:xlink="http://www.w3.org/1999/xlink" x="0px" y="0px"
	 width="178.3px" height="88.9px" viewBox="0 0 178.3 88.9" enable-background="new 0 0 178.3 88.9" xml:space="preserve">
<path fill="#C4C4C4" d="M178.2,5c0,0-39.5,17.3-88.8,17.3C40.3,22.3,0,5,0,5s40.3-5,89.5-5C138.7,0,178.2,5,178.2,5z"/>
<path fill="#E3E4E5" d="M162.5,84.9c-48.8,5.4-98,5.4-146.7,0C10.5,58.3,5.3,31.8,0,5.2c59.3,6.5,119.1,6.5,178.3,0
	C173.1,31.8,167.8,58.3,162.5,84.9"/>
<g>
	<g>
		<path fill="#444A4C" d="M85.1,25.7c3.1,3.5,4.6,8.6,4.6,15.2s-1.5,11.7-4.6,15.3c-3.1,3.6-7.5,5.3-13.2,5.3
			c-5.8,0-10.3-1.8-13.4-5.3c-3.1-3.6-4.6-8.6-4.6-15.3s1.5-11.7,4.6-15.2c3.1-3.5,7.5-5.3,13.4-5.3C77.6,20.4,82,22.1,85.1,25.7z
			 M66.4,31.2c-1.1,2-1.7,5.2-1.7,9.7c0,4.5,0.6,7.8,1.7,9.8c1.1,2,2.9,3,5.5,3c2.5,0,4.3-1,5.4-3c1.1-2,1.7-5.2,1.7-9.7
			c0-4.5-0.6-7.7-1.7-9.7c-1.1-2-2.9-3-5.4-3C69.4,28.2,67.5,29.2,66.4,31.2z"/>
		<path fill="#444A4C" d="M118.8,36.9c2.4,1,4.2,2.5,5.5,4.3c1.3,1.8,1.9,4,1.9,6.3c0,2.8-0.7,5.3-2,7.4c-1.3,2.1-3.3,3.7-5.8,4.9
			c-2.5,1.2-5.4,1.7-8.7,1.7c-2.7,0-5.5-0.5-8.3-1.4s-5.4-2.1-7.6-3.6l3.9-7.6c3.7,3,7.4,4.5,10.9,4.5c2,0,3.6-0.5,4.7-1.4
			c1.1-0.9,1.7-2.1,1.7-3.7c0-1.6-0.5-2.8-1.6-3.6c-1.1-0.8-2.7-1.2-4.9-1.2c-5.1,0-8.8,0.1-11.1,0.2V20.7h27.2v8.5h-17.5v6.2h3.6
			C113.6,35.4,116.4,35.9,118.8,36.9z"/>
	</g>
</g>
<g>
	<path fill="#444A4C" d="M60.2,65.7c-0.3,0.3-0.5,0.7-0.5,1.3v1.4h2.9v1.4h-2.9v8.9h-1.9v-8.9h-1.4v-1.4h1.4v-1.1
		c0-0.8,0.2-1.4,0.5-2s0.8-1,1.3-1.2c0.5-0.3,1.1-0.4,1.7-0.4c0.6,0,1.2,0.2,1.9,0.5l-0.4,1.5c-0.5-0.2-0.9-0.3-1.4-0.3
		C60.9,65.3,60.5,65.4,60.2,65.7z"/>
	<path fill="#444A4C" d="M70.2,78.7v-1.5c-0.8,1-2,1.6-3.7,1.6c-0.7,0-1.4-0.1-1.9-0.4c-0.6-0.3-1-0.7-1.3-1.2s-0.5-1.1-0.5-1.7
		c0-1,0.4-1.7,1.1-2.3c0.7-0.6,1.7-0.8,3-0.9h3.4v-0.5c0-0.8-0.2-1.3-0.7-1.7c-0.5-0.4-1.1-0.6-2-0.6c-1.1,0-2.2,0.4-3.3,1.1
		l-0.8-1.3c0.8-0.5,1.5-0.9,2.1-1.1c0.7-0.2,1.4-0.3,2.3-0.3c1.3,0,2.4,0.3,3.1,1c0.7,0.7,1.1,1.6,1.1,2.7l0,7H70.2z M69.1,76.6
		c0.6-0.4,1-1,1.1-1.7v-1.1H67c-0.8,0-1.5,0.1-1.9,0.4c-0.4,0.3-0.6,0.7-0.6,1.2c0,0.6,0.2,1,0.6,1.3c0.4,0.3,1,0.5,1.7,0.5
		C67.7,77.2,68.5,77,69.1,76.6z"/>
	<path fill="#444A4C" d="M81.1,78c-0.8,0.5-1.7,0.8-2.5,0.8c-0.8,0-1.5-0.3-2.1-0.8c-0.5-0.5-0.8-1.3-0.8-2.3v-5.9h-1.5v-1.4h1.5
		v-2.9h1.9v2.9h3.3v1.4h-3.3v5.6c0,0.6,0.1,1,0.3,1.3c0.2,0.3,0.5,0.4,1,0.4c0.5,0,1.1-0.2,1.7-0.5L81.1,78z"/>
	<path fill="#444A4C" d="M90.5,68.7c0.8,0.5,1.5,1.1,1.9,1.9c0.5,0.8,0.7,1.7,0.7,2.8s-0.2,2-0.7,2.8c-0.5,0.8-1.1,1.5-1.9,1.9
		c-0.8,0.5-1.8,0.7-2.8,0.7c-1.1,0-2-0.2-2.9-0.7c-0.8-0.5-1.5-1.1-1.9-1.9s-0.7-1.8-0.7-2.8c0-1,0.2-2,0.7-2.8s1.1-1.4,1.9-1.9
		c0.8-0.5,1.8-0.7,2.9-0.7C88.7,68,89.7,68.2,90.5,68.7z M85.8,70.1c-0.5,0.3-1,0.8-1.3,1.3s-0.5,1.2-0.5,1.9c0,0.7,0.2,1.4,0.5,2
		c0.3,0.6,0.7,1,1.3,1.3c0.5,0.3,1.2,0.5,1.9,0.5c0.7,0,1.3-0.2,1.8-0.5c0.5-0.3,1-0.8,1.3-1.3c0.3-0.6,0.5-1.2,0.5-2
		c0-0.7-0.2-1.4-0.5-1.9c-0.3-0.6-0.7-1-1.3-1.3c-0.5-0.3-1.2-0.5-1.8-0.5C87,69.6,86.4,69.8,85.8,70.1z"/>
	<path fill="#444A4C" d="M99.1,68.6c0.6-0.4,1.4-0.6,2.3-0.6v1.8c-1.1,0-2,0.2-2.6,0.8c-0.7,0.6-1.1,1.4-1.1,2.4v5.6h-1.9V68h1.9
		v2.3C98,69.6,98.5,69,99.1,68.6z"/>
	<path fill="#444A4C" d="M111.5,69.4c0.8,1,1.3,2.3,1.3,4.1c0,0.3,0,0.5,0,0.6h-8.4c0.1,1,0.5,1.7,1.2,2.3c0.7,0.6,1.5,0.8,2.4,0.8
		c0.6,0,1.2-0.1,1.8-0.3s1-0.6,1.4-1l1,1.1c-0.5,0.6-1.2,1-1.9,1.3c-0.7,0.3-1.6,0.5-2.5,0.5c-1,0-2-0.2-2.8-0.7s-1.4-1.1-1.9-1.9
		s-0.7-1.8-0.7-2.8s0.2-2,0.7-2.8c0.5-0.8,1.1-1.5,1.9-1.9c0.8-0.5,1.7-0.7,2.8-0.7C109.4,68,110.6,68.5,111.5,69.4z M111,72.6
		c-0.1-1-0.4-1.7-1-2.3c-0.6-0.6-1.4-0.8-2.3-0.8c-0.9,0-1.7,0.3-2.3,0.8c-0.6,0.6-1,1.3-1.1,2.3H111z"/>
	<path fill="#444A4C" d="M119.7,69.7c-0.5-0.2-1-0.2-1.5-0.2c-0.6,0-1,0.1-1.4,0.3c-0.3,0.2-0.5,0.5-0.5,1c0,0.4,0.2,0.8,0.6,1
		s1,0.4,1.7,0.7c0.7,0.2,1.3,0.4,1.8,0.6c0.5,0.2,0.9,0.5,1.2,0.9c0.3,0.4,0.5,1,0.5,1.7c0,1-0.4,1.8-1.1,2.3
		c-0.8,0.5-1.7,0.8-2.8,0.8c-0.8,0-1.6-0.1-2.3-0.4c-0.7-0.3-1.4-0.6-1.9-1.1l0.7-1.4c0.4,0.4,1,0.7,1.6,1s1.3,0.4,1.9,0.4
		s1.1-0.1,1.5-0.3s0.6-0.6,0.6-1c0-0.5-0.2-0.8-0.6-1.1c-0.4-0.2-1-0.5-1.8-0.7c-0.7-0.2-1.3-0.4-1.7-0.6c-0.5-0.2-0.8-0.5-1.1-0.9
		c-0.3-0.4-0.5-0.9-0.5-1.6c0-1,0.4-1.7,1.1-2.2s1.6-0.7,2.7-0.7c0.6,0,1.3,0.1,1.9,0.3c0.6,0.2,1.2,0.4,1.6,0.7l-0.7,1.4
		C120.7,70.1,120.2,69.9,119.7,69.7z"/>
</g>
</svg>
