<?xml version="1.0" encoding="utf-8"?>
<!-- Generator: Adobe Illustrator 17.1.0, SVG Export Plug-In . SVG Version: 6.00 Build 0)  -->
<!DOCTYPE svg PUBLIC "-//W3C//DTD SVG 1.1//EN" "http://www.w3.org/Graphics/SVG/1.1/DTD/svg11.dtd">
<svg version="1.1" id="Layer_1" xmlns="http://www.w3.org/2000/svg" xmlns:xlink="http://www.w3.org/1999/xlink" x="0px" y="0px"
	 width="439.4px" height="121.4px" viewBox="0 0 439.4 121.4" enable-background="new 0 0 439.4 121.4" xml:space="preserve">
<path fill="#A53A52" d="M440.4,5c0,0-97.2,17.3-218.2,17.3C101.3,22.2,2.3,5,2.3,5s98.9-5,219.9-5C343.2,0,440.4,5,440.4,5z"/>
<path fill="#CC445C" d="M402.4,111.4c-121.3,13.4-243.6,13.4-364.9,0C25.4,75.9,13.2,40.4,1,5C146.5,21.1,293.5,21.1,439,5
	C426.8,40.4,414.6,75.9,402.4,111.4"/>
<g>
	<path fill="#FFFFFF" d="M152.4,76v14h-9v15.2h-16.9V90H94.6V77.5l20-42.8h17.5L113.3,76h13.2V61h16.9v15H152.4z"/>
	<path fill="#FFFFFF" d="M157,34.7h56.2v12.8l-26.5,57.7h-19.5l25.6-55.7h-19.5l-0.1,10H157V34.7z"/>
</g>
<g>
	<path fill="#FFFFFF" d="M245.2,34.4V62h-5.7V59c-0.7,1-1.6,1.8-2.7,2.4c-1.1,0.5-2.3,0.8-3.6,0.8c-1.9,0-3.5-0.4-5-1.3
		c-1.4-0.9-2.5-2.1-3.3-3.6c-0.8-1.6-1.2-3.4-1.2-5.4c0-2,0.4-3.8,1.2-5.3c0.8-1.5,1.9-2.7,3.3-3.6c1.4-0.8,3-1.3,4.9-1.3
		c2.8,0,5,1.1,6.5,3.2V34.4H245.2z M238.1,56c0.9-1,1.4-2.4,1.4-4s-0.5-3-1.4-4c-0.9-1-2.1-1.5-3.6-1.5c-1.5,0-2.7,0.5-3.6,1.5
		s-1.4,2.4-1.4,4c0,1.6,0.5,3,1.4,4c0.9,1,2.1,1.5,3.6,1.5C236,57.6,237.2,57.1,238.1,56z"/>
	<path fill="#FFFFFF" d="M266.9,44.6c1.7,1.9,2.5,4.5,2.5,7.8c0,0.6,0,1.1,0,1.4H255c0.3,1.3,0.9,2.3,1.9,3c0.9,0.7,2,1.1,3.3,1.1
		c0.9,0,1.8-0.2,2.7-0.5c0.9-0.4,1.6-0.9,2.3-1.6l3,3.1c-1,1.1-2.3,2-3.7,2.6c-1.5,0.6-3.1,0.9-4.9,0.9c-2.1,0-4-0.4-5.5-1.3
		c-1.6-0.8-2.8-2-3.6-3.6c-0.9-1.5-1.3-3.3-1.3-5.3c0-2,0.4-3.8,1.3-5.4c0.9-1.6,2.1-2.8,3.6-3.6c1.6-0.9,3.4-1.3,5.4-1.3
		C262.7,41.8,265.2,42.7,266.9,44.6z M264,50.3c0-1.3-0.5-2.4-1.3-3.2c-0.8-0.8-1.8-1.2-3.2-1.2c-1.2,0-2.3,0.4-3.1,1.2
		s-1.4,1.8-1.6,3.2H264z"/>
	<path fill="#FFFFFF" d="M273.3,34.4h5.7V62h-5.7V34.4z"/>
	<path fill="#FFFFFF" d="M289.9,33.9c0.6,0.6,0.9,1.4,0.9,2.3c0,0.9-0.3,1.7-0.9,2.3c-0.6,0.6-1.3,0.9-2.3,0.9
		c-0.9,0-1.6-0.3-2.2-0.9c-0.6-0.6-0.9-1.4-0.9-2.3c0-0.9,0.3-1.7,0.9-2.3c0.6-0.6,1.3-0.9,2.2-0.9C288.5,33,289.3,33.3,289.9,33.9z
		 M284.8,41.9h5.7v20h-5.7V41.9z"/>
	<path fill="#FFFFFF" d="M308.4,60.9c-0.7,0.4-1.6,0.8-2.5,1s-1.8,0.4-2.7,0.4c-1.9,0-3.4-0.5-4.5-1.6c-1.2-1.1-1.7-2.6-1.7-4.6
		v-9.3h-2.8v-3.9h2.8v-5.5h5.7v5.5h5.4v4h-5.4v8.3c0,1.5,0.6,2.3,1.8,2.3c0.8,0,1.8-0.2,2.8-0.7L308.4,60.9z"/>
	<path fill="#FFFFFF" d="M326.4,43c1.6,0.8,2.9,2,3.8,3.6c0.9,1.5,1.3,3.3,1.3,5.4c0,2-0.4,3.8-1.3,5.3c-0.9,1.6-2.2,2.8-3.8,3.6
		c-1.6,0.9-3.5,1.3-5.6,1.3c-2.1,0-4-0.4-5.6-1.3c-1.6-0.9-2.9-2.1-3.8-3.6c-0.9-1.6-1.3-3.3-1.3-5.3c0-2,0.4-3.8,1.3-5.4
		c0.9-1.5,2.2-2.7,3.8-3.6c1.6-0.8,3.5-1.3,5.6-1.3C322.9,41.8,324.8,42.2,326.4,43z M317.2,48.1c-0.9,1-1.4,2.3-1.4,4s0.5,3,1.4,4
		c0.9,1,2.1,1.5,3.6,1.5c1.5,0,2.7-0.5,3.6-1.5c0.9-1,1.4-2.3,1.4-4s-0.5-3-1.4-4s-2.1-1.5-3.6-1.5C319.3,46.5,318.1,47,317.2,48.1z
		"/>
	<path fill="#FFFFFF" d="M344.7,46.4c-1.1-0.3-2-0.5-2.9-0.5c-0.7,0-1.3,0.1-1.7,0.4c-0.4,0.2-0.6,0.6-0.6,1.1c0,0.5,0.3,1,0.9,1.3
		c0.6,0.3,1.5,0.6,2.8,1c1.4,0.4,2.6,0.8,3.5,1.2c0.9,0.4,1.7,1,2.4,1.8c0.7,0.8,1,1.9,1,3.2c0,2-0.8,3.5-2.3,4.6
		c-1.5,1.1-3.5,1.7-5.9,1.7c-1.6,0-3.2-0.2-4.7-0.7c-1.5-0.5-2.8-1.2-3.9-2.1l1.9-3.9c1,0.8,2.2,1.4,3.4,1.8
		c1.3,0.4,2.4,0.7,3.6,0.7c0.8,0,1.4-0.1,1.8-0.4c0.5-0.3,0.7-0.7,0.7-1.2c0-0.6-0.3-1-0.9-1.3c-0.6-0.3-1.5-0.7-2.8-1
		c-1.4-0.4-2.5-0.8-3.4-1.2c-0.9-0.4-1.7-1-2.3-1.8c-0.6-0.8-1-1.9-1-3.1c0-2,0.7-3.5,2.2-4.6c1.5-1.1,3.4-1.6,5.7-1.6
		c1.4,0,2.7,0.2,4.1,0.6c1.4,0.4,2.6,0.9,3.7,1.7l-2,3.9C346.8,47.2,345.8,46.7,344.7,46.4z"/>
</g>
<g>
	<path fill="#FFFFFF" d="M242.8,86.9c1.3,1.4,2,3.3,2,5.7V105h-3.5V93.5c0-1.7-0.5-3-1.4-4c-0.9-0.9-2.3-1.4-3.9-1.4
		c-1.8,0-3.3,0.6-4.4,1.7c-1.1,1.1-1.8,2.6-1.9,4.4V105h-3.5V84.9h3.5v4.3c1.3-2.9,3.9-4.3,7.6-4.4
		C239.6,84.8,241.5,85.5,242.8,86.9z"/>
	<path fill="#FFFFFF" d="M264.8,86.1c1.6,0.9,2.8,2.1,3.6,3.6c0.9,1.5,1.3,3.3,1.3,5.3c0,2-0.4,3.7-1.3,5.3s-2.1,2.7-3.6,3.6
		c-1.6,0.9-3.3,1.3-5.3,1.3c-2,0-3.8-0.4-5.4-1.3c-1.6-0.9-2.8-2.1-3.6-3.6c-0.9-1.5-1.3-3.3-1.3-5.3c0-2,0.4-3.7,1.3-5.3
		c0.9-1.5,2.1-2.7,3.6-3.6c1.6-0.9,3.3-1.3,5.4-1.3C261.5,84.8,263.2,85.2,264.8,86.1z M256,88.8c-1,0.6-1.8,1.4-2.4,2.5
		c-0.6,1.1-0.9,2.3-0.9,3.7c0,1.4,0.3,2.6,0.9,3.7c0.6,1.1,1.4,1.9,2.4,2.5c1,0.6,2.2,0.9,3.5,0.9c1.3,0,2.4-0.3,3.5-0.9
		c1-0.6,1.8-1.4,2.4-2.5s0.9-2.3,0.9-3.7c0-1.4-0.3-2.6-0.9-3.7s-1.4-1.9-2.4-2.5s-2.2-0.9-3.5-0.9C258.2,87.9,257,88.2,256,88.8z"
		/>
	<path fill="#FFFFFF" d="M281.9,78.4h7.9V105h-7.9V78.4z"/>
	<path fill="#FFFFFF" d="M308.7,84.8c-1.7-0.6-3.1-0.9-4.2-0.9c-0.7,0-1.2,0.1-1.6,0.4s-0.6,0.7-0.6,1.2c0,0.7,0.4,1.3,1.1,1.7
		s2,0.8,3.6,1.3c1.9,0.5,3.4,1.1,4.6,1.6c1.2,0.5,2.3,1.4,3.2,2.5c0.9,1.1,1.3,2.6,1.3,4.4c0,1.8-0.5,3.4-1.5,4.7s-2.3,2.2-3.9,2.9
		c-1.7,0.6-3.5,0.9-5.6,0.9c-2.3,0-4.6-0.4-6.8-1.2c-2.3-0.8-4.3-1.8-5.9-3.2l3-6c1.3,1.2,3,2.1,4.9,2.9c1.9,0.8,3.6,1.2,5,1.2
		c0.9,0,1.5-0.2,2-0.5c0.5-0.3,0.7-0.8,0.7-1.4c0-0.7-0.4-1.3-1.2-1.7c-0.8-0.4-2-0.8-3.6-1.2c-1.8-0.5-3.4-1-4.6-1.5
		c-1.2-0.5-2.3-1.3-3.1-2.4c-0.9-1.1-1.3-2.5-1.3-4.3c0-1.7,0.5-3.2,1.4-4.5c0.9-1.3,2.2-2.3,3.9-2.9c1.7-0.7,3.6-1,5.8-1
		c2,0,4,0.3,6,0.9s3.7,1.3,5.2,2.3l-2.9,6.1C312,86.1,310.4,85.4,308.7,84.8z"/>
	<path fill="#FFFFFF" d="M339.2,80.9c1.9,1.6,2.8,4,2.8,7c0,3.2-0.9,5.6-2.8,7.4c-1.9,1.7-4.5,2.6-8,2.6l-4.2,0v7.1h-7.9V78.4h12.1
		C334.6,78.4,337.3,79.2,339.2,80.9z M333.6,90.8c0.6-0.6,1-1.5,1-2.7c0-1.2-0.3-2.1-1-2.7c-0.6-0.6-1.6-0.9-2.8-0.9H327v7.3h3.8
		C332,91.7,332.9,91.4,333.6,90.8z"/>
</g>
</svg>
