<?xml version="1.0" encoding="utf-8"?>
<!-- Generator: Adobe Illustrator 17.1.0, SVG Export Plug-In . SVG Version: 6.00 Build 0)  -->
<!DOCTYPE svg PUBLIC "-//W3C//DTD SVG 1.1//EN" "http://www.w3.org/Graphics/SVG/1.1/DTD/svg11.dtd">
<svg version="1.1" id="Layer_1" xmlns="http://www.w3.org/2000/svg" xmlns:xlink="http://www.w3.org/1999/xlink" x="0px" y="0px"
	 width="249.7px" height="96.1px" viewBox="0 0 249.7 96.1" enable-background="new 0 0 249.7 96.1" xml:space="preserve">
<path fill="#7F8480" d="M249.7,5.2c0,0-55.3,17.3-124,17.3c-68.8,0-125-17.3-125-17.3s56.2-5,125-5C194.4,0.2,249.7,5.2,249.7,5.2z"
	/>
<path fill="#C4C4C4" d="M227,90.3c-67.9,7.5-136.5,7.5-204.5,0C15,61.8,7.5,33.3,0,4.9c82.9,9.2,166.6,9.2,249.5,0
	C242,33.3,234.5,61.8,227,90.3"/>
<g>
	<path fill="#444A4C" d="M31.5,29.2h20.7v45.7H40.3V39h-8.8V29.2z"/>
	<path fill="#444A4C" d="M70,65.6c1.6,0.5,3.3,0.7,5,0.7c3.5,0,6.1-1.1,7.9-3.2c1.8-2.1,2.6-5.1,2.5-8.9c-2.3,3.3-5.8,5-10.6,5
		c-2.9,0-5.5-0.6-7.6-1.9c-2.2-1.2-3.9-3-5.1-5.2c-1.2-2.2-1.8-4.8-1.8-7.8c0-3.2,0.7-5.9,2.1-8.3c1.4-2.4,3.3-4.2,5.9-5.5
		c2.5-1.3,5.5-1.9,8.8-1.9c4,0,7.5,0.9,10.4,2.7c2.9,1.8,5.1,4.4,6.7,7.8c1.6,3.4,2.3,7.4,2.3,12.1c0,4.8-0.9,9.1-2.6,12.7
		c-1.7,3.6-4.1,6.5-7.3,8.4c-3.1,2-6.8,3-10.9,3c-2.5,0-5.1-0.3-7.7-1s-4.9-1.6-6.8-2.7l4.4-8.2C66.9,64.4,68.4,65.1,70,65.6z
		 M72.8,39.7c-1.1,1.1-1.7,2.7-1.7,4.7c0,2,0.5,3.5,1.6,4.6c1.1,1.1,2.6,1.7,4.6,1.7c2.2,0,3.9-0.6,5.1-1.8c1.2-1.2,1.8-2.7,1.8-4.7
		c0-1.8-0.6-3.3-1.7-4.4c-1.1-1.2-2.8-1.8-5-1.8C75.5,38.1,73.9,38.6,72.8,39.7z"/>
</g>
<g>
	<path fill="#444A4C" d="M127,30.2v22.8h-4.7v-2.4c-0.6,0.9-1.3,1.5-2.2,1.9c-0.9,0.4-1.9,0.7-3,0.7c-1.6,0-2.9-0.4-4.1-1.1
		c-1.2-0.7-2.1-1.7-2.7-3c-0.6-1.3-1-2.8-1-4.4c0-1.7,0.3-3.1,1-4.4c0.6-1.3,1.5-2.2,2.7-2.9s2.5-1,4-1c2.3,0,4.1,0.9,5.3,2.6v-8.7
		H127z M121.2,48c0.8-0.8,1.1-1.9,1.1-3.3c0-1.3-0.4-2.4-1.1-3.3c-0.8-0.8-1.8-1.3-3-1.3c-1.2,0-2.2,0.4-3,1.3
		c-0.8,0.8-1.2,1.9-1.2,3.3c0,1.3,0.4,2.4,1.2,3.3c0.8,0.8,1.8,1.3,3,1.3C119.5,49.3,120.4,48.9,121.2,48z"/>
	<path fill="#444A4C" d="M144.9,38.6c1.4,1.5,2.1,3.7,2.1,6.4c0,0.5,0,0.9,0,1.1h-11.8c0.3,1,0.8,1.9,1.5,2.4
		c0.8,0.6,1.7,0.9,2.7,0.9c0.8,0,1.5-0.1,2.2-0.4c0.7-0.3,1.4-0.7,1.9-1.3l2.5,2.5c-0.8,0.9-1.9,1.7-3.1,2.2c-1.2,0.5-2.5,0.8-4,0.8
		c-1.7,0-3.3-0.3-4.6-1c-1.3-0.7-2.3-1.7-3-2.9c-0.7-1.3-1.1-2.7-1.1-4.4c0-1.7,0.4-3.2,1.1-4.4s1.7-2.3,3-3s2.8-1.1,4.4-1.1
		C141.5,36.3,143.5,37.1,144.9,38.6z M142.5,43.3c0-1.1-0.4-2-1-2.6c-0.7-0.7-1.5-1-2.6-1c-1,0-1.9,0.3-2.6,1
		c-0.7,0.6-1.1,1.5-1.3,2.6H142.5z"/>
	<path fill="#444A4C" d="M150.2,30.2h4.7v22.8h-4.7V30.2z"/>
	<path fill="#444A4C" d="M163.9,29.8c0.5,0.5,0.7,1.1,0.7,1.9c0,0.8-0.2,1.4-0.7,1.9c-0.5,0.5-1.1,0.7-1.9,0.7
		c-0.7,0-1.3-0.3-1.8-0.8c-0.5-0.5-0.7-1.1-0.7-1.9c0-0.8,0.2-1.4,0.7-1.9c0.5-0.5,1.1-0.7,1.8-0.7
		C162.8,29.1,163.4,29.4,163.9,29.8z M159.7,36.4h4.7v16.5h-4.7V36.4z"/>
	<path fill="#444A4C" d="M179.1,52c-0.6,0.4-1.3,0.6-2,0.8c-0.7,0.2-1.5,0.3-2.3,0.3c-1.5,0-2.8-0.4-3.7-1.3c-1-0.9-1.4-2.1-1.4-3.8
		v-7.6h-2.3v-3.3h2.3v-4.5h4.7v4.5h4.5v3.3h-4.5v6.8c0,1.3,0.5,1.9,1.5,1.9c0.7,0,1.5-0.2,2.3-0.6L179.1,52z"/>
	<path fill="#444A4C" d="M193.9,37.3c1.3,0.7,2.4,1.7,3.1,2.9c0.7,1.3,1.1,2.7,1.1,4.4c0,1.7-0.4,3.1-1.1,4.4
		c-0.7,1.3-1.8,2.3-3.1,3s-2.9,1.1-4.6,1.1c-1.8,0-3.3-0.4-4.6-1.1s-2.4-1.7-3.1-3c-0.7-1.3-1.1-2.7-1.1-4.4c0-1.7,0.4-3.1,1.1-4.4
		c0.7-1.3,1.8-2.2,3.1-2.9c1.3-0.7,2.9-1,4.6-1C191.1,36.3,192.6,36.6,193.9,37.3z M186.3,41.5c-0.8,0.8-1.1,1.9-1.1,3.3
		c0,1.3,0.4,2.4,1.1,3.3c0.8,0.8,1.8,1.3,3,1.3c1.2,0,2.2-0.4,3-1.3c0.8-0.8,1.2-1.9,1.2-3.3c0-1.3-0.4-2.4-1.2-3.3
		c-0.8-0.8-1.8-1.3-3-1.3C188.1,40.2,187.1,40.6,186.3,41.5z"/>
	<path fill="#444A4C" d="M209,40.1c-0.9-0.3-1.7-0.4-2.4-0.4c-0.6,0-1,0.1-1.4,0.3s-0.5,0.5-0.5,0.9c0,0.4,0.2,0.8,0.7,1
		c0.5,0.2,1.2,0.5,2.3,0.8c1.2,0.3,2.1,0.7,2.9,1c0.8,0.3,1.4,0.8,2,1.5c0.6,0.7,0.8,1.5,0.8,2.6c0,1.6-0.6,2.9-1.9,3.8
		c-1.3,0.9-2.9,1.4-4.8,1.4c-1.3,0-2.6-0.2-3.9-0.6s-2.3-1-3.3-1.7l1.5-3.2c0.8,0.7,1.8,1.2,2.8,1.5c1,0.4,2,0.5,2.9,0.5
		c0.6,0,1.1-0.1,1.5-0.3c0.4-0.2,0.6-0.5,0.6-1c0-0.5-0.2-0.8-0.7-1.1c-0.5-0.3-1.3-0.6-2.3-0.9c-1.1-0.3-2.1-0.7-2.8-1
		s-1.4-0.8-1.9-1.5c-0.5-0.7-0.8-1.5-0.8-2.6c0-1.6,0.6-2.9,1.8-3.8c1.2-0.9,2.8-1.3,4.7-1.3c1.1,0,2.2,0.2,3.4,0.5
		c1.1,0.3,2.1,0.8,3.1,1.4l-1.6,3.2C210.8,40.8,209.9,40.4,209,40.1z"/>
</g>
<g>
	<path fill="#444A4C" d="M117,73.3v-1.5c-0.8,1.1-2.1,1.6-3.8,1.6c-0.8,0-1.4-0.1-2-0.4c-0.6-0.3-1-0.7-1.3-1.2
		c-0.3-0.5-0.5-1.1-0.5-1.7c0-1,0.4-1.8,1.1-2.3c0.7-0.6,1.7-0.9,3-0.9h3.5v-0.5c0-0.8-0.2-1.4-0.7-1.8c-0.5-0.4-1.2-0.6-2.1-0.6
		c-1.1,0-2.2,0.4-3.4,1.2l-0.8-1.3c0.8-0.5,1.5-0.9,2.2-1.1c0.7-0.2,1.5-0.3,2.4-0.3c1.4,0,2.4,0.3,3.2,1c0.7,0.7,1.1,1.6,1.1,2.8
		l0,7.2H117z M115.8,71.1c0.6-0.4,1-1,1.1-1.7v-1.1h-3.2c-0.9,0-1.5,0.1-1.9,0.4c-0.4,0.3-0.6,0.7-0.6,1.2c0,0.6,0.2,1,0.6,1.3
		c0.4,0.3,1,0.5,1.7,0.5C114.4,71.8,115.2,71.6,115.8,71.1z"/>
	<path fill="#444A4C" d="M131.4,63.4c0.7,0.8,1.1,1.8,1.1,3.1v6.8h-1.9v-6.3c0-0.9-0.3-1.6-0.8-2.2c-0.5-0.5-1.2-0.8-2.1-0.8
		c-1,0-1.8,0.3-2.4,0.9s-1,1.4-1,2.4v5.9h-1.9v-11h1.9v2.3c0.7-1.6,2.1-2.4,4.2-2.4C129.7,62.3,130.7,62.7,131.4,63.4z"/>
	<path fill="#444A4C" d="M142.7,73.3v-1.5c-0.8,1.1-2.1,1.6-3.8,1.6c-0.8,0-1.4-0.1-2-0.4c-0.6-0.3-1-0.7-1.3-1.2
		c-0.3-0.5-0.5-1.1-0.5-1.7c0-1,0.4-1.8,1.1-2.3c0.7-0.6,1.7-0.9,3-0.9h3.5v-0.5c0-0.8-0.2-1.4-0.7-1.8s-1.2-0.6-2.1-0.6
		c-1.1,0-2.2,0.4-3.4,1.2l-0.8-1.3c0.8-0.5,1.5-0.9,2.2-1.1s1.5-0.3,2.4-0.3c1.4,0,2.4,0.3,3.2,1c0.7,0.7,1.1,1.6,1.1,2.8l0,7.2
		H142.7z M141.5,71.1c0.6-0.4,1-1,1.1-1.7v-1.1h-3.2c-0.9,0-1.5,0.1-1.9,0.4c-0.4,0.3-0.6,0.7-0.6,1.2c0,0.6,0.2,1,0.6,1.3
		s1,0.5,1.7,0.5C140.1,71.8,140.9,71.6,141.5,71.1z"/>
	<path fill="#444A4C" d="M148.1,57.9h1.9v15.4h-1.9V57.9z"/>
	<path fill="#444A4C" d="M155.7,58.3c0.2,0.2,0.3,0.5,0.3,0.9c0,0.4-0.1,0.7-0.3,0.9c-0.2,0.2-0.5,0.4-0.9,0.4
		c-0.3,0-0.6-0.1-0.9-0.4c-0.2-0.2-0.3-0.5-0.3-0.9c0-0.4,0.1-0.7,0.3-0.9c0.2-0.2,0.5-0.4,0.9-0.4C155.2,58,155.5,58.1,155.7,58.3z
		 M153.9,62.4h1.9v11h-1.9V62.4z"/>
	<path fill="#444A4C" d="M158.9,62.4l8.8,0v1.4l-6.6,8l6.8,0v1.6l-9.2,0v-1.4l6.6-8l-6.4,0V62.4z"/>
	<path fill="#444A4C" d="M177,73.3v-1.5c-0.8,1.1-2.1,1.6-3.8,1.6c-0.8,0-1.4-0.1-2-0.4c-0.6-0.3-1-0.7-1.3-1.2
		c-0.3-0.5-0.5-1.1-0.5-1.7c0-1,0.4-1.8,1.1-2.3c0.7-0.6,1.7-0.9,3-0.9h3.5v-0.5c0-0.8-0.2-1.4-0.7-1.8s-1.2-0.6-2.1-0.6
		c-1.1,0-2.2,0.4-3.4,1.2l-0.8-1.3c0.8-0.5,1.5-0.9,2.2-1.1s1.5-0.3,2.4-0.3c1.4,0,2.4,0.3,3.2,1c0.7,0.7,1.1,1.6,1.1,2.8l0,7.2H177
		z M175.9,71.1c0.6-0.4,1-1,1.1-1.7v-1.1h-3.2c-0.9,0-1.5,0.1-1.9,0.4c-0.4,0.3-0.6,0.7-0.6,1.2c0,0.6,0.2,1,0.6,1.3s1,0.5,1.7,0.5
		C174.5,71.8,175.2,71.6,175.9,71.1z"/>
	<path fill="#444A4C" d="M192.6,57.9v15.4h-1.9v-2.2c-0.4,0.7-1,1.3-1.7,1.7s-1.5,0.6-2.4,0.6c-1,0-2-0.2-2.7-0.7
		c-0.8-0.5-1.4-1.1-1.9-2c-0.4-0.8-0.7-1.8-0.7-2.9c0-1.1,0.2-2,0.7-2.9c0.4-0.8,1.1-1.5,1.9-2s1.7-0.7,2.7-0.7
		c0.9,0,1.8,0.2,2.5,0.6s1.3,0.9,1.7,1.7v-6.6H192.6z M188.8,71.3c0.6-0.3,1-0.8,1.3-1.4c0.3-0.6,0.5-1.3,0.5-2c0-0.8-0.2-1.4-0.5-2
		c-0.3-0.6-0.8-1.1-1.3-1.4c-0.6-0.3-1.2-0.5-1.9-0.5c-0.7,0-1.4,0.2-1.9,0.5c-0.6,0.3-1,0.8-1.3,1.4s-0.5,1.3-0.5,2
		c0,0.7,0.2,1.4,0.5,2s0.8,1.1,1.3,1.4c0.6,0.3,1.2,0.5,1.9,0.5C187.6,71.8,188.3,71.6,188.8,71.3z"/>
	<path fill="#444A4C" d="M203.9,63c0.8,0.5,1.5,1.1,2,2c0.5,0.8,0.7,1.8,0.7,2.9s-0.2,2-0.7,2.9s-1.1,1.5-2,2
		c-0.8,0.5-1.8,0.7-2.9,0.7c-1.1,0-2.1-0.2-2.9-0.7c-0.8-0.5-1.5-1.1-2-2c-0.5-0.8-0.7-1.8-0.7-2.9c0-1.1,0.2-2,0.7-2.9
		c0.5-0.8,1.1-1.5,2-2c0.8-0.5,1.8-0.7,2.9-0.7C202.1,62.3,203.1,62.5,203.9,63z M199.1,64.5c-0.6,0.3-1,0.8-1.3,1.4s-0.5,1.3-0.5,2
		c0,0.8,0.2,1.4,0.5,2s0.7,1.1,1.3,1.4c0.6,0.3,1.2,0.5,1.9,0.5c0.7,0,1.3-0.2,1.9-0.5c0.6-0.3,1-0.8,1.3-1.4s0.5-1.3,0.5-2
		c0-0.7-0.2-1.4-0.5-2s-0.7-1-1.3-1.4c-0.6-0.3-1.2-0.5-1.9-0.5C200.3,64,199.6,64.1,199.1,64.5z"/>
	<path fill="#444A4C" d="M213.8,64.1c-0.5-0.2-1.1-0.2-1.6-0.2c-0.6,0-1,0.1-1.4,0.3c-0.4,0.2-0.5,0.5-0.5,1c0,0.4,0.2,0.8,0.6,1
		c0.4,0.2,1,0.5,1.8,0.7c0.8,0.2,1.4,0.4,1.9,0.7c0.5,0.2,0.9,0.5,1.2,1c0.3,0.4,0.5,1,0.5,1.7c0,1-0.4,1.8-1.2,2.4
		c-0.8,0.5-1.8,0.8-2.9,0.8c-0.8,0-1.6-0.1-2.4-0.4c-0.8-0.3-1.4-0.6-1.9-1.1l0.7-1.4c0.5,0.4,1,0.7,1.7,1c0.7,0.2,1.3,0.4,2,0.4
		c0.6,0,1.1-0.1,1.5-0.4c0.4-0.2,0.6-0.6,0.6-1.1c0-0.5-0.2-0.9-0.6-1.1c-0.4-0.2-1-0.5-1.9-0.7c-0.7-0.2-1.3-0.4-1.8-0.6
		c-0.5-0.2-0.9-0.5-1.2-0.9c-0.3-0.4-0.5-1-0.5-1.6c0-1,0.4-1.8,1.1-2.3c0.7-0.5,1.7-0.8,2.8-0.8c0.7,0,1.3,0.1,2,0.3
		c0.6,0.2,1.2,0.4,1.7,0.8l-0.7,1.5C214.8,64.5,214.3,64.3,213.8,64.1z"/>
</g>
</svg>
