<?xml version="1.0" encoding="utf-8"?>
<!-- Generator: Adobe Illustrator 17.1.0, SVG Export Plug-In . SVG Version: 6.00 Build 0)  -->
<!DOCTYPE svg PUBLIC "-//W3C//DTD SVG 1.1//EN" "http://www.w3.org/Graphics/SVG/1.1/DTD/svg11.dtd">
<svg version="1.1" id="Layer_1" xmlns="http://www.w3.org/2000/svg" xmlns:xlink="http://www.w3.org/1999/xlink" x="0px" y="0px"
	 width="438.2px" height="490.5px" viewBox="0 0 438.2 490.5" enable-background="new 0 0 438.2 490.5" xml:space="preserve">
<g id="_x35_0-variaveis">
	<g id="corpo">
		<path fill="#CC455C" d="M221.4,22.3C100.4,22.3,0.1,5,0.1,5c12.2,35.5,24.4,70.9,36.6,106.4c121.3,13.4,243.6,13.4,364.9,0
			C413.8,75.9,426,40.5,438.2,5C435.2,5.5,340.4,22.3,221.4,22.3z"/>
		<path fill="#A63B53" d="M438.2,5L438.2,5c0.1,0-95.8-5-216.8-5S0.1,5,0.1,5s100.3,17.3,221.3,17.3C340.4,22.3,435.2,5.5,438.2,5z"
			/>
	</g>
	<g id="valor-num">
		<path fill="#FFFFFF" d="M130.3,64c4.1,1.8,7.3,4.3,9.6,7.5c2.2,3.2,3.4,6.9,3.4,11.1c0,4.9-1.2,9.2-3.5,12.9
			c-2.3,3.7-5.7,6.5-10.1,8.5c-4.4,2-9.4,3-15.2,3c-4.7,0-9.5-0.8-14.5-2.4s-9.4-3.7-13.3-6.3L93.5,85c6.5,5.2,12.8,7.8,19,7.8
			c3.5,0,6.2-0.8,8.1-2.4s2.9-3.7,2.9-6.5c0-2.7-1-4.8-2.9-6.3c-1.9-1.4-4.8-2.2-8.6-2.2c-8.9,0-15.4,0.1-19.3,0.4V35.7h47.4v14.8
			h-30.5v10.8h6.3C121.4,61.3,126.2,62.2,130.3,64z"/>
		<path fill="#FFFFFF" d="M205.2,44.4c5.4,6.2,8.1,15,8.1,26.5s-2.7,20.4-8.1,26.6c-5.4,6.2-13.1,9.3-23.1,9.3
			c-10.1,0-17.9-3.1-23.3-9.3c-5.4-6.2-8.1-15.1-8.1-26.6s2.7-20.4,8.1-26.5c5.4-6.2,13.2-9.3,23.3-9.3
			C192.1,35.1,199.8,38.2,205.2,44.4z M172.6,54c-1.9,3.5-2.9,9.1-2.9,16.9c0,7.9,1,13.6,2.9,17c1.9,3.5,5.1,5.2,9.6,5.2
			c4.3,0,7.4-1.7,9.4-5.2s3-9.1,3-17c0-7.8-1-13.5-3-16.9c-2-3.5-5.1-5.2-9.4-5.2C177.7,48.8,174.5,50.5,172.6,54z"/>
	</g>
	<g id="txt">
		<g>
			<path fill="#FFFFFF" d="M224.2,39.4h4.6l3.7,11.3l3.6-11.3h4.4l-5.9,15.5h-4.5L224.2,39.4z"/>
			<path fill="#FFFFFF" d="M251.1,54.9v-1.8c-0.5,0.7-1.2,1.2-2,1.5c-0.8,0.3-1.8,0.5-2.9,0.5c-1.6,0-2.9-0.4-3.9-1.3
				c-1-0.9-1.4-2.1-1.4-3.5c0-1.5,0.5-2.6,1.5-3.4c1-0.8,2.5-1.2,4.4-1.3h4.3v-0.3c0-0.8-0.3-1.5-0.8-1.9c-0.5-0.5-1.4-0.7-2.4-0.7
				c-1.4,0-3,0.5-4.6,1.4l-1.4-3.1c1.2-0.6,2.4-1.1,3.5-1.4c1.1-0.3,2.3-0.4,3.5-0.4c2.1,0,3.7,0.5,4.8,1.5s1.7,2.3,1.7,4.1v10.1
				H251.1z M249.8,51.2c0.7-0.4,1.1-1,1.2-1.7v-1.4h-3.5c-0.9,0-1.5,0.1-1.9,0.4c-0.4,0.3-0.6,0.7-0.6,1.3s0.2,1.1,0.6,1.4
				c0.4,0.4,1,0.5,1.8,0.5C248.3,51.9,249.1,51.7,249.8,51.2z"/>
			<path fill="#FFFFFF" d="M265.8,40c0.9-0.5,1.9-0.8,3-0.8v4.2c-0.2,0-0.4,0-0.7,0c-1.4,0-2.4,0.4-3.2,1.1s-1.2,1.7-1.2,3V55h-4.4
				V39.4h4.4v2.8C264.2,41.2,264.9,40.5,265.8,40z"/>
			<path fill="#FFFFFF" d="M275.2,33.1c0.5,0.5,0.7,1.1,0.7,1.8s-0.2,1.3-0.7,1.8s-1,0.7-1.7,0.7s-1.3-0.2-1.7-0.7
				c-0.5-0.5-0.7-1.1-0.7-1.8s0.2-1.3,0.7-1.8s1-0.7,1.7-0.7C274.2,32.5,274.7,32.7,275.2,33.1z M271.3,39.4h4.4v15.5h-4.4V39.4z"/>
			<path fill="#FFFFFF" d="M289,54.9v-1.8c-0.5,0.7-1.2,1.2-2,1.5s-1.8,0.5-2.9,0.5c-1.6,0-2.9-0.4-3.9-1.3c-1-0.9-1.4-2.1-1.4-3.5
				c0-1.5,0.5-2.6,1.5-3.4c1-0.8,2.5-1.2,4.4-1.3h4.3v-0.3c0-0.8-0.3-1.5-0.8-1.9c-0.5-0.5-1.4-0.7-2.4-0.7c-1.4,0-3,0.5-4.6,1.4
				l-1.4-3.1c1.2-0.6,2.4-1.1,3.5-1.4c1.1-0.3,2.3-0.4,3.5-0.4c2.1,0,3.7,0.5,4.8,1.5c1.1,1,1.7,2.3,1.7,4.1v10.1H289z M287.7,51.2
				c0.7-0.4,1.1-1,1.2-1.7v-1.4h-3.5c-0.9,0-1.5,0.1-1.9,0.4c-0.4,0.3-0.6,0.7-0.6,1.3s0.2,1.1,0.6,1.4c0.4,0.4,1,0.5,1.8,0.5
				C286.3,51.9,287.1,51.7,287.7,51.2z M287.4,32.8l3.9,1.5l-3.9,3.2l-3.2-0.3L287.4,32.8z"/>
			<path fill="#FFFFFF" d="M294.7,39.4h4.6l3.7,11.3l3.6-11.3h4.4l-5.9,15.5h-4.6L294.7,39.4z"/>
			<path fill="#FFFFFF" d="M324.8,41.4c1.3,1.4,1.9,3.5,1.9,6c0,0.5,0,0.8,0,1.1h-11.1c0.3,1,0.7,1.7,1.4,2.3
				c0.7,0.5,1.6,0.8,2.6,0.8c0.7,0,1.4-0.1,2.1-0.4c0.7-0.3,1.3-0.7,1.8-1.2l2.3,2.4c-0.8,0.9-1.7,1.6-2.9,2
				c-1.1,0.5-2.4,0.7-3.8,0.7c-1.6,0-3.1-0.3-4.3-1c-1.2-0.7-2.2-1.6-2.8-2.8c-0.7-1.2-1-2.6-1-4.1c0-1.6,0.3-3,1-4.2
				s1.6-2.1,2.8-2.8c1.2-0.7,2.6-1,4.2-1C321.6,39.2,323.5,39.9,324.8,41.4z M322.5,45.8c0-1-0.4-1.8-1-2.5
				c-0.6-0.6-1.4-0.9-2.5-0.9c-1,0-1.8,0.3-2.4,0.9c-0.6,0.6-1.1,1.4-1.2,2.5H322.5z"/>
			<path fill="#FFFFFF" d="M333.6,33.1c0.5,0.5,0.7,1.1,0.7,1.8s-0.2,1.3-0.7,1.8s-1,0.7-1.7,0.7s-1.3-0.2-1.7-0.7
				c-0.5-0.5-0.7-1.1-0.7-1.8s0.2-1.3,0.7-1.8s1-0.7,1.7-0.7C332.5,32.5,333.1,32.7,333.6,33.1z M329.6,39.4h4.4v15.5h-4.4V39.4z"/>
			<path fill="#FFFFFF" d="M345.6,42.8c-0.8-0.3-1.6-0.4-2.2-0.4c-0.5,0-1,0.1-1.3,0.3s-0.5,0.5-0.5,0.9s0.2,0.8,0.7,1
				c0.4,0.2,1.2,0.5,2.2,0.8c1.1,0.3,2,0.6,2.7,1s1.3,0.8,1.8,1.4s0.8,1.4,0.8,2.5c0,1.5-0.6,2.7-1.8,3.6c-1.2,0.9-2.7,1.3-4.5,1.3
				c-1.3,0-2.5-0.2-3.7-0.6s-2.2-0.9-3.1-1.6l1.4-3c0.8,0.6,1.7,1.1,2.6,1.4c1,0.3,1.9,0.5,2.8,0.5c0.6,0,1.1-0.1,1.4-0.3
				c0.4-0.2,0.5-0.5,0.5-0.9s-0.2-0.8-0.7-1s-1.2-0.5-2.2-0.8c-1.1-0.3-1.9-0.6-2.6-0.9s-1.3-0.8-1.8-1.4c-0.5-0.6-0.8-1.4-0.8-2.4
				c0-1.5,0.6-2.7,1.7-3.6s2.6-1.3,4.4-1.3c1.1,0,2.1,0.1,3.2,0.4c1.1,0.3,2,0.7,2.9,1.3l-1.5,3C347.3,43.4,346.5,43.1,345.6,42.8z"
				/>
		</g>
		<g>
			<path fill="#FFFFFF" d="M238.1,60.3v16.9h-3.5v-1.8c-0.4,0.6-1,1.1-1.6,1.4c-0.7,0.3-1.4,0.5-2.2,0.5c-1.2,0-2.2-0.3-3-0.8
				c-0.9-0.5-1.6-1.3-2-2.2c-0.5-1-0.7-2.1-0.7-3.3c0-1.2,0.2-2.3,0.7-3.3c0.5-0.9,1.1-1.7,2-2.2s1.9-0.8,3-0.8c1.7,0,3.1,0.6,4,1.9
				v-6.5h3.3V60.3z M233.7,73.6c0.6-0.6,0.9-1.4,0.9-2.5s-0.3-1.8-0.9-2.5c-0.6-0.6-1.3-0.9-2.2-0.9s-1.7,0.3-2.2,0.9
				c-0.6,0.6-0.9,1.4-0.9,2.5c0,1,0.3,1.8,0.9,2.5c0.6,0.6,1.3,0.9,2.2,0.9S233.2,74.2,233.7,73.6z"/>
			<path fill="#FFFFFF" d="M244.7,60.1c0.4,0.4,0.5,0.8,0.5,1.4c0,0.6-0.2,1-0.5,1.4c-0.4,0.4-0.8,0.5-1.4,0.5c-0.5,0-1-0.2-1.4-0.6
				c-0.4-0.4-0.5-0.8-0.5-1.4c0-0.6,0.2-1,0.5-1.4c0.4-0.4,0.8-0.5,1.4-0.5C243.9,59.5,244.4,59.7,244.7,60.1z M241.6,65h3.5v12.3
				h-3.5V65z"/>
			<path fill="#FFFFFF" d="M246.7,65h3.6l2.9,8.9l2.9-8.9h3.5L255,77.3h-3.6L246.7,65z"/>
			<path fill="#FFFFFF" d="M272.8,65v12.3h-3.5v-2.2c-0.8,1.5-2.2,2.3-4.1,2.3c-1.4,0-2.4-0.4-3.2-1.3s-1.2-2-1.2-3.4V65h3.5v6.7
				c0,0.8,0.2,1.4,0.6,1.8s1,0.7,1.7,0.7c0.8,0,1.5-0.3,2-0.9s0.7-1.3,0.7-2.2V65H272.8z"/>
			<path fill="#FFFFFF" d="M276.3,60.3h3.5v16.9h-3.5V60.3z"/>
			<path fill="#FFFFFF" d="M294.8,65v11.1c0,1.2-0.3,2.2-0.8,3c-0.5,0.9-1.3,1.5-2.3,2s-2.1,0.7-3.4,0.7c-1,0-2-0.1-2.9-0.4
				s-1.7-0.7-2.5-1.2l1.3-2.5c1.2,0.8,2.4,1.2,3.8,1.2c1,0,1.8-0.2,2.4-0.7s0.9-1.2,0.9-2v-1.4c-0.4,0.6-0.9,1-1.6,1.3
				c-0.6,0.3-1.3,0.5-2.1,0.5c-1,0-2-0.2-2.8-0.7s-1.4-1.2-1.9-2.1c-0.4-0.9-0.7-1.9-0.7-3.1s0.2-2.2,0.7-3s1.1-1.6,1.9-2
				c0.8-0.5,1.7-0.7,2.8-0.7c0.8,0,1.5,0.2,2.1,0.5s1.1,0.7,1.6,1.3V65H294.8z M290.5,73c0.5-0.6,0.8-1.3,0.8-2.3
				c0-0.9-0.3-1.7-0.8-2.3c-0.5-0.6-1.2-0.9-2.1-0.9s-1.5,0.3-2.1,0.9s-0.8,1.4-0.8,2.3s0.3,1.7,0.8,2.3c0.5,0.6,1.2,0.9,2.1,0.9
				C289.3,73.9,290,73.6,290.5,73z"/>
			<path fill="#FFFFFF" d="M305.1,77.2v-1.4c-0.4,0.5-0.9,0.9-1.6,1.2c-0.7,0.3-1.4,0.4-2.3,0.4c-1.3,0-2.3-0.4-3.1-1.1
				s-1.1-1.6-1.1-2.8c0-1.2,0.4-2.1,1.2-2.7c0.8-0.6,2-1,3.5-1h3.4v-0.2c0-0.7-0.2-1.2-0.6-1.5c-0.4-0.4-1.1-0.5-1.9-0.5
				c-1.1,0-2.4,0.4-3.6,1.1l-1.1-2.4c1-0.5,1.9-0.8,2.7-1.1c0.9-0.2,1.8-0.3,2.8-0.3c1.6,0,2.9,0.4,3.8,1.2c0.9,0.8,1.4,1.9,1.4,3.2
				v8L305.1,77.2L305.1,77.2z M304.2,74.4c0.5-0.3,0.9-0.8,1-1.3V72h-2.8c-0.7,0-1.2,0.1-1.5,0.3s-0.5,0.6-0.5,1.1s0.2,0.8,0.5,1.1
				c0.3,0.3,0.8,0.4,1.4,0.4C303,74.9,303.6,74.7,304.2,74.4z"/>
			<path fill="#FFFFFF" d="M323.7,60.3v16.9h-3.5v-1.8c-0.4,0.6-1,1.1-1.6,1.4c-0.7,0.3-1.4,0.5-2.2,0.5c-1.2,0-2.2-0.3-3-0.8
				c-0.9-0.5-1.5-1.3-2-2.2c-0.5-1-0.7-2.1-0.7-3.3c0-1.2,0.2-2.3,0.7-3.3c0.5-0.9,1.1-1.7,2-2.2s1.9-0.8,3-0.8c1.7,0,3.1,0.6,4,1.9
				v-6.5h3.3V60.3z M319.4,73.6c0.6-0.6,0.9-1.4,0.9-2.5s-0.3-1.8-0.9-2.5c-0.6-0.6-1.3-0.9-2.2-0.9c-0.9,0-1.7,0.3-2.2,0.9
				c-0.6,0.6-0.9,1.4-0.9,2.5c0,1,0.3,1.8,0.9,2.5c0.6,0.6,1.3,0.9,2.2,0.9S318.8,74.2,319.4,73.6z"/>
			<path fill="#FFFFFF" d="M334.4,77.2v-1.4c-0.4,0.5-0.9,0.9-1.6,1.2c-0.7,0.3-1.4,0.4-2.3,0.4c-1.3,0-2.3-0.4-3.1-1.1
				s-1.1-1.6-1.1-2.8c0-1.2,0.4-2.1,1.2-2.7c0.8-0.6,2-1,3.5-1h3.4v-0.2c0-0.7-0.2-1.2-0.6-1.5c-0.4-0.4-1.1-0.5-1.9-0.5
				c-1.1,0-2.4,0.4-3.6,1.1l-1.1-2.4c1-0.5,1.9-0.8,2.7-1.1c0.9-0.2,1.8-0.3,2.8-0.3c1.6,0,2.9,0.4,3.8,1.2c0.9,0.8,1.4,1.9,1.4,3.2
				v8L334.4,77.2L334.4,77.2z M333.4,74.4c0.5-0.3,0.9-0.8,1-1.3V72h-2.8c-0.7,0-1.2,0.1-1.5,0.3s-0.5,0.6-0.5,1.1s0.2,0.8,0.5,1.1
				c0.3,0.3,0.8,0.4,1.4,0.4C332.2,74.9,332.8,74.7,333.4,74.4z"/>
			<path fill="#FFFFFF" d="M346.6,67.7c-0.7-0.2-1.2-0.3-1.8-0.3c-0.4,0-0.8,0.1-1,0.2c-0.3,0.2-0.4,0.4-0.4,0.7
				c0,0.3,0.2,0.6,0.5,0.8c0.3,0.2,0.9,0.4,1.7,0.6c0.9,0.3,1.6,0.5,2.1,0.8c0.6,0.3,1,0.6,1.5,1.1s0.6,1.1,0.6,1.9
				c0,1.2-0.5,2.2-1.4,2.8s-2.1,1-3.6,1c-1,0-2-0.1-2.9-0.4s-1.7-0.7-2.4-1.3l1.1-2.4c0.6,0.5,1.3,0.9,2.1,1.1
				c0.8,0.3,1.5,0.4,2.2,0.4c0.5,0,0.8-0.1,1.1-0.2s0.4-0.4,0.4-0.7c0-0.3-0.2-0.6-0.5-0.8c-0.4-0.2-0.9-0.4-1.7-0.6
				c-0.8-0.2-1.5-0.5-2.1-0.7s-1-0.6-1.4-1.1s-0.6-1.1-0.6-1.9c0-1.2,0.5-2.2,1.4-2.8c0.9-0.7,2.1-1,3.5-1c0.8,0,1.7,0.1,2.5,0.4
				c0.8,0.2,1.6,0.6,2.3,1l-1.2,2.4C347.9,68.2,347.2,67.9,346.6,67.7z"/>
		</g>
		<g>
			<path fill="#FFFFFF" d="M239.9,90.9c1.1,0.7,2,1.7,2.7,2.9c0.6,1.3,0.9,2.7,0.9,4.4c0,1.6-0.3,3-0.9,4.3
				c-0.6,1.3-1.5,2.2-2.6,2.9c-1.1,0.7-2.4,1-3.9,1c-1.1,0-2.1-0.2-3-0.6s-1.6-1.1-2.2-1.9v8.2h-4.6v-22h4.6v2.4
				c0.6-0.8,1.3-1.4,2.2-1.9c0.9-0.4,1.8-0.6,2.9-0.6C237.5,89.9,238.8,90.3,239.9,90.9z M237.8,101.3c0.7-0.8,1.1-1.9,1.1-3.2
				c0-1.3-0.4-2.4-1.1-3.2c-0.7-0.8-1.7-1.2-2.9-1.2c-1.2,0-2.1,0.4-2.9,1.2c-0.8,0.8-1.1,1.9-1.1,3.2c0,1.3,0.4,2.4,1.1,3.2
				c0.8,0.8,1.7,1.2,2.9,1.2C236.1,102.5,237,102.1,237.8,101.3z"/>
			<path fill="#FFFFFF" d="M259.5,92.2c1.3,1.5,2,3.6,2,6.3c0,0.5,0,0.9,0,1.1h-11.6c0.3,1,0.8,1.8,1.5,2.4c0.7,0.6,1.6,0.9,2.7,0.9
				c0.8,0,1.5-0.1,2.2-0.4c0.7-0.3,1.3-0.7,1.9-1.3l2.4,2.5c-0.8,0.9-1.8,1.6-3,2.1s-2.5,0.7-3.9,0.7c-1.7,0-3.2-0.3-4.5-1
				c-1.3-0.7-2.3-1.6-2.9-2.9c-0.7-1.2-1-2.7-1-4.3c0-1.6,0.3-3.1,1-4.3c0.7-1.2,1.7-2.2,2.9-2.9c1.2-0.7,2.7-1,4.3-1
				C256.1,89.9,258.1,90.7,259.5,92.2z M257.1,96.8c0-1.1-0.4-1.9-1-2.5s-1.5-1-2.6-1c-1,0-1.8,0.3-2.5,0.9
				c-0.7,0.6-1.1,1.5-1.3,2.6H257.1z"/>
			<path fill="#FFFFFF" d="M264.7,83.9h4.6v22.3h-4.6V83.9z"/>
			<path fill="#FFFFFF" d="M285.7,90.9c1.3,0.7,2.3,1.6,3,2.9c0.7,1.2,1.1,2.7,1.1,4.3c0,1.6-0.4,3.1-1.1,4.3
				c-0.7,1.3-1.7,2.2-3,2.9c-1.3,0.7-2.8,1-4.5,1s-3.2-0.3-4.5-1s-2.3-1.7-3-2.9c-0.7-1.2-1.1-2.7-1.1-4.3c0-1.6,0.4-3.1,1.1-4.3
				c0.7-1.2,1.7-2.2,3-2.9c1.3-0.7,2.8-1,4.5-1C282.9,89.9,284.4,90.3,285.7,90.9z M278.3,95c-0.8,0.8-1.1,1.9-1.1,3.2
				c0,1.3,0.4,2.4,1.1,3.2c0.8,0.8,1.7,1.2,2.9,1.2c1.2,0,2.1-0.4,2.9-1.2c0.8-0.8,1.1-1.9,1.1-3.2c0-1.3-0.4-2.4-1.1-3.2
				c-0.8-0.8-1.7-1.2-2.9-1.2C280,93.8,279,94.2,278.3,95z"/>
			<path fill="#FFFFFF" d="M300.7,84.4h7.2v21.8h-7.2V84.4z"/>
			<path fill="#FFFFFF" d="M323.4,90.1c-1.5-0.5-2.6-0.8-3.5-0.8s-1.3,0.3-1.3,1c0,0.5,0.3,0.9,0.9,1.2c0.6,0.3,1.5,0.6,2.7,0.9
				c1.6,0.4,2.8,0.9,3.9,1.3c1,0.4,1.9,1.1,2.7,2.1c0.8,0.9,1.2,2.2,1.2,3.7c0,1.6-0.4,2.9-1.2,4c-0.8,1.1-1.9,1.9-3.3,2.4
				s-2.9,0.8-4.6,0.8c-1.9,0-3.9-0.3-5.8-0.9c-2-0.6-3.7-1.5-5.1-2.6l2.7-5.4c1.1,1,2.5,1.8,4.1,2.4c1.7,0.7,3,1,4.2,1
				c0.5,0,1-0.1,1.3-0.3c0.3-0.2,0.5-0.5,0.5-0.9c0-0.5-0.3-0.9-0.9-1.2c-0.6-0.3-1.5-0.6-2.8-0.9c-1.5-0.4-2.8-0.8-3.8-1.2
				c-1-0.4-1.9-1.1-2.7-2c-0.7-0.9-1.1-2.1-1.1-3.6s0.4-2.7,1.2-3.8s1.9-1.9,3.3-2.5s3-0.9,4.9-0.9c1.7,0,3.4,0.2,5.1,0.7
				s3.2,1.1,4.4,1.9l-2.6,5.5C326.2,91.3,324.8,90.7,323.4,90.1z"/>
			<path fill="#FFFFFF" d="M348.5,86.4c1.6,1.4,2.3,3.3,2.3,5.8c0,2.6-0.8,4.7-2.3,6.1c-1.6,1.5-3.8,2.2-6.6,2.2h-3v5.7h-7.2V84.4
				h10.2C344.7,84.4,346.9,85.1,348.5,86.4z M343.3,94.4c0.4-0.5,0.6-1.1,0.6-1.9s-0.2-1.4-0.6-1.9c-0.4-0.4-1-0.7-1.8-0.7h-2.6v5.2
				h2.6C342.3,95.1,342.9,94.8,343.3,94.4z"/>
		</g>
	</g>
</g>
<g id="_x31_9-delitos">
	<g id="corpo_1_">
		<path fill="#343738" d="M389.8,139.8c0,0-73.3-5.3-165-5.3s-166.1,5.3-166.1,5.3C168.7,152,279.8,152,389.8,139.8z"/>
		<path fill="#484C4E" d="M58.7,139.8c9.7,30.8,19.5,61.6,29.2,92.3c90.6,10,182.1,10,272.7,0c9.7-30.8,19.5-61.6,29.2-92.3
			C279.8,152,168.7,152,58.7,139.8z"/>
	</g>
	<g id="valor-num_1_">
		<g>
			<path fill="#FFFFFF" d="M112,165.2h25.2v55.5h-14.5V177H112V165.2z"/>
			<path fill="#FFFFFF" d="M158.8,209.4c2,0.6,4,0.9,6.1,0.9c4.2,0,7.4-1.3,9.6-3.8c2.2-2.6,3.2-6.2,3.1-10.8c-2.8,4-7.1,6-12.9,6
				c-3.5,0-6.6-0.8-9.3-2.3c-2.6-1.5-4.7-3.6-6.1-6.3c-1.5-2.7-2.2-5.9-2.2-9.5c0-3.8,0.8-7.2,2.5-10.1c1.7-2.9,4.1-5.1,7.1-6.6
				c3.1-1.6,6.6-2.3,10.7-2.3c4.9,0,9,1.1,12.6,3.3c3.5,2.2,6.3,5.4,8.1,9.5c1.9,4.1,2.8,9,2.8,14.6c0,5.9-1,11-3.1,15.4
				c-2.1,4.4-5,7.8-8.8,10.2s-8.2,3.6-13.3,3.6c-3.1,0-6.2-0.4-9.3-1.3c-3.2-0.8-5.9-2-8.2-3.3l5.3-10
				C155.1,207.9,156.8,208.8,158.8,209.4z M162.2,178c-1.4,1.3-2.1,3.3-2.1,5.7c0,2.4,0.7,4.2,2,5.6c1.3,1.3,3.2,2,5.6,2
				c2.6,0,4.7-0.7,6.1-2.2c1.5-1.5,2.2-3.3,2.2-5.7c0-2.2-0.7-4-2.1-5.4c-1.4-1.4-3.4-2.1-6-2.1C165.5,175.9,163.5,176.6,162.2,178z
				"/>
		</g>
	</g>
	<g id="txt_1_">
		<g>
			<g>
				<path fill="#FFFFFF" d="M235.2,166v25.2H230v-2.7c-0.7,0.9-1.5,1.7-2.4,2.2c-1,0.5-2.1,0.7-3.3,0.7c-1.7,0-3.2-0.4-4.5-1.2
					c-1.3-0.8-2.3-1.9-3-3.3c-0.7-1.4-1.1-3.1-1.1-4.9c0-1.8,0.4-3.4,1.1-4.8c0.7-1.4,1.7-2.5,3-3.3c1.3-0.8,2.8-1.2,4.4-1.2
					c2.6,0,4.5,1,5.9,2.9V166C230,166,235.2,166,235.2,166z M228.8,185.8c0.8-0.9,1.3-2.2,1.3-3.6c0-1.5-0.4-2.7-1.3-3.6
					c-0.8-0.9-1.9-1.4-3.3-1.4c-1.4,0-2.5,0.5-3.3,1.4c-0.8,0.9-1.3,2.2-1.3,3.6c0,1.5,0.5,2.7,1.3,3.6c0.8,0.9,2,1.4,3.3,1.4
					C226.8,187.2,227.9,186.7,228.8,185.8z"/>
				<path fill="#FFFFFF" d="M255,175.3c1.5,1.7,2.3,4.1,2.3,7.1c0,0.5,0,1,0,1.3h-13.1c0.3,1.2,0.9,2.1,1.7,2.7c0.8,0.6,1.8,1,3,1
					c0.9,0,1.7-0.2,2.5-0.5c0.8-0.3,1.5-0.8,2.1-1.4l2.7,2.8c-0.9,1-2.1,1.8-3.4,2.4c-1.3,0.6-2.8,0.8-4.4,0.8c-1.9,0-3.6-0.4-5-1.2
					c-1.4-0.8-2.5-1.9-3.3-3.3c-0.8-1.4-1.2-3-1.2-4.9c0-1.9,0.4-3.5,1.2-4.9c0.8-1.4,1.9-2.5,3.3-3.3s3.1-1.2,4.9-1.2
					C251.2,172.8,253.5,173.6,255,175.3z M252.4,180.6c0-1.2-0.4-2.2-1.2-2.9c-0.7-0.7-1.7-1.1-2.9-1.1c-1.1,0-2.1,0.4-2.8,1.1
					s-1.2,1.7-1.4,2.9C244,180.6,252.4,180.6,252.4,180.6z"/>
				<path fill="#FFFFFF" d="M260.9,166h5.2v25.2h-5.2V166z"/>
				<path fill="#FFFFFF" d="M275.9,165.6c0.5,0.5,0.8,1.2,0.8,2.1c0,0.9-0.3,1.6-0.8,2.1c-0.5,0.5-1.2,0.8-2.1,0.8
					c-0.8,0-1.5-0.3-2-0.8c-0.5-0.6-0.8-1.2-0.8-2.1c0-0.9,0.3-1.6,0.8-2.1c0.5-0.5,1.2-0.8,2-0.8
					C274.7,164.8,275.4,165.1,275.9,165.6z M271.3,172.9h5.2v18.2h-5.2V172.9z"/>
				<path fill="#FFFFFF" d="M292.8,190.2c-0.7,0.4-1.4,0.7-2.3,0.9c-0.8,0.2-1.7,0.3-2.5,0.3c-1.7,0-3.1-0.5-4.1-1.5
					c-1.1-1-1.6-2.4-1.6-4.2v-8.4h-2.5v-3.6h2.5v-5h5.2v5h5v3.6h-5v7.5c0,1.4,0.6,2.1,1.7,2.1c0.8,0,1.6-0.2,2.5-0.7L292.8,190.2z"
					/>
				<path fill="#FFFFFF" d="M309.2,173.9c1.5,0.8,2.6,1.9,3.4,3.3s1.2,3,1.2,4.9c0,1.8-0.4,3.5-1.2,4.9c-0.8,1.4-2,2.5-3.4,3.3
					c-1.5,0.8-3.2,1.2-5.1,1.2c-1.9,0-3.7-0.4-5.1-1.2c-1.5-0.8-2.6-1.9-3.4-3.3c-0.8-1.4-1.2-3-1.2-4.9c0-1.9,0.4-3.5,1.2-4.9
					c0.8-1.4,2-2.5,3.4-3.3c1.5-0.8,3.2-1.2,5.1-1.2C306,172.8,307.7,173.1,309.2,173.9z M300.8,178.5c-0.8,0.9-1.3,2.1-1.3,3.6
					s0.4,2.7,1.3,3.6c0.9,0.9,2,1.4,3.3,1.4c1.3,0,2.4-0.5,3.3-1.4c0.9-0.9,1.3-2.1,1.3-3.6c0-1.5-0.4-2.7-1.3-3.6
					c-0.8-0.9-1.9-1.4-3.3-1.4C302.7,177.1,301.6,177.6,300.8,178.5z"/>
				<path fill="#FFFFFF" d="M325.9,177c-1-0.3-1.8-0.5-2.6-0.5c-0.6,0-1.1,0.1-1.5,0.3c-0.4,0.2-0.6,0.6-0.6,1
					c0,0.5,0.3,0.9,0.8,1.2c0.5,0.3,1.4,0.6,2.5,0.9c1.3,0.4,2.4,0.8,3.2,1.1c0.8,0.4,1.6,0.9,2.2,1.7c0.6,0.7,0.9,1.7,0.9,2.9
					c0,1.8-0.7,3.2-2.1,4.2c-1.4,1-3.2,1.5-5.3,1.5c-1.5,0-2.9-0.2-4.3-0.7c-1.4-0.4-2.6-1.1-3.6-1.9l1.7-3.5c0.9,0.7,2,1.3,3.1,1.7
					c1.1,0.4,2.2,0.6,3.2,0.6c0.7,0,1.3-0.1,1.7-0.4c0.4-0.2,0.6-0.6,0.6-1.1c0-0.5-0.3-0.9-0.8-1.2c-0.5-0.3-1.4-0.6-2.6-0.9
					c-1.2-0.4-2.3-0.7-3.1-1.1c-0.8-0.4-1.5-0.9-2.1-1.6c-0.6-0.7-0.9-1.7-0.9-2.9c0-1.8,0.7-3.2,2-4.2c1.4-1,3.1-1.5,5.2-1.5
					c1.2,0,2.5,0.2,3.7,0.5s2.4,0.9,3.4,1.5l-1.8,3.6C327.8,177.7,326.9,177.3,325.9,177z"/>
			</g>
		</g>
		<g>
			<g>
				<path fill="#FFFFFF" d="M221.3,201.2c-0.5,0.4-0.7,1-0.7,1.8v2h4.3v2.1h-4.3V220h-2.7v-12.9h-2v-2.1h2v-1.7
					c0-1.1,0.2-2.1,0.7-2.9c0.5-0.8,1.1-1.4,1.9-1.8c0.8-0.4,1.6-0.6,2.5-0.6c0.9,0,1.8,0.2,2.7,0.7l-0.6,2.2
					c-0.7-0.3-1.4-0.5-2-0.5C222.4,200.6,221.8,200.8,221.3,201.2z M229.9,198.9c0.3,0.3,0.5,0.8,0.5,1.3c0,0.5-0.2,0.9-0.5,1.3
					c-0.3,0.3-0.7,0.5-1.2,0.5c-0.5,0-0.9-0.2-1.2-0.5c-0.3-0.3-0.5-0.8-0.5-1.3c0-0.5,0.2-0.9,0.5-1.3c0.3-0.3,0.7-0.5,1.2-0.5
					C229.2,198.4,229.6,198.5,229.9,198.9z M227.4,204.5h2.7V220h-2.7V204.5z"/>
				<path fill="#FFFFFF" d="M235.5,198.3h2.7V220h-2.7V198.3z"/>
				<path fill="#FFFFFF" d="M252,219c-1.2,0.8-2.4,1.1-3.6,1.1c-1.2,0-2.2-0.4-3-1.1s-1.1-1.8-1.1-3.3v-8.6h-2.2v-2.1h2.2v-4.1h2.7
					v4.1h4.7v2.1H247v8.1c0,0.9,0.2,1.5,0.5,1.8c0.3,0.4,0.8,0.6,1.4,0.6c0.7,0,1.5-0.2,2.4-0.7L252,219z"/>
				<path fill="#FFFFFF" d="M260.2,205.3c0.9-0.6,2-0.9,3.3-0.9v2.6c-1.6-0.1-2.9,0.4-3.8,1.2c-1,0.9-1.5,2.1-1.7,3.5v8.2h-2.7
					v-15.5h2.7v3.3C258.5,206.8,259.2,205.9,260.2,205.3z"/>
				<path fill="#FFFFFF" d="M275.2,220v-2.2c-1.1,1.5-3,2.3-5.4,2.3c-1.1,0-2-0.2-2.8-0.6c-0.8-0.4-1.4-1-1.9-1.7
					c-0.4-0.7-0.7-1.5-0.7-2.4c0-1.4,0.5-2.5,1.5-3.3c1-0.8,2.4-1.2,4.3-1.2h4.9v-0.7c0-1.1-0.3-1.9-1-2.5c-0.7-0.6-1.6-0.9-2.9-0.9
					c-1.6,0-3.1,0.6-4.8,1.7l-1.1-1.9c1.1-0.7,2.1-1.2,3.1-1.6c0.9-0.3,2.1-0.5,3.4-0.5c1.9,0,3.4,0.5,4.5,1.4
					c1.1,0.9,1.6,2.3,1.6,4l0,10.2L275.2,220L275.2,220z M273.6,216.9c0.9-0.6,1.4-1.4,1.6-2.4V213h-4.5c-1.2,0-2.1,0.2-2.7,0.6
					c-0.6,0.4-0.9,1-0.9,1.8c0,0.8,0.3,1.4,0.9,1.9c0.6,0.5,1.4,0.7,2.4,0.7C271.6,217.9,272.7,217.6,273.6,216.9z"/>
				<path fill="#FFFFFF" d="M297.2,198.3V220h-2.7v-3.1c-0.6,1-1.4,1.8-2.4,2.4c-1,0.6-2.1,0.8-3.4,0.8c-1.5,0-2.8-0.3-3.9-1
					s-2-1.6-2.6-2.8c-0.6-1.2-0.9-2.6-0.9-4.1c0-1.5,0.3-2.9,0.9-4c0.6-1.2,1.5-2.1,2.6-2.8c1.1-0.7,2.4-1,3.8-1
					c1.3,0,2.5,0.3,3.5,0.8c1,0.5,1.8,1.3,2.3,2.4v-9.3L297.2,198.3L297.2,198.3z M291.9,217.1c0.8-0.5,1.4-1.1,1.9-2
					c0.4-0.8,0.7-1.8,0.7-2.8c0-1.1-0.2-2-0.7-2.9c-0.4-0.8-1.1-1.5-1.9-2c-0.8-0.5-1.7-0.7-2.7-0.7c-1,0-1.9,0.2-2.7,0.7
					s-1.4,1.1-1.9,2c-0.4,0.8-0.7,1.8-0.7,2.8s0.2,2,0.7,2.8c0.4,0.8,1.1,1.5,1.9,2s1.7,0.7,2.7,0.7
					C290.2,217.8,291.1,217.6,291.9,217.1z"/>
				<path fill="#FFFFFF" d="M313.2,205.4c1.2,0.7,2.1,1.6,2.8,2.8c0.7,1.2,1,2.5,1,4s-0.3,2.9-1,4.1c-0.7,1.2-1.6,2.1-2.8,2.8
					c-1.2,0.7-2.6,1-4.1,1c-1.6,0-2.9-0.3-4.1-1c-1.2-0.7-2.1-1.6-2.8-2.8c-0.7-1.2-1-2.5-1-4.1c0-1.5,0.3-2.9,1-4
					c0.7-1.2,1.6-2.1,2.8-2.8c1.2-0.7,2.6-1,4.1-1C310.6,204.5,312,204.8,313.2,205.4z M306.4,207.5c-0.8,0.5-1.4,1.1-1.8,1.9
					c-0.4,0.8-0.7,1.8-0.7,2.8c0,1.1,0.2,2,0.7,2.9c0.4,0.8,1.1,1.5,1.8,1.9c0.8,0.5,1.7,0.7,2.7,0.7c1,0,1.9-0.2,2.7-0.7
					s1.4-1.1,1.8-1.9c0.4-0.8,0.7-1.8,0.7-2.9c0-1.1-0.2-2-0.7-2.8c-0.4-0.8-1.1-1.5-1.8-1.9c-0.8-0.5-1.7-0.7-2.7-0.7
					C308,206.8,307.1,207.1,306.4,207.5z"/>
				<path fill="#FFFFFF" d="M327.1,207c-0.8-0.2-1.5-0.4-2.2-0.4c-0.8,0-1.5,0.2-2,0.5c-0.5,0.3-0.7,0.8-0.7,1.4
					c0,0.6,0.3,1.1,0.8,1.4c0.6,0.3,1.4,0.6,2.5,1c1.1,0.3,1.9,0.6,2.6,0.9c0.7,0.3,1.3,0.8,1.7,1.4c0.5,0.6,0.7,1.4,0.7,2.4
					c0,1.5-0.6,2.6-1.6,3.3c-1.1,0.8-2.5,1.1-4.1,1.1c-1.1,0-2.3-0.2-3.3-0.6c-1.1-0.4-2-0.9-2.7-1.6l1-2c0.6,0.6,1.4,1.1,2.4,1.4
					c0.9,0.4,1.9,0.5,2.8,0.5s1.6-0.2,2.2-0.5c0.5-0.3,0.8-0.8,0.8-1.5c0-0.7-0.3-1.2-0.9-1.6c-0.6-0.4-1.4-0.7-2.6-1.1
					c-1-0.3-1.9-0.6-2.5-0.9s-1.2-0.7-1.7-1.3c-0.5-0.6-0.7-1.3-0.7-2.3c0-1.4,0.5-2.5,1.6-3.2c1.1-0.7,2.4-1.1,3.9-1.1
					c0.9,0,1.9,0.1,2.8,0.4c0.9,0.3,1.7,0.6,2.4,1.1l-1,2.1C328.6,207.6,327.9,207.3,327.1,207z"/>
			</g>
		</g>
	</g>
</g>
<g id="_x31_5-penas">
	<g id="corpo_2_">
		<path fill="#808380" d="M351.1,265.6c0,0-55.1-4.6-123.9-4.6s-125.6,4.6-125.6,4.6C184.5,274.7,268.2,274.7,351.1,265.6z"/>
		<path fill="#C2C2C2" d="M101.6,265.6c7.5,28.5,15,56.9,22.5,85.4c67.9,7.5,136.5,7.5,204.5,0c7.5-28.5,15-56.9,22.5-85.4
			C268.2,274.7,184.5,274.7,101.6,265.6z"/>
	</g>
	<g id="valor-num_2_">
		<path fill="#484C4E" d="M131.2,293h20.7v45.5H140v-35.8h-8.8V293z"/>
		<path fill="#484C4E" d="M188.4,311.3c2.7,1.2,4.7,2.8,6.2,4.9c1.5,2.1,2.2,4.5,2.2,7.1c0,3.2-0.8,5.9-2.3,8.3
			c-1.5,2.4-3.7,4.2-6.5,5.5c-2.8,1.3-6.1,1.9-9.8,1.9c-3,0-6.2-0.5-9.4-1.6c-3.2-1-6.1-2.4-8.6-4.1l4.4-8.6
			c4.2,3.4,8.3,5.1,12.3,5.1c2.3,0,4-0.5,5.3-1.5c1.3-1,1.9-2.4,1.9-4.2s-0.6-3.1-1.9-4.1c-1.2-0.9-3.1-1.4-5.6-1.4
			c-5.8,0-9.9,0.1-12.5,0.3v-26h30.6v9.5h-19.7v6.9h4.1C182.7,309.5,185.8,310.1,188.4,311.3z"/>
	</g>
	<g id="text">
		<g>
			<path fill="#484C4E" d="M227.6,296.5c1.4,0.8,2.5,2,3.3,3.5c0.8,1.5,1.2,3.2,1.2,5.1c0,1.9-0.4,3.6-1.1,5.1
				c-0.8,1.5-1.8,2.6-3.2,3.4c-1.4,0.8-3,1.2-4.8,1.2c-1.4,0-2.6-0.3-3.7-0.8c-1.1-0.5-2-1.2-2.7-2.2v9.6h-5.7v-26h5.7v2.8
				c0.7-1,1.6-1.7,2.7-2.2s2.3-0.8,3.6-0.8C224.6,295.2,226.2,295.7,227.6,296.5z M224.9,308.7c0.9-1,1.4-2.3,1.4-3.8
				c0-1.5-0.5-2.8-1.4-3.8c-0.9-1-2.1-1.5-3.5-1.5c-1.4,0-2.6,0.5-3.5,1.5c-0.9,1-1.4,2.2-1.4,3.8c0,1.6,0.5,2.9,1.4,3.8
				c0.9,1,2.1,1.5,3.5,1.5C222.9,310.2,224,309.7,224.9,308.7z"/>
			<path fill="#484C4E" d="M251.5,297.9c1.7,1.8,2.5,4.2,2.5,7.4c0,0.6,0,1,0,1.3h-14.2c0.3,1.2,0.9,2.1,1.8,2.8c0.9,0.7,2,1,3.3,1
				c0.9,0,1.8-0.2,2.7-0.5c0.9-0.3,1.6-0.8,2.3-1.5l3,2.9c-1,1.1-2.2,1.9-3.7,2.5c-1.4,0.6-3,0.9-4.8,0.9c-2.1,0-3.9-0.4-5.5-1.2
				c-1.6-0.8-2.8-1.9-3.6-3.4c-0.8-1.5-1.3-3.2-1.3-5.1c0-1.9,0.4-3.6,1.3-5.1c0.9-1.5,2.1-2.6,3.6-3.4c1.5-0.8,3.3-1.2,5.3-1.2
				C247.4,295.2,249.9,296.1,251.5,297.9z M248.7,303.4c0-1.3-0.5-2.3-1.2-3s-1.8-1.1-3.1-1.1c-1.2,0-2.2,0.4-3.1,1.1
				c-0.8,0.7-1.3,1.8-1.6,3L248.7,303.4L248.7,303.4z"/>
			<path fill="#484C4E" d="M275.4,297.2c1.3,1.3,2,3.1,2,5.3v12h-5.7v-10.4c0-1.2-0.3-2.2-1-2.9c-0.7-0.7-1.6-1-2.8-1
				c-1.4,0-2.5,0.5-3.3,1.4c-0.8,0.9-1.2,2.1-1.2,3.5v9.4h-5.7v-19.1h5.7v3.3c1.4-2.3,3.6-3.5,6.8-3.5
				C272.4,295.2,274.1,295.9,275.4,297.2z"/>
			<path fill="#484C4E" d="M293.7,314.5v-2.2c-0.7,0.8-1.5,1.4-2.6,1.8c-1.1,0.4-2.3,0.6-3.6,0.6c-2.1,0-3.7-0.5-5-1.6
				c-1.2-1.1-1.8-2.5-1.8-4.3c0-1.8,0.7-3.2,2-4.2s3.2-1.5,5.6-1.5h5.4v-0.4c0-1-0.3-1.8-1-2.4c-0.7-0.6-1.7-0.8-3.1-0.8
				c-1.8,0-3.8,0.6-5.9,1.7l-1.8-3.8c1.6-0.8,3-1.3,4.4-1.7c1.4-0.4,2.9-0.5,4.5-0.5c2.6,0,4.7,0.6,6.1,1.8s2.2,2.9,2.2,5l0,12.5
				L293.7,314.5L293.7,314.5z M292.2,310c0.9-0.5,1.4-1.2,1.5-2.1v-1.7h-4.4c-1.1,0-1.9,0.2-2.4,0.5c-0.5,0.3-0.8,0.9-0.8,1.6
				c0,0.7,0.3,1.3,0.8,1.8c0.6,0.4,1.3,0.7,2.3,0.7C290.3,310.9,291.3,310.6,292.2,310z"/>
			<path fill="#484C4E" d="M313.4,299.7c-1.1-0.3-2-0.5-2.8-0.5c-0.7,0-1.2,0.1-1.7,0.4c-0.4,0.2-0.6,0.6-0.6,1.1
				c0,0.5,0.3,0.9,0.8,1.2c0.6,0.3,1.5,0.6,2.8,1c1.4,0.4,2.5,0.8,3.5,1.2c0.9,0.4,1.7,1,2.4,1.7s1,1.8,1,3c0,1.9-0.8,3.4-2.3,4.4
				c-1.5,1.1-3.4,1.6-5.8,1.6c-1.6,0-3.2-0.2-4.7-0.7c-1.5-0.5-2.8-1.1-3.9-2l1.8-3.7c1,0.8,2.1,1.3,3.4,1.8s2.4,0.6,3.5,0.6
				c0.8,0,1.4-0.1,1.8-0.4c0.5-0.2,0.7-0.6,0.7-1.1c0-0.5-0.3-1-0.9-1.3s-1.5-0.6-2.8-1c-1.3-0.4-2.5-0.8-3.4-1.1
				c-0.9-0.4-1.7-1-2.3-1.7c-0.6-0.8-1-1.8-1-3c0-1.9,0.7-3.4,2.2-4.4c1.5-1,3.3-1.6,5.6-1.6c1.3,0,2.7,0.2,4,0.5
				c1.3,0.4,2.6,0.9,3.7,1.6l-1.9,3.7C315.5,300.4,314.5,300,313.4,299.7z"/>
		</g>
		<g>
			<path fill="#484C4E" d="M215.8,331.3c-0.4-0.1-0.7-0.2-1.1-0.2c-0.4,0-0.7,0.1-1,0.2c-0.2,0.1-0.4,0.4-0.4,0.7
				c0,0.3,0.1,0.5,0.4,0.7c0.3,0.2,0.7,0.3,1.2,0.5c0.5,0.2,1,0.3,1.3,0.5c0.3,0.2,0.6,0.4,0.9,0.7c0.2,0.3,0.4,0.7,0.4,1.2
				c0,0.7-0.3,1.3-0.8,1.6c-0.5,0.4-1.2,0.6-2,0.6c-0.6,0-1.1-0.1-1.6-0.3c-0.5-0.2-1-0.4-1.3-0.8l0.5-1c0.3,0.3,0.7,0.5,1.2,0.7
				c0.5,0.2,0.9,0.3,1.4,0.3c0.4,0,0.8-0.1,1.1-0.2c0.3-0.2,0.4-0.4,0.4-0.7c0-0.3-0.1-0.6-0.4-0.8c-0.3-0.2-0.7-0.3-1.3-0.5
				c-0.5-0.1-0.9-0.3-1.2-0.4c-0.3-0.1-0.6-0.4-0.8-0.7c-0.2-0.3-0.3-0.7-0.3-1.1c0-0.7,0.3-1.2,0.8-1.6c0.5-0.4,1.2-0.5,1.9-0.5
				c0.5,0,0.9,0.1,1.4,0.2c0.4,0.1,0.8,0.3,1.2,0.5l-0.5,1C216.5,331.5,216.2,331.4,215.8,331.3z"/>
			<path fill="#484C4E" d="M225,331c0.6,0.7,0.9,1.7,0.9,2.9c0,0.2,0,0.3,0,0.4h-6c0.1,0.7,0.4,1.2,0.9,1.6c0.5,0.4,1,0.6,1.7,0.6
				c0.5,0,0.9-0.1,1.3-0.2c0.4-0.2,0.7-0.4,1-0.7l0.7,0.8c-0.4,0.4-0.8,0.7-1.4,0.9c-0.5,0.2-1.1,0.3-1.8,0.3c-0.7,0-1.4-0.2-2-0.5
				c-0.6-0.3-1-0.8-1.4-1.4c-0.3-0.6-0.5-1.3-0.5-2c0-0.7,0.2-1.4,0.5-2c0.3-0.6,0.8-1,1.3-1.4c0.6-0.3,1.2-0.5,2-0.5
				C223.5,330,224.4,330.3,225,331z M224.7,333.3c0-0.7-0.3-1.2-0.7-1.6c-0.4-0.4-1-0.6-1.7-0.6c-0.7,0-1.2,0.2-1.7,0.6
				c-0.4,0.4-0.7,0.9-0.8,1.6L224.7,333.3L224.7,333.3z"/>
			<path fill="#484C4E" d="M234.5,330v6.8c0,0.7-0.2,1.4-0.5,1.9c-0.3,0.5-0.8,1-1.4,1.3c-0.6,0.3-1.3,0.4-2,0.4
				c-1.1,0-2.2-0.4-3.1-1.1l0.6-1c0.4,0.3,0.8,0.5,1.2,0.7c0.4,0.1,0.8,0.2,1.3,0.2c0.8,0,1.4-0.2,1.9-0.7c0.5-0.4,0.7-1,0.7-1.8
				v-1.1c-0.3,0.5-0.6,0.8-1.1,1.1c-0.5,0.3-1,0.4-1.6,0.4c-0.7,0-1.3-0.2-1.8-0.5c-0.5-0.3-0.9-0.7-1.2-1.3
				c-0.3-0.6-0.4-1.2-0.4-1.9c0-0.7,0.1-1.3,0.4-1.9c0.3-0.5,0.7-1,1.2-1.3c0.5-0.3,1.1-0.5,1.8-0.5c0.6,0,1.1,0.1,1.6,0.4
				c0.5,0.2,0.8,0.6,1.1,1.1V330L234.5,330L234.5,330z M232,335.9c0.4-0.2,0.6-0.5,0.9-0.9c0.2-0.4,0.3-0.8,0.3-1.3
				c0-0.5-0.1-0.9-0.3-1.3c-0.2-0.4-0.5-0.7-0.9-0.9c-0.4-0.2-0.8-0.3-1.3-0.3c-0.5,0-0.9,0.1-1.3,0.3c-0.4,0.2-0.7,0.5-0.9,0.9
				s-0.3,0.8-0.3,1.3c0,0.7,0.2,1.4,0.7,1.8c0.5,0.5,1,0.7,1.8,0.7C231.2,336.2,231.6,336.1,232,335.9z"/>
			<path fill="#484C4E" d="M243.7,330v7.6h-1.4V336c-0.5,1.1-1.4,1.6-2.8,1.7c-0.9,0-1.6-0.3-2.1-0.8c-0.5-0.5-0.7-1.2-0.7-2.2V330
				h1.4v4.3c0,0.6,0.2,1.1,0.5,1.5c0.3,0.4,0.8,0.5,1.4,0.5c0.7,0,1.3-0.3,1.7-0.8c0.4-0.5,0.6-1.1,0.6-1.9V330
				C242.3,330,243.7,330,243.7,330z"/>
			<path fill="#484C4E" d="M252.6,330.8c0.5,0.5,0.8,1.2,0.8,2.2v4.7H252v-4.3c0-0.6-0.2-1.1-0.5-1.5c-0.4-0.4-0.9-0.5-1.5-0.5
				c-0.7,0-1.2,0.2-1.7,0.7c-0.4,0.4-0.7,1-0.7,1.7v4.1h-1.3V330h1.3v1.6c0.5-1.1,1.5-1.6,2.9-1.7
				C251.4,330,252.1,330.3,252.6,330.8z"/>
			<path fill="#484C4E" d="M262.9,327v10.7h-1.3v-1.5c-0.3,0.5-0.7,0.9-1.2,1.2c-0.5,0.3-1,0.4-1.7,0.4c-0.7,0-1.4-0.2-1.9-0.5
				c-0.6-0.3-1-0.8-1.3-1.4c-0.3-0.6-0.5-1.3-0.5-2c0-0.7,0.2-1.4,0.5-2c0.3-0.6,0.7-1,1.3-1.4c0.6-0.3,1.2-0.5,1.9-0.5
				c0.7,0,1.2,0.1,1.7,0.4c0.5,0.3,0.9,0.7,1.2,1.2V327C261.5,327,262.9,327,262.9,327z M260.3,336.2c0.4-0.2,0.7-0.6,0.9-1
				c0.2-0.4,0.3-0.9,0.3-1.4c0-0.5-0.1-1-0.3-1.4c-0.2-0.4-0.5-0.7-0.9-1c-0.4-0.2-0.8-0.3-1.3-0.3c-0.5,0-0.9,0.1-1.3,0.4
				c-0.4,0.2-0.7,0.6-0.9,1c-0.2,0.4-0.3,0.9-0.3,1.4c0,0.5,0.1,1,0.3,1.4c0.2,0.4,0.5,0.7,0.9,1c0.4,0.2,0.8,0.3,1.3,0.3
				C259.5,336.6,259.9,336.5,260.3,336.2z"/>
			<path fill="#484C4E" d="M270.8,330.5c0.6,0.3,1.1,0.8,1.4,1.4c0.3,0.6,0.5,1.2,0.5,2c0,0.7-0.2,1.4-0.5,2c-0.3,0.6-0.8,1-1.4,1.4
				c-0.6,0.3-1.3,0.5-2,0.5c-0.8,0-1.4-0.2-2-0.5c-0.6-0.3-1.1-0.8-1.4-1.4c-0.3-0.6-0.5-1.3-0.5-2c0-0.7,0.2-1.4,0.5-2
				c0.3-0.6,0.8-1,1.4-1.4c0.6-0.3,1.3-0.5,2-0.5C269.5,330,270.2,330.2,270.8,330.5z M267.4,331.5c-0.4,0.2-0.7,0.5-0.9,1
				c-0.2,0.4-0.3,0.9-0.3,1.4c0,0.5,0.1,1,0.3,1.4c0.2,0.4,0.5,0.7,0.9,1c0.4,0.2,0.8,0.3,1.3,0.3c0.5,0,0.9-0.1,1.3-0.3
				c0.4-0.2,0.7-0.5,0.9-1c0.2-0.4,0.3-0.9,0.3-1.4c0-0.5-0.1-1-0.3-1.4s-0.5-0.7-0.9-1c-0.4-0.2-0.8-0.3-1.3-0.3
				C268.2,331.2,267.8,331.3,267.4,331.5z"/>
			<path fill="#484C4E" d="M283.5,330.5c0.6,0.3,1.1,0.8,1.4,1.4c0.3,0.6,0.5,1.2,0.5,2c0,0.7-0.2,1.4-0.5,2c-0.3,0.6-0.8,1-1.4,1.4
				c-0.6,0.3-1.3,0.5-2,0.5c-0.8,0-1.4-0.2-2-0.5c-0.6-0.3-1.1-0.8-1.4-1.4c-0.3-0.6-0.5-1.3-0.5-2c0-0.7,0.2-1.4,0.5-2
				c0.3-0.6,0.8-1,1.4-1.4c0.6-0.3,1.3-0.5,2-0.5C282.2,330,282.9,330.2,283.5,330.5z M280.1,331.5c-0.4,0.2-0.7,0.5-0.9,1
				c-0.2,0.4-0.3,0.9-0.3,1.4c0,0.5,0.1,1,0.3,1.4c0.2,0.4,0.5,0.7,0.9,1c0.4,0.2,0.8,0.3,1.3,0.3c0.5,0,0.9-0.1,1.3-0.3
				c0.4-0.2,0.7-0.5,0.9-1c0.2-0.4,0.3-0.9,0.3-1.4c0-0.5-0.1-1-0.3-1.4s-0.5-0.7-0.9-1c-0.4-0.2-0.8-0.3-1.3-0.3
				C280.9,331.2,280.5,331.3,280.1,331.5z"/>
			<path fill="#484C4E" d="M299.8,327.3c-0.6-0.3-1.2-0.5-1.8-0.5c-0.6,0-1.2,0.2-1.8,0.5s-0.9,0.8-1.2,1.3s-0.5,1.2-0.5,1.9
				c0,0.7,0.2,1.3,0.5,1.9c0.3,0.6,0.7,1,1.2,1.3c0.5,0.3,1.1,0.5,1.8,0.5c0.6,0,1.1-0.1,1.8-0.4c0.6-0.3,1.2-0.7,1.7-1.2l2.5,2.6
				c-0.8,0.8-1.7,1.5-2.8,2c-1.1,0.5-2.2,0.7-3.3,0.7c-1.4,0-2.8-0.3-3.9-1c-1.2-0.6-2.1-1.5-2.7-2.6s-1-2.4-1-3.8
				c0-1.4,0.3-2.6,1-3.7c0.7-1.1,1.6-2,2.8-2.6c1.2-0.6,2.5-0.9,4-0.9c1.1,0,2.2,0.2,3.3,0.7c1.1,0.5,2,1.1,2.7,1.8l-2.5,2.9
				C300.9,328.1,300.4,327.7,299.8,327.3z"/>
			<path fill="#484C4E" d="M316.1,324.9c1,0.9,1.5,2.1,1.5,3.7c0,1.7-0.5,3-1.5,3.9c-1,0.9-2.5,1.4-4.4,1.4l-2.3,0v3.8h-4.3v-14h6.6
				C313.6,323.6,315.1,324.1,316.1,324.9z M313.1,330.2c0.4-0.3,0.5-0.8,0.5-1.4c0-0.6-0.2-1.1-0.5-1.4c-0.4-0.3-0.9-0.5-1.5-0.5
				h-2.1v3.8h2.1C312.2,330.7,312.7,330.5,313.1,330.2z"/>
		</g>
	</g>
</g>
<g id="_x31_-indice">
	<ellipse id="shadow_1_" fill="#484C4E" cx="231.6" cy="483.4" rx="61.1" ry="7.1"/>
	<g id="corpo_3_">
		<path fill="#C2C2C2" d="M320.8,383.5c0,0-39.6-5.2-88.8-5.2s-89.5,5.2-89.5,5.2C201.8,390.1,261.6,390.1,320.8,383.5z"/>
		<path fill="#E1E2E2" d="M142.5,383.5c5.3,26.6,10.5,53.1,15.8,79.7c48.8,5.4,98,5.4,146.7,0c5.3-26.6,10.5-53.1,15.8-79.7
			C261.6,390.1,201.8,390.1,142.5,383.5z"/>
	</g>
	<g id="valor-num_3_">
		<g>
			<path fill="#484C4E" d="M229.6,404c3.1,3.5,4.6,8.6,4.6,15.2s-1.5,11.7-4.6,15.3c-3.1,3.6-7.5,5.3-13.2,5.3
				c-5.8,0-10.3-1.8-13.4-5.3c-3.1-3.6-4.6-8.6-4.6-15.3c0-6.7,1.5-11.7,4.6-15.2s7.5-5.3,13.4-5.3
				C222.1,398.7,226.5,400.4,229.6,404z M210.9,409.5c-1.1,2-1.7,5.2-1.7,9.7s0.6,7.8,1.7,9.8c1.1,2,2.9,3,5.5,3c2.5,0,4.3-1,5.4-3
				s1.7-5.2,1.7-9.7s-0.6-7.7-1.7-9.7s-2.9-3-5.4-3C213.9,406.5,212,407.5,210.9,409.5z"/>
			<path fill="#484C4E" d="M235.7,399H254v40.4h-10.5v-31.7h-7.8V399z"/>
		</g>
	</g>
	<g id="text_1_">
		<path fill="#484C4E" d="M202,441.8l1.9,0.8l-2.5,2l-1.6-0.2L202,441.8z M199.9,446.3h1.9V457h-1.9V446.3z"/>
		<path fill="#484C4E" d="M214.3,447.4c0.7,0.7,1.1,1.7,1.1,3v6.6h-1.9v-6.1c0-0.9-0.3-1.6-0.8-2.1s-1.2-0.8-2.1-0.8
			c-1,0-1.7,0.3-2.3,0.9c-0.6,0.6-0.9,1.4-1,2.3v5.7h-1.8v-10.6h1.9v2.3c0.7-1.5,2.1-2.3,4.1-2.3
			C212.6,446.3,213.6,446.6,214.3,447.4z"/>
		<path fill="#484C4E" d="M228.7,442v15h-1.9v-2.1c-0.4,0.7-0.9,1.3-1.6,1.6s-1.5,0.6-2.4,0.6c-1,0-1.9-0.2-2.7-0.7
			c-0.8-0.5-1.4-1.1-1.8-1.9c-0.4-0.8-0.6-1.8-0.6-2.8s0.2-2,0.6-2.8c0.4-0.8,1-1.4,1.8-1.9c0.8-0.5,1.7-0.7,2.7-0.7
			c0.9,0,1.7,0.2,2.4,0.6s1.2,0.9,1.6,1.6v-6.4C226.8,442,228.7,442,228.7,442z M225.1,455c0.5-0.3,1-0.8,1.3-1.3
			c0.3-0.6,0.5-1.2,0.5-2c0-0.7-0.2-1.4-0.5-2c-0.3-0.6-0.7-1-1.3-1.4s-1.2-0.5-1.9-0.5s-1.3,0.2-1.9,0.5c-0.6,0.3-1,0.8-1.3,1.4
			c-0.3,0.6-0.5,1.2-0.5,2c0,0.7,0.2,1.4,0.5,2c0.3,0.6,0.7,1,1.3,1.3s1.2,0.5,1.9,0.5S224.5,455.3,225.1,455z"/>
		<path fill="#484C4E" d="M234.2,442.4c0.2,0.2,0.3,0.5,0.3,0.9c0,0.4-0.1,0.6-0.3,0.9c-0.2,0.2-0.5,0.3-0.8,0.3s-0.6-0.1-0.8-0.3
			c-0.2-0.2-0.3-0.5-0.3-0.9c0-0.4,0.1-0.6,0.3-0.9c0.2-0.3,0.5-0.3,0.8-0.3S234,442.2,234.2,442.4z M232.4,446.3h1.9V457h-1.9
			V446.3z"/>
		<path fill="#484C4E" d="M242.4,447.9c-0.7,0-1.3,0.2-1.9,0.5c-0.5,0.3-1,0.7-1.3,1.3s-0.5,1.2-0.5,2c0,0.7,0.2,1.4,0.5,2
			s0.7,1,1.3,1.3c0.5,0.3,1.1,0.5,1.8,0.5s1.3-0.1,1.9-0.3c0.6-0.2,1-0.6,1.4-1l1.1,1.1c-0.5,0.6-1.1,1.1-1.8,1.4
			c-0.7,0.3-1.6,0.5-2.5,0.5c-1,0-2-0.2-2.8-0.7c-0.8-0.5-1.4-1.1-1.9-1.9c-0.4-0.8-0.7-1.7-0.7-2.8c0-1.1,0.2-2,0.7-2.8
			s1.1-1.5,1.9-1.9c0.8-0.5,1.7-0.7,2.8-0.7c0.9,0,1.7,0.1,2.4,0.4c0.7,0.3,1.3,0.7,1.8,1.2l-1,1.3
			C244.6,448.4,243.6,447.9,242.4,447.9z"/>
		<path fill="#484C4E" d="M256.8,447.7c0.8,1,1.3,2.3,1.3,4.1c0,0.3,0,0.5,0,0.6h-8.4c0.1,1,0.5,1.7,1.2,2.3
			c0.7,0.6,1.5,0.8,2.4,0.8c0.6,0,1.2-0.1,1.8-0.3c0.5-0.2,1-0.6,1.4-1l1,1.1c-0.5,0.6-1.2,1-1.9,1.3c-0.7,0.3-1.6,0.5-2.5,0.5
			c-1,0-2-0.2-2.8-0.7s-1.4-1.1-1.9-1.9c-0.5-0.8-0.7-1.8-0.7-2.8s0.2-2,0.7-2.8c0.4-0.8,1.1-1.4,1.9-1.9s1.7-0.7,2.8-0.7
			C254.8,446.3,256,446.8,256.8,447.7z M256.4,450.9c-0.1-1-0.4-1.7-1-2.3c-0.6-0.6-1.4-0.8-2.3-0.8c-0.9,0-1.7,0.3-2.3,0.8
			c-0.6,0.6-1,1.3-1.1,2.3H256.4z"/>
	</g>
</g>
</svg>
